<svg width="24" height="24" viewBox="0 0 24 24" xmlns="http://www.w3.org/2000/svg"><title>61710163-11F9-4749-97D9-B074BA43886D</title><desc>Created with sketchtool.</desc><path d="M23 5.655c-3.008 1.475-4.511 3.208-4.511 5.2 1.282.148 2.342.67 3.18 1.567.838.897 1.257 1.936 1.257 3.116 0 1.254-.407 2.311-1.22 3.171-.814.86-1.837 1.291-3.069 1.291-1.38 0-2.576-.559-3.587-1.678-1.011-1.119-1.516-2.477-1.516-4.075 0-4.794 2.687-8.543 8.061-11.247l1.405 2.655zm-13.534 0c-3.032 1.475-4.548 3.208-4.548 5.2 1.307.148 2.379.67 3.217 1.567.838.897 1.257 1.936 1.257 3.116 0 1.254-.413 2.311-1.239 3.171-.826.86-1.855 1.291-3.088 1.291-1.38 0-2.57-.559-3.568-1.678-.998-1.119-1.498-2.477-1.498-4.075 0-4.794 2.675-8.543 8.024-11.247l1.442 2.655z" fill="#2B3138"/></svg>