<svg xmlns="http://www.w3.org/2000/svg" width="20" height="20" viewBox="0 0 20 20">
    <g fill="none" fill-rule="evenodd">
        <g fill="#FFF" fill-rule="nonzero">
            <g>
                <g>
                    <g>
                        <g>
                            <g>
                                <path d="M3.404 17.5V7.607h3.022V17.5H3.404M6.521 4.868c.023.85-.614 1.535-1.63 1.535-.944 0-1.558-.685-1.558-1.535 0-.874.638-1.535 1.606-1.535.968 0 1.582.661 1.582 1.535M14.454 17.5v-5.478c0-1.275-.425-2.148-1.535-2.148-.826 0-1.322.59-1.558 1.157-.07.212-.094.495-.094.779v5.69H8.244v-6.73c0-1.227-.047-2.266-.07-3.163h2.62L10.936 9h.047c.402-.661 1.393-1.606 3.023-1.606 1.983 0 3.494 1.346 3.494 4.274V17.5h-3.046" transform="translate(-960 -6531) translate(345 6271) translate(112 247) translate(264 7) translate(235 2) translate(4 4)"/>
                            </g>
                        </g>
                    </g>
                </g>
            </g>
        </g>
    </g>
</svg>
