<svg xmlns="http://www.w3.org/2000/svg" width="20" height="20" viewBox="0 0 20 20">
    <g fill="none" fill-rule="evenodd">
        <g fill="#FFF">
            <g>
                <g>
                    <g>
                        <g>
                            <g>
                                <path d="M17.5 5.646c-.552.25-1.144.42-1.767.497.636-.39 1.122-1.01 1.353-1.746-.596.362-1.254.625-1.956.767-.561-.615-1.36-.997-2.245-.997-1.7 0-3.078 1.413-3.078 3.156 0 .247.028.488.08.719C7.33 7.91 5.063 6.653 3.545 4.744 3.28 5.209 3.13 5.75 3.13 6.33c0 1.096.544 2.062 1.368 2.627-.504-.017-.978-.16-1.393-.396v.04c0 1.529 1.06 2.805 2.468 3.095-.258.071-.53.11-.811.11-.199 0-.391-.02-.58-.058.392 1.255 1.528 2.167 2.874 2.192-1.052.847-2.38 1.35-3.821 1.35-.248 0-.493-.016-.734-.044 1.362.898 2.979 1.42 4.717 1.42 5.66 0 8.754-4.81 8.754-8.98l-.01-.41c.604-.442 1.128-.998 1.539-1.63z" transform="translate(-912 -6531) translate(345 6271) translate(112 247) translate(264 7) translate(187 2) translate(4 4)"/>
                            </g>
                        </g>
                    </g>
                </g>
            </g>
        </g>
    </g>
</svg>
