<svg xmlns="http://www.w3.org/2000/svg" width="20" height="20" viewBox="0 0 20 20"><path fill="#FFF" d="M5.923 4c.6 0 1.146.05 1.64.151.494.101.917.267 1.27.496.352.23.625.535.819.916.194.381.29.852.29 1.412 0 .605-.143 1.11-.431 1.512-.288.404-.714.734-1.278.992.775.213 1.354.586 1.736 1.118.382.532.573 1.174.573 1.924 0 .605-.123 1.129-.37 1.572a3.107 3.107 0 0 1-.996 1.083c-.417.28-.893.488-1.428.623a6.741 6.741 0 0 1-1.648.201h-6.1v-12h5.923zm-.352 4.857c.493 0 .899-.112 1.216-.336.318-.224.476-.588.476-1.092 0-.28-.053-.51-.158-.69a1.144 1.144 0 0 0-.424-.42c-.176-.1-.379-.17-.608-.21a4.24 4.24 0 0 0-.714-.058h-2.591v2.806h2.802zm.158 5.093c.27 0 .53-.026.776-.076.247-.05.464-.135.652-.252.188-.118.338-.278.45-.48.112-.2.167-.459.167-.772 0-.616-.182-1.056-.546-1.32-.365-.263-.846-.395-1.446-.395h-3.014v3.294h2.961zm8.297-.252c.376.347.916.52 1.621.52.506 0 .94-.12 1.305-.36.364-.241.588-.496.67-.766h2.203c-.352 1.042-.893 1.788-1.621 2.236-.73.448-1.61.672-2.645.672-.717 0-1.363-.11-1.94-.328a4.044 4.044 0 0 1-1.462-.933 4.165 4.165 0 0 1-.926-1.445 5.066 5.066 0 0 1-.326-1.849c0-.65.111-1.254.335-1.814a4.23 4.23 0 0 1 .952-1.454 4.492 4.492 0 0 1 1.472-.967 4.92 4.92 0 0 1 1.895-.353c.776 0 1.452.143 2.028.429.575.286 1.049.67 1.419 1.151.37.482.637 1.031.802 1.647.165.617.223 1.26.176 1.933h-6.574c.035.773.24 1.333.617 1.68zm2.829-4.572c-.3-.313-.755-.47-1.366-.47-.4 0-.732.064-.996.193-.265.129-.476.288-.635.479a1.73 1.73 0 0 0-.335.605 2.619 2.619 0 0 0-.114.571h4.072c-.118-.605-.326-1.064-.626-1.378zm-3.874-4.516h5.088v1.345h-5.088v-1.345z"/></svg>