<svg xmlns="http://www.w3.org/2000/svg" width="20" height="20" viewBox="0 0 20 20"><path fill="#FFF" fill-rule="evenodd" d="M19 4.776a7.213 7.213 0 0 1-2.12.596 3.778 3.778 0 0 0 1.623-2.095 7.273 7.273 0 0 1-2.346.918 3.642 3.642 0 0 0-2.695-1.195c-2.038 0-3.692 1.696-3.692 3.787 0 .296.032.585.095.862-3.069-.158-5.79-1.664-7.612-3.958a3.856 3.856 0 0 0-.5 1.906c0 1.313.652 2.472 1.643 3.152a3.626 3.626 0 0 1-1.673-.473v.047c0 1.835 1.273 3.366 2.963 3.713-.31.089-.636.133-.973.133-.238 0-.47-.023-.695-.067.47 1.504 1.833 2.599 3.45 2.628a7.292 7.292 0 0 1-5.468 1.57 10.282 10.282 0 0 0 5.66 1.7c6.794 0 10.508-5.77 10.508-10.774l-.01-.49a7.58 7.58 0 0 0 1.842-1.96"/></svg>