<svg xmlns="http://www.w3.org/2000/svg" xmlns:xlink="http://www.w3.org/1999/xlink" width="788" height="269" viewBox="0 0 788 269"><defs><path id="b" d="M1065 291.983l.067.003c8.581.382 15.227 7.648 14.845 16.228-.011.246-.028.492-.05.737l-14.862 161.097v-178.065zm-5.841 241.379l-.139 1.512c-.764 8.281-7.907 14.496-16.214 14.106l-255.636-11.98h261.831c3.857 0 7.396-1.365 10.159-3.638zm-743.159-18.711c-7.137-1.691-12.288-8.267-11.932-15.86.016-.338.043-.676.081-1.012l11.852-105.264v122.135z"/><filter id="a" width="102.4%" height="107.4%" x="-1.2%" y="-3.3%" filterUnits="objectBoundingBox"><feOffset dy="1" in="SourceAlpha" result="shadowOffsetOuter1"/><feGaussianBlur in="shadowOffsetOuter1" result="shadowBlurOuter1" stdDeviation="3"/><feComposite in="shadowBlurOuter1" in2="SourceAlpha" operator="out" result="shadowBlurOuter1"/><feColorMatrix in="shadowBlurOuter1" values="0 0 0 0 0 0 0 0 0 0 0 0 0 0 0 0 0 0 0.08 0"/></filter></defs><g transform="translate(-298 -287)" fill="none"><use fill="#000" filter="url(#a)" xlink:href="#b"/><path fill="#FFF" stroke="#D9DBDE" stroke-linejoin="square" stroke-width=".972" d="M1065.486 292.497v166.992l13.892-150.583c.022-.238.038-.476.049-.714.363-8.165-5.843-15.101-13.941-15.695zm-6.913 241.926c-2.765 1.976-6.086 3.062-9.573 3.062h-241.078l234.906 11.009c8.047.377 14.967-5.643 15.708-13.665l.037-.406zm-743.059-20.4v-112.847l-10.883 96.657c-.037.326-.063.653-.078.98-.331 7.06 4.283 13.336 10.961 15.21z"/></g></svg>