<?xml version="1.0" encoding="UTF-8"?>
<svg width="288px" height="441px" viewBox="0 0 288 441" version="1.1" xmlns="http://www.w3.org/2000/svg" xmlns:xlink="http://www.w3.org/1999/xlink">
    <title>Ticket</title>
    <defs>
        <path d="M260,-4.54747351e-13 C265.522847,-4.55761882e-13 270,4.4771525 270,10 L270,44 L270,44 C267.238576,44 265,46.2385763 265,49 C265,51.7614237 267.238576,54 270,54 L270,413 C270,418.522847 265.522847,423 260,423 L10,423 C4.4771525,423 6.76353751e-16,418.522847 0,413 L0,54.0000008 L0,54.0000008 C2.76142375,54.0000008 5,51.7614245 5,49.0000008 C5,46.238577 2.76142375,44.0000008 0,44.0000008 L0,10 C-6.76353751e-16,4.4771525 4.4771525,-4.5373282e-13 10,-4.54747351e-13 L260,-4.54747351e-13 Z" id="path-1"></path>
        <filter x="-5.4%" y="-3.0%" width="110.7%" height="106.9%" filterUnits="objectBoundingBox" id="filter-2">
            <feOffset dx="0" dy="2" in="SourceAlpha" result="shadowOffsetOuter1"></feOffset>
            <feGaussianBlur stdDeviation="4.5" in="shadowOffsetOuter1" result="shadowBlurOuter1"></feGaussianBlur>
            <feComposite in="shadowBlurOuter1" in2="SourceAlpha" operator="out" result="shadowBlurOuter1"></feComposite>
            <feColorMatrix values="0 0 0 0 0   0 0 0 0 0   0 0 0 0 0  0 0 0 0.12 0" type="matrix" in="shadowBlurOuter1"></feColorMatrix>
        </filter>
    </defs>
    <g id="Culture" stroke="none" stroke-width="1" fill="none" fill-rule="evenodd">
        <g id="Culture---UI---Mobile" transform="translate(-16.000000, -4623.000000)">
            <g id="Where-we've-been-to" transform="translate(-290.000000, 4480.000000)">
                <g id="E-Ticket" transform="translate(315.000000, 150.000000)">
                    <g id="Ticket" transform="translate(0.000000, -0.000001)">
                        <g id="Combined-Shape">
                            <use fill="black" fill-opacity="1" filter="url(#filter-2)" xlink:href="#path-1"></use>
                            <path stroke="#D9DBDE" stroke-width="1" d="M260,0.5 C262.623353,0.5 264.998353,1.56332372 266.717514,3.28248558 C268.436676,5.00164744 269.5,7.37664744 269.5,10 L269.5,10 L269.5,43.5224215 C268.180716,43.6413086 266.995764,44.226061 266.110913,45.1109127 C265.115608,46.1062169 264.5,47.4812169 264.5,49 C264.5,50.5187831 265.115608,51.8937831 266.110913,52.8890873 C266.995764,53.773939 268.180716,54.3586914 269.5,54.4775785 L269.5,54.4775785 L269.5,413 C269.5,415.623353 268.436676,417.998353 266.717514,419.717514 C264.998353,421.436676 262.623353,422.5 260,422.5 L260,422.5 L10,422.5 C7.37664744,422.5 5.00164744,421.436676 3.28248558,419.717514 C1.56332372,417.998353 0.5,415.623353 0.5,413 L0.5,413 L0.5,54.4775793 C1.81928449,54.3586922 3.00423557,53.7739398 3.8890873,52.8890881 C4.88439153,51.8937838 5.5,50.5187838 5.5,49.0000008 C5.5,47.4812177 4.88439153,46.1062177 3.8890873,45.1109135 C3.00423557,44.2260617 1.81928449,43.6413094 0.5,43.5224223 L0.5,43.5224223 L0.5,10 C0.5,7.37664744 1.56332372,5.00164744 3.28248558,3.28248558 C5.00164744,1.56332372 7.37664744,0.5 10,0.5 L10,0.5 Z" stroke-linejoin="square" fill="#FFFFFF" fill-rule="evenodd"></path>
                        </g>
                        <g id="Header" transform="translate(0.000000, 0.000001)">
                            <path d="M260,0 C265.522847,-1.01453063e-15 270,4.4771525 270,10 L270,44 L270,44 C267.238576,44 265,46.2385763 265,49 C265,49.342885 265.034515,49.6777087 265.100259,50.0011864 L4.89974091,50.0011864 C4.9654854,49.6777087 5,49.342885 5,49 C5,46.2385763 2.76142375,44 0,44 L0,10 C-6.76353751e-16,4.4771525 4.4771525,1.01453063e-15 10,0 L260,0 Z" id="Combined-Shape" fill="#AAAEB3"></path>
                            <path d="M179.164,28 C180.916,28 182.032,27.076 182.032,25.528 C182.032,24.388 181.396,23.704 180.58,23.404 C181.108,23.164 181.636,22.54 181.636,21.76 C181.636,20.38 180.58,19.6 179.02,19.6 L175.828,19.6 L175.828,28 L179.164,28 Z M178.936,22.948 L177.232,22.948 L177.232,20.752 L178.924,20.752 C179.836,20.752 180.292,21.136 180.292,21.856 C180.292,22.564 179.836,22.948 178.936,22.948 Z M178.996,26.764 L177.232,26.764 L177.232,24.16 L178.996,24.16 C180.124,24.16 180.664,24.616 180.664,25.468 C180.664,26.32 180.124,26.764 178.996,26.764 Z M186.04,28.096 C187.852,28.096 189.16,26.788 189.16,24.976 C189.16,23.164 187.852,21.856 186.04,21.856 C184.216,21.856 182.92,23.164 182.92,24.976 C182.92,26.788 184.216,28.096 186.04,28.096 Z M186.04,26.956 C184.96,26.956 184.24,26.14 184.24,24.976 C184.24,23.812 184.96,22.996 186.04,22.996 C187.108,22.996 187.84,23.812 187.84,24.976 C187.84,26.14 187.108,26.956 186.04,26.956 Z M192.052,28.096 C192.856,28.096 193.6,27.688 193.948,27.076 L193.948,28 L195.232,28 L195.232,24.232 C195.232,22.72 194.176,21.856 192.64,21.856 C191.356,21.856 190.324,22.636 190.132,23.824 L191.308,24.04 C191.392,23.32 191.908,22.888 192.64,22.888 C193.432,22.888 193.948,23.344 193.948,24.088 L193.948,24.172 L192.808,24.292 C190.948,24.484 190.024,25.12 190.024,26.308 C190.024,27.34 190.852,28.096 192.052,28.096 Z M192.316,27.088 C191.704,27.088 191.308,26.752 191.308,26.272 C191.308,25.744 191.812,25.384 192.796,25.276 L193.948,25.144 L193.948,25.396 C193.936,26.38 193.336,27.088 192.316,27.088 Z M198.076,28 L198.076,25.744 C198.076,23.872 198.856,23.08 199.744,23.08 C200.02,23.08 200.308,23.128 200.524,23.224 L200.596,21.964 C200.416,21.892 200.152,21.856 199.924,21.856 C199.192,21.856 198.4,22.384 198.076,23.104 L198.076,21.952 L196.768,21.952 L196.768,28 L198.076,28 Z M203.848,28.096 C204.652,28.096 205.384,27.736 205.672,27.232 L205.672,28 L206.98,28 L206.98,19.504 L205.672,19.504 L205.672,22.708 C205.312,22.204 204.604,21.856 203.824,21.856 C202,21.856 200.956,23.152 200.956,24.976 C200.956,26.8 202,28.096 203.848,28.096 Z M204.016,26.956 C202.96,26.956 202.264,26.164 202.264,24.976 C202.264,23.776 202.96,22.996 204.016,22.996 C205.072,22.996 205.768,23.776 205.768,24.976 C205.768,26.164 205.072,26.956 204.016,26.956 Z M209.176,20.944 C209.668,20.944 210.04,20.572 210.04,20.104 C210.04,19.624 209.668,19.252 209.176,19.252 C208.696,19.252 208.336,19.624 208.336,20.104 C208.336,20.572 208.696,20.944 209.176,20.944 Z M209.836,28 L209.836,21.952 L208.528,21.952 L208.528,28 L209.836,28 Z M212.692,28 L212.692,25.348 C212.692,23.896 213.304,23.032 214.324,23.032 C215.092,23.032 215.56,23.56 215.56,24.316 L215.56,28 L216.868,28 L216.868,24.016 C216.868,22.708 215.968,21.856 214.684,21.856 C213.796,21.856 213.1,22.312 212.692,22.96 L212.692,21.952 L211.384,21.952 L211.384,28 L212.692,28 Z M221.068,30.28 C222.808,30.28 223.996,29.224 223.996,27.664 L223.996,21.952 L222.7,21.952 L222.7,22.648 C222.352,22.18 221.656,21.856 220.888,21.856 C219.112,21.856 218.08,23.092 218.08,24.844 C218.08,26.596 219.112,27.832 220.912,27.832 C221.704,27.832 222.412,27.52 222.712,27.064 L222.712,27.796 C222.712,28.636 222.04,29.212 221.068,29.212 C220.276,29.212 219.64,28.816 219.568,28.216 L218.344,28.42 C218.536,29.524 219.652,30.28 221.068,30.28 Z M221.092,26.692 C220.06,26.692 219.388,25.96 219.388,24.844 C219.388,23.728 220.06,22.996 221.092,22.996 C222.112,22.996 222.784,23.728 222.784,24.844 C222.784,25.96 222.112,26.692 221.092,26.692 Z M229.888,28 L229.888,24.616 L231.784,24.616 C233.452,24.616 234.532,23.632 234.532,22.108 C234.532,20.584 233.452,19.6 231.784,19.6 L228.472,19.6 L228.472,28 L229.888,28 Z M231.688,23.392 L229.888,23.392 L229.888,20.824 L231.688,20.824 C232.576,20.824 233.104,21.304 233.104,22.108 C233.104,22.912 232.576,23.392 231.688,23.392 Z M237.004,28.096 C237.808,28.096 238.552,27.688 238.9,27.076 L238.9,28 L240.184,28 L240.184,24.232 C240.184,22.72 239.128,21.856 237.592,21.856 C236.308,21.856 235.276,22.636 235.084,23.824 L236.26,24.04 C236.344,23.32 236.86,22.888 237.592,22.888 C238.384,22.888 238.9,23.344 238.9,24.088 L238.9,24.172 L237.76,24.292 C235.9,24.484 234.976,25.12 234.976,26.308 C234.976,27.34 235.804,28.096 237.004,28.096 Z M237.268,27.088 C236.656,27.088 236.26,26.752 236.26,26.272 C236.26,25.744 236.764,25.384 237.748,25.276 L238.9,25.144 L238.9,25.396 C238.888,26.38 238.288,27.088 237.268,27.088 Z M243.808,28.096 C245.176,28.096 246.088,27.292 246.088,26.248 C246.088,23.764 242.692,24.652 242.692,23.488 C242.692,23.092 243.052,22.864 243.628,22.864 C244.18,22.864 244.744,23.2 244.9,23.8 L245.98,23.344 C245.716,22.456 244.756,21.856 243.616,21.856 C242.308,21.856 241.48,22.564 241.48,23.512 C241.48,25.804 244.852,24.952 244.852,26.26 C244.852,26.692 244.432,27.052 243.808,27.052 C242.968,27.052 242.5,26.512 242.296,25.864 L241.216,26.32 C241.492,27.184 242.332,28.096 243.808,28.096 Z M249.352,28.096 C250.72,28.096 251.632,27.292 251.632,26.248 C251.632,23.764 248.236,24.652 248.236,23.488 C248.236,23.092 248.596,22.864 249.172,22.864 C249.724,22.864 250.288,23.2 250.444,23.8 L251.524,23.344 C251.26,22.456 250.3,21.856 249.16,21.856 C247.852,21.856 247.024,22.564 247.024,23.512 C247.024,25.804 250.396,24.952 250.396,26.26 C250.396,26.692 249.976,27.052 249.352,27.052 C248.512,27.052 248.044,26.512 247.84,25.864 L246.76,26.32 C247.036,27.184 247.876,28.096 249.352,28.096 Z" id="BoardingPass" fill="#FFFFFF" fill-rule="nonzero"></path>
                            <g id="Group" transform="translate(15.230769, 15.769231)" fill="#FFFFFF" fill-rule="nonzero">
                                <g id="Group">
                                    <path d="M22.2362791,9.3544186 C21.6613953,8.74976744 20.9655814,8.35348837 20.1562791,8.15255814 C20.9525581,7.94790698 21.6409302,7.54790698 22.2195349,6.93953488 C23.0827907,6.03348837 23.5125581,4.89674419 23.5218665,3.53488372 L21.2967442,3.53488372 C21.2930233,4.31627907 21.0716279,4.9544186 20.6325581,5.45488372 C20.1897674,5.95906977 19.6074419,6.21023256 18.8874419,6.21023256 C18.1786047,6.21023256 17.5962791,5.9572093 17.1423256,5.45488372 C16.6902326,4.95627907 16.4651163,4.31627907 16.4613953,3.53488372 L14.2306977,3.53488372 C14.2306977,4.92465116 14.6604651,6.06697674 15.52,6.9655814 C16.0967442,7.56837209 16.7906977,7.9627907 17.5981395,8.16 C16.8204651,8.36651163 16.1339535,8.76465116 15.5516279,9.37116279 C14.6716279,10.2883721 14.2306977,11.44 14.2306977,12.827907 L16.4595349,12.827907 C16.4595349,12.8223256 16.4576744,12.8167442 16.4576744,12.8111628 C16.4576744,12.024186 16.6809302,11.3748837 17.1237209,10.8669767 C17.5665116,10.3572093 18.1488372,10.1004651 18.8688372,10.1004651 C19.5776744,10.1004651 20.16,10.3590698 20.6139535,10.8744186 C21.067907,11.3897674 21.2967442,12.0372093 21.2967442,12.8111628 C21.2967442,12.8167442 21.2948837,12.8223256 21.2948837,12.827907 L23.52,12.827907 C23.52,12.8148837 23.5218665,12.8055814 23.5218665,12.7944186 C23.5237209,11.4046512 23.095814,10.2586047 22.2362791,9.3544186" id="Path"></path>
                                    <path d="M2.95255814,6.21953488 C2.49116279,6.73488372 2.25674419,7.39162791 2.25674419,8.19162791 C2.25674419,8.99162791 2.49488372,9.64465116 2.96930233,10.1562791 C3.44372093,10.6660465 4.06325581,10.9190698 4.82790698,10.9190698 C5.60372093,10.9190698 6.22325581,10.664186 6.68651163,10.1562791 C7.14790698,9.64651163 7.38232558,8.99162791 7.38232558,8.19162791 C7.38232558,7.39162791 7.14418605,6.73488372 6.66976744,6.21953488 C6.19534884,5.70418605 5.57581395,5.44744186 4.81116279,5.44744186 C4.03348837,5.44744186 3.41395349,5.70604651 2.95255814,6.21953488 M2.3255814,12.0818605 L2.3255814,15.867907 L0,15.867907 L0,3.53488372 L2.20465116,3.53488372 L2.20465116,4.42232558 C2.90046512,3.72651163 3.84930233,3.38046512 5.05302326,3.38046512 C6.45581395,3.38046512 7.58139535,3.82325581 8.43162791,4.71069767 C9.28186047,5.59627907 9.70790698,6.74604651 9.70790698,8.15813953 C9.70790698,9.53674419 9.2744186,10.6865116 8.41488372,11.6074419 C7.55162791,12.5283721 6.39627907,12.987907 4.94883721,12.987907 C3.90697674,12.9860465 3.03255814,12.6846512 2.3255814,12.0818605" id="Shape"></path>
                                    <path d="M12.9581395,12.8297674 L10.6288372,12.8297674 L10.6288372,3.53488372 L12.9581395,3.53488372 L12.9581395,12.8297674 Z M11.7934884,2.94697674 C11.412093,2.94697674 11.0827907,2.81302326 10.8111628,2.54883721 C10.5395349,2.28093023 10.4037209,1.95906977 10.4037209,1.57581395 C10.4037209,1.18139535 10.5395349,0.848372093 10.8111628,0.576744186 C11.0827907,0.305116279 11.412093,0.169302326 11.7934884,0.169302326 C12.187907,0.169302326 12.5172093,0.305116279 12.7832558,0.576744186 C13.0511628,0.848372093 13.1813953,1.18139535 13.1813953,1.57581395 C13.1813953,1.9572093 13.0474419,2.2827907 12.7832558,2.54883721 C12.5172093,2.81302326 12.1860465,2.94697674 11.7934884,2.94697674" id="Shape"></path>
                                    <path d="M28.3013953,5.34325581 C27.7227907,5.34325581 27.2502326,5.5144186 26.8874419,5.85674419 C26.5227907,6.1972093 26.3106977,6.64186047 26.2530233,7.18697674 L30.455814,7.18697674 C30.3981395,6.64186047 30.1786047,6.20093023 29.7953488,5.85674419 C29.4139535,5.51255814 28.9172093,5.34325581 28.3013953,5.34325581 M32.8372093,8.93767442 L26.2009302,8.93767442 C26.2586047,9.54976744 26.4930233,10.0334884 26.9060465,10.3888372 C27.3172093,10.7423256 27.8511628,10.9190698 28.5134884,10.9190698 C29.4865116,10.9190698 30.267907,10.4576744 30.8595349,9.52930233 L32.5786047,10.5711628 C32.2548837,11.2539535 31.7544186,11.8288372 31.0772093,12.2902326 C30.4,12.7534884 29.5460465,12.9860465 28.5153488,12.9860465 C27.0902326,12.9860465 25.9404651,12.5562791 25.067907,11.6930233 C24.1934884,10.8297674 23.7562791,9.66883721 23.7562791,8.21023256 C23.7562791,6.80930233 24.1823256,5.65395349 25.0325581,4.74418605 C25.8827907,3.8344186 26.9823256,3.38046512 28.3237209,3.38046512 C29.7134884,3.38046512 30.8204651,3.7972093 31.6409302,4.63255814 C32.4632558,5.46604651 32.8744186,6.58418605 32.8744186,7.98511628 C32.8706977,8.35348837 32.8595349,8.67162791 32.8372093,8.93767442" id="Shape"></path>
                                    <rect id="Rectangle" x="33.8976744" y="0.132093023" width="2.32930233" height="12.6976744"></rect>
                                    <path d="M46.5116279,3.43255814 C45.5386047,3.43255814 44.7627907,3.76744186 44.1823256,4.43906977 C43.707907,3.76744186 42.9730233,3.43255814 41.975814,3.43255814 C41.0827907,3.43255814 40.4167442,3.70046512 39.9776744,4.23255814 L39.9776744,3.53488372 L37.6483721,3.53488372 L37.6483721,12.827907 L39.9776744,12.827907 L39.9776744,7.00837209 C39.9776744,6.53395349 40.0874419,6.16372093 40.3088372,5.89767442 C40.5265116,5.63348837 40.8409302,5.49953488 41.2465116,5.49953488 C41.6409302,5.49953488 41.944186,5.63162791 42.1581395,5.89767442 C42.372093,6.1655814 42.48,6.5227907 42.48,6.97488372 L42.48,12.827907 L44.8093023,12.827907 L44.8093023,6.97488372 C44.8093023,6.53395349 44.9153488,6.17674419 45.1311628,5.90697674 C45.3451163,5.63534884 45.655814,5.49953488 46.0595349,5.49953488 C46.4651163,5.49953488 46.7739535,5.62976744 46.987907,5.89023256 C47.2018605,6.15069767 47.307907,6.51348837 47.307907,6.97674419 L47.307907,12.8297674 L49.6353488,12.8297674 L49.6353488,6.69767442 C49.6353488,5.72465116 49.384186,4.93767442 48.88,4.33488372 C48.3776744,3.73209302 47.5888372,3.43255814 46.5116279,3.43255814 Z" id="Path"></path>
                                    <path d="M58.027907,4.40372093 C57.7506977,4.09116279 57.3637209,3.84186047 56.8725581,3.65767442 C56.3795349,3.47348837 55.8511628,3.38046512 55.2837209,3.38046512 C53.8697674,3.38046512 52.7237209,3.83255814 51.8437209,4.73674419 C50.9637209,5.64093023 50.5246512,6.78697674 50.5246512,8.17674419 C50.5246512,9.61302326 50.9637209,10.772093 51.8437209,11.6595349 C52.7237209,12.5469767 53.8716279,12.9897674 55.2837209,12.9897674 C55.9553488,12.9897674 56.5302326,12.88 57.012093,12.6586047 C57.4939535,12.4409302 57.8437209,12.1897674 58.0632558,11.9125581 L58.0632558,12.8316279 L60.2325581,12.8316279 L60.2325581,3.53860465 L58.0260465,3.53860465 L58.0260465,4.40372093 L58.027907,4.40372093 Z M57.2818605,10.1469767 C56.8204651,10.6623256 56.2009302,10.9190698 55.4232558,10.9190698 C54.6604651,10.9190698 54.0409302,10.6623256 53.5646512,10.1469767 C53.0902326,9.63162791 52.852093,8.97488372 52.852093,8.17488372 C52.852093,7.38790698 53.0883721,6.73674419 53.5553488,6.22139535 C54.024186,5.70790698 54.6455814,5.44930233 55.4213953,5.44930233 C56.1618605,5.44930233 56.772093,5.70604651 57.2539535,6.22139535 C57.735814,6.73674419 57.9758249,7.38790698 57.9758249,8.17488372 C57.9776744,8.97302326 57.7432558,9.63162791 57.2818605,10.1469767 Z" id="Shape"></path>
                                    <path d="M69.5962791,2.07627907 L67.2669767,2.07627907 L67.2669767,3.53488372 L64.3851163,3.53488372 L64.3851163,2.07627907 L62.0613953,2.07627907 L62.0613953,3.53488372 L61.1925581,3.53488372 L61.1925581,5.49953488 L62.0613953,5.49953488 L62.0613953,10.4855814 C62.0613953,12.107907 62.8893023,12.9190698 64.5451163,12.9190698 C64.775814,12.9190698 64.9953488,12.9097674 65.1962791,12.8930233 C65.3972093,12.8762791 65.5534884,12.855814 65.655814,12.8316279 L65.812093,12.7981395 L65.812093,10.8167442 L65.2725581,10.8167442 C64.9488372,10.8167442 64.7181395,10.7386047 64.5860465,10.5804651 C64.452093,10.424186 64.3869767,10.1730233 64.3869767,9.82511628 L64.3869767,5.49767442 L67.2688372,5.49767442 L67.2688372,10.4837209 C67.2688372,12.1060465 68.0948837,12.9172093 69.7525581,12.9172093 C69.9832558,12.9172093 70.2027907,12.907907 70.4037209,12.8911628 C70.6046512,12.8744186 70.7609302,12.8539535 70.8632558,12.8297674 L71.0195349,12.7962791 L71.0195349,10.8148837 L70.48,10.8148837 C70.1562791,10.8148837 69.9255814,10.7367442 69.7934884,10.5786047 C69.6595349,10.4223256 69.5944186,10.1711628 69.5944186,9.82325581 L69.5944186,5.49581395 L71.0195349,5.49581395 L71.0195349,3.53488372 L69.5944186,3.53488372 L69.5944186,2.07627907 L69.5962791,2.07627907 Z" id="Path"></path>
                                    <path d="M76.1190698,3.38046512 C74.775814,3.38046512 73.6781395,3.8344186 72.827907,4.74418605 C71.9776744,5.65395349 71.5516279,6.80744186 71.5516279,8.21023256 C71.5516279,9.66883721 71.9888372,10.8297674 72.8632558,11.6930233 C73.7376744,12.5562791 74.8855814,12.9860465 76.3106977,12.9860465 C77.3413953,12.9860465 78.1953488,12.7534884 78.8725581,12.2902326 C79.5497674,11.8269767 80.0502326,11.2539535 80.3739535,10.5711628 L78.6548837,9.52930233 C78.0632558,10.455814 77.2818605,10.9190698 76.3088372,10.9190698 C75.6465116,10.9190698 75.1125581,10.7423256 74.7013953,10.3888372 C74.2902326,10.0353488 74.0539535,9.55162791 73.9962791,8.93767442 L80.6325581,8.93767442 C80.6548837,8.67348837 80.6660465,8.35348837 80.6697674,7.98511628 C80.6697674,6.58232558 80.2586047,5.46604651 79.4362791,4.63255814 C78.6139535,3.79906977 77.5069767,3.38046512 76.1190698,3.38046512 Z M74.0465116,7.18511628 C74.104186,6.64 74.3162791,6.1972093 74.6809302,5.85488372 C75.0455814,5.51255814 75.5181395,5.34139535 76.0967442,5.34139535 C76.7125581,5.34139535 77.2074419,5.51069767 77.5906977,5.85488372 C77.972093,6.19906977 78.1934884,6.64 78.2511628,7.18511628 L74.0465116,7.18511628 Z" id="Shape"></path>
                                    <path d="M84.0223256,4.2827907 L84.0223256,3.53488372 L81.6930233,3.53488372 L81.6930233,12.827907 L84.0223256,12.827907 L84.0223256,7.16465116 C84.0223256,6.74976744 84.1153488,6.43906977 84.2995349,6.23627907 C84.4837209,6.03534884 84.7962791,5.93302326 85.2372093,5.93302326 L85.8269767,5.93302326 L85.8269767,3.49953488 C84.9934884,3.50139535 84.3906977,3.76186047 84.0223256,4.2827907 Z" id="Path"></path>
                                    <path d="M92.4930233,8.20093023 C92.1395349,7.7655814 91.5739535,7.43255814 90.7981395,7.20186047 C90.6362791,7.15534884 90.4167442,7.09767442 90.1376744,7.02883721 C89.8604651,6.95813953 89.655814,6.90604651 89.5293023,6.87255814 C88.984186,6.72186047 88.7125581,6.43162791 88.7125581,6.00372093 C88.7125581,5.77302326 88.7981395,5.58325581 88.9674419,5.43813953 C89.1348837,5.29488372 89.3581395,5.22232558 89.6353488,5.22232558 C90.32,5.22232558 90.6716279,5.59813953 90.695814,6.34976744 L92.8316279,6.34976744 C92.8204651,5.38976744 92.5432558,4.65860465 91.9981395,4.16186047 C91.4548837,3.66325581 90.6846512,3.41581395 89.6893023,3.41581395 C88.7627907,3.41581395 88.0018605,3.67069767 87.4046512,4.17860465 C86.8093023,4.68837209 86.5097674,5.33581395 86.5097674,6.1227907 C86.5097674,7.48837209 87.1516279,8.4055814 88.4372093,8.86697674 C88.6213953,8.93767442 89.0902326,9.0772093 89.8437209,9.2855814 C90.1674419,9.37860465 90.4037209,9.49581395 90.5488372,9.63348837 C90.6939535,9.77302326 90.7646512,9.97581395 90.7646512,10.2418605 C90.7646512,10.507907 90.6604651,10.7144186 90.4539535,10.8595349 C90.2437209,11.0027907 89.9832558,11.0753488 89.6706977,11.0753488 C88.9172093,11.0753488 88.5432558,10.6567442 88.5432558,9.82325581 L86.32,9.82325581 C86.2865116,10.7274419 86.5302326,11.4753488 87.0586047,12.0651163 C87.5851163,12.6567442 88.4465116,12.9525581 89.6372093,12.9525581 C90.5972093,12.9525581 91.4009302,12.6976744 92.0502326,12.1897674 C92.6995349,11.68 93.0232558,10.9748837 93.0232558,10.0706977 C93.0232558,9.25767442 92.8465116,8.63627907 92.4930233,8.20093023 Z" id="Path"></path>
                                </g>
                            </g>
                        </g>
                    </g>
                </g>
            </g>
        </g>
    </g>
</svg>