<svg xmlns="http://www.w3.org/2000/svg" width="32" height="26" viewBox="0 0 32 26">
    <g fill="none" fill-rule="evenodd">
        <g fill="#111314" fill-rule="nonzero">
            <g>
                <g>
                    <g>
                        <path d="M106.23 60.168c-.318-1.058-1.086-3.135-1.22-4.108-.046-.334.08-.613.418-.737.45-.165 1.456-.078 2.045-.06.202-.018.422.142.518.3.035-.016 2.09 3.44 2.319 3.773 2.752-.183 5.545-.03 8.304-.024l-4.888-10.3c-.56-1.178 3.02-1.268 3.659-.579l9.86 10.876h5.074c1.048 0 4.718.246 4.681 1.706-.043 1.579-3.818 1.7-4.581 1.7l-5.173.002-9.865 10.88c-.454.504-4.304.75-3.658-.583l4.89-10.296c-2.752.005-5.568.195-8.306-.02-.412.6-2.31 3.76-2.318 3.767-.096.163-.316.323-.517.3-.436 0-1.79.003-1.793 0-.452.003-.728-.382-.672-.794.134-.972.906-3.05 1.223-4.105-.293-.071-1.13-.318-1.126-.85.005-.535.71-.706 1.126-.848z" transform="translate(-144 -4693) translate(-290 4429) translate(315 150) translate(14 66)"/>
                    </g>
                </g>
            </g>
        </g>
    </g>
</svg>
