<svg xmlns="http://www.w3.org/2000/svg" width="210" height="20" viewBox="0 0 210 20">
    <g fill="none" fill-rule="evenodd">
        <g fill="#111314" fill-rule="nonzero">
            <g>
                <g>
                    <g>
                        <g>
                            <path d="M93.918 9.293c-.237-.807-.81-2.394-.91-3.137-.035-.255.06-.468.311-.563.336-.126 1.088-.06 1.528-.046.15-.014.315.109.386.23.026-.013 1.56 2.626 1.732 2.881 2.056-.14 4.14-.023 6.201-.018L99.516.773c-.417-.9 2.255-.968 2.732-.442l7.363 8.307 3.79-.001c.782 0 3.523.188 3.495 1.303-.032 1.206-2.851 1.3-3.421 1.3h-3.863l-7.366 8.31c-.34.385-3.215.572-2.732-.445l3.652-7.864c-2.055.004-4.158.15-6.203-.015-.308.458-1.726 2.872-1.73 2.877-.073.124-.237.247-.387.23h-1.339c-.337.001-.544-.292-.502-.607.1-.743.677-2.33.913-3.136-.218-.054-.844-.243-.84-.648.003-.41.53-.54.84-.649zM10 10v1H0v-1h10zm20 0v1H20v-1h10zm20 0v1H40v-1h10zm20 0v1H60v-1h10zm17 0c0 .337.012.67.035 1H80v-1zm63 0v1h-10v-1h10zm20 0v1h-10v-1h10zm20 0v1h-10v-1h10zm20 0v1h-10v-1h10zm-80 0v1h-6.035c.023-.33.035-.663.035-1h6z" transform="translate(-684 -3251) translate(30 2899) translate(296 258) translate(248 54) translate(110 40)"/>
                        </g>
                    </g>
                </g>
            </g>
        </g>
    </g>
</svg>
