<?xml version="1.0" encoding="UTF-8"?>
<svg width="769px" height="298px" viewBox="0 0 769 298" version="1.1" xmlns="http://www.w3.org/2000/svg" xmlns:xlink="http://www.w3.org/1999/xlink">
    <title>Ticket</title>
    <defs>
        <path d="M181,0 C181,9.38884075 188.611159,17 198,17 C207.388841,17 215,9.38884075 215,0 L735,0 C743.836556,-1.623249e-15 751,7.163444 751,16 L751,264 C751,272.836556 743.836556,280 735,280 L215,280 L215,280 C215,270.611159 207.388841,263 198,263 C188.611159,263 181,270.611159 181,280 L16,280 C7.163444,280 1.082166e-15,272.836556 0,264 L0,16 C-1.082166e-15,7.163444 7.163444,1.623249e-15 16,0 L181,0 L181,0 Z" id="path-1"></path>
        <filter x="-1.9%" y="-4.5%" width="103.9%" height="110.4%" filterUnits="objectBoundingBox" id="filter-2">
            <feOffset dx="0" dy="2" in="SourceAlpha" result="shadowOffsetOuter1"></feOffset>
            <feGaussianBlur stdDeviation="4.5" in="shadowOffsetOuter1" result="shadowBlurOuter1"></feGaussianBlur>
            <feComposite in="shadowBlurOuter1" in2="SourceAlpha" operator="out" result="shadowBlurOuter1"></feComposite>
            <feColorMatrix values="0 0 0 0 0   0 0 0 0 0   0 0 0 0 0  0 0 0 0.12 0" type="matrix" in="shadowBlurOuter1"></feColorMatrix>
        </filter>
    </defs>
    <g id="Culture" stroke="none" stroke-width="1" fill="none" fill-rule="evenodd">
        <g id="Culture---Desktop" transform="translate(-336.000000, -3150.000000)">
            <g id="Where-we've-been-to" transform="translate(30.000000, 2899.000000)">
                <g id="Ticket" transform="translate(296.000000, 258.000000)">
                    <g transform="translate(19.000000, 0.000000)">
                        <g id="Background">
                            <use fill="black" fill-opacity="1" filter="url(#filter-2)" xlink:href="#path-1"></use>
                            <path stroke="#D9DBDE" stroke-width="1" d="M215.492995,0.5 L735,0.5 C739.280207,0.5 743.155207,2.23489659 745.960155,5.03984489 C748.765103,7.84479319 750.5,11.7197932 750.5,16 L750.5,16 L750.5,264 C750.5,268.280207 748.765103,272.155207 745.960155,274.960155 C743.155207,277.765103 739.280207,279.5 735,279.5 L735,279.5 L215.492995,279.5 C215.362991,274.866168 213.431658,270.682921 210.374369,267.625631 C207.207492,264.458754 202.832492,262.5 198,262.5 C193.167508,262.5 188.792508,264.458754 185.625631,267.625631 C182.568342,270.682921 180.637009,274.866168 180.507005,279.5 L180.507005,279.5 L16,279.5 C11.7197932,279.5 7.84479319,277.765103 5.03984489,274.960155 C2.23489659,272.155207 0.5,268.280207 0.5,264 L0.5,264 L0.5,16 C0.5,11.7197932 2.23489659,7.84479319 5.03984489,5.03984489 C7.84479319,2.23489659 11.7197932,0.5 16,0.5 L16,0.5 L180.507005,0.5 C180.637009,5.13383228 182.568342,9.31707904 185.625631,12.3743687 C188.792508,15.5412458 193.167508,17.5 198,17.5 C202.832492,17.5 207.207492,15.5412458 210.374369,12.3743687 C213.431658,9.31707904 215.362991,5.13383228 215.492995,0.5 L215.492995,0.5 Z" stroke-linejoin="square" fill="#FFFFFF" fill-rule="evenodd"></path>
                        </g>
                        <path d="M702,0 L735,0 C743.836556,-1.623249e-15 751,7.163444 751,16 L751,264 C751,272.836556 743.836556,280 735,280 L702,280 L702,280 L702,0 Z" id="Background" fill="#AAAEB3"></path>
                        <g id="Group" transform="translate(680.000000, 207.000000)" fill="#FFFFFF" fill-rule="nonzero">
                            <g id="Group" transform="translate(46.769231, 8.000000) rotate(-90.000000) translate(-46.769231, -8.000000) ">
                                <path d="M22.2362791,9.3544186 C21.6613953,8.74976744 20.9655814,8.35348837 20.1562791,8.15255814 C20.9525581,7.94790698 21.6409302,7.54790698 22.2195349,6.93953488 C23.0827907,6.03348837 23.5125581,4.89674419 23.5218665,3.53488372 L21.2967442,3.53488372 C21.2930233,4.31627907 21.0716279,4.9544186 20.6325581,5.45488372 C20.1897674,5.95906977 19.6074419,6.21023256 18.8874419,6.21023256 C18.1786047,6.21023256 17.5962791,5.9572093 17.1423256,5.45488372 C16.6902326,4.95627907 16.4651163,4.31627907 16.4613953,3.53488372 L14.2306977,3.53488372 C14.2306977,4.92465116 14.6604651,6.06697674 15.52,6.9655814 C16.0967442,7.56837209 16.7906977,7.9627907 17.5981395,8.16 C16.8204651,8.36651163 16.1339535,8.76465116 15.5516279,9.37116279 C14.6716279,10.2883721 14.2306977,11.44 14.2306977,12.827907 L16.4595349,12.827907 C16.4595349,12.8223256 16.4576744,12.8167442 16.4576744,12.8111628 C16.4576744,12.024186 16.6809302,11.3748837 17.1237209,10.8669767 C17.5665116,10.3572093 18.1488372,10.1004651 18.8688372,10.1004651 C19.5776744,10.1004651 20.16,10.3590698 20.6139535,10.8744186 C21.067907,11.3897674 21.2967442,12.0372093 21.2967442,12.8111628 C21.2967442,12.8167442 21.2948837,12.8223256 21.2948837,12.827907 L23.52,12.827907 C23.52,12.8148837 23.5218665,12.8055814 23.5218665,12.7944186 C23.5237209,11.4046512 23.095814,10.2586047 22.2362791,9.3544186" id="Path"></path>
                                <path d="M2.95255814,6.21953488 C2.49116279,6.73488372 2.25674419,7.39162791 2.25674419,8.19162791 C2.25674419,8.99162791 2.49488372,9.64465116 2.96930233,10.1562791 C3.44372093,10.6660465 4.06325581,10.9190698 4.82790698,10.9190698 C5.60372093,10.9190698 6.22325581,10.664186 6.68651163,10.1562791 C7.14790698,9.64651163 7.38232558,8.99162791 7.38232558,8.19162791 C7.38232558,7.39162791 7.14418605,6.73488372 6.66976744,6.21953488 C6.19534884,5.70418605 5.57581395,5.44744186 4.81116279,5.44744186 C4.03348837,5.44744186 3.41395349,5.70604651 2.95255814,6.21953488 M2.3255814,12.0818605 L2.3255814,15.867907 L0,15.867907 L0,3.53488372 L2.20465116,3.53488372 L2.20465116,4.42232558 C2.90046512,3.72651163 3.84930233,3.38046512 5.05302326,3.38046512 C6.45581395,3.38046512 7.58139535,3.82325581 8.43162791,4.71069767 C9.28186047,5.59627907 9.70790698,6.74604651 9.70790698,8.15813953 C9.70790698,9.53674419 9.2744186,10.6865116 8.41488372,11.6074419 C7.55162791,12.5283721 6.39627907,12.987907 4.94883721,12.987907 C3.90697674,12.9860465 3.03255814,12.6846512 2.3255814,12.0818605" id="Shape"></path>
                                <path d="M12.9581395,12.8297674 L10.6288372,12.8297674 L10.6288372,3.53488372 L12.9581395,3.53488372 L12.9581395,12.8297674 Z M11.7934884,2.94697674 C11.412093,2.94697674 11.0827907,2.81302326 10.8111628,2.54883721 C10.5395349,2.28093023 10.4037209,1.95906977 10.4037209,1.57581395 C10.4037209,1.18139535 10.5395349,0.848372093 10.8111628,0.576744186 C11.0827907,0.305116279 11.412093,0.169302326 11.7934884,0.169302326 C12.187907,0.169302326 12.5172093,0.305116279 12.7832558,0.576744186 C13.0511628,0.848372093 13.1813953,1.18139535 13.1813953,1.57581395 C13.1813953,1.9572093 13.0474419,2.2827907 12.7832558,2.54883721 C12.5172093,2.81302326 12.1860465,2.94697674 11.7934884,2.94697674" id="Shape"></path>
                                <path d="M28.3013953,5.34325581 C27.7227907,5.34325581 27.2502326,5.5144186 26.8874419,5.85674419 C26.5227907,6.1972093 26.3106977,6.64186047 26.2530233,7.18697674 L30.455814,7.18697674 C30.3981395,6.64186047 30.1786047,6.20093023 29.7953488,5.85674419 C29.4139535,5.51255814 28.9172093,5.34325581 28.3013953,5.34325581 M32.8372093,8.93767442 L26.2009302,8.93767442 C26.2586047,9.54976744 26.4930233,10.0334884 26.9060465,10.3888372 C27.3172093,10.7423256 27.8511628,10.9190698 28.5134884,10.9190698 C29.4865116,10.9190698 30.267907,10.4576744 30.8595349,9.52930233 L32.5786047,10.5711628 C32.2548837,11.2539535 31.7544186,11.8288372 31.0772093,12.2902326 C30.4,12.7534884 29.5460465,12.9860465 28.5153488,12.9860465 C27.0902326,12.9860465 25.9404651,12.5562791 25.067907,11.6930233 C24.1934884,10.8297674 23.7562791,9.66883721 23.7562791,8.21023256 C23.7562791,6.80930233 24.1823256,5.65395349 25.0325581,4.74418605 C25.8827907,3.8344186 26.9823256,3.38046512 28.3237209,3.38046512 C29.7134884,3.38046512 30.8204651,3.7972093 31.6409302,4.63255814 C32.4632558,5.46604651 32.8744186,6.58418605 32.8744186,7.98511628 C32.8706977,8.35348837 32.8595349,8.67162791 32.8372093,8.93767442" id="Shape"></path>
                                <rect id="Rectangle" x="33.8976744" y="0.132093023" width="2.32930233" height="12.6976744"></rect>
                                <path d="M46.5116279,3.43255814 C45.5386047,3.43255814 44.7627907,3.76744186 44.1823256,4.43906977 C43.707907,3.76744186 42.9730233,3.43255814 41.975814,3.43255814 C41.0827907,3.43255814 40.4167442,3.70046512 39.9776744,4.23255814 L39.9776744,3.53488372 L37.6483721,3.53488372 L37.6483721,12.827907 L39.9776744,12.827907 L39.9776744,7.00837209 C39.9776744,6.53395349 40.0874419,6.16372093 40.3088372,5.89767442 C40.5265116,5.63348837 40.8409302,5.49953488 41.2465116,5.49953488 C41.6409302,5.49953488 41.944186,5.63162791 42.1581395,5.89767442 C42.372093,6.1655814 42.48,6.5227907 42.48,6.97488372 L42.48,12.827907 L44.8093023,12.827907 L44.8093023,6.97488372 C44.8093023,6.53395349 44.9153488,6.17674419 45.1311628,5.90697674 C45.3451163,5.63534884 45.655814,5.49953488 46.0595349,5.49953488 C46.4651163,5.49953488 46.7739535,5.62976744 46.987907,5.89023256 C47.2018605,6.15069767 47.307907,6.51348837 47.307907,6.97674419 L47.307907,12.8297674 L49.6353488,12.8297674 L49.6353488,6.69767442 C49.6353488,5.72465116 49.384186,4.93767442 48.88,4.33488372 C48.3776744,3.73209302 47.5888372,3.43255814 46.5116279,3.43255814 Z" id="Path"></path>
                                <path d="M58.027907,4.40372093 C57.7506977,4.09116279 57.3637209,3.84186047 56.8725581,3.65767442 C56.3795349,3.47348837 55.8511628,3.38046512 55.2837209,3.38046512 C53.8697674,3.38046512 52.7237209,3.83255814 51.8437209,4.73674419 C50.9637209,5.64093023 50.5246512,6.78697674 50.5246512,8.17674419 C50.5246512,9.61302326 50.9637209,10.772093 51.8437209,11.6595349 C52.7237209,12.5469767 53.8716279,12.9897674 55.2837209,12.9897674 C55.9553488,12.9897674 56.5302326,12.88 57.012093,12.6586047 C57.4939535,12.4409302 57.8437209,12.1897674 58.0632558,11.9125581 L58.0632558,12.8316279 L60.2325581,12.8316279 L60.2325581,3.53860465 L58.0260465,3.53860465 L58.0260465,4.40372093 L58.027907,4.40372093 Z M57.2818605,10.1469767 C56.8204651,10.6623256 56.2009302,10.9190698 55.4232558,10.9190698 C54.6604651,10.9190698 54.0409302,10.6623256 53.5646512,10.1469767 C53.0902326,9.63162791 52.852093,8.97488372 52.852093,8.17488372 C52.852093,7.38790698 53.0883721,6.73674419 53.5553488,6.22139535 C54.024186,5.70790698 54.6455814,5.44930233 55.4213953,5.44930233 C56.1618605,5.44930233 56.772093,5.70604651 57.2539535,6.22139535 C57.735814,6.73674419 57.9758249,7.38790698 57.9758249,8.17488372 C57.9776744,8.97302326 57.7432558,9.63162791 57.2818605,10.1469767 Z" id="Shape"></path>
                                <path d="M69.5962791,2.07627907 L67.2669767,2.07627907 L67.2669767,3.53488372 L64.3851163,3.53488372 L64.3851163,2.07627907 L62.0613953,2.07627907 L62.0613953,3.53488372 L61.1925581,3.53488372 L61.1925581,5.49953488 L62.0613953,5.49953488 L62.0613953,10.4855814 C62.0613953,12.107907 62.8893023,12.9190698 64.5451163,12.9190698 C64.775814,12.9190698 64.9953488,12.9097674 65.1962791,12.8930233 C65.3972093,12.8762791 65.5534884,12.855814 65.655814,12.8316279 L65.812093,12.7981395 L65.812093,10.8167442 L65.2725581,10.8167442 C64.9488372,10.8167442 64.7181395,10.7386047 64.5860465,10.5804651 C64.452093,10.424186 64.3869767,10.1730233 64.3869767,9.82511628 L64.3869767,5.49767442 L67.2688372,5.49767442 L67.2688372,10.4837209 C67.2688372,12.1060465 68.0948837,12.9172093 69.7525581,12.9172093 C69.9832558,12.9172093 70.2027907,12.907907 70.4037209,12.8911628 C70.6046512,12.8744186 70.7609302,12.8539535 70.8632558,12.8297674 L71.0195349,12.7962791 L71.0195349,10.8148837 L70.48,10.8148837 C70.1562791,10.8148837 69.9255814,10.7367442 69.7934884,10.5786047 C69.6595349,10.4223256 69.5944186,10.1711628 69.5944186,9.82325581 L69.5944186,5.49581395 L71.0195349,5.49581395 L71.0195349,3.53488372 L69.5944186,3.53488372 L69.5944186,2.07627907 L69.5962791,2.07627907 Z" id="Path"></path>
                                <path d="M76.1190698,3.38046512 C74.775814,3.38046512 73.6781395,3.8344186 72.827907,4.74418605 C71.9776744,5.65395349 71.5516279,6.80744186 71.5516279,8.21023256 C71.5516279,9.66883721 71.9888372,10.8297674 72.8632558,11.6930233 C73.7376744,12.5562791 74.8855814,12.9860465 76.3106977,12.9860465 C77.3413953,12.9860465 78.1953488,12.7534884 78.8725581,12.2902326 C79.5497674,11.8269767 80.0502326,11.2539535 80.3739535,10.5711628 L78.6548837,9.52930233 C78.0632558,10.455814 77.2818605,10.9190698 76.3088372,10.9190698 C75.6465116,10.9190698 75.1125581,10.7423256 74.7013953,10.3888372 C74.2902326,10.0353488 74.0539535,9.55162791 73.9962791,8.93767442 L80.6325581,8.93767442 C80.6548837,8.67348837 80.6660465,8.35348837 80.6697674,7.98511628 C80.6697674,6.58232558 80.2586047,5.46604651 79.4362791,4.63255814 C78.6139535,3.79906977 77.5069767,3.38046512 76.1190698,3.38046512 Z M74.0465116,7.18511628 C74.104186,6.64 74.3162791,6.1972093 74.6809302,5.85488372 C75.0455814,5.51255814 75.5181395,5.34139535 76.0967442,5.34139535 C76.7125581,5.34139535 77.2074419,5.51069767 77.5906977,5.85488372 C77.972093,6.19906977 78.1934884,6.64 78.2511628,7.18511628 L74.0465116,7.18511628 Z" id="Shape"></path>
                                <path d="M84.0223256,4.2827907 L84.0223256,3.53488372 L81.6930233,3.53488372 L81.6930233,12.827907 L84.0223256,12.827907 L84.0223256,7.16465116 C84.0223256,6.74976744 84.1153488,6.43906977 84.2995349,6.23627907 C84.4837209,6.03534884 84.7962791,5.93302326 85.2372093,5.93302326 L85.8269767,5.93302326 L85.8269767,3.49953488 C84.9934884,3.50139535 84.3906977,3.76186047 84.0223256,4.2827907 Z" id="Path"></path>
                                <path d="M92.4930233,8.20093023 C92.1395349,7.7655814 91.5739535,7.43255814 90.7981395,7.20186047 C90.6362791,7.15534884 90.4167442,7.09767442 90.1376744,7.02883721 C89.8604651,6.95813953 89.655814,6.90604651 89.5293023,6.87255814 C88.984186,6.72186047 88.7125581,6.43162791 88.7125581,6.00372093 C88.7125581,5.77302326 88.7981395,5.58325581 88.9674419,5.43813953 C89.1348837,5.29488372 89.3581395,5.22232558 89.6353488,5.22232558 C90.32,5.22232558 90.6716279,5.59813953 90.695814,6.34976744 L92.8316279,6.34976744 C92.8204651,5.38976744 92.5432558,4.65860465 91.9981395,4.16186047 C91.4548837,3.66325581 90.6846512,3.41581395 89.6893023,3.41581395 C88.7627907,3.41581395 88.0018605,3.67069767 87.4046512,4.17860465 C86.8093023,4.68837209 86.5097674,5.33581395 86.5097674,6.1227907 C86.5097674,7.48837209 87.1516279,8.4055814 88.4372093,8.86697674 C88.6213953,8.93767442 89.0902326,9.0772093 89.8437209,9.2855814 C90.1674419,9.37860465 90.4037209,9.49581395 90.5488372,9.63348837 C90.6939535,9.77302326 90.7646512,9.97581395 90.7646512,10.2418605 C90.7646512,10.507907 90.6604651,10.7144186 90.4539535,10.8595349 C90.2437209,11.0027907 89.9832558,11.0753488 89.6706977,11.0753488 C88.9172093,11.0753488 88.5432558,10.6567442 88.5432558,9.82325581 L86.32,9.82325581 C86.2865116,10.7274419 86.5302326,11.4753488 87.0586047,12.0651163 C87.5851163,12.6567442 88.4465116,12.9525581 89.6372093,12.9525581 C90.5972093,12.9525581 91.4009302,12.6976744 92.0502326,12.1897674 C92.6995349,11.68 93.0232558,10.9748837 93.0232558,10.0706977 C93.0232558,9.25767442 92.8465116,8.63627907 92.4930233,8.20093023 Z" id="Path"></path>
                            </g>
                        </g>
                        <path d="M692.336,62.748 C694.088,62.748 695.204,61.824 695.204,60.276 C695.204,59.136 694.568,58.452 693.752,58.152 C694.28,57.912 694.808,57.288 694.808,56.508 C694.808,55.128 693.752,54.348 692.192,54.348 L689,54.348 L689,62.748 L692.336,62.748 Z M692.108,57.696 L690.404,57.696 L690.404,55.5 L692.096,55.5 C693.008,55.5 693.464,55.884 693.464,56.604 C693.464,57.312 693.008,57.696 692.108,57.696 Z M692.168,61.512 L690.404,61.512 L690.404,58.908 L692.168,58.908 C693.296,58.908 693.836,59.364 693.836,60.216 C693.836,61.068 693.296,61.512 692.168,61.512 Z M699.212,62.844 C701.024,62.844 702.332,61.536 702.332,59.724 C702.332,57.912 701.024,56.604 699.212,56.604 C697.388,56.604 696.092,57.912 696.092,59.724 C696.092,61.536 697.388,62.844 699.212,62.844 Z M699.212,61.704 C698.132,61.704 697.412,60.888 697.412,59.724 C697.412,58.56 698.132,57.744 699.212,57.744 C700.28,57.744 701.012,58.56 701.012,59.724 C701.012,60.888 700.28,61.704 699.212,61.704 Z M705.224,62.844 C706.028,62.844 706.772,62.436 707.12,61.824 L707.12,62.748 L708.404,62.748 L708.404,58.98 C708.404,57.468 707.348,56.604 705.812,56.604 C704.528,56.604 703.496,57.384 703.304,58.572 L704.48,58.788 C704.564,58.068 705.08,57.636 705.812,57.636 C706.604,57.636 707.12,58.092 707.12,58.836 L707.12,58.92 L705.98,59.04 C704.12,59.232 703.196,59.868 703.196,61.056 C703.196,62.088 704.024,62.844 705.224,62.844 Z M705.488,61.836 C704.876,61.836 704.48,61.5 704.48,61.02 C704.48,60.492 704.984,60.132 705.968,60.024 L707.12,59.892 L707.12,60.144 C707.108,61.128 706.508,61.836 705.488,61.836 Z M711.248,62.748 L711.248,60.492 C711.248,58.62 712.028,57.828 712.916,57.828 C713.192,57.828 713.48,57.876 713.696,57.972 L713.768,56.712 C713.588,56.64 713.324,56.604 713.096,56.604 C712.364,56.604 711.572,57.132 711.248,57.852 L711.248,56.7 L709.94,56.7 L709.94,62.748 L711.248,62.748 Z M717.02,62.844 C717.824,62.844 718.556,62.484 718.844,61.98 L718.844,62.748 L720.152,62.748 L720.152,54.252 L718.844,54.252 L718.844,57.456 C718.484,56.952 717.776,56.604 716.996,56.604 C715.172,56.604 714.128,57.9 714.128,59.724 C714.128,61.548 715.172,62.844 717.02,62.844 Z M717.188,61.704 C716.132,61.704 715.436,60.912 715.436,59.724 C715.436,58.524 716.132,57.744 717.188,57.744 C718.244,57.744 718.94,58.524 718.94,59.724 C718.94,60.912 718.244,61.704 717.188,61.704 Z M722.348,55.692 C722.84,55.692 723.212,55.32 723.212,54.852 C723.212,54.372 722.84,54 722.348,54 C721.868,54 721.508,54.372 721.508,54.852 C721.508,55.32 721.868,55.692 722.348,55.692 Z M723.008,62.748 L723.008,56.7 L721.7,56.7 L721.7,62.748 L723.008,62.748 Z M725.864,62.748 L725.864,60.096 C725.864,58.644 726.476,57.78 727.496,57.78 C728.264,57.78 728.732,58.308 728.732,59.064 L728.732,62.748 L730.04,62.748 L730.04,58.764 C730.04,57.456 729.14,56.604 727.856,56.604 C726.968,56.604 726.272,57.06 725.864,57.708 L725.864,56.7 L724.556,56.7 L724.556,62.748 L725.864,62.748 Z M734.24,65.028 C735.98,65.028 737.168,63.972 737.168,62.412 L737.168,56.7 L735.872,56.7 L735.872,57.396 C735.524,56.928 734.828,56.604 734.06,56.604 C732.284,56.604 731.252,57.84 731.252,59.592 C731.252,61.344 732.284,62.58 734.084,62.58 C734.876,62.58 735.584,62.268 735.884,61.812 L735.884,62.544 C735.884,63.384 735.212,63.96 734.24,63.96 C733.448,63.96 732.812,63.564 732.74,62.964 L731.516,63.168 C731.708,64.272 732.824,65.028 734.24,65.028 Z M734.264,61.44 C733.232,61.44 732.56,60.708 732.56,59.592 C732.56,58.476 733.232,57.744 734.264,57.744 C735.284,57.744 735.956,58.476 735.956,59.592 C735.956,60.708 735.284,61.44 734.264,61.44 Z M743.06,62.748 L743.06,59.364 L744.956,59.364 C746.624,59.364 747.704,58.38 747.704,56.856 C747.704,55.332 746.624,54.348 744.956,54.348 L741.644,54.348 L741.644,62.748 L743.06,62.748 Z M744.86,58.14 L743.06,58.14 L743.06,55.572 L744.86,55.572 C745.748,55.572 746.276,56.052 746.276,56.856 C746.276,57.66 745.748,58.14 744.86,58.14 Z M750.176,62.844 C750.98,62.844 751.724,62.436 752.072,61.824 L752.072,62.748 L753.356,62.748 L753.356,58.98 C753.356,57.468 752.3,56.604 750.764,56.604 C749.48,56.604 748.448,57.384 748.256,58.572 L749.432,58.788 C749.516,58.068 750.032,57.636 750.764,57.636 C751.556,57.636 752.072,58.092 752.072,58.836 L752.072,58.92 L750.932,59.04 C749.072,59.232 748.148,59.868 748.148,61.056 C748.148,62.088 748.976,62.844 750.176,62.844 Z M750.44,61.836 C749.828,61.836 749.432,61.5 749.432,61.02 C749.432,60.492 749.936,60.132 750.92,60.024 L752.072,59.892 L752.072,60.144 C752.06,61.128 751.46,61.836 750.44,61.836 Z M756.98,62.844 C758.348,62.844 759.26,62.04 759.26,60.996 C759.26,58.512 755.864,59.4 755.864,58.236 C755.864,57.84 756.224,57.612 756.8,57.612 C757.352,57.612 757.916,57.948 758.072,58.548 L759.152,58.092 C758.888,57.204 757.928,56.604 756.788,56.604 C755.48,56.604 754.652,57.312 754.652,58.26 C754.652,60.552 758.024,59.7 758.024,61.008 C758.024,61.44 757.604,61.8 756.98,61.8 C756.14,61.8 755.672,61.26 755.468,60.612 L754.388,61.068 C754.664,61.932 755.504,62.844 756.98,62.844 Z M762.524,62.844 C763.892,62.844 764.804,62.04 764.804,60.996 C764.804,58.512 761.408,59.4 761.408,58.236 C761.408,57.84 761.768,57.612 762.344,57.612 C762.896,57.612 763.46,57.948 763.616,58.548 L764.696,58.092 C764.432,57.204 763.472,56.604 762.332,56.604 C761.024,56.604 760.196,57.312 760.196,58.26 C760.196,60.552 763.568,59.7 763.568,61.008 C763.568,61.44 763.148,61.8 762.524,61.8 C761.684,61.8 761.216,61.26 761.012,60.612 L759.932,61.068 C760.208,61.932 761.048,62.844 762.524,62.844 Z" id="BoardingPass" fill="#FFFFFF" fill-rule="nonzero" transform="translate(726.902000, 59.514000) rotate(-90.000000) translate(-726.902000, -59.514000) "></path>
                        <path d="M198,18 L199,18 L199,26 L198,26 L198,18 Z M198,34 L199,34 L199,42 L198,42 L198,34 Z M198,50 L199,50 L199,58 L198,58 L198,50 Z M198,66 L199,66 L199,74 L198,74 L198,66 Z M198,82 L199,82 L199,90 L198,90 L198,82 Z M198,98 L199,98 L199,106 L198,106 L198,98 Z M198,114 L199,114 L199,122 L198,122 L198,114 Z M198,130 L199,130 L199,138 L198,138 L198,130 Z M198,146 L199,146 L199,154 L198,154 L198,146 Z M198,162 L199,162 L199,170 L198,170 L198,162 Z M198,178 L199,178 L199,186 L198,186 L198,178 Z M198,194 L199,194 L199,202 L198,202 L198,194 Z M198,210 L199,210 L199,218 L198,218 L198,210 Z M198,226 L199,226 L199,234 L198,234 L198,226 Z M198,242 L199,242 L199,250 L198,250 L198,242 Z M198,258 L199,258 L199,263 L198,263 L198,258 Z" id="divider" fill="#D9DBDE" fill-rule="nonzero"></path>
                    </g>
                </g>
            </g>
        </g>
    </g>
</svg>