<svg xmlns="http://www.w3.org/2000/svg" xmlns:xlink="http://www.w3.org/1999/xlink" width="39" height="32" viewBox="0 0 39 32">
    <defs>
        <path id="a" d="M5.015.02a7.371 7.371 0 0 0 4.282 3.256C4.55 4.72 1.673 2.19.057.85.542.87 2.861.763 5.015.02z"/>
    </defs>
    <g fill="none" fill-rule="evenodd">
        <path fill="#099CEC" d="M13.143 9.472h2.904V6.845h-2.904zM9.711 9.472h2.904V6.845H9.711zM16.575 9.472h2.904V6.845h-2.904zM20.007 9.472h2.903V6.845h-2.903zM23.438 9.472h2.904V6.845h-2.904zM13.143 6.32h2.904V3.693h-2.904zM16.575 6.32h2.904V3.693h-2.904zM20.007 6.32h2.903V3.693h-2.903zM20.007 3.167h2.903V.54h-2.903z"/>
        <path fill="#099CEC" d="M34.99 7.656c-.595-.399-2.16-.57-3.3-.264-.06-1.129-.645-2.08-1.715-2.91l-.396-.264-.264.397c-.519.783-.737 1.828-.66 2.777.061.585.265 1.242.66 1.719-.302.234-1.242.685-2.508.661H7.933c-.336 1.984.239 9.521 8.975 9.521 6.486 0 11.815-2.902 14.255-8.992.803.013 2.922.143 3.96-1.851.025-.034.263-.53.263-.53l-.395-.264"/>
        <g transform="translate(9.891 15.692)">
            <mask id="b" fill="#fff">
                <use xlink:href="#a"/>
            </mask>
            <path fill="#FFF" d="M.057 3.707h9.247V.012H.057z" mask="url(#b)"/>
        </g>
        <path fill="#066DA5" d="M14.666 15.25a7.09 7.09 0 0 1-3.511.918c-.646 0-1.271-.085-1.866-.245l.377.63a7.725 7.725 0 0 0 5.257-.84 6.358 6.358 0 0 1-.257-.464"/>
        <path fill="#FFF" d="M16.674 14.906a.919.919 0 1 0-.002-1.837.919.919 0 0 0 .002 1.837"/>
        <path fill="#4D5C64" d="M16.812 13.729a.26.26 0 0 1 .103-.205.518.518 0 0 0-.238-.06.525.525 0 1 0 .524.526l-.003-.03a.257.257 0 0 1-.122.033.264.264 0 0 1-.264-.264"/>
        <path fill="#F3F3F3" d="M34.914 7.609c-.408-.23-1.151-.373-1.919-.373-.447 0-.902.048-1.304.156a2.838 2.838 0 0 0-.005-.071 4.79 4.79 0 0 1 1.193-.138c.826 0 1.648.168 2.035.426"/>
        <path fill="#F3F3F3" d="M18.22 19.214c.314-.064.637-.145.968-.246a7.153 7.153 0 0 1-1.802-.784c6.033-.146 10.452-3.228 13.983-10.503l.243-.34.074-.02.005.07a5.145 5.145 0 0 1 1.304-.155c.768 0 1.511.142 1.919.373l.4.27-.201.423c-.916 1.846-2.903 1.985-3.834 1.985-.076 0-.145 0-.205-.002-2.281 5.622-7.021 8.522-12.853 8.93"/>
        <path fill="#0994E0" d="M18.22 19.214c.314-.064.637-.145.968-.246a7.153 7.153 0 0 1-1.802-.784c6.033-.146 10.452-3.228 13.983-10.503l.243-.34.074-.02.005.07a5.145 5.145 0 0 1 1.304-.155c.768 0 1.511.142 1.919.373l.4.27-.201.423c-.916 1.846-2.903 1.985-3.834 1.985-.076 0-.145 0-.205-.002-2.281 5.622-7.021 8.522-12.853 8.93"/>
        <path fill="#F3F3F3" d="M13.661 18.903c-1.797-.461-3.075-1.324-3.979-2.347.091.018.183.034.275.049.808.913 1.908 1.694 3.392 2.175.102.043.206.084.312.123"/>
        <path fill="#F3F3F3" d="M13.349 18.78c-1.484-.481-2.584-1.262-3.392-2.175l.082.012c.792.659 1.874 1.566 3.31 2.163"/>
        <path fill="#0994E0" d="M13.349 18.78c-1.484-.481-2.584-1.262-3.392-2.175l.082.012c.792.659 1.874 1.566 3.31 2.163"/>
        <path fill="#F3F3F3" d="M9.637 16.505c-1.981-2.285-2.128-5.34-2.047-6.519h.313c-.14 1.218.033 3.83 1.548 5.979a6.965 6.965 0 0 1-.162-.042l.348.582"/>
        <path fill="#F3F3F3" d="M11.007 16.167a7.166 7.166 0 0 1-1.556-.202c-1.515-2.148-1.688-4.76-1.548-5.979h.742c.25 2.537.843 4.71 2.362 6.18"/>
        <path fill="#0994E0" d="M11.007 16.167a7.166 7.166 0 0 1-1.556-.202c-1.515-2.148-1.688-4.76-1.548-5.979h.742c.25 2.537.843 4.71 2.362 6.18"/>
        <path fill="#F3F3F3" d="M16.766 19.264c-1.177 0-2.206-.13-3.105-.36-.106-.04-.21-.081-.312-.124-1.436-.597-2.518-1.504-3.31-2.163a7.755 7.755 0 0 0 1.58.067c1.295.948 3.13 1.494 5.738 1.5h.029a7.153 7.153 0 0 0 1.802.784c-.331.1-.654.182-.967.246-.478.034-.963.05-1.455.05"/>
        <path fill="#F2F2F2" d="M16.766 19.264c-1.177 0-2.206-.13-3.105-.36-.106-.04-.21-.081-.312-.124-1.436-.597-2.518-1.504-3.31-2.163a7.755 7.755 0 0 0 1.58.067c1.295.948 3.13 1.494 5.738 1.5h.029a7.153 7.153 0 0 0 1.802.784c-.331.1-.654.182-.967.246-.478.034-.963.05-1.455.05"/>
        <path fill="#F3F3F3" d="M11.155 16.697a7.755 7.755 0 0 1-1.473-.14 8.87 8.87 0 0 1-.045-.052l-.348-.582.162.042c.5.122 1.021.191 1.556.202.19.183.394.356.613.517a7.89 7.89 0 0 1-.465.013"/>
        <path fill="#06679D" d="M11.155 16.697a7.755 7.755 0 0 1-1.473-.14 8.87 8.87 0 0 1-.045-.052l-.348-.582.162.042c.5.122 1.021.191 1.556.202.19.183.394.356.613.517a7.89 7.89 0 0 1-.465.013"/>
        <path fill="#066DA5" d="M10.24 8.947h.263V7.371h-.264zM11.031 8.947h.264V7.371h-.264zM11.823 8.947h.264V7.371h-.264zM13.671 8.947h.264V7.371h-.264zM14.463 8.947h.264V7.371h-.264zM15.255 8.947h.264V7.371h-.264zM17.103 8.947h.264V7.371h-.264zM17.895 8.947h.264V7.371h-.264zM18.687 8.947h.264V7.371h-.264zM20.534 8.947h.265V7.371h-.265zM21.326 8.947h.264V7.371h-.264zM22.118 8.947h.264V7.371h-.264zM23.966 8.947h.264V7.371h-.264zM24.758 8.947h.264V7.371h-.264zM25.55 8.947h.264V7.371h-.264zM14.463 5.794h.264V4.218h-.264zM15.255 5.794h.264V4.218h-.264zM17.103 5.794h.264V4.218h-.264zM17.895 5.794h.264V4.218h-.264zM18.687 5.794h.264V4.218h-.264zM20.534 5.794h.265V4.218h-.265zM21.326 5.794h.264V4.218h-.264zM22.118 5.794h.264V4.218h-.264zM21.326 2.642h.264V1.066h-.264zM20.534 2.642h.265V1.066h-.265zM22.118 2.642h.264V1.066h-.264z"/>
        <g fill="#066DA5">
            <path d="M13.671 5.794h.264V4.218h-.264zM6.01 28.62a2.035 2.035 0 0 1-1.057 1.057 1.922 1.922 0 0 1-.777.159 1.996 1.996 0 0 1-1.835-1.213 1.914 1.914 0 0 1-.156-.769c0-.27.052-.526.156-.767.104-.241.245-.45.423-.63.177-.178.387-.32.63-.426.241-.105.502-.158.782-.158.276 0 .535.053.777.158a2.026 2.026 0 0 1 1.058 1.059c.104.239.156.493.156.764s-.052.526-.156.765zm.747-6.636a.575.575 0 0 0-.59.587v2.817a3.082 3.082 0 0 0-1.991-.694c-.877 0-1.626.308-2.246.925A3.038 3.038 0 0 0 1 27.854c0 .873.31 1.618.93 2.236.62.617 1.369.925 2.246.925.87 0 1.618-.308 2.246-.925.62-.61.93-1.355.93-2.236v-5.283c0-.169-.058-.31-.173-.42a.587.587 0 0 0-.422-.167z"/>
        </g>
        <path fill="#066DA5" d="M12.933 28.62a2.033 2.033 0 0 1-1.057 1.057 1.922 1.922 0 0 1-.777.159 2 2 0 0 1-1.835-1.213 1.916 1.916 0 0 1-.156-.769c0-.27.052-.526.156-.767.104-.241.245-.45.423-.63.177-.178.387-.32.629-.426.242-.105.503-.158.783-.158.276 0 .535.053.777.158a2.027 2.027 0 0 1 1.057 1.059 1.9 1.9 0 0 1 .156.764 1.9 1.9 0 0 1-.156.765zm.411-3c-.627-.618-1.376-.926-2.245-.926-.878 0-1.626.308-2.246.925a3.038 3.038 0 0 0-.93 2.235c0 .873.31 1.618.93 2.236.62.617 1.368.925 2.246.925.87 0 1.618-.308 2.245-.925.62-.61.93-1.355.93-2.236a3.242 3.242 0 0 0-.235-1.213 3.098 3.098 0 0 0-.695-1.022zM26.339 25.28a.542.542 0 0 0-.048-.225.655.655 0 0 0-.128-.19.567.567 0 0 0-.42-.171.582.582 0 0 0-.317.09l-3.392 2.196v-4.403a.572.572 0 0 0-.173-.42.57.57 0 0 0-.417-.173.576.576 0 0 0-.422.172.571.571 0 0 0-.173.421v7.845c0 .162.058.302.173.418a.57.57 0 0 0 .422.175.564.564 0 0 0 .417-.175.573.573 0 0 0 .173-.418v-2.037l.692-.451 2.62 2.929a.55.55 0 0 0 .397.152c.083 0 .161-.015.233-.045a.556.556 0 0 0 .187-.127.653.653 0 0 0 .128-.19.542.542 0 0 0 .048-.225.596.596 0 0 0-.165-.412l-2.438-2.732 2.376-1.535c.151-.102.227-.257.227-.468M16.598 26.452c.181-.179.393-.32.635-.423.242-.104.5-.156.777-.156.25 0 .48.042.692.124.211.083.414.206.607.367.113.09.242.136.385.136a.579.579 0 0 0 .59-.593.572.572 0 0 0-.204-.446c-.582-.511-1.272-.767-2.07-.767-.877 0-1.626.308-2.246.925a3.039 3.039 0 0 0-.93 2.235c0 .873.31 1.618.93 2.236.62.617 1.369.925 2.246.925.794 0 1.484-.256 2.07-.767a.594.594 0 0 0 .187-.435.57.57 0 0 0-.59-.587.64.64 0 0 0-.374.124 2.05 2.05 0 0 1-.601.364c-.212.081-.443.122-.692.122-.276 0-.535-.052-.777-.156a2.035 2.035 0 0 1-.635-.423 1.964 1.964 0 0 1-.584-1.403 1.966 1.966 0 0 1 .584-1.402M38.383 25.089a1.131 1.131 0 0 0-.4-.24 2.376 2.376 0 0 0-.527-.122 4.59 4.59 0 0 0-.536-.033 3.113 3.113 0 0 0-1.99.7v-.113c0-.162-.059-.3-.174-.415a.57.57 0 0 0-.417-.172.576.576 0 0 0-.422.172.565.565 0 0 0-.173.415v5.147c0 .162.058.3.173.415a.576.576 0 0 0 .422.172.57.57 0 0 0 .417-.172.564.564 0 0 0 .173-.415v-2.574c0-.274.052-.532.156-.773.104-.24.246-.45.425-.63.18-.178.39-.319.633-.422.242-.104.5-.156.777-.156.28 0 .539.047.777.141a.633.633 0 0 0 .25.062.592.592 0 0 0 .42-.172.652.652 0 0 0 .127-.189.555.555 0 0 0 .048-.231.524.524 0 0 0-.159-.395"/>
        <g fill="#066DA5">
            <path d="M28.14 27.267c.06-.207.154-.395.278-.567.125-.171.272-.318.443-.44.17-.122.357-.218.561-.285a1.989 1.989 0 0 1 1.256 0 2.05 2.05 0 0 1 .998.725c.127.172.223.36.287.567H28.14zm4.158-1.648c-.628-.617-1.377-.925-2.246-.925-.878 0-1.626.308-2.246.925a3.038 3.038 0 0 0-.93 2.235c0 .873.31 1.618.93 2.236.62.617 1.368.925 2.246.925.797 0 1.49-.256 2.075-.767a.584.584 0 0 0 .17-.424.569.569 0 0 0-.59-.587.623.623 0 0 0-.39.147 1.88 1.88 0 0 1-.58.339 1.998 1.998 0 0 1-.685.113 2.04 2.04 0 0 1-1.188-.387 1.971 1.971 0 0 1-.724-1.008h4.492a.586.586 0 0 0 .422-.166.558.558 0 0 0 .174-.42c0-.437-.078-.842-.233-1.217a3.077 3.077 0 0 0-.697-1.019zM33.099 9.767c-.578.203-1.102.248-1.887.232l-.137-.003-.182-.003-.067.169c-2.31 5.763-7.353 8.826-14.01 8.826-3.806 0-6.29-1.434-7.66-3.881a8.977 8.977 0 0 1-1.022-3.09c-.11-.751-.124-1.481-.064-2.021h1.113v.002H26.87v-.005c1.046-.012 2.023-.334 2.514-.713l.216-.168-.174-.21c-.327-.396-.538-.975-.6-1.578-.076-.921.149-1.897.617-2.604l.117-.176.169.113c1.024.797 1.55 1.682 1.606 2.709l.018.325.314-.084c1.028-.276 2.533-.141 3.085.228l.204.137-.032.064a16.873 16.873 0 0 1-.128.25c-.392.754-.967 1.226-1.697 1.481zm-23.388-.3h2.904V6.845H9.711v2.622zm3.432 0h2.904V6.845h-2.904v2.622zm0-3.147h2.904V3.693h-2.904V6.32zm3.432.525h2.904v2.622h-2.904V6.845zm0-.525h2.904V3.693h-2.904V6.32zm3.432 3.147h2.903V6.845h-2.903v2.622zm0-3.147h2.903V3.693h-2.903V6.32zm0-3.153h2.903V.54h-2.903v2.627zm3.431 6.3h2.904V6.845h-2.904v2.622zm11.822-.926a4.7 4.7 0 0 0 .142-.279 52.082 52.082 0 0 0 .13-.267l.1-.207-.587-.392c-.634-.425-2.08-.585-3.212-.37-.147-1.062-.745-1.984-1.796-2.799l-.623-.416-.41.616c-.538.811-.789 1.905-.704 2.946.062.596.247 1.172.545 1.628-.45.25-1.187.453-1.975.464V6.32h-3.432V.015h-3.96v3.152h-6.863V6.32H9.183v3.147H7.617l-.037.22c-.103.608-.101 1.494.031 2.407a9.503 9.503 0 0 0 1.085 3.271c1.464 2.616 4.124 4.152 8.12 4.152 6.798 0 12.006-3.124 14.43-8.989.82.015 1.386-.037 2.027-.261A3.465 3.465 0 0 0 35.26 8.54zM36.296 30.829h.053c.062 0 .113-.021.113-.073 0-.046-.033-.076-.104-.076a.27.27 0 0 0-.062.006v.143zm-.004.281h-.112v-.497a.97.97 0 0 1 .187-.015c.092 0 .133.015.169.037.026.02.047.06.047.109 0 .054-.041.097-.1.115v.006c.047.018.074.054.088.12a.382.382 0 0 0 .036.125h-.122c-.014-.018-.023-.063-.038-.121-.009-.055-.039-.079-.101-.079h-.054v.2zm-.3-.26c0 .22.161.397.38.397.214 0 .371-.176.371-.394 0-.222-.157-.4-.373-.4-.217 0-.378.178-.378.397zm.876 0a.494.494 0 0 1-.498.503.498.498 0 0 1-.502-.503c0-.276.223-.497.502-.497.282 0 .498.221.498.497z"/>
        </g>
    </g>
</svg>
