<?xml version="1.0" encoding="UTF-8"?>
<svg width="29px" height="32px" viewBox="0 0 29 32" version="1.1" xmlns="http://www.w3.org/2000/svg" xmlns:xlink="http://www.w3.org/1999/xlink">
    <!-- Generator: sketchtool 54.1 (76490) - https://sketchapp.com -->
    <title>86B48A9B-5EA6-4428-A24F-FF0784D46DB9</title>
    <desc>Created with sketchtool.</desc>
    <defs>
        <path d="M0.908266045,26.8658791 L0.00105442484,2.80023434 C-0.0289072184,2.00544049 0.583232871,1.33186198 1.38058113,1.28224919 L21.9414795,0.0029044048 C22.7530849,-0.0475954811 23.452142,0.56647824 23.5028674,1.37447646 C23.5047785,1.40491872 23.5057347,1.43541294 23.5057347,1.4659146 L23.5057347,27.6896907 C23.5057347,28.4992655 22.8465149,29.1555556 22.0333258,29.1555556 C22.0112962,29.1555555 21.9892693,29.1550633 21.9672619,29.1540793 L2.31357512,28.2752928 C1.54814174,28.2410675 0.937001363,27.6281421 0.908266045,26.8658791 L0.908266045,26.8658791 Z" id="path-1"></path>
    </defs>
    <g id="Logos" stroke="none" stroke-width="1" fill="none" fill-rule="evenodd">
        <g id="desktop-/-technology-logo-/-Storybook">
            <g id="Storybook" transform="translate(2.000000, 1.000000)">
                <mask id="mask-2" fill="white">
                    <use xlink:href="#path-1"></use>
                </mask>
                <use id="a" fill="#FF4785" fill-rule="nonzero" xlink:href="#path-1"></use>
                <path d="M17.3572096,3.58368223 L17.4976516,0.220870579 L20.3212812,0 L20.4429254,3.46795135 C20.4471589,3.58864406 20.3523133,3.68990149 20.2310818,3.69411617 C20.179172,3.69592084 20.1282995,3.67935248 20.0874977,3.64735312 L18.9986154,2.79338286 L17.7094054,3.76698087 C17.6127596,3.83996672 17.4749819,3.82113481 17.4016703,3.72491861 C17.3708096,3.68441637 17.3550883,3.63447495 17.3572096,3.58368223 Z M13.746058,10.9891277 C13.746058,11.5594348 17.604719,11.2861015 18.1227103,10.8855 C18.1227103,7.0018444 16.0295287,4.96104449 12.19656,4.96104449 C8.36359124,4.96104449 6.21604139,7.03359642 6.21604139,10.1424259 C6.21604139,15.5569707 13.5557687,15.6605983 13.5557687,18.6139864 C13.5557687,19.4430076 13.1480061,19.935239 12.2509283,19.935239 C11.0820088,19.935239 10.6198778,19.340917 10.6742462,17.3201778 C10.6742462,16.8818048 6.21604139,16.7451381 6.08012052,17.3201778 C5.73401062,22.217148 8.79853806,23.6296222 12.3052967,23.6296222 C15.7033186,23.6296222 18.3673678,21.8264436 18.3673678,18.5621726 C18.3673678,12.7590241 10.9189037,12.9144656 10.9189037,10.0387983 C10.9189037,8.87298719 11.7887974,8.71754573 12.3052967,8.71754573 C12.8489802,8.71754573 13.8276105,8.81294701 13.746058,10.9891277 Z" id="Shape" fill="#FFFFFF" fill-rule="nonzero" mask="url(#mask-2)"></path>
            </g>
        </g>
    </g>
</svg>