<?xml version="1.0" encoding="UTF-8"?>
<svg width="29px" height="32px" viewBox="0 0 29 32" version="1.1" xmlns="http://www.w3.org/2000/svg" xmlns:xlink="http://www.w3.org/1999/xlink">
    <title>logo-technology-graphql</title>
    <g id="Logos" stroke="none" stroke-width="1" fill="none" fill-rule="evenodd">
        <g id="desktop-/-technology-logo-/-graphql" fill="#E535AB" fill-rule="nonzero">
            <g id="GraphQL_Logo">
                <polygon id="Rectangle" transform="translate(8.704895, 12.716658) rotate(-149.999272) translate(-8.704895, -12.716658) " points="8.12090297 -0.424286479 9.49594563 -0.435017593 9.28888685 25.8576021 7.91384419 25.8683332"></polygon>
                <rect id="Rectangle" x="1.16992363" y="21.8998979" width="26.6518319" height="1.35648621"></rect>
                <polygon id="Rectangle" transform="translate(8.708065, 25.853965) rotate(-149.999272) translate(-8.708065, -25.853965) " points="1.05129545 25.2324361 16.375566 25.1128423 16.3648349 26.4754945 1.04056433 26.5950882"></polygon>
                <polygon id="Rectangle" transform="translate(20.288623, 6.153945) rotate(-149.999272) translate(-20.288623, -6.153945) " points="12.6318534 5.53241563 27.9561239 5.41282189 27.9453928 6.77547405 12.6211223 6.89506779"></polygon>
                <polygon id="Rectangle" transform="translate(8.711760, 6.148780) rotate(-120.000728) translate(-8.711760, -6.148780) " points="8.09023044 -1.50798934 9.4528826 -1.51872045 9.33328886 13.8055501 7.9706367 13.8162812"></polygon>
                <polygon id="Rectangle" transform="translate(20.298101, 12.716903) rotate(-120.000728) translate(-20.298101, -12.716903) " points="7.15715632 12.132911 33.449776 11.9258522 33.4390449 13.3008949 7.1464252 13.5079537"></polygon>
                <rect id="Rectangle" x="2.2266775" y="8.4412666" width="1.38126884" height="15.1174668"></rect>
                <rect id="Rectangle" x="25.3920537" y="8.4412666" width="1.38126884" height="15.1174668"></rect>
                <polygon id="Rectangle" transform="translate(20.288565, 25.846423) rotate(-120.000728) translate(-20.288565, -25.846423) " points="19.7454378 19.1871228 20.9357062 19.1777492 20.831692 32.5057229 19.6414235 32.5150965"></polygon>
                <path d="M28.6039198,24 C27.8051137,25.3646578 26.0244418,25.8304392 24.6348521,25.0459653 C23.2452623,24.2614913 22.7709712,22.5127681 23.5697773,21.1481103 C24.3685834,19.7834525 26.1492553,19.3176711 27.538845,20.102145 C28.9367556,20.8947906 29.4110467,22.6353422 28.6039198,24" id="Path"></path>
                <path d="M5.4219018,10.8518897 C4.62309572,12.2165475 2.84242385,12.6823289 1.45283411,11.897855 C0.0632443769,11.113381 -0.41104673,9.36465781 0.387759345,8 C1.18656542,6.63534219 2.96723729,6.16956078 4.35682703,6.95403473 C5.74641676,7.74668029 6.22070787,9.48723187 5.4219018,10.8518897" id="Path"></path>
                <path d="M0.396080241,24 C-0.402725833,22.6353422 0.0715652735,20.8947906 1.46115501,20.102145 C2.85074474,19.3176711 4.62309572,19.7834525 5.43022269,21.1481103 C6.22902877,22.5127681 5.75473766,24.2533197 4.36514793,25.0459653 C2.96723729,25.8304392 1.19488632,25.3646578 0.396080241,24" id="Path"></path>
                <path d="M23.5780982,10.8518897 C22.7792921,9.48723187 23.2535832,7.74668029 24.643173,6.95403473 C26.0327627,6.16956078 27.8051137,6.63534219 28.6122407,8 C29.4110467,9.36465781 28.9367556,11.1052094 27.5471659,11.897855 C26.1575762,12.6823289 24.3769043,12.2165475 23.5780982,10.8518897" id="Path"></path>
                <path d="M14.5,32 C12.894067,32 11.5960071,30.7252298 11.5960071,29.1481103 C11.5960071,27.5709908 12.894067,26.2962206 14.5,26.2962206 C16.105933,26.2962206 17.4039929,27.5709908 17.4039929,29.1481103 C17.4039929,30.7170582 16.105933,32 14.5,32" id="Path"></path>
                <path d="M14.5,5.70377937 C12.894067,5.70377937 11.5960071,4.42900919 11.5960071,2.85188968 C11.5960071,1.27477017 12.894067,1.16125473e-15 14.5,1.16125473e-15 C16.105933,1.16125473e-15 17.4039929,1.27477017 17.4039929,2.85188968 C17.4039929,4.42900919 16.105933,5.70377937 14.5,5.70377937" id="Path"></path>
            </g>
        </g>
    </g>
</svg>