<?xml version="1.0" encoding="UTF-8"?>
<svg width="29px" height="32px" viewBox="0 0 29 32" version="1.1" xmlns="http://www.w3.org/2000/svg" xmlns:xlink="http://www.w3.org/1999/xlink">
    <!-- Generator: sketchtool 53.2 (72643) - https://sketchapp.com -->
    <title>FED6533B-BD48-45DD-8CD8-A07988E73865</title>
    <desc>Created with sketchtool.</desc>
    <g id="Logos" stroke="none" stroke-width="1" fill="none" fill-rule="evenodd">
        <g id="desktop-/-technology-logo-/-circleci" fill="#000000">
            <path d="M14.3109235,12.9266332 C16.0507724,12.9266332 17.461162,14.3212588 17.461162,16.0416612 C17.461162,17.7620636 16.0507724,19.1566892 14.3109235,19.1566892 C12.5710747,19.1566892 11.1606851,17.7620636 11.1606851,16.0416612 C11.1606851,14.3212588 12.5710747,12.9266332 14.3109235,12.9266332 Z M14.3109235,3 C21.6194629,3 27.5,8.73148756 27.5,15.9583388 C27.5,23.18519 21.5773307,29 14.3109235,29 C8.17862978,29 3.01226639,24.8465155 1.54213211,19.2396701 C1.5,19.1980089 1.5,19.115028 1.5,19.0733668 C1.5,18.7411017 1.79388872,18.4504978 2.12990955,18.4504978 L7.46445601,18.4504978 C7.71655797,18.4504978 7.96831458,18.6164596 8.0525788,18.8244241 L8.0525788,18.8657438 C9.14456015,21.1915995 11.538838,22.8116052 14.3109235,22.8116052 C18.0910715,22.8116052 21.1995232,19.737897 21.1995232,16 C21.1995232,12.262103 18.1332036,9.18839476 14.3109235,9.18839476 C11.538838,9.18839476 9.14456015,10.8084005 8.0525788,13.1342562 C8.0525788,13.1755759 8.0525788,13.1755759 8.0525788,13.1755759 C7.92652782,13.3835404 7.71655797,13.5495022 7.46445601,13.5495022 L2.12990955,13.5495022 C1.79388872,13.5495022 1.5,13.2588983 1.5,12.9266332 C1.5,12.8433108 1.54213211,12.8019911 1.54213211,12.7603299 C3.01226639,7.15348446 8.17862978,3 14.3109235,3 Z" id="logo"></path>
        </g>
    </g>
</svg>