<?xml version="1.0" encoding="UTF-8" standalone="no"?>
<svg width="41px" height="32px" viewBox="0 0 41 32" version="1.1" xmlns="http://www.w3.org/2000/svg" xmlns:xlink="http://www.w3.org/1999/xlink">
    <!-- Generator: sketchtool 50.2 (55047) - http://www.bohemiancoding.com/sketch -->
    <title>0A337F49-6528-471F-A539-DA98C9653D40</title>
    <desc>Created with sketchtool.</desc>
    <defs></defs>
    <g id="Logos" stroke="none" stroke-width="1" fill="none" fill-rule="evenodd">
        <g id="desktop-/-technology-logo-/-mysql">
            <g id="logo" transform="translate(0.000000, 2.000000)">
                <path d="M28.0859704,2.84455652 C27.8933432,2.84455652 27.7574852,2.86793043 27.6204142,2.90177391 L27.6204142,2.92466087 L27.6424911,2.92466087 C27.7341953,3.10653913 27.8933432,3.23290435 28.0059112,3.39213913 C28.0973728,3.57450435 28.1769467,3.75638261 28.2676805,3.93850435 C28.2788402,3.92754783 28.2897574,3.91561739 28.2897574,3.91561739 C28.4498757,3.80215652 28.5292071,3.6197913 28.5292071,3.34587826 C28.4605503,3.26577391 28.4498757,3.18664348 28.3926213,3.10653913 C28.3246923,2.99283478 28.1769467,2.93586087 28.0859704,2.84455652" id="Fill-3" fill="#5B7F93"></path>
                <path d="M10.0214675,25.3382957 L8.44842604,25.3382957 C8.39311243,22.673913 8.23978698,20.1685217 7.98917751,17.8216348 L7.97534911,17.8216348 L5.58060947,25.3382957 L4.38287574,25.3382957 L2.00269231,17.8216348 L1.9886213,17.8216348 C1.81224852,20.075513 1.70113609,22.5809043 1.65479882,25.3382957 L0.220769231,25.3382957 C0.313443787,21.9848696 0.545372781,18.8413217 0.916556213,15.9069217 L2.86587574,15.9069217 L5.13518935,22.8368 L5.14926036,22.8368 L7.43240237,15.9069217 L9.29753846,15.9069217 C9.70608284,19.3436174 9.94723077,22.4881391 10.0214675,25.3382957" id="Fill-4" fill="#196D80"></path>
                <path d="M16.8429941,18.3799304 C16.2025207,21.8677565 15.3577751,24.4023652 14.309,25.983513 C13.4919112,27.2018783 12.5969467,27.8110609 11.6221657,27.8110609 C11.3623373,27.8110609 11.0421006,27.7324174 10.6616982,27.5763478 L10.6616982,26.7356174 C10.8475325,26.762887 11.0653905,26.7774957 11.3162426,26.7774957 C11.7708817,26.7774957 12.137213,26.6513739 12.4162071,26.3996174 C12.7500296,26.0928348 12.9169408,25.7480696 12.9169408,25.3660522 C12.9169408,25.1050435 12.7866627,24.5696348 12.5273195,23.7595826 L10.8009527,18.3799304 L12.3463373,18.3799304 L13.585071,22.4034087 C13.8635799,23.3169391 13.9795444,23.9546087 13.9332071,24.3181217 C14.6107988,22.5017739 15.0841183,20.5222957 15.3534083,18.3799304 L16.8429941,18.3799304" id="Fill-5" fill="#196D80"></path>
                <polyline id="Fill-6" fill="#E6892E" points="37.7806509 25.3382957 33.3121361 25.3382957 33.3121361 15.9069217 34.8157929 15.9069217 34.8157929 24.1781217 37.7806509 24.1781217 37.7806509 25.3382957"></polyline>
                <path d="M26.5464083,23.4515826 C26.1657633,22.8368 25.9750769,21.8502261 25.9750769,20.489913 C25.9750769,18.1150261 26.6946391,16.9268522 28.1330355,16.9268522 C28.8851065,16.9268522 29.4370296,17.2109913 29.7900178,17.7787826 C30.1701775,18.3938087 30.3608639,19.3718609 30.3608639,20.7131826 C30.3608639,23.1070609 29.6413018,24.304487 28.2029053,24.304487 C27.4510769,24.304487 26.8989112,24.0205913 26.5464083,23.4515826 M32.142787,25.5657043 L30.4154497,24.7108522 C30.5692604,24.5842435 30.7153077,24.4476522 30.8475266,24.2896348 C31.5809172,23.424313 31.9479763,22.1436174 31.9479763,20.4480348 C31.9479763,17.3278609 30.7274379,15.7669217 28.2866036,15.7669217 C27.089355,15.7669217 26.1563018,16.1625739 25.4881716,16.9550957 C24.7545385,17.8213913 24.3882071,19.0972174 24.3882071,20.7833043 C24.3882071,22.4411478 24.7128107,23.6573217 25.362503,24.4298783 C25.9566391,25.1281739 26.8523314,25.4778087 28.0498225,25.4778087 C28.4969408,25.4778087 28.9071834,25.4225391 29.2800651,25.312 L31.5294852,26.6258087 L32.142787,25.5657043" id="Fill-7" fill="#E6892E"></path>
                <path d="M23.7329349,22.7240696 C23.7329349,23.5238957 23.4401124,24.1805565 22.8564083,24.6942957 C22.2722189,25.2058435 21.4873964,25.4622261 20.5046095,25.4622261 C19.5853846,25.4622261 18.6945444,25.1671304 17.8316036,24.5815652 L18.2352959,23.771513 C18.9779053,24.1440348 19.6499172,24.3300522 20.2532722,24.3300522 C20.8192663,24.3300522 21.2622604,24.203687 21.5827396,23.9538783 C21.9024911,23.7023652 22.0941479,23.351513 22.0941479,22.9064348 C22.0941479,22.3464348 21.7050118,21.8677565 20.9910296,21.4662609 C20.3318757,21.1032348 19.0145385,20.345287 19.0145385,20.345287 C18.3007988,19.8227826 17.9429586,19.2620522 17.9429586,18.3382957 C17.9429586,17.5742609 18.2098225,16.9568 18.7428225,16.486887 C19.2770355,16.0162435 19.9662722,15.7808 20.8102899,15.7808 C21.6826923,15.7808 22.4760059,16.0145391 23.1904734,16.4800696 L22.8275385,17.2893913 C22.2161775,17.0293565 21.6133077,16.8988522 21.018929,16.8988522 C20.5366331,16.8988522 20.1649645,17.0149913 19.9058639,17.2487304 C19.6453077,17.4805217 19.4842189,17.7787826 19.4842189,18.1422957 C19.4842189,18.7008348 19.8818462,19.1853565 20.6159645,19.5946435 C21.2833669,19.957913 22.6329704,20.7304696 22.6329704,20.7304696 C23.3670888,21.252 23.7329349,21.8081043 23.7329349,22.7240696" id="Fill-8" fill="#E6892E"></path>
                <path d="M37.4647811,13.0667478 C37.2944734,13.1351652 37.0222722,13.1351652 36.9989822,13.3516174 C37.0904438,13.4426783 37.1013609,13.590713 37.1814201,13.7165913 C37.3172781,13.944487 37.5552722,14.251513 37.771432,14.4117217 C38.0099112,14.594087 38.2483905,14.7757217 38.4985148,14.9352 C38.9410237,15.2098435 39.440787,15.3685913 39.8716509,15.6422609 C40.1222604,15.8017391 40.3711716,16.0065043 40.6217811,16.177913 C40.7462367,16.2692174 40.8250828,16.4174957 40.984716,16.4737391 C40.9046568,16.3371478 40.8823373,16.1888696 40.8032485,16.0744348 C40.6899527,15.9612174 40.5761716,15.8579826 40.4623905,15.7445217 C40.1329349,15.3001739 39.7236627,14.9130435 39.2818817,14.594087 C38.9182189,14.3425739 38.1229645,14.0007304 37.9759467,13.580487 C38.2027811,13.5339826 38.4985148,13.4426783 38.7367515,13.3735304 C39.1222485,13.2712696 39.4742663,13.2944 39.8716509,13.1921391 C40.0536036,13.1461217 40.2353136,13.0889043 40.4177515,13.0329043 L40.4177515,12.9296696 C40.2122663,12.7249043 40.0652485,12.4509913 39.849574,12.2574261 C39.2709645,11.7561043 38.6343728,11.266713 37.9759467,10.8557217 C37.6234438,10.6278261 37.1692899,10.4802783 36.7944675,10.2859826 C36.6588521,10.2175652 36.4320178,10.1837217 36.3522012,10.069287 C36.1476864,9.81850435 36.0336627,9.4885913 35.8864024,9.1917913 C35.557432,8.5658087 35.2388935,7.87092174 34.9555325,7.20890435 C34.7512604,6.7648 34.6263195,6.32069565 34.3764379,5.9101913 C33.2063609,3.9725913 31.9351183,2.79951304 29.9821598,1.64834783 C29.5619704,1.40852174 29.0624497,1.30626087 28.5292071,1.18086957 C28.2448757,1.16893913 27.9612722,1.14678261 27.677426,1.13558261 C27.4954734,1.05547826 27.3135207,0.838782609 27.154858,0.736278261 C26.5073491,0.32626087 24.8389645,-0.562434783 24.3617633,0.611130435 C24.0551124,1.35227826 24.8159172,2.08125217 25.0772012,2.45742609 C25.270071,2.71916522 25.5201953,3.01596522 25.6558107,3.3117913 C25.7353846,3.5056 25.7581893,3.71109565 25.8380059,3.91586087 C26.0194734,4.41718261 26.1895385,4.97572174 26.428503,5.4432 C26.5529586,5.68253913 26.6890592,5.93356522 26.8479645,6.14904348 C26.9396686,6.27516522 27.0980888,6.3314087 27.1322959,6.53714783 C26.9738757,6.7648 26.961503,7.10664348 26.8707692,7.39175652 C26.4622249,8.67951304 26.6208876,10.2747826 27.2002249,11.2204522 C27.3814497,11.5053217 27.8135266,12.1322783 28.3926213,11.8924522 C28.9035444,11.687687 28.7900059,11.038087 28.9375089,10.4685913 C28.9714734,10.3310261 28.9486686,10.2406957 29.0165976,10.1496348 C29.175503,10.4912348 29.3348935,10.7982609 29.4823964,11.1181913 C29.8348994,11.676 30.4474734,12.2574261 30.9588817,12.6445565 C31.2305976,12.8502957 31.4465148,13.2030957 31.7871302,13.3287304 C31.6963964,13.1921391 31.594503,13.1461217 31.5035266,13.0667478 C31.2992544,12.8614957 31.0726627,12.610713 30.9130296,12.3830609 C30.4363136,11.7451478 30.0156391,11.038087 29.641787,10.3088696 C29.4595917,9.95485217 29.300929,9.56772174 29.1531834,9.21467826 C29.0852544,9.07857391 29.0852544,8.87283478 28.9714734,8.80466087 C28.8006805,9.0552 28.5515266,9.27189565 28.4268284,9.57867826 C28.2109112,10.069287 28.1883491,10.673113 28.1082899,11.3000696 C28.0631657,11.312 28.0859704,11.3000696 28.0631657,11.322713 C27.7002308,11.2316522 27.5752899,10.8557217 27.4387041,10.5374957 C27.0980888,9.72744348 27.0408343,8.42848696 27.336568,7.49401739 C27.4156568,7.25516522 27.7572426,6.50306087 27.6204142,6.27516522 C27.5517574,6.05773913 27.3249231,5.93356522 27.2002249,5.76191304 C27.0529645,5.54546087 26.8930888,5.27252174 26.7919231,5.03269565 C26.5192367,4.39478261 26.3821657,3.68796522 26.0878876,3.05005217 C25.9515444,2.75325217 25.7125799,2.44549565 25.5201953,2.17255652 C25.3040355,1.8648 25.0657988,1.64834783 24.8952485,1.28410435 C24.8389645,1.15846957 24.7593905,0.953217391 24.8498817,0.816869565 C24.8722012,0.725565217 24.9182959,0.691234783 25.0092722,0.668104348 C25.1560473,0.542956522 25.5767219,0.702191304 25.7239822,0.770608696 C26.1444142,0.941043478 26.496432,1.10149565 26.8479645,1.34034783 C27.0071124,1.45453913 27.1774201,1.6709913 27.3814497,1.72845217 L27.6204142,1.72845217 C27.9835917,1.80758261 28.3926213,1.7506087 28.7334793,1.8536 C29.3348935,2.04716522 29.8797811,2.33203478 30.3683846,2.6397913 C31.8553018,3.58570435 33.0816627,4.93067826 33.9101538,6.53714783 C34.0467396,6.79888696 34.1039941,7.03846957 34.2286923,7.3114087 C34.4671716,7.87092174 34.7626627,8.44066087 35.0006568,8.98702609 C35.2388935,9.52267826 35.4664556,10.069287 35.8075562,10.5143652 C35.9773787,10.7532174 36.6588521,10.8786087 36.965503,11.004 C37.1920947,11.1062609 37.5445976,11.1975652 37.7491124,11.322713 C38.1350947,11.5618087 38.5203491,11.8357217 38.8842544,12.0981913 C39.0654793,12.2347826 39.6334142,12.5194087 39.6676213,12.7477913 C38.7588284,12.7249043 38.0550355,12.8159652 37.4647811,13.0667478 Z" id="Fill-9" fill="#196D80"></path>
                <path d="M38.853929,25.3373217 L39.1030828,25.3373217 L39.1030828,24.3777739 L39.429142,24.3777739 L39.429142,24.1817739 L38.5152544,24.1817739 L38.5152544,24.3777739 L38.853929,24.3777739 L38.853929,25.3373217 Z M40.7498757,25.3373217 L40.984716,25.3373217 L40.984716,24.1817739 L40.6314852,24.1817739 L40.344,24.9694261 L40.0310414,24.1817739 L39.6906686,24.1817739 L39.6906686,25.3373217 L39.9128935,25.3373217 L39.9128935,24.4578783 L39.9255089,24.4578783 L40.2532663,25.3373217 L40.4226036,25.3373217 L40.7498757,24.4578783 L40.7498757,25.3373217 Z" id="Fill-10" fill="#E6892E"></path>
            </g>
        </g>
    </g>
</svg>