<?xml version="1.0" encoding="UTF-8"?>
<svg width="29px" height="32px" viewBox="0 0 29 32" version="1.1" xmlns="http://www.w3.org/2000/svg" xmlns:xlink="http://www.w3.org/1999/xlink">
    <!-- Generator: sketchtool 53.2 (72643) - https://sketchapp.com -->
    <title>D1C097A5-5E9A-4388-A09A-D3CD01CA0C98</title>
    <desc>Created with sketchtool.</desc>
    <g id="Logos" stroke="none" stroke-width="1" fill="none" fill-rule="evenodd">
        <g id="desktop-/-technology-logo-/-javascript">
            <g id="logo" transform="translate(1.000000, 2.500000)">
                <rect id="Rectangle" fill="#F7DF1E" x="0" y="0" width="27" height="27"></rect>
                <path d="M18.1371429,21.0938571 C18.681,21.9818571 19.3885714,22.6345714 20.64,22.6345714 C21.6912857,22.6345714 22.3628571,22.1091429 22.3628571,21.3831429 C22.3628571,20.5131429 21.6728571,20.205 20.5157143,19.6988571 L19.8814286,19.4267143 C18.0505714,18.6467143 16.8342857,17.6695714 16.8342857,15.6038571 C16.8342857,13.701 18.2841429,12.2524286 20.55,12.2524286 C22.1631429,12.2524286 23.3228571,12.8138571 24.1585714,14.2838571 L22.1828571,15.5524286 C21.7478571,14.7724286 21.2785714,14.4651429 20.55,14.4651429 C19.8068571,14.4651429 19.3358571,14.9365714 19.3358571,15.5524286 C19.3358571,16.3135714 19.8072857,16.6217143 20.8958571,17.0931429 L21.5301429,17.3648571 C23.6858571,18.2892857 24.903,19.2317143 24.903,21.3505714 C24.903,23.6348571 23.1085714,24.8862857 20.6987143,24.8862857 C18.3424286,24.8862857 16.8201429,23.7634286 16.0752857,22.2917143 L18.1371429,21.0938571 Z M9.17442857,21.3137143 C9.573,22.0208571 9.93557143,22.6187143 10.8072857,22.6187143 C11.6408571,22.6187143 12.1667143,22.2925714 12.1667143,21.0244286 L12.1667143,12.3972857 L14.7038571,12.3972857 L14.7038571,21.0587143 C14.7038571,23.6858571 13.1635714,24.8815714 10.9152857,24.8815714 C8.88385714,24.8815714 7.70742857,23.8302857 7.10914286,22.5640714 L9.17442857,21.3137143 Z" id="Shape" fill="#000000" fill-rule="nonzero"></path>
            </g>
        </g>
    </g>
</svg>