<?xml version="1.0" encoding="UTF-8"?>
<svg width="29px" height="32px" viewBox="0 0 29 32" version="1.1" xmlns="http://www.w3.org/2000/svg" xmlns:xlink="http://www.w3.org/1999/xlink">
    <!-- Generator: sketchtool 53.2 (72643) - https://sketchapp.com -->
    <title>2327B9A7-6AE9-4FFF-8B22-53BC73A9EC20</title>
    <desc>Created with sketchtool.</desc>
    <g id="Logos" stroke="none" stroke-width="1" fill="none" fill-rule="evenodd">
        <g id="desktop-/-technology-logo-/-polymer">
            <g id="Logo" transform="translate(0.000000, 6.000000)">
                <polygon id="Path" fill="#FF4081" fill-rule="nonzero" points="17.3775194 20.0055039 5.86676744 0.068003876 11.6224806 0.068003876 23.133345 20.0055039"></polygon>
                <polygon id="Path" fill-opacity="0.2" fill="#FFFFFF" fill-rule="nonzero" points="17.3775194 20.0055039 20.2550388 15.0211008 23.133345 20.0055039"></polygon>
                <polygon id="Path" fill-opacity="0.1" fill="#FFFFFF" fill-rule="nonzero" points="14.5 15.0211008 17.3775194 20.0055039 20.2550388 15.0211008"></polygon>
                <polygon id="Path" fill-opacity="0.1" fill="#000000" fill-rule="nonzero" points="11.6224806 10.0366977 14.5 15.0211008 17.3775194 10.0366977 11.6224806 10.0366977"></polygon>
                <polygon id="Path" fill-opacity="0.2" fill="#000000" fill-rule="nonzero" points="11.6224806 10.0366977 14.5 5.05229457 17.3775194 10.0366977 11.6224806 10.0366977"></polygon>
                <polygon id="Path" fill-opacity="0.3" fill="#000000" fill-rule="nonzero" points="8.74496124 5.05229457 11.6224806 10.0366977 14.5001124 5.05229457 8.74507364 5.05229457"></polygon>
                <polygon id="Path" fill-opacity="0.4" fill="#000000" fill-rule="nonzero" points="8.74496124 5.05229457 11.6224806 0.068003876 14.5001124 5.05229457 8.74507364 5.05229457"></polygon>
                <polygon id="Path" fill-opacity="0.5" fill="#000000" fill-rule="nonzero" points="5.86676744 0.068003876 8.74496124 5.05229457 11.6224806 0.068003876 5.86687984 0.068003876"></polygon>
                <g id="Group" transform="translate(0.000000, 4.945736)">
                    <polygon id="Path" fill="#536DFE" fill-rule="nonzero" points="5.86676744 15.0597674 0.11094186 5.09096124 2.98913566 0.10655814 11.6224806 15.0597674 5.86665504 15.0597674"></polygon>
                    <polygon id="Path" fill-opacity="0.2" fill="#FFFFFF" fill-rule="nonzero" points="5.86676744 15.0597674 8.74496124 10.0753643 11.6224806 15.0597674 5.86687984 15.0597674"></polygon>
                    <polygon id="Path" fill-opacity="0.1" fill="#FFFFFF" fill-rule="nonzero" points="2.98913566 10.0753643 5.86665504 15.0597674 8.74496124 10.0753643"></polygon>
                    <polygon id="Path" points="2.98913566 10.0753643 5.86665504 5.09096124 8.74496124 10.0753643"></polygon>
                    <polygon id="Path" fill-opacity="0.1" fill="#000000" fill-rule="nonzero" points="0.11094186 5.09096124 2.98913566 10.0753643 5.86665504 5.09096124 0.111054264 5.09096124"></polygon>
                    <polygon id="Path" fill-opacity="0.2" fill="#000000" fill-rule="nonzero" points="0.11094186 5.09096124 2.98913566 0.10655814 5.86665504 5.09096124 0.111054264 5.09096124"></polygon>
                </g>
                <g id="Group" transform="translate(2.922481, 0.000000)" fill-rule="nonzero">
                    <polygon id="Path" fill="#303F9F" points="2.94428682 10.0366977 0.0667674419 5.05229457 2.94417442 0.068003876 5.82248062 5.05229457"></polygon>
                    <polygon id="Path" fill-opacity="0.2" fill="#000000" points="5.82248062 5.05229457 2.94428682 0.068003876 0.0667674419 5.05229457"></polygon>
                </g>
                <g id="Group" transform="translate(20.232558, 10.003876)" fill-rule="nonzero">
                    <polygon id="Path" fill="#3F51B5" points="2.90067442 10.0016279 0.0224806202 5.01722481 2.90067442 0.0328217054 5.7781938 5.01722481 2.90067442 10.0016279"></polygon>
                    <polygon id="Path" fill-opacity="0.2" fill="#000000" points="5.7783062 5.01722481 2.90078682 10.0016279 0.0224806202 5.01722481"></polygon>
                </g>
                <g id="Group" transform="translate(17.310078, 0.000000)" fill-rule="nonzero">
                    <polygon id="Path" fill="#7986CB" points="8.70078682 15.0211008 0.0674418605 0.068003876 5.82326744 0.068003876 11.579093 10.0366977 8.70089922 15.0211008"></polygon>
                    <polygon id="Path" fill-opacity="0.2" fill="#FFFFFF" points="5.82315504 10.0366977 8.70067442 15.0211008 11.5789806 10.0366977 5.82315504 10.0366977"></polygon>
                    <polygon id="Path" fill-opacity="0.1" fill="#FFFFFF" points="5.82315504 10.0366977 8.70067442 5.05229457 11.5789806 10.0366977 5.82315504 10.0366977"></polygon>
                    <polygon id="Path" fill-opacity="0.1" fill="#000000" points="2.94496124 5.05229457 5.82315504 0.068003876 8.70067442 5.05229457"></polygon>
                    <polygon id="Path" fill-opacity="0.2" fill="#000000" points="0.0674418605 0.068003876 2.94496124 5.05229457 5.82337984 0.068003876"></polygon>
                </g>
            </g>
        </g>
    </g>
</svg>