<?xml version="1.0" encoding="UTF-8" standalone="no"?>
<svg width="144px" height="60px" viewBox="0 0 144 60" version="1.1" xmlns="http://www.w3.org/2000/svg" xmlns:xlink="http://www.w3.org/1999/xlink">
    <!-- Generator: sketchtool 50.2 (55047) - http://www.bohemiancoding.com/sketch -->
    <title>95672DC9-5ACD-4649-AC9D-FA662473092E</title>
    <desc>Created with sketchtool.</desc>
    <defs></defs>
    <g id="Logos" stroke="none" stroke-width="1" fill="none" fill-rule="evenodd">
        <g id="desktop-/-logo-/-event-/-commit-porto-/-grey">
            <g id="commit-porto" transform="translate(0.000000, 15.000000)">
                <path d="M81.6615385,10.6653846 C80.2948718,10.6653846 79.2897436,11.1 78.6461538,11.9692308 C78.0512821,12.7717949 77.7538462,13.9461538 77.7538462,15.4923077 L77.7538462,17.1807692 C77.7538462,18.7192308 78.0512821,19.8935897 78.6461538,20.7038462 C79.2897436,21.5705128 80.2948718,22.0038462 81.6615385,22.0038462 C83.0282051,22.0038462 84.0333333,21.5705128 84.6769231,20.7038462 C85.2717949,19.9012821 85.5692308,18.7269231 85.5692308,17.1807692 L85.5692308,15.4884615 C85.5692308,13.95 85.2717949,12.775641 84.6769231,11.9653846 C84.0333333,11.0987179 83.0282051,10.6653846 81.6615385,10.6653846 Z" id="Shape"></path>
                <path d="M70.6423077,10.6653846 C70.1115385,10.6653846 69.5153846,10.6961538 68.8576923,10.7615385 C68.3269231,10.8230769 67.8038462,10.8961538 67.2884615,10.9807692 L67.2884615,21.6884615 C68.3924855,21.9093573 69.5164577,22.015052 70.6423077,22.0038462 C73.0884615,22.0038462 74.3102564,20.3961538 74.3076923,17.1807692 L74.3076923,15.5884615 C74.3076923,12.3064103 73.0858974,10.6653846 70.6423077,10.6653846 Z" id="Shape"></path>
                <path d="M15.1423077,12.4423077 C13.5012821,12.4423077 12.6807692,13.4782051 12.6807692,15.55 L12.6807692,17.4153846 C12.6807692,19.4871795 13.5012821,20.5230769 15.1423077,20.5230769 C16.7833333,20.5230769 17.6038462,19.4871795 17.6038462,17.4153846 L17.6038462,15.55 C17.6038462,13.4782051 16.7833333,12.4423077 15.1423077,12.4423077 Z" id="Shape"></path>
                <path d="M8.21538462,10.1192308 C7.83490974,10.0286975 7.44970146,9.95935997 7.06153846,9.91153846 C6.45719946,9.84846206 5.84992744,9.8176491 5.24230769,9.81923077 C3.85686755,9.75245225 2.5036303,10.2507211 1.49230769,11.2 C0.497435897,12.1948718 0,13.5987179 0,15.4115385 L0,17.55 C0,19.3628205 0.498717949,20.7679487 1.49615385,21.7653846 C2.43205128,22.6858974 3.68205128,23.1461538 5.24615385,23.1461538 C5.8544823,23.1491032 6.46230345,23.1105521 7.06538462,23.0307692 C7.45384708,22.9963141 7.83941069,22.9346239 8.21923077,22.8461538 C8.51328419,22.8044784 8.72496793,22.5423938 8.70384615,22.2461538 L8.70384615,20.7692308 C8.70384615,20.5410256 8.56538462,20.4269231 8.28846154,20.4269231 L8.21923077,20.4269231 C7.72948718,20.4884615 7.30769231,20.5269231 6.95384615,20.5423077 C6.52307692,20.5730769 5.95512821,20.5884615 5.25,20.5884615 C4.67051286,20.617067 4.10780684,20.3891711 3.71153846,19.9653846 C3.26923077,19.4384615 3.03846154,18.6423077 3.03846154,17.5538462 L3.03846154,15.4115385 C3.03846154,14.3217949 3.26794872,13.5153846 3.72692308,12.9923077 C4.13062512,12.5823165 4.69083064,12.3652369 5.26538462,12.3961538 C5.97051282,12.3961538 6.53846154,12.4115385 6.96923077,12.4423077 C7.32307692,12.4576923 7.74487179,12.4961538 8.23461538,12.5576923 L8.30384615,12.5576923 C8.58076923,12.5576923 8.71923077,12.4423077 8.71923077,12.2115385 L8.71923077,10.7153846 C8.73942432,10.4133434 8.51656711,10.1496574 8.21538462,10.1192308 Z" id="Shape" fill="#AAAEB3" fill-rule="nonzero"></path>
                <path d="M15.1423077,9.81923077 C13.3935897,9.81923077 12.0282051,10.3641026 11.0461538,11.4538462 C10.1102564,12.4794872 9.64230769,13.8448718 9.64230769,15.55 L9.64230769,17.4153846 C9.64230769,19.1179487 10.1102564,20.4846154 11.0461538,21.5153846 C12.0282051,22.6051282 13.3935897,23.15 15.1423077,23.15 C16.8910256,23.15 18.2538462,22.6038462 19.2307692,21.5115385 C20.1666667,20.4858974 20.6346154,19.1192308 20.6346154,17.4115385 L20.6346154,15.55 C20.6346154,13.8474359 20.1666667,12.4820513 19.2307692,11.4538462 C18.2538462,10.3641026 16.8910256,9.81923077 15.1423077,9.81923077 Z M17.6038462,17.4153846 C17.6038462,19.4871795 16.7833333,20.5230769 15.1423077,20.5230769 C13.5012821,20.5230769 12.6846154,19.4871795 12.6923077,17.4153846 L12.6923077,15.55 C12.6923077,13.4782051 13.5128205,12.4423077 15.1538462,12.4423077 C16.7948718,12.4423077 17.6153846,13.4782051 17.6153846,15.55 L17.6038462,17.4153846 Z" id="Shape" fill="#AAAEB3" fill-rule="nonzero"></path>
                <path d="M48.2076923,9.81923077 C47.514521,9.81123934 46.8238989,9.90453164 46.1576923,10.0961538 C45.5487566,10.2898477 44.9621292,10.5477059 44.4076923,10.8653846 C43.8384615,10.1730769 42.9410256,9.82820513 41.7153846,9.83076923 C41.1019694,9.82796966 40.4932218,9.93746602 39.9192308,10.1538462 C39.1966344,10.4896929 38.494168,10.8672526 37.8153846,11.2846154 L37.7846154,11.2384615 C37.3729069,10.6150369 36.7410505,10.1699902 36.0153846,9.99230769 C35.585807,9.88152291 35.1436187,9.82721908 34.7,9.83076923 C34.0068186,9.82261242 33.3161725,9.91590795 32.65,10.1076923 C32.041095,10.3014676 31.4544761,10.5593221 30.9,10.8769231 C30.3333333,10.1846154 29.4358974,9.83974359 28.2076923,9.84230769 C27.5942771,9.83950812 26.9855295,9.94900448 26.4115385,10.1653846 C25.8882609,10.3709164 25.3870136,10.6286271 24.9153846,10.9346154 L24.9153846,10.4423077 C24.9336549,10.3151704 24.890943,10.1868571 24.8001199,10.096034 C24.7092967,10.0052108 24.5809834,9.96249896 24.4538462,9.98076923 L22.4615385,9.98076923 C22.3344012,9.96249896 22.2060879,10.0052108 22.1152648,10.096034 C22.0244416,10.1868571 21.9817297,10.3151704 22,10.4423077 L22,22.4807692 C22,22.8012821 22.1538462,22.9615385 22.4615385,22.9615385 L24.5769231,22.9615385 C24.8846154,22.9615385 25.0384615,22.8012821 25.0384615,22.4807692 L25.0384615,13.1807692 C25.9897436,12.6679487 26.6948718,12.4115385 27.1538462,12.4115385 C27.7974359,12.4115385 28.2269231,12.5653846 28.4423077,12.8730769 C28.6576923,13.1807692 28.7576923,13.7717949 28.7423077,14.6461538 L28.7423077,22.4807692 C28.7423077,22.8038462 28.8961538,22.9615385 29.2038462,22.9615385 L31.3230769,22.9615385 C31.6307692,22.9615385 31.7846154,22.8012821 31.7846154,22.4807692 L31.7846154,14.6538462 C31.7904923,14.0998498 31.7596555,13.5460727 31.6923077,12.9961538 C32.076834,12.7897577 32.4867275,12.6345929 32.9115385,12.5346154 C33.2131242,12.4644135 33.5211892,12.4257442 33.8307692,12.4192308 C34.474359,12.4192308 34.9115385,12.5730769 35.1423077,12.8807692 C35.3730769,13.1884615 35.4884615,13.7807692 35.4884615,14.6538462 L35.4884615,22.4807692 C35.4884615,22.8012821 35.6423077,22.9615385 35.95,22.9615385 L38.0769231,22.9615385 C38.3846154,22.9615385 38.5384615,22.8012821 38.5384615,22.4807692 L38.5384615,13.1807692 C39.4897436,12.6679487 40.1961538,12.4115385 40.6576923,12.4115385 C41.3012821,12.4115385 41.7307692,12.5653846 41.9461538,12.8730769 C42.1615385,13.1807692 42.2615385,13.7717949 42.2461538,14.6461538 L42.2461538,22.4807692 C42.2461538,22.8012821 42.4,22.9615385 42.7076923,22.9615385 L44.8230769,22.9615385 C45.1307692,22.9615385 45.2846154,22.8012821 45.2846154,22.4807692 L45.2846154,14.6538462 C45.2905149,14.0998493 45.259678,13.5460707 45.1923077,12.9961538 C45.576834,12.7897577 45.9867275,12.6345929 46.4115385,12.5346154 C46.7131339,12.4644681 47.0211932,12.4257996 47.3307692,12.4192308 C47.974359,12.4192308 48.4115385,12.5730769 48.6423077,12.8807692 C48.8730769,13.1884615 48.9884615,13.7807692 48.9884615,14.6538462 L48.9884615,22.4807692 C48.9884615,22.8012821 49.1423077,22.9615385 49.45,22.9615385 L51.5692308,22.9615385 C51.8769231,22.9615385 52.0307692,22.8012821 52.0307692,22.4807692 L52.0307692,14.6538462 C52.0307692,13.1358974 51.7846154,11.9935897 51.2923077,11.2269231 C50.6871795,10.2884615 49.6589744,9.81923077 48.2076923,9.81923077 Z" id="Shape" fill="#AAAEB3" fill-rule="nonzero"></path>
                <path d="M56.4538462,9.98076923 L54.3384615,9.98076923 C54.2113243,9.96249896 54.083011,10.0052108 53.9921878,10.096034 C53.9013647,10.1868571 53.8586528,10.3151704 53.8769231,10.4423077 L53.8769231,22.4807692 C53.8769231,22.8012821 54.0307692,22.9615385 54.3384615,22.9615385 L56.4538462,22.9615385 C56.7615385,22.9615385 56.9153846,22.8012821 56.9153846,22.4807692 L56.9153846,10.4423077 C56.9336549,10.3151704 56.890943,10.1868571 56.8001199,10.096034 C56.7092967,10.0052108 56.5809834,9.96249896 56.4538462,9.98076923 Z" id="Shape" fill="#AAAEB3" fill-rule="nonzero"></path>
                <path d="M63.9384615,20.7692308 L62.7192308,20.7692308 C62.3038462,20.7692308 62.0538462,20.7 61.95,20.5615385 C61.8242559,20.2146758 61.7769677,19.8442514 61.8115385,19.4769231 L61.8115385,12.2576923 L63.8807692,12.2576923 C64.0071453,12.2756792 64.1346509,12.2334369 64.2252898,12.1435534 C64.3159286,12.0536699 64.3592364,11.9265222 64.3423077,11.8 L64.3423077,10.4423077 C64.360578,10.3151704 64.3178661,10.1868571 64.2270429,10.096034 C64.1362198,10.0052108 64.0079065,9.96249896 63.8807692,9.98076923 L61.8115385,9.98076923 L61.8115385,7.61153846 C61.8115385,7.38076923 61.6884615,7.26538462 61.4269231,7.26538462 L59.1961538,7.65 C58.8884615,7.71153846 58.7346154,7.86538462 58.7346154,8.11153846 L58.7346154,19.4846154 C58.7346154,20.9589744 59.0179487,21.9576923 59.5846154,22.4807692 C60.0974359,22.924359 61.0333333,23.1461538 62.3923077,23.1461538 C62.917546,23.1336723 63.4409738,23.0796577 63.9576923,22.9846154 C64.25,22.9384615 64.3961538,22.8 64.3961538,22.5692308 L64.3961538,21.1192308 C64.4141026,20.8858974 64.2615385,20.7692308 63.9384615,20.7692308 Z" id="Shape" fill="#AAAEB3" fill-rule="nonzero"></path>
                <path d="M70.6423077,9.72307692 C69.9246658,9.72940239 69.2080277,9.7782057 68.4961538,9.86923077 C67.8371795,9.95128205 67.1961538,10.0551282 66.5730769,10.1807692 C66.3528859,10.2178117 66.1965885,10.4156775 66.2115385,10.6384615 L66.2115385,27.0461538 C66.2115385,27.35 66.3461538,27.5038462 66.6230769,27.5038462 L66.8653846,27.5038462 C67.1384615,27.5038462 67.2730769,27.35 67.2730769,27.0461538 L67.2730769,22.5846154 C68.3742623,22.8285012 69.4990593,22.9497522 70.6269231,22.9461538 C73.7782051,22.9461538 75.3538462,21.0230769 75.3538462,17.1769231 L75.3538462,15.5884615 C75.3538462,13.7705128 74.9846154,12.3602564 74.2461538,11.3576923 C73.4512821,10.2679487 72.25,9.72307692 70.6423077,9.72307692 Z M74.3076923,17.1769231 C74.3076923,20.3948718 73.0858974,22.0025641 70.6423077,22 C69.5164577,22.0112058 68.3924855,21.9055112 67.2884615,21.6846154 L67.2884615,10.9807692 C67.8012821,10.8987179 68.324359,10.825641 68.8576923,10.7615385 C69.5153846,10.6961538 70.1115385,10.6653846 70.6423077,10.6653846 C73.0884615,10.6653846 74.3102564,12.3064103 74.3076923,15.5884615 L74.3076923,17.1769231 Z" id="Shape" fill="#AAAEB3" fill-rule="nonzero"></path>
                <path d="M81.6615385,9.72307692 C78.3487179,9.72307692 76.6923077,11.6461538 76.6923077,15.4923077 L76.6923077,17.1807692 C76.6923077,21.0269231 78.3487179,22.95 81.6615385,22.95 C84.974359,22.95 86.6307692,21.0269231 86.6307692,17.1807692 L86.6307692,15.4884615 C86.6307692,11.6474359 84.974359,9.72564103 81.6615385,9.72307692 Z M85.5692308,17.1769231 C85.5692308,18.7153846 85.2717949,19.8897436 84.6769231,20.7 C84.0333333,21.5666667 83.0282051,22 81.6615385,22 C80.2948718,22 79.2897436,21.5666667 78.6461538,20.7 C78.0512821,19.8974359 77.7538462,18.7230769 77.7538462,17.1769231 L77.7538462,15.4884615 C77.7538462,13.95 78.0512821,12.775641 78.6461538,11.9653846 C79.2897436,11.0987179 80.2948718,10.6641026 81.6615385,10.6615385 C83.0282051,10.6589744 84.0333333,11.0935897 84.6769231,11.9653846 C85.2717949,12.7679487 85.5692308,13.9423077 85.5692308,15.4884615 L85.5692308,17.1769231 Z" id="Shape" fill="#AAAEB3" fill-rule="nonzero"></path>
                <path d="M104.957692,9.72307692 C101.644872,9.72307692 99.9884615,11.6461538 99.9884615,15.4923077 L99.9884615,17.1807692 C99.9884615,21.0269231 101.644872,22.95 104.957692,22.95 C108.270513,22.95 109.926923,21.0269231 109.926923,17.1807692 L109.926923,15.4884615 C109.926923,11.6474359 108.270513,9.72564103 104.957692,9.72307692 Z M108.865385,17.1769231 C108.865385,18.7153846 108.567949,19.8897436 107.973077,20.7 C107.329487,21.5666667 106.324359,22 104.957692,22 C103.591026,22 102.585897,21.5666667 101.942308,20.7 C101.347436,19.8974359 101.05,18.7230769 101.05,17.1769231 L101.05,15.4884615 C101.05,13.95 101.347436,12.775641 101.942308,11.9653846 C102.585897,11.0987179 103.591026,10.6641026 104.957692,10.6615385 C106.324359,10.6589744 107.329487,11.0935897 107.973077,11.9653846 C108.567949,12.7679487 108.865385,13.9423077 108.865385,15.4884615 L108.865385,17.1769231 Z" id="Shape" fill="#AAAEB3" fill-rule="nonzero"></path>
                <path d="M92.8346154,9.72307692 C91.6326815,9.75799614 90.4670724,10.142968 89.4807692,10.8307692 L89.4807692,10.3269231 C89.4807692,10.0064103 89.3358974,9.84615385 89.0461538,9.84615385 L88.8461538,9.84615385 C88.5576923,9.84615385 88.4115385,10.0076923 88.4115385,10.3269231 L88.4115385,22.3423077 C88.3836568,22.4702458 88.4227799,22.6035799 88.5153692,22.6961692 C88.6079585,22.7887586 88.7412926,22.8278817 88.8692308,22.8 L89.0153846,22.8 C89.1415044,22.8183153 89.2688697,22.7760241 89.3589853,22.6859084 C89.449101,22.5957928 89.4913922,22.4684275 89.4730769,22.3423077 L89.4730769,11.7769231 C90.0489679,11.3966027 90.6739316,11.0964131 91.3307692,10.8846154 C91.8157851,10.7374311 92.3200698,10.6635385 92.8269231,10.6653846 C93.2615385,10.6653846 93.4769231,10.5346154 93.4769231,10.2807692 L93.4769231,10.0846154 C93.4846154,9.84615385 93.2692308,9.72307692 92.8346154,9.72307692 Z" id="Shape" fill="#AAAEB3" fill-rule="nonzero"></path>
                <path d="M99.0461538,22.0076923 L97.85,22.0076923 C97.4189593,22.0529779 96.9852596,21.9513295 96.6192308,21.7192308 C96.3307692,21.4807692 96.1846154,21.0192308 96.1846154,20.3423077 L96.1846154,10.8346154 L99.0576923,10.8346154 C99.3628205,10.8346154 99.5153846,10.7064103 99.5153846,10.45 L99.5153846,10.2115385 C99.5153846,9.96923077 99.3615385,9.85 99.0576923,9.85 L96.1846154,9.85 L96.1846154,7.36153846 C96.1846154,7.05384615 96.0576923,6.9 95.8,6.9 L95.5346154,6.9 C95.2615385,6.9 95.1230769,7.05384615 95.1230769,7.36153846 L95.1230769,20.3384615 C95.1230769,21.3205128 95.3641026,22.0128205 95.8461538,22.4153846 C96.2641026,22.7666667 96.9320513,22.9435897 97.85,22.9461538 C98.2689847,22.9492969 98.6877544,22.9261747 99.1038462,22.8769231 C99.3769231,22.8269231 99.5115385,22.7 99.5115385,22.4923077 L99.5115385,22.3461538 C99.5115385,22.1307692 99.3538462,22.0230769 99.0461538,22.0115385 L99.0461538,22.0076923 Z" id="Shape" fill="#AAAEB3" fill-rule="nonzero"></path>
                <rect id="Rectangle-path" fill="#AAAEB3" fill-rule="nonzero" x="53.8076923" y="5.14615385" width="3.10769231" height="3.10769231"></rect>
                <polygon id="Shape" fill="#F26739" fill-rule="nonzero" opacity="0.4" points="99.0461538 22.0076923 99.05 22.0076923 99.0461538 22.0076923"></polygon>
                <path d="M108.926923,21.9538462 C108.711798,21.9332864 108.498428,21.8972963 108.288462,21.8461538 C107.99192,22.0805279 107.714151,22.3377214 107.457692,22.6153846 C107.625384,22.6734843 107.796157,22.7222765 107.969231,22.7615385 C108.272107,22.4734929 108.591907,22.2037825 108.926923,21.9538462 Z" id="Shape" fill="#A6D38D" fill-rule="nonzero" opacity="0.4"></path>
                <path d="M113.103846,19.4192308 C113.054018,19.5982781 112.993656,19.7742256 112.923077,19.9461538 L112.980769,19.9269231 C113.365385,19.8038462 113.773077,19.6923077 114.176923,19.5807692 C114.226923,19.3961538 114.269231,19.1961538 114.303846,19.0038462 C113.898718,19.1397436 113.498718,19.2782051 113.103846,19.4192308 Z" id="Shape" fill="#A6D38D" fill-rule="nonzero" opacity="0.4"></path>
                <path d="M138.846154,3.40769231 C136.196567,1.04057427 132.71515,-0.177019185 129.167808,0.0227802924 C125.620465,0.222579769 122.297792,1.82340485 119.930769,4.47307692 C118.007692,6.60769231 119.846154,10.5846154 123.080769,14.3423077 C123.234615,14.5192308 123.384615,14.6961538 123.542308,14.8730769 C122.504935,15.7737807 121.321219,16.4905144 120.042308,16.9923077 C118.265385,17.7615385 116.246154,18.3576923 114.3,19.0076923 C114.261538,19.2076923 114.219231,19.3923077 114.173077,19.5846154 C116.334615,18.9961538 118.630769,18.5538462 120.669231,17.9076923 C122.085938,17.5090045 123.418908,16.857504 124.603846,15.9846154 L124.715385,16.0961538 C124.310042,16.5609623 123.866156,16.9906956 123.388462,17.3807692 C122.619231,18.0346154 121.753846,18.6615385 120.926923,19.3269231 C120.542308,19.6307692 120.184615,19.9384615 119.838462,20.2653846 C119.716119,20.3871521 119.60056,20.5155508 119.492308,20.65 C119.12607,21.1524559 118.715446,21.6210046 118.265385,22.05 C115.692308,24.1192308 111.757692,25.1269231 111.634615,28.8307692 C112.430769,26.2307692 114.542308,24.4769231 117.330769,23.1615385 C116.911538,23.8076923 116.357692,24.5 115.834615,25.2576923 C115.596873,25.152944 115.379446,25.007125 115.192308,24.8269231 C115.301245,25.0775741 115.490751,25.2846774 115.730769,25.4153846 C114.888462,26.6653846 114.15,28.1076923 114.192308,29.8423077 C114.890583,28.4206994 115.67406,27.0425507 116.538462,25.7153846 L116.684615,25.5 C117.369231,24.45 118.096154,23.4269231 118.880769,22.4423077 C120.586693,21.7611552 122.255659,20.9908632 123.880769,20.1346154 C124.580769,19.7807692 125.276923,19.4230769 125.988462,19.0769231 C125.738462,19.6576923 125.419231,20.3153846 125.111538,21.0269231 C124.732249,21.8674727 124.437217,22.743551 124.230769,23.6423077 C124.903593,23.303575 125.524075,22.8696256 126.073077,22.3538462 C126.984559,21.4560263 127.809958,20.4748193 128.538462,19.4230769 C128.8,19.6192308 129.057692,19.8076923 129.307692,20 C128.812528,20.9620085 128.195954,21.8564939 127.473077,22.6615385 C126.895928,23.1535842 126.28124,23.5998123 125.634615,23.9961538 C125.127435,24.3124742 124.600741,24.5963751 124.057692,24.8461538 C124.057692,24.9769231 124.030769,25.1076923 124.030769,25.2307692 C123.611538,25.3961538 123.138462,25.5923077 122.642308,25.7884615 C122.07827,26.0147362 121.503181,26.2124231 120.919231,26.3807692 C119.669231,26.7269231 118.442308,26.8384615 117.588462,26.2307692 C118.038462,26.9807692 119.284615,27 120.692308,26.8038462 C121.119231,26.7423077 121.561538,26.6615385 122,26.5730769 C122.55,26.4615385 123.092308,26.3423077 123.596154,26.2384615 C123.596154,26.95 123.138462,28.3038462 122.030769,28.6653846 C123.823077,28.4615385 124.780769,26.7884615 125.384615,25.4615385 C127.428955,24.3265714 129.173314,22.7206541 130.473077,20.7769231 C134.319231,23.2307692 138.107692,24.3153846 139.896154,22.3153846 C144.824152,16.8030748 144.354198,8.34045791 138.846154,3.40769231 Z M123.261538,19.4846154 L121.538462,20.0307692 C122.171795,19.4923077 122.812821,18.9615385 123.461538,18.4384615 C124.123077,17.9115385 124.796154,17.3961538 125.507692,16.9 L125.811538,17.1769231 L126.026923,17.3769231 L126.3,17.6230769 L126.369231,17.6884615 C125.384615,18.3153846 124.35,18.9115385 123.265385,19.4807692 L123.261538,19.4846154 Z" id="Shape" fill="#AAAEB3" fill-rule="nonzero" opacity="0.400000006"></path>
                <path d="M107.457692,22.6307692 C106.797659,23.3467631 106.34668,24.2300962 106.153846,25.1846154 C106.265385,25.1846154 106.261538,25.1115385 106.25,25.0346154 C106.707152,24.2004421 107.286656,23.4394377 107.969231,22.7769231 C107.796157,22.7376612 107.625384,22.6888689 107.457692,22.6307692 Z" id="Shape" fill="#A6D38D" fill-rule="nonzero" opacity="0.4"></path>
                <path d="M113.103846,19.4192308 C111.265385,20.0769231 109.561538,20.8230769 108.288462,21.85 C108.498428,21.9011424 108.711798,21.9371325 108.926923,21.9576923 C110.132642,21.064356 111.483125,20.3852112 112.919231,19.95 C112.991258,19.7769012 113.052906,19.599664 113.103846,19.4192308 Z" id="Shape" fill="#A6D38D" fill-rule="nonzero" opacity="0.4"></path>
                <path d="M110.319231,9.58461538 L110.219231,9.58461538 C110.157692,9.58461538 110.05,9.61153846 110.003846,9.77692308 L109.688462,10.9307692 C109.683577,10.9587629 109.683577,10.9873909 109.688462,11.0153846 C109.686232,11.0598935 109.702939,11.1032677 109.734451,11.1347797 C109.765963,11.1662917 109.809337,11.1829989 109.853846,11.1807692 L109.980769,11.1807692 C110.09418,11.1815979 110.190161,11.0972003 110.203846,10.9846154 L110.469231,9.86153846 C110.474813,9.83749929 110.474813,9.81250071 110.469231,9.78846154 L110.469231,9.76153846 C110.478854,9.71711708 110.467263,9.67074692 110.43787,9.63607822 C110.408477,9.60140953 110.364628,9.58238884 110.319231,9.58461538 Z" id="Shape" fill="#AAAEB3" fill-rule="nonzero"></path>
                <path d="M112.246154,9.57692308 L111.273077,9.71153846 C111.15592,9.71963717 111.065105,9.81717967 111.065385,9.93461538 L111.065385,9.96923077 C111.066156,10.0143436 111.082457,10.0578112 111.111538,10.0923077 C111.153767,10.1323416 111.211336,10.1519996 111.269231,10.1461538 L111.984615,10.0576923 L111.984615,14.4692308 C111.979942,14.5297065 112.001939,14.5892031 112.04483,14.6320934 C112.08772,14.6749837 112.147217,14.696981 112.207692,14.6923077 L112.234615,14.6923077 C112.295091,14.696981 112.354588,14.6749837 112.397478,14.6320934 C112.440368,14.5892031 112.462366,14.5297065 112.457692,14.4692308 L112.457692,9.8 C112.463306,9.74132497 112.443246,9.68309251 112.402688,9.64032212 C112.36213,9.59755173 112.305044,9.57443092 112.246154,9.57692308 Z" id="Shape" fill="#AAAEB3" fill-rule="nonzero"></path>
                <path d="M136.85,5.64230769 C132.204781,1.49478797 125.077436,1.89591631 120.926923,6.53846154 C119.411538,8.23461538 120.696154,11.3076923 123.130769,14.3076923 L123.15,14.3076923 C121.05,15.8692308 117.715385,16.4346154 114.453846,16.9576923 L113.392308,17.1307692 C110.519231,17.6038462 107.757692,18.1769231 105.911538,19.5653846 C105.599006,19.7990852 105.310415,20.0631975 105.05,20.3538462 C104.611557,20.841519 104.269614,21.407944 104.042308,22.0230769 C104.15,22.0230769 104.157692,21.9653846 104.161538,21.8884615 C104.718464,21.1888268 105.365041,20.5655267 106.084615,20.0346154 C107.723074,18.874866 109.623206,18.1388622 111.615385,17.8923077 C112.192308,17.8076923 112.769231,17.7384615 113.376923,17.6807692 C113.734615,17.6461538 114.092308,17.6115385 114.45,17.5846154 C116.373077,17.4230769 118.296154,17.3153846 120.05,17.0076923 C121.343284,16.48558 122.542451,15.7554262 123.6,14.8461538 C123.792308,15.0692308 123.984615,15.2923077 124.192308,15.5153846 L124.226923,15.5538462 C123.326923,16.4692308 121.988462,17.2038462 120.673077,17.9230769 C119.880769,18.3576923 119.073077,18.8 118.338462,19.3038462 C117.711538,19.7307692 117.153846,20.4576923 116.507692,20.8115385 C113.646154,22.4538462 109.584615,22.85 108.903846,26.4807692 C110.096154,24.0384615 112.453846,22.6346154 115.411538,21.7692308 C114.023077,23.3076923 111.646154,25.0192308 111.284615,27.8807692 C112.956967,25.4771139 114.891986,23.2673215 117.053846,21.2923077 C117.903846,21.1115385 118.711538,20.9076923 119.507692,20.6692308 C120.205128,20.4717949 120.891026,20.2641026 121.565385,20.0461538 L123.276923,19.5 C123.715385,19.3576923 124.153846,19.2153846 124.596154,19.0769231 C124.384615,19.4115385 124.142308,19.7730769 123.884615,20.1576923 C123.019231,21.4615385 122.026923,23.0423077 121.723077,24.8615385 C120.276923,25.1846154 118.234615,25.7538462 116.688462,25.5153846 L116.546154,25.7307692 C117.8,26.0153846 119.65,25.8576923 121.142308,25.7884615 C121.102154,26.0020317 121.03629,26.2099549 120.946154,26.4076923 C120.880237,26.5524845 120.804416,26.6925602 120.719231,26.8269231 C120.402563,27.3977264 119.853977,27.8032026 119.215385,27.9384615 C120.388462,27.9884615 121.303846,27.3692308 122.026923,26.5961538 C122.255828,26.3524756 122.470297,26.0956274 122.669231,25.8269231 C122.796154,25.65 122.915385,25.4769231 123.026923,25.3076923 C123.391026,25.174359 123.74359,25.0307692 124.084615,24.8769231 C124.627664,24.6271443 125.154358,24.3432434 125.661538,24.0269231 C126.308163,23.6305815 126.922851,23.1843535 127.5,22.6923077 C128.3413,21.963468 129.113784,21.158797 129.807692,20.2884615 C133.053846,22.3615385 136.242308,23.2846154 137.753846,21.5923077 C139.754024,19.3596224 140.782969,16.4224527 140.613374,13.4296561 C140.44378,10.4368596 139.089604,7.63473534 136.85,5.64230769 Z M123.488462,18.4346154 C122.653846,18.75 121.807692,19.0576923 120.930769,19.3346154 C120.341026,19.5217949 119.742308,19.7025641 119.134615,19.8769231 C120.523077,19.0192308 121.915385,18.1692308 123.392308,17.3884615 C123.965385,17.0846154 124.546154,16.7923077 125.15,16.5153846 C125.061538,16.4307692 124.980769,16.3423077 124.9,16.25 L125.15,16.5153846 C125.375641,16.7384615 125.605128,16.9576923 125.838462,17.1730769 L126.053846,17.3692308 C125.238462,17.7423077 124.346154,18.1076923 123.488462,18.4346154 Z M128.55,19.4115385 C127.821496,20.4632808 126.996097,21.4444879 126.084615,22.3423077 C125.53284,22.8630785 124.908378,23.3009794 124.230769,23.6423077 C123.980873,23.7693875 123.724061,23.8823847 123.461538,23.9807692 C123.77131,22.8822579 124.336726,21.8726798 125.111538,21.0346154 C125.910027,20.1557948 126.883409,19.4535972 127.969231,18.9730769 L127.934615,18.9461538 L127.642308,18.7076923 L127.934615,18.9461538 C128.165385,19.1230769 128.396154,19.2948718 128.626923,19.4615385 L128.55,19.4115385 Z" id="Shape" fill="#AAAEB3" fill-rule="nonzero"></path>
                <text id="8" fill="#AAAEB3" font-family="Helvetica" font-size="6.66153846" font-weight="normal">
                    <tspan x="113.165385" y="14.45">8</tspan>
                </text>
                <path d="M136.8,5.59230769 C134.563261,3.6056758 131.62879,2.58922675 128.642451,2.76667588 C125.656112,2.94412501 122.862661,4.3009288 120.876923,6.53846154 C119.369231,8.23846154 120.665385,11.3115385 123.111538,14.3 L123.130769,14.3 C123.457692,14.6846154 123.803846,15.1038462 124.169231,15.5 L124.2,15.5346154 C124.505128,15.8653846 124.820513,16.1910256 125.146154,16.5115385 C125.402564,16.7679487 125.658974,17.0141026 125.915385,17.25 L126.042308,17.3653846 C126.638462,17.9076923 127.257692,18.4269231 127.888462,18.9038462 C128.116667,19.0782051 128.347436,19.2487179 128.580769,19.4153846 L128.538462,19.3884615 C127.813854,20.4422646 126.992332,21.4260307 126.084615,22.3269231 C125.538292,22.8435375 124.92041,23.2787747 124.25,23.6192308 C124.25,23.65 124.25,23.6846154 124.25,23.7153846 L124.1,23.6884615 C123.9,23.7807692 123.715385,23.8769231 123.488462,23.9576923 C123.515385,23.8538462 123.557692,23.7576923 123.588462,23.6576923 C123.907749,22.6741947 124.432121,21.7696538 125.126923,21.0038462 C125.922198,20.121898 126.892928,19.4157934 127.976923,18.9307692 L127.919231,18.8846154 C127.376923,18.4692308 126.842308,18.0307692 126.323077,17.5730769 L126.061538,17.3384615 C125.234615,17.7230769 124.376923,18.0730769 123.5,18.4115385 C122.623077,18.75 121.823077,19.0423077 120.946154,19.3230769 C120.35641,19.5153846 119.757692,19.6974359 119.15,19.8692308 C120.534615,19.0038462 121.923077,18.15 123.380769,17.3653846 C123.953846,17.0615385 124.534615,16.7653846 125.134615,16.4846154 C124.808974,16.1666667 124.492308,15.8435897 124.184615,15.5153846 C123.288462,16.45 121.988462,17.1576923 120.661538,17.8923077 C119.869231,18.3269231 119.065385,18.7730769 118.330769,19.2807692 C117.707692,19.7115385 117.15,20.4346154 116.503846,20.7961538 C115.947988,21.1085134 115.373878,21.3872199 114.784615,21.6307692 C113.915385,22.0153846 113.023077,22.3461538 112.196154,22.7538462 C111.455424,23.0962047 110.774863,23.5559729 110.180769,24.1153846 C109.515337,24.7688618 109.076039,25.617811 108.926923,26.5384615 C109.254854,25.8688277 109.684278,25.2538814 110.2,24.7153846 C110.767212,24.1251921 111.414571,23.6176625 112.123077,23.2076923 C113.109293,22.6358152 114.16034,22.1838906 115.253846,21.8615385 L115.430769,21.8038462 L115.311538,21.9307692 C113.915385,23.4461538 111.669231,25.1461538 111.326923,27.9307692 C112.646697,26.0137056 114.133244,24.2169784 115.769231,22.5615385 C116.192308,22.1346154 116.619231,21.7115385 117.061538,21.3038462 C117.907692,21.1192308 118.719231,20.9192308 119.515385,20.6692308 C120.210256,20.4692308 120.894872,20.2589744 121.569231,20.0384615 L123.276923,19.4846154 L124.592308,19.0576923 C124.380769,19.3923077 124.138462,19.7538462 123.888462,20.1423077 C123.095145,21.2671542 122.462156,22.4968872 122.007692,23.7961538 C121.895485,24.1420537 121.808084,24.495514 121.746154,24.8538462 C120.592802,25.1588314 119.421201,25.3900684 118.238462,25.5461538 C117.727539,25.6085439 117.210923,25.6085439 116.7,25.5461538 C116.411236,25.5060009 116.129206,25.4270844 115.861538,25.3115385 C115.623851,25.2083769 115.406372,25.0638249 115.219231,24.8846154 C115.328379,25.134162 115.517943,25.3399748 115.757692,25.4692308 C116.007817,25.6070585 116.27763,25.7056441 116.557692,25.7615385 C117.121281,25.8727016 117.694818,25.9255443 118.269231,25.9192308 C119.223077,25.9192308 120.253846,25.8461538 121.153846,25.8038462 C121.114493,26.0171438 121.049938,26.2250108 120.961538,26.4230769 C120.89578,26.5691844 120.819957,26.7105499 120.734615,26.8461538 C120.415447,27.4125568 119.867241,27.8135467 119.230769,27.9461538 C119.919273,27.9639944 120.59469,27.7559659 121.153846,27.3538462 C121.4741,27.131163 121.76826,26.8731272 122.030769,26.5846154 C122.173077,26.4307692 122.307692,26.2730769 122.415385,26.1115385 C122.523077,25.95 122.576923,25.9038462 122.653846,25.8 C122.780769,25.6269231 122.9,25.45 123.011538,25.2807692 C123.375641,25.1448718 123.726923,25 124.065385,24.8461538 C124.579616,24.6067066 125.079209,24.3370033 125.561538,24.0384615 L125.638462,23.9923077 C126.282726,23.5946346 126.894854,23.1471123 127.469231,22.6538462 C128.31024,21.919092 129.082654,21.109344 129.776923,20.2346154 C133.034615,22.3 136.230769,23.2076923 137.734615,21.5115385 C141.87197,16.8572924 141.453553,9.73044103 136.8,5.59230769 Z" id="Shape" fill="#AAAEB3" fill-rule="nonzero"></path>
                <path d="M128.307692,19.2307692 C127.33198,20.0774289 126.573585,21.1457765 126.096154,22.3461538 C127.007316,21.4494284 127.832698,20.4695284 128.561538,19.4192308 L128.307692,19.2307692 Z" id="Shape" fill="#FFFFFF" fill-rule="nonzero"></path>
            </g>
        </g>
    </g>
</svg>