<svg xmlns="http://www.w3.org/2000/svg" width="29" height="32" viewBox="0 0 29 32">
    <g fill="none" fill-rule="nonzero">
        <path fill="#C63D14" d="M27.184 15.74a2.978 2.978 0 0 0-3.294-2.959L27.984.727h-17.4l4.089 12.044a2.978 2.978 0 0 0-3.162 2.97c0 1.328.872 2.452 2.076 2.835a13 13 0 0 1-2.345 2.945c-1.235 1.163-2.648 2.045-4.177 2.588-1.82-.933-2.68-3.01-1.904-4.83.087-.205.177-.413.262-.62a2.977 2.977 0 0 0 2.302-2.897 2.978 2.978 0 0 0-2.982-2.976 2.978 2.978 0 0 0-2.98 2.976 2.97 2.97 0 0 0 1.27 2.436c-.738 1.677-1.823 3.432-2.16 5.466C.466 26.1.87 28.689 2.982 30.15c4.92 3.403 10.259-2.11 15.889-3.495 2.04-.502 4.28-.421 6.077-1.46 1.35-.781 2.24-2.074 2.493-3.527.25-1.434-.114-2.862-.95-4.02a2.96 2.96 0 0 0 .692-1.908zm-9.711.01v-.01c0-1.079-.576-2.024-1.437-2.546l3.254-6.568 3.26 6.638a2.971 2.971 0 0 0-1.328 2.476l.002.065-3.751-.054z"/>
        <path fill="#FFF" d="M27.912 15.74a3.71 3.71 0 0 0-3.023-3.638L29 0H9.568l4.118 12.127a3.71 3.71 0 0 0-2.904 3.613c0 1.326.702 2.49 1.754 3.144a12.411 12.411 0 0 1-1.793 2.108c-1.09 1.027-2.305 1.805-3.615 2.318-1.319-.827-1.876-2.387-1.297-3.746l.045-.106.085-.2a3.709 3.709 0 0 0 2.492-3.496 3.71 3.71 0 0 0-7.419 0c0 1.03.424 1.963 1.107 2.635-.124.264-.254.531-.388.806-.624 1.28-1.332 2.73-1.6 4.342-.53 3.2.327 5.758 2.415 7.203 1.267.876 2.554 1.221 3.85 1.221 2.438 0 4.905-1.223 7.318-2.42 1.738-.86 3.535-1.752 5.31-2.189.66-.162 1.34-.26 2.06-.364 1.426-.205 2.901-.417 4.208-1.173 1.515-.876 2.552-2.345 2.845-4.03a5.99 5.99 0 0 0-.79-4.125 3.675 3.675 0 0 0 .543-1.928zm-1.456 0a2.254 2.254 0 0 1-4.506 0 2.254 2.254 0 0 1 4.506 0zm.513-14.287l-3.63 10.687a3.67 3.67 0 0 0-.46.143L19.293 4.98l-3.597 7.258a3.669 3.669 0 0 0-.479-.13L11.6 1.453h15.37zM14.492 13.491a2.254 2.254 0 0 1 2.253 2.25 2.254 2.254 0 0 1-4.506 0c0-1.24 1.01-2.25 2.253-2.25zm-9.749.022a2.254 2.254 0 0 1 2.253 2.249 2.254 2.254 0 0 1-4.506 0c0-1.24 1.011-2.25 2.253-2.25zm21.981 8.031c-.219 1.26-.999 2.362-2.14 3.021-1.063.615-2.337.799-3.686.993-.723.104-1.47.211-2.2.391-1.931.475-3.801 1.403-5.61 2.3-3.618 1.793-6.744 3.343-9.69 1.304-2.159-1.493-2.06-4.256-1.808-5.77.233-1.403.863-2.695 1.473-3.944.105-.216.208-.428.308-.639.302.121.624.203.959.24-.62 2.044.355 4.266 2.402 5.315l.28.144.297-.105c1.619-.576 3.11-1.499 4.433-2.745a13.796 13.796 0 0 0 2.194-2.648 3.71 3.71 0 0 0 4.265-3.66 3.691 3.691 0 0 0-1.245-2.765l2.331-4.705 2.355 4.795a3.688 3.688 0 0 0-1.148 2.674 3.71 3.71 0 0 0 5.824 3.04 4.51 4.51 0 0 1 .406 2.764z"/>
    </g>
</svg>
