<svg xmlns="http://www.w3.org/2000/svg" width="29" height="32" viewBox="0 0 29 32">
    <g fill="none" fill-rule="evenodd">
        <g fill="#000" fill-rule="nonzero">
            <g>
                <path d="M19.708 4.244c.33 0 .597-.267.597-.596 0-.33-.267-.597-.597-.597-.33 0-.596.267-.596.597 0 .33.267.596.596.596zm.757 5.14s-.757-3.809-5.713-2.776c-.504-1.721-.413-2.983.689-4.153 1.491-1.583 3.831-.711 3.831-.711V.436C18.446.069 17.666 0 16.794 0c-3.189 0-4.955 2.386-5.713 3.992l-8.97 16.496 2.523-.482L0 28.954l3.235-.573 2.478-7.044c7.02 0 16.014-2.524 14.752-11.953zm3.029-3.19L21.52 4.29l-1.56 1.905h3.533zM6.883 19.296s.23-.046.642-.138c.413-.091.987-.229 1.675-.413.344-.091.711-.206 1.101-.344.39-.137.803-.275 1.193-.459.413-.16.826-.367 1.24-.596.412-.23.802-.482 1.17-.78.091-.069.183-.138.275-.23l.275-.229c.16-.16.344-.321.505-.505.16-.16.298-.344.436-.527l.206-.276.092-.137.092-.138c.046-.092.115-.184.16-.275.046-.092.092-.184.161-.276l.069-.137.069-.138c.046-.092.091-.184.114-.275l.207-.551c.046-.184.115-.367.16-.528.046-.16.07-.344.115-.481.023-.161.046-.299.069-.46.023-.137.046-.275.046-.39.023-.114.023-.229.046-.343.023-.413.023-.643.023-.643l.367.023s-.023.252-.046.665c-.023.115-.023.23-.046.345-.023.137-.023.275-.069.413-.023.137-.069.298-.092.458-.045.161-.091.322-.137.505-.046.184-.115.344-.184.55-.069.184-.137.368-.23.574l-.137.276-.069.137-.069.138c-.045.092-.114.184-.16.298-.069.092-.115.184-.184.276-.023.045-.068.091-.091.137l-.092.138-.207.275c-.16.184-.298.367-.481.528-.161.183-.345.321-.528.505l-.275.229c-.092.069-.184.138-.299.207-.39.275-.803.527-1.216.757-.413.206-.849.413-1.262.573-.413.16-.826.298-1.216.413-.39.115-.757.23-1.124.298-.688.161-1.285.299-1.698.368-.367.137-.596.183-.596.183z" transform="translate(2.000000, 1.000000)"/>
            </g>
        </g>
    </g>
</svg>
