<svg xmlns="http://www.w3.org/2000/svg" width="263" height="64" viewBox="0 0 263 64">
    <g fill="none" fill-rule="evenodd">
        <path fill="#0D0D0D" fill-rule="nonzero" d="M88.151 38.946a4.299 4.299 0 0 1-.928-1.446c-.232-.569-.35-1.286-.35-2.132V22h3.1v13.159c0 1.571 1.42 2.368 4.22 2.368h4.825c2.757 0 4.154-.797 4.154-2.368V22h3.055v13.368c0 1.787-.603 3.122-1.792 3.965-1.215.864-3.208 1.301-5.923 1.301h-3.923c-.562 0-1.136-.013-1.708-.039a11.045 11.045 0 0 1-1.756-.214 8.206 8.206 0 0 1-1.635-.516 4.238 4.238 0 0 1-1.339-.919zm48.156 1.819h-3.1V27.758l-8.11 12.107a2.504 2.504 0 0 1-.85.815c-.32.177-.662.267-1.017.267-.797 0-1.423-.354-1.914-1.082l-8.22-12.207v13.107h-3.1V23.854c0-.595.152-1.044.467-1.371.313-.325.707-.483 1.207-.483.757 0 1.335.289 1.764.88l9.82 14.005 9.618-13.983c.401-.607.955-.902 1.693-.902.526 0 .937.177 1.257.54.321.365.485.858.485 1.468v16.757zm2.976-.131V22h3.1v18.634h-3.1zm22.551-5.071h-11.366l-2.897 5.176h-3.663l10.48-17.563c.477-.791 1.065-1.176 1.797-1.176.749 0 1.345.377 1.82 1.147l10.263 17.592H164.8l-2.966-5.176zm-5.761-9.518l-3.842 6.411h7.758l-3.916-6.41zm-75.774 6.306l.07-7.012.005-3.339 3.087.012-.148 10.337c0 5.273-1.753 8.009-5.686 8.87-2.736.599-4.091.745-4.596.781L73 38.526c1.135-.072 3.443-.285 4.952-.889 1.691-.679 2.437-2.36 2.347-5.286z"/>
        <path fill="#F49719" d="M188.642 26.498A9.271 9.271 0 0 1 190 31.342a9.274 9.274 0 0 1-2.142 5.943 9.535 9.535 0 0 1-1.272 1.267 9.402 9.402 0 0 1-1.494 1.007 9.351 9.351 0 0 1-4.469 1.129 9.356 9.356 0 0 1-5.965-2.136 9.454 9.454 0 0 1-2.056-2.366 9.337 9.337 0 0 1-.936-2.066 9.31 9.31 0 0 1-.421-2.778 9.284 9.284 0 0 1 2.747-6.605 9.45 9.45 0 0 1 2.161-1.61 9.36 9.36 0 0 1 4.47-1.127 9.355 9.355 0 0 1 6.63 2.736 9.412 9.412 0 0 1 1.389 1.762zm-1.101 2.547l-4.78-.692-2.14-4.316-2.136 4.316-4.78.692 3.457 3.36-.816 4.746 4.275-2.24 4.274 2.24-.815-4.746 3.46-3.36z"/>
    </g>
</svg>
