<svg xmlns="http://www.w3.org/2000/svg" width="29" height="32" viewBox="0 0 29 32">
    <g fill="none" fill-rule="evenodd">
        <g>
            <path stroke="#2088FF" stroke-linecap="round" stroke-linejoin="round" stroke-width="1.13" d="M5.087 0c2.81 0 5.087 2.277 5.087 5.087 0 2.81-2.278 5.087-5.087 5.087C2.277 10.174 0 7.896 0 5.087 0 2.277 2.277 0 5.087 0zM12.435 10.174c1.873 0 3.391 1.518 3.391 3.391s-1.518 3.392-3.391 3.392-3.392-1.519-3.392-3.392 1.519-3.391 3.392-3.391zM12.435 19.217c1.873 0 3.391 1.519 3.391 3.392S14.308 26 12.435 26s-3.392-1.518-3.392-3.391 1.519-3.392 3.392-3.392z" transform="translate(1.000000, 3.000000)"/>
            <path stroke="#79B8FF" stroke-linecap="round" stroke-linejoin="round" stroke-width="1.13" d="M22.609 19.217c1.873 0 3.391 1.519 3.391 3.392S24.482 26 22.609 26s-3.392-1.518-3.392-3.391 1.519-3.392 3.392-3.392z" transform="translate(1.000000, 3.000000)"/>
            <path stroke="#2088FF" stroke-linecap="round" stroke-linejoin="round" stroke-width="1.13" d="M13.586 12.778L11.851 14.51 11.009 13.671M22.609 10.174c1.873 0 3.391 1.518 3.391 3.391s-1.518 3.392-3.391 3.392-3.392-1.519-3.392-3.392 1.519-3.391 3.392-3.391z" transform="translate(1.000000, 3.000000)"/>
            <path stroke="#2088FF" stroke-linecap="round" stroke-linejoin="round" stroke-width="1.13" d="M23.76 12.778L22.025 14.51 21.182 13.671M3.391 3.285c0-.445.49-.715.867-.478l2.89 1.82c.353.223.351.739-.004.959l-2.89 1.792c-.376.233-.863-.037-.863-.48V3.285zM4.522 10.174v8.478c0 2.185 1.796 3.957 3.956 3.957h.565" transform="translate(1.000000, 3.000000)"/>
            <path fill="#2088FF" fill-rule="nonzero" d="M9.015 14.13c.312 0 .565-.253.565-.565 0-.312-.253-.565-.565-.565v1.13zm-5.058-3.936c0 2.174 1.762 3.936 3.936 3.936V13c-1.55 0-2.806-1.256-2.806-2.806h-1.13zm3.936 3.936h1.122V13H7.893v1.13z" transform="translate(1.000000, 3.000000)"/>
            <path stroke="#2088FF" stroke-linecap="round" stroke-linejoin="round" stroke-width="1.13" d="M15.857 13.565L19.217 13.565" transform="translate(1.000000, 3.000000)"/>
            <path fill="#79B8FF" d="M11.304 22.043c.312 0 .566.254.566.566 0 .312-.254.565-.566.565-.312 0-.565-.253-.565-.565 0-.312.253-.566.565-.566zM13.565 22.043c.312 0 .565.254.565.566 0 .312-.253.565-.565.565-.312 0-.565-.253-.565-.565 0-.312.253-.566.565-.566z" transform="translate(1.000000, 3.000000)"/>
            <path stroke="#79B8FF" stroke-linecap="round" stroke-width="1.13" d="M18.655 22.613L18.083 22.631" transform="translate(1.000000, 3.000000)"/>
        </g>
    </g>
</svg>
