<svg xmlns="http://www.w3.org/2000/svg" width="29" height="32" viewBox="0 0 29 32">
    <g fill="none" fill-rule="evenodd">
        <path fill="#FFF" d="M14.137 0l14.137 7.996v15.997l-14.137 7.996L0 23.993V7.996z"/>
        <path fill="#8ED6FB" fill-rule="nonzero" d="M25.75 23.441l-11.145 6.305v-4.91l6.944-3.82 4.2 2.425zm.763-.69V9.567l-4.076 2.356v8.475l4.076 2.353zm-24.033.69l11.146 6.305v-4.91l-6.948-3.82L2.48 23.44zm-.763-.69V9.567l4.077 2.356v8.475l-4.077 2.353zm.478-14.039l11.43-6.465v4.745L6.302 11.02l-.058.033-4.048-2.342zm23.84 0l-11.43-6.465v4.745l7.324 4.025.058.033 4.048-2.338z"/>
        <path fill="#1C78C0" fill-rule="nonzero" d="M13.626 23.719l-6.853-3.77v-7.463l6.853 3.956v7.277zm.979 0l6.853-3.766v-7.467l-6.853 3.956v7.277zM7.237 11.624l6.878-3.781 6.879 3.78-6.879 3.972-6.878-3.971z"/>
    </g>
</svg>
