<?xml version="1.0" encoding="UTF-8"?>
<svg width="143px" height="36px" viewBox="0 0 143 36" version="1.1" xmlns="http://www.w3.org/2000/svg" xmlns:xlink="http://www.w3.org/1999/xlink">
    <!-- Generator: sketchtool 54.1 (76490) - https://sketchapp.com -->
    <title>ECFB632F-C0F2-4695-B755-C1A9F2BC5FB7</title>
    <desc>Created with sketchtool.</desc>
    <g id="DoneDone-(Web-App)" stroke="none" stroke-width="1" fill="none" fill-rule="evenodd">
        <g id="DoneDone-/-Logo-/-Color">
            <g id="Logo" transform="translate(0.000000, 1.000000)">
                <path d="M34,17 C34,26.3890927 26.3883321,34 16.9992394,34 C7.6109073,34 -3.01980663e-14,26.3890927 -3.01980663e-14,17 C-3.01980663e-14,7.6109073 7.6109073,0 16.9992394,0 C26.3883321,0 34,7.6109073 34,17" id="Circle" fill="#FA6123"></path>
                <path d="M27.6567689,16.2686655 L26.5280896,15.1407367 C26.088325,14.7009721 25.3761464,14.7009721 24.9363817,15.1407367 L18.549288,21.52708 L16.6791625,19.6562041 C16.2393979,19.2164395 15.5264688,19.2164395 15.0874547,19.6562041 L13.9587754,20.7841329 C13.5190108,21.2238976 13.5190108,21.9360762 13.9587754,22.3758408 L17.7538093,26.1716251 C18.1935739,26.6113898 18.906503,26.6113898 19.3455172,26.1716251 L27.6567689,17.8603734 C28.0965335,17.4213592 28.0965335,16.7084302 27.6567689,16.2686655 M20.2895853,8.90148192 L19.1609061,7.77280268 C18.7211414,7.33303803 18.0089628,7.33303803 17.5691982,7.77280268 L11.1821044,14.159146 L9.31197896,12.2890205 C8.87221431,11.8492559 8.15928527,11.8492559 7.72027107,12.2890205 L6.59159183,13.4169493 C6.15182718,13.856714 6.15182718,14.569643 6.59159183,15.0094077 L10.3858752,18.8036911 C10.8256399,19.2434557 11.5385689,19.2434557 11.9775831,18.8036911 L20.2895853,10.4931898 C20.72935,10.0534252 20.72935,9.34049612 20.2895853,8.90148192" id="Fill" fill="#FEFEFE"></path>
                <path d="M44.559125,23.25 C44.424541,23.25 44.3101463,23.2028963 44.2159375,23.1086875 C44.1217287,23.0144787 44.074625,22.900084 44.074625,22.7655 L44.074625,9.6234375 C44.074625,9.47539509 44.1183641,9.3542713 44.2058437,9.2600625 C44.2933234,9.1658537 44.4110826,9.11875 44.559125,9.11875 L49.484875,9.11875 C53.4551032,9.11875 55.4805621,10.949065 55.5613125,14.60975 C55.5882293,15.3903372 55.6016875,15.915207 55.6016875,16.184375 C55.6016875,16.4400846 55.5882293,16.9582253 55.5613125,17.7388125 C55.5074789,19.6229886 54.9994319,21.0125476 54.0371563,21.9075312 C53.0748806,22.8025149 51.5911142,23.25 49.5858125,23.25 L44.559125,23.25 Z M49.484875,20.90825 C50.6019223,20.90825 51.4094142,20.6592733 51.907375,20.1613125 C52.4053358,19.6633517 52.6677707,18.8356725 52.6946875,17.67825 C52.7216043,16.870746 52.7350625,16.3660635 52.7350625,16.1641875 C52.7350625,15.9488531 52.7216043,15.4508997 52.6946875,14.6703125 C52.6677707,13.5667236 52.3918776,12.7558672 51.867,12.2377187 C51.3421224,11.7195703 50.5144432,11.4605 49.3839375,11.4605 L46.9210625,11.4605 L46.9210625,20.90825 L49.484875,20.90825 Z M62.6875,23.451875 C61.0994087,23.451875 59.8747126,23.048129 59.013375,22.240625 C58.1520374,21.433121 57.6877295,20.3160905 57.6204375,18.8895 L57.60025,18.00125 L57.6204375,17.113 C57.6877295,15.6998679 58.1587665,14.586202 59.0335625,13.7719687 C59.9083585,12.9577355 61.1263255,12.550625 62.6875,12.550625 C64.2352161,12.550625 65.446454,12.9577355 66.32125,13.7719687 C67.196046,14.586202 67.667083,15.6998679 67.734375,17.113 C67.7478334,17.2745008 67.7545625,17.5705812 67.7545625,18.00125 C67.7545625,18.4319188 67.7478334,18.7279992 67.734375,18.8895 C67.667083,20.3160905 67.2027751,21.433121 66.3414375,22.240625 C65.4800999,23.048129 64.2621329,23.451875 62.6875,23.451875 Z M62.6875,21.4129375 C63.4007952,21.4129375 63.9492168,21.1908772 64.3327812,20.74675 C64.7163457,20.3026228 64.9215832,19.6499001 64.9485,18.7885625 C64.9619584,18.6539785 64.9686875,18.3915436 64.9686875,18.00125 C64.9686875,17.6109564 64.9619584,17.3485215 64.9485,17.2139375 C64.9215832,16.3525999 64.7129811,15.6965127 64.3226875,15.2456562 C63.9323939,14.7947998 63.3873368,14.569375 62.6875,14.569375 C61.9742048,14.569375 61.4224186,14.7947998 61.032125,15.2456562 C60.6418314,15.6965127 60.4332293,16.3525999 60.4063125,17.2139375 L60.386125,18.00125 L60.4063125,18.7885625 C60.4332293,19.6499001 60.6418314,20.3026228 61.032125,20.74675 C61.4224186,21.1908772 61.9742048,21.4129375 62.6875,21.4129375 Z M70.479875,23.25 C70.345291,23.25 70.2308963,23.2028963 70.1366875,23.1086875 C70.0424787,23.0144787 69.995375,22.900084 69.995375,22.7655 L69.995375,13.237 C69.995375,13.0889576 70.0424787,12.9711984 70.1366875,12.8837187 C70.2308963,12.7962391 70.345291,12.7525 70.479875,12.7525 L72.1554375,12.7525 C72.3034799,12.7525 72.4212391,12.7962391 72.5087188,12.8837187 C72.5961984,12.9711984 72.6399375,13.0889576 72.6399375,13.237 L72.6399375,14.0646875 C73.4608999,13.0553075 74.5846595,12.550625 76.01125,12.550625 C77.2494229,12.550625 78.2318714,12.954371 78.958625,13.761875 C79.6853786,14.569379 80.04875,15.6796804 80.04875,17.0928125 L80.04875,22.7655 C80.04875,22.900084 80.0050109,23.0144787 79.9175313,23.1086875 C79.8300516,23.2028963 79.7122924,23.25 79.56425,23.25 L77.747375,23.25 C77.612791,23.25 77.4983963,23.2028963 77.4041875,23.1086875 C77.3099787,23.0144787 77.262875,22.900084 77.262875,22.7655 L77.262875,17.2139375 C77.262875,16.4333503 77.0710957,15.8243668 76.6875313,15.3869687 C76.3039668,14.9495707 75.7555452,14.730875 75.04225,14.730875 C74.3558716,14.730875 73.8040854,14.9529353 73.386875,15.3970625 C72.9696646,15.8411897 72.7610625,16.4468087 72.7610625,17.2139375 L72.7610625,22.7655 C72.7610625,22.900084 72.7173234,23.0144787 72.6298438,23.1086875 C72.5423641,23.2028963 72.4246049,23.25 72.2765625,23.25 L70.479875,23.25 Z M87.15475,23.451875 C85.6474091,23.451875 84.452994,23.0212126 83.5714688,22.159875 C82.6899435,21.2985374 82.2222711,20.0738413 82.1684375,18.48575 L82.14825,17.9810625 C82.14825,16.2987624 82.589006,14.9731298 83.4705313,14.004125 C84.3520565,13.0351202 85.573388,12.550625 87.1345625,12.550625 C88.7361122,12.550625 89.9709019,13.0351202 90.8389688,14.004125 C91.7070356,14.9731298 92.1410625,16.2651169 92.1410625,17.880125 L92.1410625,18.3040625 C92.1410625,18.4386465 92.0939588,18.5530412 91.99975,18.64725 C91.9055412,18.7414588 91.7844174,18.7885625 91.636375,18.7885625 L84.934125,18.7885625 L84.934125,18.9500625 C84.9610418,19.7037329 85.1662793,20.3261746 85.5498438,20.8174062 C85.9334082,21.3086379 86.4616425,21.55425 87.1345625,21.55425 C87.9016913,21.55425 88.5274976,21.2447114 89.012,20.625625 C89.1331256,20.4775826 89.227333,20.3867398 89.294625,20.3530937 C89.361917,20.3194477 89.4763117,20.302625 89.6378125,20.302625 L91.4143125,20.302625 C91.5354381,20.302625 91.6397391,20.3362705 91.7272188,20.4035625 C91.8146984,20.4708545 91.8584375,20.5650619 91.8584375,20.6861875 C91.8584375,21.0091891 91.6666582,21.3893832 91.2830938,21.8267812 C90.8995293,22.2641793 90.3511077,22.6443734 89.6378125,22.967375 C88.9245173,23.2903766 88.096838,23.451875 87.15475,23.451875 Z M89.3551875,17.072625 L89.3551875,17.03225 C89.3551875,16.2382044 89.1566791,15.6023045 88.7596563,15.1245313 C88.3626334,14.646758 87.8209409,14.407875 87.1345625,14.407875 C86.4481841,14.407875 85.9098561,14.646758 85.5195625,15.1245313 C85.1292689,15.6023045 84.934125,16.2382044 84.934125,17.03225 L84.934125,17.072625 L89.3551875,17.072625 Z M95.0076875,23.25 C94.8731035,23.25 94.7587088,23.2028963 94.6645,23.1086875 C94.5702912,23.0144787 94.5231875,22.900084 94.5231875,22.7655 L94.5231875,9.6234375 C94.5231875,9.47539509 94.5669266,9.3542713 94.6544063,9.2600625 C94.7418859,9.1658537 94.8596451,9.11875 95.0076875,9.11875 L99.9334375,9.11875 C103.903666,9.11875 105.929125,10.949065 106.009875,14.60975 C106.036792,15.3903372 106.05025,15.915207 106.05025,16.184375 C106.05025,16.4400846 106.036792,16.9582253 106.009875,17.7388125 C105.956041,19.6229886 105.447994,21.0125476 104.485719,21.9075312 C103.523443,22.8025149 102.039677,23.25 100.034375,23.25 L95.0076875,23.25 Z M99.9334375,20.90825 C101.050485,20.90825 101.857977,20.6592733 102.355938,20.1613125 C102.853898,19.6633517 103.116333,18.8356725 103.14325,17.67825 C103.170167,16.870746 103.183625,16.3660635 103.183625,16.1641875 C103.183625,15.9488531 103.170167,15.4508997 103.14325,14.6703125 C103.116333,13.5667236 102.84044,12.7558672 102.315563,12.2377187 C101.790685,11.7195703 100.963006,11.4605 99.8325,11.4605 L97.369625,11.4605 L97.369625,20.90825 L99.9334375,20.90825 Z M113.136063,23.451875 C111.547971,23.451875 110.323275,23.048129 109.461938,22.240625 C108.6006,21.433121 108.136292,20.3160905 108.069,18.8895 L108.048812,18.00125 L108.069,17.113 C108.136292,15.6998679 108.607329,14.586202 109.482125,13.7719687 C110.356921,12.9577355 111.574888,12.550625 113.136063,12.550625 C114.683779,12.550625 115.895016,12.9577355 116.769813,13.7719687 C117.644609,14.586202 118.115645,15.6998679 118.182938,17.113 C118.196396,17.2745008 118.203125,17.5705812 118.203125,18.00125 C118.203125,18.4319188 118.196396,18.7279992 118.182938,18.8895 C118.115645,20.3160905 117.651338,21.433121 116.79,22.240625 C115.928662,23.048129 114.710695,23.451875 113.136063,23.451875 Z M113.136063,21.4129375 C113.849358,21.4129375 114.397779,21.1908772 114.781344,20.74675 C115.164908,20.3026228 115.370146,19.6499001 115.397063,18.7885625 C115.410521,18.6539785 115.41725,18.3915436 115.41725,18.00125 C115.41725,17.6109564 115.410521,17.3485215 115.397063,17.2139375 C115.370146,16.3525999 115.161544,15.6965127 114.77125,15.2456562 C114.380956,14.7947998 113.835899,14.569375 113.136063,14.569375 C112.422767,14.569375 111.870981,14.7947998 111.480688,15.2456562 C111.090394,15.6965127 110.881792,16.3525999 110.854875,17.2139375 L110.834688,18.00125 L110.854875,18.7885625 C110.881792,19.6499001 111.090394,20.3026228 111.480688,20.74675 C111.870981,21.1908772 112.422767,21.4129375 113.136063,21.4129375 Z M120.928438,23.25 C120.793853,23.25 120.679459,23.2028963 120.58525,23.1086875 C120.491041,23.0144787 120.443938,22.900084 120.443938,22.7655 L120.443938,13.237 C120.443938,13.0889576 120.491041,12.9711984 120.58525,12.8837187 C120.679459,12.7962391 120.793853,12.7525 120.928438,12.7525 L122.604,12.7525 C122.752042,12.7525 122.869802,12.7962391 122.957281,12.8837187 C123.044761,12.9711984 123.0885,13.0889576 123.0885,13.237 L123.0885,14.0646875 C123.909462,13.0553075 125.033222,12.550625 126.459812,12.550625 C127.697985,12.550625 128.680434,12.954371 129.407188,13.761875 C130.133941,14.569379 130.497313,15.6796804 130.497313,17.0928125 L130.497313,22.7655 C130.497313,22.900084 130.453573,23.0144787 130.366094,23.1086875 C130.278614,23.2028963 130.160855,23.25 130.012812,23.25 L128.195938,23.25 C128.061353,23.25 127.946959,23.2028963 127.85275,23.1086875 C127.758541,23.0144787 127.711438,22.900084 127.711438,22.7655 L127.711438,17.2139375 C127.711438,16.4333503 127.519658,15.8243668 127.136094,15.3869687 C126.752529,14.9495707 126.204108,14.730875 125.490813,14.730875 C124.804434,14.730875 124.252648,14.9529353 123.835438,15.3970625 C123.418227,15.8411897 123.209625,16.4468087 123.209625,17.2139375 L123.209625,22.7655 C123.209625,22.900084 123.165886,23.0144787 123.078406,23.1086875 C122.990927,23.2028963 122.873167,23.25 122.725125,23.25 L120.928438,23.25 Z M137.603313,23.451875 C136.095972,23.451875 134.901556,23.0212126 134.020031,22.159875 C133.138506,21.2985374 132.670834,20.0738413 132.617,18.48575 L132.596812,17.9810625 C132.596812,16.2987624 133.037569,14.9731298 133.919094,14.004125 C134.800619,13.0351202 136.021951,12.550625 137.583125,12.550625 C139.184675,12.550625 140.419464,13.0351202 141.287531,14.004125 C142.155598,14.9731298 142.589625,16.2651169 142.589625,17.880125 L142.589625,18.3040625 C142.589625,18.4386465 142.542521,18.5530412 142.448312,18.64725 C142.354104,18.7414588 142.23298,18.7885625 142.084938,18.7885625 L135.382688,18.7885625 L135.382688,18.9500625 C135.409604,19.7037329 135.614842,20.3261746 135.998406,20.8174062 C136.381971,21.3086379 136.910205,21.55425 137.583125,21.55425 C138.350254,21.55425 138.97606,21.2447114 139.460563,20.625625 C139.581688,20.4775826 139.675895,20.3867398 139.743188,20.3530937 C139.81048,20.3194477 139.924874,20.302625 140.086375,20.302625 L141.862875,20.302625 C141.984001,20.302625 142.088302,20.3362705 142.175781,20.4035625 C142.263261,20.4708545 142.307,20.5650619 142.307,20.6861875 C142.307,21.0091891 142.115221,21.3893832 141.731656,21.8267812 C141.348092,22.2641793 140.79967,22.6443734 140.086375,22.967375 C139.37308,23.2903766 138.545401,23.451875 137.603313,23.451875 Z M139.80375,17.072625 L139.80375,17.03225 C139.80375,16.2382044 139.605242,15.6023045 139.208219,15.1245313 C138.811196,14.646758 138.269503,14.407875 137.583125,14.407875 C136.896747,14.407875 136.358419,14.646758 135.968125,15.1245313 C135.577831,15.6023045 135.382688,16.2382044 135.382688,17.03225 L135.382688,17.072625 L139.80375,17.072625 Z" id="DoneDone" fill="#01363D" fill-rule="nonzero"></path>
            </g>
        </g>
    </g>
</svg>