<?xml version="1.0" encoding="UTF-8" standalone="no"?>
<svg width="23px" height="32px" viewBox="0 0 23 32" version="1.1" xmlns="http://www.w3.org/2000/svg" xmlns:xlink="http://www.w3.org/1999/xlink">
    <!-- Generator: sketchtool 50.2 (55047) - http://www.bohemiancoding.com/sketch -->
    <title>1881AC79-3FB5-44D2-A339-1B46DCA896D7</title>
    <desc>Created with sketchtool.</desc>
    <defs></defs>
    <g id="Logos" stroke="none" stroke-width="1" fill="none" fill-rule="evenodd">
        <g id="desktop-/-technology-logo-/-html5" fill-rule="nonzero">
            <g id="logo">
                <path d="M2.17362637,0 L3.62692308,0 L3.62692308,1.425 L4.96648352,1.425 L4.96648352,0 L6.41978022,0 L6.41978022,4.3125 L4.96648352,4.3125 L4.96648352,2.875 L3.63956044,2.875 L3.63956044,4.3125 L2.17362637,4.3125 M8.34065934,1.4375 L7.05796703,1.4375 L7.05796703,0 L11.082967,0 L11.082967,1.4375 L9.79395604,1.4375 L9.79395604,4.3125 L8.34065934,4.3125 M11.7211538,0 L13.243956,0 L14.1791209,1.51875 L15.1142857,0 L16.6370879,0 L16.6370879,4.3125 L15.1837912,4.3125 L15.1837912,2.175 L14.1664835,3.725 L13.1491758,2.175 L13.1491758,4.3125 L11.7211538,4.3125 M17.3574176,0 L18.8107143,0 L18.8107143,2.8875 L20.8706044,2.8875 L20.8706044,4.3125 L17.3574176,4.3125" id="Shape" fill="#000000"></path>
                <polyline id="Shape" fill="#E44D26" points="2.12307692 29.4375 0.0379120879 6.2875 22.9620879 6.2875 20.8769231 29.425 11.481044 32"></polyline>
                <polyline id="Shape" fill="#F16529" points="11.5 30.03125 11.5 8.1875 20.8706044 8.1875 19.0824176 27.9375"></polyline>
                <path d="M4.2967033,11.01875 L11.5,11.01875 L11.5,13.85625 L7.44340659,13.85625 L7.70879121,16.7625 L11.5,16.7625 L11.5,19.59375 L5.08021978,19.59375 M5.20659341,21.01875 L8.08791209,21.01875 L8.29010989,23.2875 L11.5,24.1375 L11.5,27.1 L5.61098901,25.475" id="Shape" fill="#EBEBEB"></path>
                <path d="M18.678022,11.01875 L11.4873626,11.01875 L11.4873626,13.85625 L18.4126374,13.85625 M18.1535714,16.7625 L11.4873626,16.7625 L11.4873626,19.6 L15.0258242,19.6 L14.6909341,23.2875 L11.4873626,24.1375 L11.4873626,27.0875 L17.3637363,25.475" id="Shape" fill="#FFFFFF"></path>
            </g>
        </g>
    </g>
</svg>