<?xml version="1.0" encoding="UTF-8"?>
<svg width="29px" height="32px" viewBox="0 0 29 32" version="1.1" xmlns="http://www.w3.org/2000/svg" xmlns:xlink="http://www.w3.org/1999/xlink">
    <!-- Generator: sketchtool 53.2 (72643) - https://sketchapp.com -->
    <title>DC45CD99-867C-4C68-81A2-FD16BADD3728</title>
    <desc>Created with sketchtool.</desc>
    <g id="Logos" stroke="none" stroke-width="1" fill="none" fill-rule="evenodd">
        <g id="desktop-/-technology-logo-/-wordpress" fill="#32373C">
            <g id="Logo" transform="translate(1.000000, 3.000000)">
                <path d="M13.4554948,3.90798505e-14 C6.02426106,3.90798505e-14 7.10542736e-15,5.82032804 7.10542736e-15,13 C7.10542736e-15,20.179672 6.02426106,26 13.4554948,26 C20.8867286,26 26.9109896,20.179672 26.9109896,13 C26.9109896,5.82032804 20.8867286,3.90798505e-14 13.4554948,3.90798505e-14 M13.4554948,0.780039446 C15.163346,0.780039446 16.8197087,1.10294663 18.3785383,1.73999528 C19.1277292,2.04613803 19.8504953,2.42514581 20.5266497,2.86649978 C21.1965665,3.3037996 21.8265627,3.80596575 22.3990598,4.35919221 C22.9716702,4.91230909 23.4914313,5.52097873 23.9440532,6.16821752 C24.4008714,6.82148276 24.7931589,7.51978187 25.1100283,8.24361114 C25.7693979,9.74967129 26.1036191,11.3499629 26.1036191,13 C26.1036191,14.6500371 25.7693979,16.2503287 25.1100283,17.7563889 C24.7931589,18.4802181 24.4008714,19.1785172 23.9440532,19.8317825 C23.4914313,20.4790213 22.9716702,21.0876909 22.3990598,21.6408078 C21.8265627,22.1940343 21.1965665,22.6962004 20.5266497,23.1335002 C19.8504953,23.5748542 19.1277292,23.953862 18.3785383,24.2600047 C16.8197087,24.8970534 15.163346,25.2199606 13.4554948,25.2199606 C11.7476436,25.2199606 10.0912809,24.8970534 8.53256471,24.2600047 C7.78326045,23.953862 7.06049429,23.5748542 6.38433991,23.1335002 C5.71442312,22.6962004 5.08442688,22.1940343 4.51192985,21.6408078 C3.93931941,21.0876909 3.41955834,20.4790213 2.96693638,19.8317825 C2.51023163,19.1785172 2.11783074,18.4802181 1.80096134,17.7563889 C1.14159174,16.2503287 0.807370516,14.6500371 0.807370516,13 C0.807370516,11.3499629 1.14159174,9.74967129 1.80096134,8.24361114 C2.11783074,7.51978187 2.51023163,6.82148276 2.96693638,6.16821752 C3.41955834,5.52097873 3.93931941,4.91230909 4.51192985,4.35919221 C5.08442688,3.80596575 5.71442312,3.3037996 6.38433991,2.86649978 C7.06049429,2.42514581 7.78326045,2.04613803 8.53256471,1.73999528 C10.0912809,1.10294663 11.7476436,0.780039446 13.4554948,0.780039446" id="Fill-15"></path>
                <path d="M23.3208616,7.82734904 C23.3689478,8.17238967 23.3962797,8.54252217 23.3962797,8.94125282 C23.3962797,10.0401453 23.1831811,11.2758926 22.5433181,12.8212889 L19.1186563,22.3879758 C22.4522494,20.5102491 24.694038,17.020945 24.694038,13.0244344 C24.694038,11.1409005 24.1959383,9.37022521 23.3208616,7.82734904 L23.3208616,7.82734904 Z M13.6781199,13.9720087 L10.313339,23.4167425 C11.3182708,23.7022858 12.3805885,23.8580965 13.4811256,23.8580965 C14.786936,23.8580965 16.0395568,23.6403779 17.2049648,23.2439483 C17.1749109,23.1975995 17.1472387,23.1484019 17.1244432,23.0946023 L13.6781199,13.9720087 Z M21.0508338,12.4780014 C21.0508338,11.1387091 20.5528476,10.2118438 20.1264235,9.49042514 C19.5580092,8.59763663 19.0249791,7.84236034 19.0249791,6.94957183 C19.0249791,5.95389569 19.806492,5.02692087 20.9079364,5.02692087 C20.9577236,5.02692087 21.0047891,5.03272816 21.053102,5.03568659 C19.0582084,3.26972287 16.4003161,2.19142982 13.4811256,2.19142982 C9.56358105,2.19142982 6.11748462,4.13347493 4.11238408,7.07415461 C4.37572364,7.08215333 4.62375277,7.08730319 4.83412955,7.08730319 C6.0066824,7.08730319 7.82261395,6.94957183 7.82261395,6.94957183 C8.42675256,6.91538552 8.49820128,7.7733303 7.89428949,7.84236034 C7.89428949,7.84236034 7.28663515,7.91106166 6.61104783,7.94524797 L10.694172,19.6796972 L13.1483787,12.5696032 L11.4015143,7.94524797 C10.7973757,7.91106166 10.2254457,7.84236034 10.2254457,7.84236034 C9.62096685,7.80784532 9.69184851,6.91538552 10.2965542,6.94957183 C10.2965542,6.94957183 12.1478699,7.08730319 13.2496545,7.08730319 C14.4222073,7.08730319 16.2384791,6.94957183 16.2384791,6.94957183 C16.8428445,6.91538552 16.913953,7.7733303 16.3098144,7.84236034 C16.3098144,7.84236034 15.701593,7.91106166 15.0266861,7.94524797 L19.0788492,19.5903965 L20.2356379,16.0490459 C20.7495017,14.5014581 21.0508338,13.4049762 21.0508338,12.4780014 L21.0508338,12.4780014 Z M2.26821328,13.0244344 C2.26821328,17.3122956 4.84728519,21.018113 8.58802252,22.7738866 L3.23912197,8.61560635 C2.61695107,9.96278784 2.26821328,11.4537271 2.26821328,13.0244344 L2.26821328,13.0244344 Z" id="Fill-17"></path>
            </g>
        </g>
    </g>
</svg>