<?xml version="1.0" encoding="UTF-8" standalone="no"?>
<svg width="99px" height="60px" viewBox="0 0 99 60" version="1.1" xmlns="http://www.w3.org/2000/svg" xmlns:xlink="http://www.w3.org/1999/xlink">
    <!-- Generator: sketchtool 50.2 (55047) - http://www.bohemiancoding.com/sketch -->
    <title>DC3C497C-1103-43F8-B1F2-94B89AC5CAD8</title>
    <desc>Created with sketchtool.</desc>
    <defs></defs>
    <g id="Logos" stroke="none" stroke-width="1" fill="none" fill-rule="evenodd">
        <g id="desktop-/-logo-/-event-/-porto-tech-hub-/-grey" fill="#AAAEB3">
            <path d="M3.62625,24.5919881 L3.62625,30.5193942 L0.21075,30.5193942 L0.21075,13.011341 L6.075,13.011341 C7.76036256,12.9095956 9.41538663,13.4957331 10.6665,14.6374503 C11.7637645,15.7209752 12.3607292,17.2174493 12.31275,18.7642784 C12.3523345,20.3176052 11.7572314,21.8192417 10.6665,22.9182964 C9.42979716,24.0885061 7.76896447,24.6939121 6.075,24.5919881 L3.62625,24.5919881 Z M5.55675,16.0135632 L3.62625,16.0135632 L3.62625,21.6162006 L5.55675,21.6162006 C6.40464878,21.6618165 7.24139376,21.4050961 7.92,20.8911356 C8.52709602,20.3598988 8.85235265,19.5731767 8.799,18.7650337 C8.85949032,17.9700522 8.53147618,17.195262 7.92,16.6887799 C7.22803433,16.2068713 6.39690081,15.9696693 5.55675,16.0143184 L5.55675,16.0135632 Z M23.12925,29.1062728 C20.7065484,31.3912119 16.9389516,31.3912119 14.51625,29.1062728 C13.3523254,27.9829237 12.7140681,26.4165188 12.759,24.7936468 C12.7137294,23.170421 13.3516964,21.6035113 14.5155,20.4795102 C16.9382016,18.1945711 20.7057984,18.1945711 23.1285,20.4795102 C24.2928554,21.6032472 24.9313814,23.1701915 24.8865,24.7936468 C24.9318592,26.4170393 24.2935674,27.9840775 23.12925,29.1077833 L23.12925,29.1062728 Z M18.825,21.6652935 C18.0432599,21.6395294 17.2905828,21.9649675 16.77075,22.5534981 C15.7143713,23.8560672 15.7143713,25.7274499 16.77075,27.030019 C17.3007868,27.5967159 18.0395705,27.918003 18.812625,27.918003 C19.5856795,27.918003 20.3244632,27.5967159 20.8545,27.030019 C21.9102968,25.7272411 21.9102968,23.856276 20.8545,22.5534981 C20.3424015,21.9688154 19.598865,21.6434089 18.825,21.6652935 Z M33.687,19.0142748 L33.687,22.265738 L32.325,22.265738 C31.6572574,22.205697 30.9969282,22.4433653 30.51825,22.9160306 C30.0836934,23.5338303 29.8818817,24.2873126 29.949,25.0413773 L29.949,30.5186389 L26.7315,30.5186389 L26.7315,19.064123 L29.85,19.064123 L29.85,20.8903804 C30.060188,20.3006656 30.4499814,19.7928806 30.96375,19.4394951 C31.5062451,19.0789038 32.1454415,18.8943891 32.79525,18.9108019 C33.0952057,18.9075856 33.3944264,18.9413199 33.68625,19.0112537 L33.687,19.0142748 Z M36.3345,15.0082908 L39.552,15.0082908 L39.552,19.3601912 L42,19.3601912 L42,22.1116617 L39.54975,22.1116617 L39.54975,27.2883234 C39.54975,27.8391714 39.9045,28.1143436 40.614,28.1138401 L42.099,28.0383125 L42.099,30.8139518 C41.0595,30.9146553 40.22625,30.965007 39.59925,30.965007 C39.1975494,30.9696465 38.7961627,30.9405939 38.39925,30.8781503 C38.046704,30.8150785 37.7049707,30.7013835 37.3845,30.5405419 C37.0450608,30.372427 36.770885,30.0952596 36.60525,29.752789 C36.409604,29.3274876 36.3163288,28.8617121 36.333,28.3932922 L36.333,22.115438 L34.551,22.115438 L34.551,19.3647228 L36.333,19.3647228 L36.333,15.0128225 L36.3345,15.0082908 Z M53.8845,29.4015857 C51.4617984,31.6865248 47.6942016,31.6865248 45.2715,29.4015857 C44.1076851,28.2806347 43.467906,26.7169741 43.50975,25.0957572 C43.4645797,23.4723993 44.1028412,21.9054353 45.267,20.7816206 C47.6897016,18.4966815 51.4572984,18.4966815 53.88,20.7816206 C55.0441588,21.9054353 55.6824203,23.4723993 55.63725,25.0957572 C55.6826092,26.7191497 55.0443174,28.2861879 53.88,29.4098937 L53.8845,29.4015857 Z M49.575,21.9658934 C48.79324,21.9400234 48.0405202,22.26548 47.52075,22.854098 C46.4649532,24.1568759 46.4649532,26.027841 47.52075,27.3306189 C48.0508984,27.897113 48.7896405,28.2182568 49.562625,28.2182568 C50.3356095,28.2182568 51.0743516,27.897113 51.6045,27.3306189 C52.6602968,26.027841 52.6602968,24.1568759 51.6045,22.854098 C51.0925273,22.2692412 50.3489056,21.9437974 49.575,21.9658934 Z M58.101,30.4816304 C57.3805041,29.7508 57.2725215,28.609393 57.8430195,27.7547039 C58.4135176,26.9000149 59.5038282,26.5697519 60.4478718,26.9656753 C61.3919154,27.3615987 61.9271326,28.3735933 61.7265547,29.3834236 C61.5259769,30.3932538 60.6453893,31.1200635 59.62275,31.1198386 C59.0499635,31.1267284 58.499609,30.8959147 58.101,30.4816304 Z M0,34.9528644 L8.38725,34.9528644 L8.38725,35.9173518 L4.70475,35.9173518 L4.70475,46.7933263 L3.666,46.7933263 L3.666,35.9173518 L0,35.9173518 L0,34.9528644 Z M14.96625,43.3779682 L8.571,43.3779682 C8.61087044,44.104602 8.90439429,44.7936848 9.39975,45.3235592 C9.88652093,45.8321446 10.5647241,46.1088479 11.26575,46.0848775 C12.2130907,46.1422135 13.1075729,45.6414559 13.55925,44.8009082 L14.748,44.8009082 C14.4468305,45.464538 13.9575822,46.0237084 13.34175,46.4081356 C12.7204314,46.8010628 12.0001393,47.0060613 11.2665,46.9987614 C10.2587138,47.0253407 9.28644244,46.6231128 8.58825,45.8907715 C7.16075225,44.2848444 7.16075225,41.8547869 8.58825,40.2488597 C9.28766168,39.5370657 10.2398311,39.1351726 11.2341973,39.1320544 C12.2285635,39.1289362 13.1831999,39.5248498 13.887,40.2322437 C14.6492408,41.0804786 15.0384935,42.2030602 14.96625,43.3447361 L14.96625,43.3787235 L14.96625,43.3779682 Z M11.25,40.0449352 C10.5849955,40.0258279 9.94005191,40.2755026 9.459,40.7382786 C8.97186202,41.2151513 8.66906144,41.8509812 8.60475,42.5320591 L13.8285,42.5320591 C13.7861106,41.863032 13.4997823,41.2333586 13.0245,40.763958 C12.556128,40.2890861 11.9144458,40.0290782 11.25,40.0449352 Z M17.988,40.9074604 C16.9501847,42.1618857 16.9501847,43.9837878 17.988,45.238213 C18.4960295,45.8088516 19.2283214,46.1245039 19.989,46.1007382 C20.5006892,46.1106066 21.0040829,45.969631 21.43725,45.695155 C21.8561296,45.4241094 22.1945444,45.0441721 22.41675,44.5954732 L23.2875,45.1022634 C22.9721343,45.6803809 22.5024268,46.1581018 21.9315,46.4813974 C21.3415072,46.8254712 20.6707638,47.0041165 19.989,46.9987614 C18.9703024,47.0207973 17.9881052,46.6166227 17.27625,45.8824635 C15.8037338,44.3008297 15.8037338,41.8395569 17.27625,40.257923 C17.9857568,39.5193215 18.9687644,39.1118028 19.989,39.1333171 C20.6703531,39.1277854 21.3407732,39.3058921 21.93075,39.6491706 C22.5016768,39.9724661 22.9713843,40.450187 23.28675,41.0283046 L22.416,41.5358501 C21.9600724,40.6094483 21.0155815,40.029832 19.989,40.0464458 C19.2283605,40.0228886 18.4961523,40.3385048 17.988,40.908971 L17.988,40.9074604 Z M30.351,46.8001238 L30.351,41.8908298 C30.3812409,41.3867418 30.1990776,40.8931684 29.84925,40.531333 C29.4889736,40.2006883 29.0132026,40.0274019 28.52625,40.0494669 C27.5498447,40.0911042 26.6448568,40.5763635 26.0655,41.3689341 L26.0655,46.7993686 L25.044,46.7993686 L25.044,34.9528644 L26.049,34.9528644 L26.049,40.4006702 C26.6862416,39.5861478 27.6639019,39.1170544 28.6935,39.1318065 C29.4237786,39.0870994 30.1395642,39.3506342 30.669,39.8591373 C31.1571444,40.397236 31.4103297,41.1101624 31.37175,41.8379605 L31.37175,46.7948369 L30.351,46.7948369 L30.351,46.8001238 Z M41.95425,40.3047502 L41.95425,34.9528644 L42.99225,34.9528644 L42.99225,46.7948369 L41.95425,46.7948369 L41.95425,41.229208 L35.9775,41.229208 L35.9775,46.7948369 L34.9395,46.7948369 L34.9395,34.9528644 L35.9775,34.9528644 L35.9775,40.298708 L41.95425,40.298708 L41.95425,40.3047502 Z M51.075,46.1860844 C49.7101309,47.2690535 47.7861191,47.2690535 46.42125,46.1860844 C45.8666161,45.6542394 45.5623623,44.9102179 45.58425,44.1392865 L45.58425,39.3349758 L46.605,39.3349758 L46.605,44.0380795 C46.5717852,44.6052242 46.7892139,45.1581491 47.199,45.5486315 C48.1108143,46.2595951 49.3846857,46.2595951 50.2965,45.5486315 C50.706549,45.1583284 50.9240283,44.6052748 50.8905,44.0380795 L50.8905,39.3349758 L51.912,39.3349758 L51.912,44.1392865 C51.9338877,44.9102179 51.6296339,45.6542394 51.075,46.1860844 Z M58.02525,46.9987614 C57.4313347,47.005154 56.8469105,46.8484897 56.33475,46.5455958 C55.8570043,46.2800262 55.4661647,45.8804021 55.20975,45.3953105 L55.20975,46.7993686 L54.189,46.7993686 L54.189,34.9528644 L55.20975,34.9528644 L55.20975,40.7896374 C55.4575633,40.2896551 55.8497278,39.8768287 56.33475,39.6053646 C56.8555219,39.2906667 57.4524324,39.126799 58.05975,39.1318065 C59.0616097,39.1071392 60.0265374,39.5130736 60.71325,40.2481045 C61.4282158,41.008763 61.8109512,42.0260532 61.776,43.0728367 C61.8117384,44.1190649 61.4253971,45.1353047 60.705,45.8900162 C60.0063153,46.622633 59.0335808,47.0251014 58.02525,46.9987614 Z M59.9595,45.2389683 C60.9964115,43.9842137 60.9964115,42.1629703 59.9595,40.9082157 C59.4365296,40.3555246 58.7110742,40.0434307 57.9529778,40.0450016 C57.1948813,40.0465724 56.4707074,40.3616701 55.95,40.9165237 C54.89995,42.1601782 54.89995,43.9870058 55.95,45.2306603 C56.4707074,45.785514 57.1948813,46.1006116 57.9529778,46.1021824 C58.7110742,46.1037533 59.4365296,45.7916594 59.9595,45.2389683 Z M79.73625,27.9899748 C79.9534343,27.5316482 79.9654457,27.0016296 79.76925,26.5338027 C79.4694148,25.7944481 78.7548042,25.3116041 77.96175,25.3125214 L75.56175,19.2876847 L89.68725,13.547587 L92.39925,20.3662188 L89.12625,21.6970151 C88.9310395,21.4665462 88.6828326,21.287638 88.40325,21.1758747 C87.9435767,20.9668717 87.4179161,20.9616658 86.95425,21.1615244 C86.479205,21.3456686 86.0997628,21.7176814 85.90425,22.1909656 C85.7106359,22.6626431 85.7125264,23.1927338 85.9095,23.6629986 C86.0840277,24.1350946 86.444446,24.5136268 86.9055,24.7090559 C87.3710475,24.918281 87.9018469,24.9240228 88.37175,24.7249167 C88.8446583,24.5428256 89.2195487,24.168588 89.4045,23.6939649 C89.5342998,23.3964862 89.5906549,23.0717843 89.56875,22.7476041 L92.82375,21.4251158 L99,36.9588774 L94.5645,38.7602107 L93.29475,35.5684143 C93.9129227,35.0170223 94.1366889,34.1428573 93.86025,33.359232 C93.6754999,32.8761937 93.300635,32.4915846 92.8245,32.2965586 C92.3643855,32.0922642 91.8406942,32.0895288 91.3785,32.2890059 C90.9057573,32.4727568 90.5269979,32.8413757 90.3285,33.3108943 C90.1368332,33.7857797 90.1397996,34.3177921 90.33675,34.79048 C90.5107609,35.2603015 90.8702566,35.6365447 91.32975,35.8297398 C91.6169781,35.9569483 91.9299523,36.0141354 92.24325,35.9966558 L93.51225,39.1884522 L75.42,46.5342667 L72.675,39.6250018 L83.07375,35.4022536 C83.2119352,35.3463906 83.3206826,35.2349616 83.37375,35.0948563 L84.39825,32.6424751 C84.7146985,32.6758043 85.0344222,32.6298823 85.329,32.5087912 C86.2894507,32.1018501 86.7546113,30.9996944 86.379,30.020912 C86.1959387,29.5404526 85.8274127,29.1551651 85.3575,28.9529518 C84.896499,28.7554135 84.375501,28.7554135 83.9145,28.9529518 C83.4418411,29.1354514 83.0615011,29.5010572 82.8585,29.9680427 C82.662125,30.4424618 82.662125,30.9762304 82.8585,31.4506495 C82.9674338,31.7370663 83.1437225,31.9926042 83.37225,32.1953517 L82.44375,34.4219053 L72.2535,38.5600626 L69.0735,30.5639555 L72.579,29.1402602 L72.858,29.8419116 C72.6171342,30.0284203 72.4320844,30.278283 72.32325,30.5639555 C72.1181996,31.0343647 72.1149435,31.5691245 72.31425,32.0420306 C72.4903134,32.5165594 72.8568021,32.8944005 73.32375,33.082801 C73.7885539,33.2968749 74.3211517,33.3050927 74.79225,33.1054592 C75.7503458,32.6911248 76.2152418,31.5910836 75.8475,30.6085168 C75.6665373,30.1252831 75.2915449,29.7413451 74.81475,29.5511304 C74.5285901,29.4242069 74.2144763,29.3747407 73.9035,29.4076279 L73.4145,28.1803044 C73.361056,28.0400635 73.2500415,27.9299201 73.11,27.878194 C72.9766182,27.8144431 72.8230174,27.8089773 72.6855,27.8630885 L68.65275,29.5012821 L66.11625,23.1252421 L74.52225,19.7113945 L76.89675,25.678075 C76.1574342,26.1798322 75.8813027,27.14291 76.24125,27.9642955 C76.4161486,28.4336345 76.7757346,28.8094148 77.235,29.0028 C77.7001893,29.2149227 78.2318756,29.2233999 78.7035,29.0262135 C79.17927,28.8414568 79.5559686,28.4637529 79.7415,27.9854432 L79.73625,27.9899748 Z" id="logo-porto-techub"></path>
        </g>
    </g>
</svg>