<?xml version="1.0" encoding="UTF-8"?>
<svg width="29px" height="32px" viewBox="0 0 29 32" version="1.1" xmlns="http://www.w3.org/2000/svg" xmlns:xlink="http://www.w3.org/1999/xlink">
    <!-- Generator: sketchtool 53.2 (72643) - https://sketchapp.com -->
    <title>AA8BAB54-6D79-4194-AFFC-F8DA5B68B6B6</title>
    <desc>Created with sketchtool.</desc>
    <g id="Logos" stroke="none" stroke-width="1" fill="none" fill-rule="evenodd">
        <g id="desktop-/-technology-logo-/-pusher.js" fill="#300D4F">
            <g id="logo" transform="translate(6.000000, 3.000000)">
                <path d="M16.8634848,4.9800995 L16.8982576,5.18059701 L15.3090152,6.02915423 L15.2356061,5.91532338 C15.2587879,5.88169154 15.2510606,5.81054726 15.2098485,5.78985075 L6.99318182,1.02965174 C6.94166667,1.00378109 6.94166667,0.926169154 6.99318182,0.900298507 L8.38409091,0.0983084577 C8.40984848,0.0853731343 8.43560606,0.0853731343 8.46136364,0.0983084577 L16.8325758,4.94905473 C16.8467424,4.95552239 16.8583333,4.96716418 16.8634848,4.98139303 L16.8634848,4.9800995 Z M13.4106818,6.96567164 C13.3918857,6.96964454 13.3722984,6.96689942 13.355303,6.95791045 L4.98409091,2.10716418 C4.95833333,2.09422886 4.93257576,2.09422886 4.90681818,2.10716418 L3.51590909,2.90915423 C3.46439394,2.93502488 3.46439394,3.01263682 3.51590909,3.03850746 L11.7325758,7.79870647 C11.7840909,7.82457711 11.7840909,7.90218905 11.7325758,7.9280597 L11.8072727,8.05223881 L13.504697,7.04845771 L13.4106818,6.96567164 Z M9.99265152,8.93830846 C9.97385544,8.94228136 9.95426808,8.93953624 9.93727273,8.93054726 L1.56606061,4.079801 C1.54030303,4.06686567 1.51454545,4.06686567 1.48878788,4.079801 L0.0978787879,4.88179104 C0.0463636364,4.90766169 0.0463636364,5.00855721 0.0978787879,5.03442786 L8.31454545,9.77134328 C8.44333333,9.8360199 8.42530303,9.89422886 8.44590909,9.95631841 L10.0892424,9.03402985 L9.99265152,8.93830846 L9.99265152,8.93830846 Z M8.4394697,17.6554229 L8.26818182,17.6554229 L8.26818182,19.5957214 L8.4394697,19.5349254 C8.44590909,19.52199 8.45621212,19.5090547 8.47166667,19.5025871 L16.8428788,14.6518408 C16.8686364,14.6389055 16.8815152,14.6130348 16.8815152,14.5871642 L16.8815152,12.9702488 C16.8815152,12.9055721 16.8171212,12.8797015 16.7656061,12.9055721 L8.54893939,17.6916418 C8.50772727,17.7123383 8.45878788,17.6916418 8.4394697,17.6554229 Z M8.44590909,13.741194 L8.3055303,13.741194 L8.3055303,15.6685572 L8.44590909,15.62199 C8.45106061,15.6090547 8.46265152,15.5961194 8.47681818,15.5883582 L16.8480303,10.7376119 C16.8737879,10.7246766 16.8866667,10.698806 16.8866667,10.6729353 L16.8866667,9.0560199 C16.8866667,8.99134328 16.8222727,8.96547264 16.7707576,8.99134328 L8.55409091,13.7774129 C8.51287879,13.7981095 8.46393939,13.7774129 8.44590909,13.741194 Z" id="Shape" fill-rule="nonzero"></path>
                <path d="M16.8931061,5.03830846 L16.8931061,6.73283582 C16.8931061,6.77164179 16.8802273,6.78457711 16.8544697,6.79751244 L8.48325758,11.6482587 C8.4575,11.661194 8.44462121,11.6870647 8.44462121,11.7129353 L8.27333333,11.7129353 L8.27333333,9.82825871 L8.44075758,9.82825871 L16.8634848,4.9800995 C16.882803,4.99303483 16.8931061,5.01631841 16.8931061,5.03830846 Z" id="Path"></path>
                <path d="M8.43560606,9.83343284 L8.43560606,9.65363184 L6.83992424,8.75850746 L6.83992424,8.91631841 C6.86568182,8.92925373 6.87856061,8.95512438 6.87856061,8.98099502 L6.87856061,25.059602 C6.87856061,25.0854726 6.89143939,25.1113433 6.91719697,25.1242786 L8.30810606,25.9262687 C8.35962121,25.9521393 8.42401515,25.9133333 8.42401515,25.861592 C8.42401515,20.5037811 8.44977273,15.2197015 8.43689394,9.83472637 L8.43560606,9.83343284 Z M3.41287879,6.93074627 C3.43863636,6.94368159 3.45151515,6.96955224 3.45151515,6.99542289 L3.45151515,23.0740299 C3.45151515,23.0999005 3.46439394,23.1257711 3.49015152,23.1387065 L4.88106061,23.9406965 C4.93257576,23.9665672 4.9969697,23.9277612 4.9969697,23.8760199 L4.9969697,7.97850746 C4.9969697,7.91383085 5.06136364,7.8879602 5.11287879,7.91383085 L5.11287879,7.69004975 L3.41287879,6.74059701 L3.41287879,6.93074627 L3.41287879,6.93074627 Z M0.0592424242,4.93223881 C0.0553787879,4.94129353 0.0592424242,5.020199 0.0592424242,5.02925373 L0.0592424242,21.1078607 C0.0592424242,21.1337313 0.0721212121,21.159602 0.0978787879,21.1725373 L1.48878788,21.9745274 C1.54030303,22.000398 1.60469697,21.961592 1.60469697,21.9098507 L1.60469697,6.01233831 C1.60469697,5.96059701 1.65234848,5.93084577 1.69484848,5.9360199 L1.86227273,5.86875622 L0.149393939,4.88049751 L0.0592424242,4.93223881 Z" id="Shape" fill-rule="nonzero"></path>
            </g>
        </g>
    </g>
</svg>