<svg xmlns="http://www.w3.org/2000/svg" width="33" height="32" viewBox="0 0 33 32">
    <path fill="#CF649A" fill-rule="nonzero" d="M28.408 17.781a6.97 6.97 0 0 0-2.99.676c-.31-.594-.62-1.113-.671-1.501-.058-.45-.13-.726-.058-1.263.07-.538.393-1.301.393-1.364-.007-.056-.071-.331-.735-.338-.664-.006-1.238.126-1.302.294a7.019 7.019 0 0 0-.277.957c-.116.588-1.328 2.67-2.018 3.765-.225-.425-.419-.8-.457-1.1-.058-.45-.13-.726-.058-1.264.07-.538.393-1.3.393-1.363-.007-.056-.071-.332-.735-.338-.664-.006-1.238.125-1.302.294-.065.169-.135.57-.277.957-.136.388-1.747 3.865-2.166 4.772-.213.463-.4.832-.535 1.082-.135.25-.007.019-.02.044l-.18.331v.006c-.09.157-.187.307-.232.307-.032 0-.097-.42.013-.995.238-1.207.819-3.09.812-3.158 0-.031.11-.363-.374-.532-.47-.168-.638.113-.677.113-.038 0-.07.1-.07.1s.522-2.12-1-2.12c-.954 0-2.269 1.007-2.92 1.926-.412.22-1.289.682-2.217 1.176-.354.188-.722.388-1.07.57l-.07-.076c-1.844-1.907-5.254-3.258-5.112-5.823.051-.931.386-3.39 6.549-6.366 5.047-2.44 9.088-1.77 9.79-.282 1 2.127-2.159 6.08-7.405 6.648-1.999.22-3.05-.531-3.314-.813-.277-.294-.315-.306-.419-.25-.167.088-.064.35 0 .507.155.394.8 1.094 1.895 1.445.96.306 3.307.475 6.143-.588 3.178-1.195 5.66-4.51 4.931-7.28-.74-2.82-5.562-3.746-10.12-2.177C7.833 5.7 4.893 7.162 2.78 9.082.265 11.359-.134 13.347.033 14.172c.587 2.947 4.77 4.867 6.446 6.286-.084.044-.161.088-.232.125-.838.4-4.029 2.02-4.828 3.734-.902 1.939.142 3.333.838 3.521 2.153.582 4.357-.463 5.55-2.183 1.186-1.72 1.044-3.952.496-4.972l-.019-.037.657-.375c.426-.244.845-.47 1.212-.663-.206.544-.354 1.188-.432 2.126-.09 1.1.374 2.527.987 3.09.27.243.593.25.792.25.71 0 1.032-.57 1.386-1.251.439-.832.825-1.795.825-1.795s-.483 2.608.838 2.608c.484 0 .967-.607 1.186-.92v.007l.04-.063c.05-.075.076-.119.076-.119v-.012c.194-.325.626-1.07 1.27-2.302.832-1.588 1.631-3.577 1.631-3.577s.077.488.316 1.288c.142.476.451.995.69 1.501-.194.263-.31.413-.31.413l.007.006c-.155.2-.33.413-.51.626-.657.763-1.443 1.632-1.547 1.882-.122.294-.096.513.142.688.174.125.484.15.812.125a3.71 3.71 0 0 0 1.212-.269c.323-.112.69-.281 1.044-.531.645-.463 1.038-1.12 1-1.995-.02-.482-.18-.957-.38-1.407.057-.082.115-.163.173-.25 1.019-1.445 1.805-3.034 1.805-3.034s.078.488.316 1.289c.122.406.367.85.587 1.288-.954.757-1.554 1.632-1.76 2.208-.38 1.063-.084 1.544.477 1.657.251.05.612-.063.883-.175a4.046 4.046 0 0 0 1.115-.557c.645-.463 1.263-1.107 1.231-1.976-.02-.4-.129-.794-.277-1.17.812-.325 1.863-.512 3.197-.356 2.869.325 3.436 2.064 3.326 2.79-.11.725-.709 1.125-.909 1.25-.2.119-.264.163-.245.25.026.132.117.125.29.1.239-.037 1.509-.594 1.56-1.932.078-1.72-1.605-3.596-4.589-3.578zM6.286 25.017c-.948 1.007-2.282 1.389-2.85 1.064-.612-.344-.373-1.827.794-2.896.709-.65 1.63-1.25 2.236-1.62.136-.081.342-.2.587-.344a4.683 4.683 0 0 0 .213-.125c.431 1.526.019 2.865-.98 3.921zm6.93-4.571c-.33.781-1.026 2.789-1.445 2.676-.36-.093-.58-1.613-.07-3.114.257-.757.805-1.657 1.127-2.008.522-.563 1.09-.75 1.231-.519.168.3-.638 2.477-.844 2.965zm5.717 2.651c-.142.07-.271.12-.33.082-.044-.025.059-.12.059-.12s.715-.743.999-1.087c.161-.2.354-.432.56-.694v.075c0 .9-.889 1.5-1.288 1.744zm4.409-.975c-.104-.075-.09-.307.257-1.032.136-.288.445-.77.98-1.226.065.188.103.37.097.538-.007 1.126-.832 1.545-1.334 1.72z"/>
</svg>
