<svg xmlns="http://www.w3.org/2000/svg" width="142" height="34" viewBox="0 0 142 34">
    <g fill="none" fill-rule="evenodd">
        <path fill="#0D0D0D" fill-rule="nonzero" d="M37.49 22.525a3.425 3.425 0 0 1-.729-1.15c-.182-.453-.274-1.023-.274-1.696V9.045h2.432v10.468c0 1.25 1.114 1.883 3.31 1.883h3.786c2.163 0 3.26-.633 3.26-1.883V9.045h2.397V19.68c0 1.422-.473 2.483-1.407 3.154-.953.687-2.517 1.035-4.647 1.035H42.54c-.44 0-.891-.01-1.34-.03a8.553 8.553 0 0 1-1.377-.171 6.375 6.375 0 0 1-1.283-.411 3.324 3.324 0 0 1-1.05-.73zm37.781 1.447H72.84V13.625l-6.362 9.631c-.19.288-.415.506-.667.648-.251.141-.52.213-.798.213-.626 0-1.117-.282-1.502-.86l-6.45-9.711v10.426h-2.432V10.52c0-.473.12-.83.367-1.09.245-.259.555-.385.947-.385.594 0 1.047.23 1.384.7l7.704 11.14 7.546-11.122c.315-.483.75-.718 1.328-.718.413 0 .736.14.987.43.252.29.38.683.38 1.168v13.329zm2.336-.104V9.045h2.432v14.823h-2.432zm17.692-4.034h-8.917l-2.273 4.117h-2.874l8.222-13.97c.375-.63.836-.936 1.41-.936.588 0 1.056.3 1.427.913l8.054 13.993h-2.721l-2.328-4.117zm-4.52-7.57l-3.014 5.099h6.087l-3.073-5.1zm-59.45 5.015l.055-5.578.004-2.656 2.422.01-.116 8.222c0 4.195-1.376 6.371-4.462 7.057-2.146.476-3.21.592-3.605.62l-.025-2.763c.89-.057 2.702-.227 3.886-.707 1.327-.54 1.912-1.878 1.84-4.205z"/>
        <path fill="#F49719" d="M116.332 12.624a7.451 7.451 0 0 1 1.066 3.853 7.454 7.454 0 0 1-3.851 6.536 7.257 7.257 0 0 1-3.506.898 7.261 7.261 0 0 1-4.114-1.27 7.473 7.473 0 0 1-1.987-2.01 7.797 7.797 0 0 1-.532-.933 7.488 7.488 0 0 1 1.43-8.476 7.458 7.458 0 0 1 1.696-1.28 7.264 7.264 0 0 1 3.507-.897 7.26 7.26 0 0 1 4.4 1.477 7.42 7.42 0 0 1 1.891 2.102zm-.864 2.026l-3.75-.55-1.68-3.434-1.675 3.433-3.75.55 2.713 2.673-.64 3.776 3.353-1.783 3.354 1.783-.64-3.776 2.715-2.672z"/>
    </g>
</svg>
