<svg xmlns="http://www.w3.org/2000/svg" width="66" height="32" viewBox="0 0 66 32">
    <g fill="#113228" fill-rule="evenodd">
        <path d="M7.514 5H11v16.514C9.212 21.86 7.899 22 6.473 22 2.218 22 0 20.031 0 16.255c0-3.637 2.354-6 5.998-6 .566 0 .996.046 1.516.185V5zm0 8.312a3.39 3.39 0 0 0-1.176-.185c-1.766 0-2.784 1.112-2.784 3.058 0 1.9.973 2.942 2.76 2.942.385 0 .702-.023 1.2-.092v-5.723z"/>
        <path d="M17 10.54v8.347c0 2.876-.207 4.255-.826 5.448-.574 1.145-1.331 1.87-2.892 2.665L10 25.41c1.56-.748 2.318-1.402 2.8-2.408.505-1.029.666-2.22.666-5.354v-7.107H17zm-3.534-1.846H17V5h-3.534v3.694zM18.786 12.084A11.782 11.782 0 0 1 23.8 11c1.94 0 3.218.495 3.784 1.462.319.542.417 1.249.417 2.758v7.379c-1.696.236-3.833.401-5.405.401C19.425 23 18 21.939 18 19.581c0-2.546 1.892-3.725 6.536-4.102v-.801c0-.66-.344-.896-1.303-.896-1.4 0-2.972.377-4.447 1.108v-2.806zm5.922 5.776c-2.507.236-3.317.613-3.317 1.556 0 .708.467 1.038 1.498 1.038.566 0 1.082-.047 1.819-.165V17.86zM30 11.838c2.004-.575 3.656-.838 5.33-.838 1.74 0 2.996.431 3.745 1.27.705.79.925 1.652.925 3.497V23h-3.392v-7.09c0-1.413-.44-1.94-1.652-1.94-.462 0-.88.048-1.564.263V23H30V11.838M42.282 24.132c1.27.63 2.54.922 3.879.922 2.374 0 3.385-.922 3.385-3.125v-.068c-.705.337-1.41.472-2.35.472-3.174 0-5.196-2.001-5.196-5.171C42 13.226 44.986 11 50.275 11c1.551 0 2.985.157 4.725.495l-1.24 2.497c-.964-.18-.077-.024-.805-.091v.36l.047 1.461.023 1.89c.024.471.024.944.047 1.416v.944c0 2.969-.258 4.363-1.034 5.51C50.909 27.168 48.958 28 46.185 28c-1.41 0-2.633-.202-3.903-.675v-3.193zm7.194-10.344h-.377c-.705-.022-1.527.158-2.092.495-.87.472-1.316 1.327-1.316 2.541 0 1.732.893 2.721 2.492 2.721.493 0 .893-.09 1.363-.225v-1.192c0-.404-.023-.854-.023-1.326l-.024-1.597-.023-1.147v-.27z"/>
        <path d="M60.083 11C63.757 11 66 13.256 66 16.907 66 20.65 63.662 23 59.94 23 56.266 23 54 20.744 54 17.116 54 13.35 56.338 11 60.083 11zm-.071 9.116c1.407 0 2.243-1.14 2.243-3.116 0-1.953-.812-3.116-2.219-3.116-1.456 0-2.29 1.14-2.29 3.116 0 1.977.834 3.116 2.266 3.116z"/>
    </g>
</svg>
