<svg xmlns="http://www.w3.org/2000/svg" width="69" height="32" viewBox="0 0 69 32">
    <g fill="none">
        <path fill="#09C" d="M13.868 1.003C8.307 2.79 4.264 8.223 4.264 14.649c0 6.495 4.129 11.971 9.775 13.714.578.181.429.566-.278.566C6.253 28.93.157 22.524.157 14.65.157 6.774 6.253.37 13.761.37c.707 0 .75.43.107.634" transform="matrix(1 0 0 -1 .18 31.812)"/>
        <path fill="#09C" d="M6.852 11.322c-.042.385-.064.77-.064 1.155 0 6.268 4.792 11.337 10.717 11.337 5.604 0 7.272-2.648 7.486-2.466.236.18-2.032 5.43-8.599 5.43-5.925 0-10.716-5.068-10.716-11.337 0-1.448.257-2.829.727-4.096.192-.543.492-.543.45-.023" transform="matrix(1 0 0 -1 .18 31.812)"/>
        <path fill="#09C" d="M11.344 19.492c2.78 1.29 6.29 1.335 9.733.045 2.31-.86 3.658-2.082 3.765-2.014.193.09-1.348 2.648-4.108 3.757-3.337 1.335-6.93.633-9.54-1.54-.299-.248-.192-.407.15-.248" transform="matrix(1 0 0 -1 .18 31.812)"/>
        <path fill="#F93" d="M66.425 14.151c0-.814-.642-1.493-1.412-1.493-.77 0-1.412.656-1.412 1.493 0 .815.62 1.494 1.412 1.494.792 0 1.412-.656 1.412-1.494M20.478 5.8l.17-1.991h2.975l-1.006 11.564H18.19L12.585 3.809h3.037l.942 1.991h3.914zm-.15 2.241h-2.717l2.332 5h.021l.364-5zM27.751 8.856L28.2 8.856 30.318 11.911 33.077 11.911 30.146 8.018 31.944 3.809 29.013 3.809 27.836 7.09 27.409 7.09 26.746 3.809 24.243 3.809 26.552 15.373 29.055 15.373z" transform="matrix(1 0 0 -1 .18 31.812)"/>
        <g fill="#F93">
            <path d="M5.24.926h2.502l1.005 5.047c.556 2.783-.448 3.122-3.016 3.122-1.796 0-3.529.023-4.021-2.488h2.503c.15.724.577.881 1.198.881 1.09 0 1.048-.474.898-1.221l-.257-1.29h-.106c-.087.927-1.199.904-1.905.904-1.817 0-2.888-.61-3.272-2.556C.363 1.265 1.282.812 3.036.812c.877 0 2.054.182 2.46 1.29h.086L5.239.926zm-.707 3.349c.813 0 1.348-.068 1.22-.747-.171-.837-.514-.995-1.562-.995-.385 0-1.09 0-.92.882.15.747.642.86 1.262.86M12.812 9.028l-.236-1.132h.108c.492.951 1.496 1.222 2.353 1.222 1.069 0 2.138-.204 1.988-1.584h.108c.363 1.155 1.476 1.584 2.438 1.584 1.775 0 2.524-.77 2.139-2.648L20.598.926h-2.503l.941 4.684c.128.838.257 1.472-.706 1.472-.984 0-1.305-.68-1.476-1.562l-.92-4.594h-2.502l.984 4.911c.129.746.171 1.245-.706 1.245-1.026 0-1.348-.589-1.54-1.562L11.25.926H8.747l1.626 8.102h2.439zM26.352.926h2.502l1.027 5.047c.557 2.783-.45 3.122-3.015 3.122-1.798 0-3.53.023-4.022-2.488h2.503c.149.724.577.881 1.197.881 1.091 0 1.049-.474.899-1.221l-.257-1.29h-.107c-.085.927-1.197.904-1.904.904-1.818 0-2.887-.61-3.272-2.556-.407-2.06.513-2.513 2.266-2.513.878 0 2.055.182 2.46 1.29h.087L26.352.926zm-.685 3.349c.813 0 1.347-.068 1.22-.747-.171-.837-.513-.995-1.562-.995-.385 0-1.091 0-.92.882.15.747.642.86 1.262.86" transform="matrix(1 0 0 -1 .18 31.812) translate(31.752 2.883)"/>
        </g>
        <path fill="#F93" d="M64.243 3.809L61.74 3.809 63.344 11.911 65.869 11.911z" transform="matrix(1 0 0 -1 .18 31.812)"/>
    </g>
</svg>
