<?xml version="1.0" encoding="UTF-8" standalone="no"?>
<svg width="141px" height="60px" viewBox="0 0 141 60" version="1.1" xmlns="http://www.w3.org/2000/svg" xmlns:xlink="http://www.w3.org/1999/xlink">
    <!-- Generator: sketchtool 50.2 (55047) - http://www.bohemiancoding.com/sketch -->
    <title>8ADF80DF-F1B6-4AD6-87FC-48895B2020C5</title>
    <desc>Created with sketchtool.</desc>
    <defs></defs>
    <g id="Logos" stroke="none" stroke-width="1" fill="none" fill-rule="evenodd">
        <g id="desktop-/-logo-/-event-/-landing-festival-/-grey" fill="#AAAEB3" fill-rule="nonzero">
            <path d="M8.28861878,28.6077778 L8.28861878,30.7 L0,30.7 L0,17.5711111 L2.38375691,17.5711111 L2.38375691,28.6077778 L8.28861878,28.6077778 Z M13.2898343,20.5344444 C13.9381001,20.5162949 14.5844109,20.6137472 15.1983978,20.8222222 C15.6685698,20.9768598 16.0937741,21.2438625 16.4370166,21.6 C16.750317,21.9582894 16.9697886,22.3885239 17.0758011,22.8522222 C17.2247863,23.3812972 17.3007908,23.9281905 17.3017127,24.4777778 L17.3017127,30.4666667 C16.9433702,30.5444444 16.4136464,30.6377778 15.6969613,30.7466667 C14.8992409,30.8549017 14.0948734,30.9068823 13.2898343,30.9022222 C12.7410706,30.8986656 12.1946228,30.8307936 11.6617127,30.7 C11.20821,30.6065153 10.7787098,30.4212213 10.3997238,30.1555556 C10.0609561,29.9001967 9.79287013,29.5629407 9.62071823,29.1755556 C9.39415114,28.7105996 9.27944887,28.1992478 9.28574586,27.6822222 C9.26948496,27.182522 9.3821509,26.6870376 9.61292818,26.2433333 C9.83172229,25.8449399 10.1445844,25.5058727 10.5243646,25.2555556 C10.9280115,25.0021043 11.3739075,24.8229733 11.840884,24.7266667 C12.6089412,24.5650141 13.3981029,24.5282445 14.1779006,24.6177778 C14.4762597,24.6535556 14.7730608,24.7056667 15.0659669,24.7733333 L15.0659669,24.4 C15.068347,24.1378108 15.0369289,23.8764054 14.9724862,23.6222222 C14.9112281,23.3907267 14.7995053,23.1756009 14.6453039,22.9922222 C14.4759106,22.8006907 14.2618703,22.6537699 14.0220994,22.5644444 C13.7066461,22.4559761 13.3740147,22.4058965 13.0405525,22.4166667 C12.5525051,22.4133736 12.0650935,22.4524091 11.5838122,22.5333333 C11.2178933,22.5873065 10.857935,22.6758521 10.5087845,22.7977778 L10.2205525,20.9388889 C11.2095997,20.6345508 12.2393145,20.4824352 13.2742541,20.4877778 L13.2898343,20.5344444 Z M13.4767956,29.09 C14.0143094,29.1032222 14.5518232,29.0643333 15.081547,28.9733333 L15.081547,26.4144444 C14.9026146,26.3633523 14.7204327,26.3243748 14.5362431,26.2977778 C14.2783824,26.2594798 14.0179275,26.2412767 13.7572376,26.2433333 C13.4965792,26.2422642 13.2361992,26.260462 12.978232,26.2977778 C12.7375984,26.3313678 12.5036831,26.402219 12.2849171,26.5077778 C12.0803197,26.6017574 11.9052576,26.7496534 11.7785635,26.9355556 C11.6644639,27.1337165 11.6103462,27.3606526 11.6227624,27.5888889 C11.5744727,28.0304364 11.7716919,28.4630381 12.1369061,28.7166667 C12.5441392,28.950067 13.0073316,29.0683713 13.4767956,29.0588889 L13.4767956,29.09 Z M20.0983425,21.1022222 C20.6672154,20.9489324 21.2446934,20.8294634 21.8277348,20.7444444 C22.6007889,20.6240962 23.382383,20.5668696 24.1647514,20.5733333 C24.8545097,20.5532912 25.5418105,20.6641417 26.1901657,20.9 C26.6936932,21.0962607 27.1387688,21.417495 27.4833149,21.8333333 C27.8199556,22.2507948 28.0546558,22.7407583 28.1688398,23.2644444 C28.3051657,23.8695556 28.3698232,24.4878889 28.3635912,25.1077778 L28.3635912,30.7 L26.081105,30.7 L26.081105,25.4655556 C26.0886983,25.0148868 26.0547989,24.5644747 25.9798343,24.12 C25.9302083,23.7973644 25.8163069,23.487935 25.6448619,23.21 C25.4886354,22.9785053 25.2659689,22.7995684 25.0060773,22.6966667 C24.6854512,22.5866683 24.3479022,22.5340094 24.0089503,22.5411111 C23.7043133,22.5407848 23.3999387,22.5589665 23.0975138,22.5955556 L22.3964088,22.6888889 L22.3964088,30.7 L20.0983425,30.7 L20.0983425,21.1022222 Z M39.5423204,30.3655556 C38.9803645,30.5293433 38.4077244,30.654086 37.8285083,30.7388889 C37.112728,30.8565818 36.3882846,30.9138215 35.6628729,30.91 C34.9455643,30.9226338 34.2322099,30.8012909 33.559558,30.5522222 C32.9738758,30.3228366 32.443053,29.9730457 32.001547,29.5255556 C31.5568088,29.0595182 31.2145207,28.5058325 30.9966298,27.9 C30.7571017,27.2100683 30.6410773,26.4834263 30.6538674,25.7533333 C30.6437511,25.0326338 30.740888,24.3144297 30.9420994,23.6222222 C31.1184341,23.0256852 31.4124262,22.4703606 31.8067956,21.9888889 C32.1800269,21.538309 32.6517123,21.179116 33.1856354,20.9388889 C33.7787663,20.6867087 34.4184654,20.5621507 35.0630387,20.5733333 C35.4925664,20.5652997 35.9207923,20.623006 36.3328177,20.7444444 C36.657351,20.841116 36.9727601,20.9660398 37.2754144,21.1177778 L37.2754144,16.3733333 L39.5656906,16 L39.5423204,30.3655556 Z M32.9753039,25.6988889 C32.9348907,26.5362462 33.1883509,27.3614443 33.691989,28.0322222 C34.1841695,28.6120656 34.9180177,28.931002 35.678453,28.8955556 C35.9931713,28.8978889 36.3078895,28.8823333 36.6210497,28.8488889 C36.8781215,28.8488889 37.088453,28.7788889 37.2520442,28.7477778 L37.2520442,23.1088889 C37.0104331,22.9459633 36.7485515,22.8152289 36.4730387,22.72 C36.1283391,22.5964914 35.7641983,22.5358969 35.398011,22.5411111 C34.6834365,22.4844936 33.9914932,22.8063011 33.5751381,23.3888889 C33.1507741,24.0798503 32.9419667,24.8812732 32.9753039,25.6911111 L32.9753039,25.6988889 Z M45.0109392,17.89 C45.0322069,18.2740794 44.8808394,18.6476245 44.5980663,18.9088889 C44.0342381,19.4184075 43.1754304,19.4184075 42.6116022,18.9088889 C42.3268696,18.6484287 42.1727488,18.2751325 42.1909392,17.89 C42.1711469,17.497786 42.3249619,17.1166987 42.6116022,16.8477778 C43.1794741,16.3488463 44.0301944,16.3488463 44.5980663,16.8477778 C44.8824033,17.1176667 45.0343094,17.4987778 45.0109392,17.89 Z M44.7694475,30.7 L42.4791713,30.7 L42.4791713,20.7833333 L44.7694475,20.7833333 L44.7694475,30.7 Z M47.6829282,21.1022222 C48.2491434,20.9488223 48.8240359,20.82935 49.4045304,20.7444444 C50.1776197,20.6244036 50.9591887,20.5671788 51.741547,20.5733333 C52.4338371,20.5534339 53.1236627,20.6642653 53.7747514,20.9 C54.2772979,21.0980536 54.7219569,21.4189873 55.0679006,21.8333333 C55.3991478,22.2531553 55.6308558,22.7424322 55.7456354,23.2644444 C55.884389,23.8689893 55.9523581,24.487577 55.9481768,25.1077778 L55.9481768,30.7 L53.6890608,30.7 L53.6890608,25.4655556 C53.6927523,25.0150086 53.6588785,24.5649365 53.5877901,24.12 C53.5357738,23.7967968 53.4192104,23.4873326 53.2450276,23.21 C53.0874857,22.9765904 52.8617101,22.797341 52.598453,22.6966667 C52.2805304,22.5866176 51.945527,22.5339443 51.609116,22.5411111 C51.3044659,22.540332 51.0000634,22.5585154 50.6976796,22.5955556 L49.9965746,22.6888889 L49.9965746,30.7 L47.7062983,30.7 L47.6829282,21.1022222 Z M66.9321547,29.6655556 C67.0444383,30.9372206 66.6080192,32.196314 65.7324862,33.1266667 C64.6816222,33.9325513 63.3686834,34.3205465 62.0477901,34.2155556 C60.9164671,34.2191343 59.7923989,34.0351512 58.7214365,33.6711111 L59.1343094,31.7266667 C59.5665925,31.9031142 60.0154517,32.0359964 60.4741989,32.1233333 C61.0054282,32.2261851 61.5456345,32.2756911 62.0867403,32.2711111 C62.7923848,32.341922 63.4982273,32.1385809 64.0576243,31.7033333 C64.4778639,31.2488005 64.6895581,30.640082 64.6418785,30.0233333 L64.6418785,29.6422222 C64.3548162,29.7844283 64.0548436,29.8990195 63.7460221,29.9844444 C63.3311956,30.1052468 62.9005014,30.1629318 62.468453,30.1555556 C61.8781066,30.1627638 61.2915989,30.0598911 60.7390608,29.8522222 C60.2290076,29.6611418 59.7684483,29.3581301 59.3913812,28.9655556 C59.0005324,28.5450294 58.7031959,28.0467154 58.518895,27.5033333 C58.2993571,26.8467954 58.1939686,26.1575889 58.2072928,25.4655556 C58.199171,24.789757 58.312628,24.1179912 58.5422652,23.4822222 C58.7431938,22.8978693 59.0733507,22.3661975 59.508232,21.9266667 C59.9504786,21.4857557 60.4815543,21.1437517 61.0662431,20.9233333 C61.7218111,20.6833751 62.4170528,20.5698835 63.1150276,20.5888889 C63.824938,20.58504 64.5338598,20.6422889 65.2339227,20.76 C65.9038674,20.8688889 66.4647514,20.9933333 66.9321547,21.1177778 L66.9321547,29.6655556 Z M60.5520994,25.4655556 C60.4886101,26.230897 60.7167362,26.9919704 61.190884,27.5966667 C61.6154966,28.0426451 62.2108419,28.2860689 62.8267956,28.2655556 C63.1773481,28.2686667 63.5271215,28.2188889 63.8628729,28.1177778 C64.1392783,28.035215 64.4018269,27.9120117 64.6418785,27.7522222 L64.6418785,22.6344444 C64.4438793,22.5881752 64.2436839,22.5518334 64.0420442,22.5255556 C63.7394961,22.4911345 63.4350954,22.4755488 63.1306077,22.4788889 C62.4002592,22.4403941 61.6939769,22.7454876 61.2220442,23.3033333 C60.7532407,23.9241329 60.5162855,24.6888973 60.5520994,25.4655556 Z M74.3716575,30.7 L74.3716575,17.5711111 L82.6680663,17.5711111 L82.6680663,19.5933333 L76.7632044,19.5933333 L76.7632044,22.9222222 L82.0059116,22.9222222 L82.0059116,24.9444444 L76.7632044,24.9444444 L76.7632044,30.7 L74.3716575,30.7 Z M83.9144751,25.7688889 C83.8996103,24.9890292 84.0317399,24.2133318 84.3039779,23.4822222 C84.5324675,22.8738934 84.8822977,22.3182224 85.3322652,21.8488889 C85.7522506,21.4233028 86.2562919,21.0895707 86.8123757,20.8688889 C87.3536562,20.6470369 87.9332847,20.5334079 88.5183978,20.5344444 C89.7158953,20.4662183 90.8822913,20.930333 91.7045304,21.8022222 C92.5466126,22.8747269 92.9552298,24.2235364 92.8496685,25.5822222 L92.8496685,26.43 L86.3216022,26.43 C86.3415436,27.1325923 86.6449445,27.7973393 87.1629282,28.2733333 C87.7811237,28.7469778 88.5511075,28.9792681 89.3285635,28.9266667 C89.8517665,28.9348431 90.374273,28.8852832 90.8865746,28.7788889 C91.2596286,28.7046372 91.6247966,28.5952595 91.9771823,28.4522222 L92.2809945,30.3266667 C92.1126023,30.4055452 91.9380454,30.4705757 91.7590608,30.5211111 C91.5331492,30.5911111 91.2838674,30.6533333 90.9800552,30.7155556 C90.6762431,30.7777778 90.388011,30.8166667 90.0608287,30.8555556 C89.7272276,30.8935066 89.391667,30.9116866 89.0559116,30.91 C88.2795577,30.9293919 87.5068777,30.7972922 86.7812155,30.5211111 C86.1882257,30.2837809 85.6558988,29.9170542 85.2232044,29.4477778 C84.8030779,28.9770895 84.4871874,28.4231647 84.2961878,27.8222222 C84.0607939,27.1622924 83.9319491,26.4692023 83.9144751,25.7688889 Z M90.5594045,24.75 C90.560252,24.4469205 90.5156126,24.1454238 90.4269613,23.8555556 C90.353118,23.5719215 90.220418,23.3069398 90.0374586,23.0777778 C89.870155,22.8688425 89.6569108,22.7011773 89.4142541,22.5877778 C89.1392638,22.4590693 88.8374795,22.397741 88.5339779,22.4088889 C88.214028,22.4008014 87.8966032,22.4673822 87.6069613,22.6033333 C87.3491455,22.7276135 87.1207722,22.9052518 86.9370166,23.1244444 C86.7482303,23.3411493 86.6027895,23.5919693 86.5085635,23.8633333 C86.4074721,24.1373531 86.3369358,24.4216619 86.298232,24.7111111 L90.5594045,24.75 Z M97.7574033,29.02 C98.2096629,29.0484951 98.662496,28.9740283 99.0817127,28.8022222 C99.3671757,28.6531406 99.5312789,28.3439999 99.4945856,28.0244444 C99.484702,27.7077685 99.3184278,27.4165191 99.0505525,27.2466667 C98.5947784,26.9510292 98.1024863,26.7157289 97.5860221,26.5466667 C97.1959033,26.4065991 96.8136354,26.2456246 96.440884,26.0644444 C96.1141417,25.9061611 95.8102025,25.7047263 95.5372376,25.4655556 C95.2841028,25.2383451 95.0822863,24.9599591 94.9451934,24.6488889 C94.7893923,24.2755556 94.7146077,23.8711111 94.7270718,23.4666667 C94.6981861,22.6263947 95.0820758,21.8249813 95.7553591,21.32 C96.5499777,20.7604063 97.5111012,20.4862324 98.4818785,20.5422222 C99.0390905,20.5403113 99.5950502,20.5950378 100.14116,20.7055556 C100.546243,20.7794444 100.943536,20.8836667 101.333039,21.0166667 L100.920166,22.8677778 C100.609047,22.7330337 100.285534,22.628839 99.9541989,22.5566667 C99.5068071,22.4570495 99.0492738,22.4100631 98.5909392,22.4166667 C98.1984588,22.4009355 97.808059,22.4810282 97.4535912,22.65 C97.1756935,22.7856183 97.0044869,23.0725478 97.0173481,23.3811111 C97.0156008,23.5281209 97.0447943,23.6738585 97.1030387,23.8088889 C97.1692541,23.9488889 97.2713039,24.0702222 97.3990608,24.1588889 C97.568884,24.2864444 97.7519503,24.3961111 97.9443646,24.4855556 C98.2157068,24.6103112 98.4940117,24.7193803 98.7779006,24.8122222 C99.2515359,24.9848889 99.7142652,25.1855556 100.16453,25.4111111 C100.509214,25.5806949 100.824744,25.8038431 101.099337,26.0722222 C101.341608,26.3063333 101.526232,26.5941111 101.636851,26.9122222 C101.759934,27.2777778 101.818359,27.662 101.808232,28.0477778 C101.853142,28.8967767 101.455401,29.7086563 100.756575,30.1944444 C99.8519699,30.7300116 98.8071223,30.9820056 97.7574033,30.9177778 C96.6575461,30.9477534 95.5630333,30.7545972 94.5401105,30.35 L94.9374033,28.4444444 C95.3359981,28.603112 95.7445473,28.7356163 96.160442,28.8411111 C96.6830978,28.9676215 97.219663,29.0277267 97.7574033,29.02 Z M103.810276,18.17 L106.100552,17.7966667 L106.100552,20.7833333 L109.621657,20.7833333 L109.621657,22.6888889 L106.100552,22.6888889 L106.100552,26.7177778 C106.048188,27.3088369 106.181611,27.9014976 106.482265,28.4133333 C106.800044,28.7851499 107.280679,28.9771008 107.767624,28.9266667 C108.14056,28.9311164 108.512467,28.8866624 108.873812,28.7944444 C109.138464,28.7279194 109.39865,28.6447914 109.652818,28.5455556 L110.02674,30.3655556 C109.69021,30.4946667 109.346669,30.6066667 108.998453,30.7 C108.502222,30.8262822 107.991433,30.8864341 107.479392,30.8788889 C106.876873,30.8977131 106.276395,30.7999921 105.71105,30.5911111 C105.2673,30.4262374 104.876837,30.1439341 104.581492,29.7744444 C104.296282,29.3850995 104.097138,28.9397198 103.997238,28.4677778 C103.879288,27.8919859 103.82185,27.3054755 103.825856,26.7177778 L103.810276,18.17 Z M114.396961,17.89 C114.415152,18.2751325 114.261031,18.6484287 113.976298,18.9088889 C113.712047,19.1598628 113.359401,19.2967868 112.994751,19.29 C112.622945,19.297932 112.262605,19.1612744 111.989834,18.9088889 C111.707061,18.6476245 111.555694,18.2740794 111.576961,17.89 C111.554098,17.4988312 111.705161,17.1175009 111.989834,16.8477778 C112.265496,16.600977 112.624555,16.4675842 112.994751,16.4744444 C113.35774,16.4688326 113.709055,16.602456 113.976298,16.8477778 C114.262972,17.1168889 114.416436,17.498 114.396961,17.89 Z M114.14768,30.7 L111.857403,30.7 L111.857403,20.7833333 L114.14768,20.7833333 L114.14768,30.7 Z M119.616298,30.7 C118.977514,29.3987778 118.328602,27.9077778 117.668785,26.2277778 C116.969519,24.4456477 116.363671,22.6283726 115.853702,20.7833333 L118.291989,20.7833333 C118.43221,21.3355556 118.595801,21.9344444 118.774972,22.5644444 C118.954144,23.1944444 119.156685,23.84 119.367017,24.4777778 C119.577348,25.1155556 119.79547,25.73 120.013591,26.3288889 C120.231713,26.9277778 120.442044,27.4644444 120.629006,27.9466667 C120.823757,27.4644444 121.026298,26.9277778 121.23663,26.3288889 C121.446961,25.73 121.665083,25.1155556 121.875414,24.4777778 C122.085746,23.84 122.288287,23.2022222 122.475249,22.5644444 C122.66221,21.9266667 122.833591,21.3355556 122.966022,20.7833333 L125.303039,20.7833333 C124.793069,22.6283726 124.187221,24.4456477 123.487956,26.2277778 C122.895881,27.7426613 122.246239,29.2344831 121.540442,30.7 L119.616298,30.7 Z M130.312044,20.5344444 C130.962914,20.5153649 131.611946,20.6128296 132.228398,20.8222222 C132.69857,20.9768598 133.123774,21.2438625 133.467017,21.6 C133.78649,21.9514036 134.013961,22.3762379 134.129171,22.8366667 C134.267485,23.3567743 134.335601,23.8929966 134.331713,24.4311111 L134.331713,30.42 C133.97337,30.4977778 133.443646,30.5911111 132.726961,30.7 C131.926637,30.8083176 131.119674,30.8602977 130.312044,30.8555556 C129.764526,30.8617681 129.218144,30.8043448 128.683923,30.6844444 C128.232804,30.5910097 127.805841,30.405666 127.429724,30.14 C127.091672,29.8839093 126.823747,29.5468548 126.650718,29.16 C126.443931,28.6900274 126.345433,28.1797072 126.362486,27.6666667 C126.346225,27.1669665 126.458891,26.671482 126.689669,26.2277778 C126.895015,25.8387265 127.19171,25.5051377 127.554365,25.2555556 C127.95525,25.0022081 128.398575,24.8230498 128.863094,24.7266667 C129.631203,24.565419 130.420299,24.5286526 131.20011,24.6177778 C131.49847,24.6535556 131.795271,24.7056667 132.088177,24.7733333 L132.088177,24.4 C132.090557,24.1378108 132.059139,23.8764054 131.994696,23.6222222 C131.933418,23.3891529 131.818747,23.1734839 131.659724,22.9922222 C131.490331,22.8006907 131.27629,22.6537699 131.036519,22.5644444 C130.72378,22.4558889 130.393684,22.4057934 130.062762,22.4166667 C129.574715,22.4133736 129.087303,22.4524091 128.606022,22.5333333 C128.239908,22.5863114 127.879855,22.6748804 127.530994,22.7977778 L127.242762,20.9388889 C127.659165,20.8110447 128.083278,20.7097297 128.512541,20.6355556 C129.108432,20.551103 129.710425,20.517278 130.312044,20.5344444 Z M130.506796,29.09 C131.044309,29.1032222 131.581823,29.0643333 132.111547,28.9733333 L132.111547,26.4144444 C131.932402,26.364206 131.750276,26.3252406 131.566243,26.2977778 C131.308382,26.2594798 131.047928,26.2412767 130.787238,26.2433333 C130.526561,26.2417078 130.266139,26.2599086 130.008232,26.2977778 C129.765329,26.3323874 129.528999,26.4031747 129.307127,26.5077778 C129.106211,26.6042032 128.93426,26.7517401 128.808564,26.9355556 C128.677533,27.139214 128.612273,27.378122 128.621602,27.62 C128.56987,28.0602841 128.76433,28.4933951 129.127956,28.7477778 C129.550574,28.9750284 130.027371,29.0826095 130.506796,29.0588889 L130.506796,29.09 Z M140.571547,30.8555556 C140.000376,30.8580693 139.431571,30.7821736 138.881105,30.63 C138.482829,30.5176857 138.117018,30.3124079 137.813867,30.0311111 C137.543262,29.7659774 137.349466,29.4327444 137.252983,29.0666667 C137.137663,28.6382133 137.082605,28.1958248 137.089392,27.7522222 L137.089392,16.3733333 L139.379669,16 L139.379669,27.3166667 C139.374968,27.5519577 139.398506,27.7869641 139.449779,28.0166667 C139.485613,28.1947778 139.56663,28.3604444 139.683481,28.4988889 C139.810459,28.6388889 139.971713,28.7423333 140.150884,28.8022222 C140.404061,28.8854444 140.665028,28.9398889 140.92989,28.9655556 L140.571547,30.8555556 Z" id="dots"></path>
            <path d="M120.488207,37.9411111 L125.147815,37.9411111 C125.349705,37.9411111 125.51337,38.1047759 125.51337,38.3066667 L125.51337,42.9577778 C125.51337,43.1596685 125.349705,43.3233333 125.147815,43.3233333 L120.488207,43.3233333 C120.286317,43.3233333 120.122652,43.1596685 120.122652,42.9577778 L120.122652,38.3066667 C120.122652,38.1047759 120.286317,37.9411111 120.488207,37.9411111 Z M128.192572,37.9722222 L132.828809,37.9722222 C133.0307,37.9722222 133.194365,38.135887 133.194365,38.3377778 L133.194365,42.9655556 C133.194365,43.1674463 133.0307,43.3311111 132.828809,43.3311111 L128.192572,43.3311111 C127.990681,43.3311111 127.827017,43.1674463 127.827017,42.9655556 L127.827017,38.3377778 C127.827017,38.135887 127.990681,37.9722222 128.192572,37.9722222 Z M135.896937,37.9722222 L140.533174,37.9722222 C140.735064,37.9722222 140.898729,38.135887 140.898729,38.3377778 L140.898729,42.9655556 C140.898729,43.1674463 140.735064,43.3311111 140.533174,43.3311111 L135.896937,43.3311111 C135.695046,43.3311111 135.531381,43.1674463 135.531381,42.9655556 L135.531381,38.3377778 C135.531381,38.135887 135.695046,37.9722222 135.896937,37.9722222 Z" id="landing-festival"></path>
        </g>
    </g>
</svg>