<?xml version="1.0" encoding="UTF-8"?>
<svg width="142px" height="34px" viewBox="0 0 142 34" version="1.1" xmlns="http://www.w3.org/2000/svg" xmlns:xlink="http://www.w3.org/1999/xlink">
    <!-- Generator: sketchtool 53.2 (72643) - https://sketchapp.com -->
    <title>150BD535-D2C4-4916-9D83-F24DEFAE7DBE</title>
    <desc>Created with sketchtool.</desc>
    <defs>
        <linearGradient x1="50%" y1="0%" x2="50%" y2="100%" id="linearGradient-1">
            <stop stop-color="#14191E" offset="0%"></stop>
            <stop stop-color="#32373C" offset="49.9164828%"></stop>
            <stop stop-color="#14191E" offset="51.7620987%"></stop>
            <stop stop-color="#23282D" offset="100%"></stop>
        </linearGradient>
        <linearGradient x1="50%" y1="0%" x2="50%" y2="99.1600434%" id="linearGradient-2">
            <stop stop-color="#FF5F00" offset="0%"></stop>
            <stop stop-color="#FF6E0F" offset="48.3766469%"></stop>
            <stop stop-color="#FC5500" offset="50.4269608%"></stop>
            <stop stop-color="#FF6900" offset="100%"></stop>
        </linearGradient>
    </defs>
    <g id="Homepage" stroke="none" stroke-width="1" fill="none" fill-rule="evenodd">
        <g id="Homepage---UI---Mobile" transform="translate(-169.000000, -3851.000000)">
            <g id="growing-pomising" transform="translate(0.000000, 3479.000000)">
                <g id="brands" transform="translate(15.000000, 372.000000)">
                    <g id="clients">
                        <g id="logo-faceit" transform="translate(154.000000, 0.000000)">
                            <g transform="translate(8.000000, 6.000000)">
                                <path d="M0.0810983397,7.2433744 C0.0810983397,6.71363731 0.519694287,6.28926513 1.39741145,5.96841371 C2.12017569,5.71675176 2.91542643,5.58894004 3.78211282,5.58894004 L14.8890966,5.58894004 L14.8890966,7.90487981 L7.2370397,7.90487981 C6.57940856,7.90487981 6.25059543,8.07019396 6.25059543,8.40134428 L6.25059543,11.047644 L14.8890966,11.047644 L14.8890966,13.3641156 L6.25059543,13.3641156 L6.25059543,18.8244002 L0.0810983397,18.8244002 L0.0810983397,7.2433744 Z M32.4331965,6.08539963 C33.1887898,6.41496926 33.7053893,6.84118558 33.9798376,7.35956509 L39.9536744,18.8244002 L33.2909552,18.8244002 L32.4360851,17.1699708 L24.5256013,17.1699708 L23.6639032,18.8244002 L20.2084499,18.8244002 L26.147619,7.42505652 C26.4320478,6.88502054 26.9347275,6.44454383 27.6535513,6.10230427 C28.3715883,5.75953293 29.1639509,5.58894004 30.0311622,5.58894004 C30.875265,5.58894004 31.6770803,5.75504454 32.4331965,6.08539963 Z M25.7510442,14.8534992 L31.2158963,14.8534992 L28.4842572,9.60816929 L25.7510442,14.8534992 Z M47.6385565,7.53306079 C49.569441,6.23539472 51.8879707,5.58894004 54.5993654,5.58894004 L62.0024628,5.58894004 L62.0024628,7.90487981 L54.5993654,7.90487981 C53.314807,7.90487981 52.4492135,8.45151665 51.9993101,9.54294131 C51.7571785,10.1397505 51.6376768,11.0265193 51.6376768,12.2056139 C51.6376768,13.3868258 51.7571785,14.2757022 51.9993101,14.8714577 C52.4492135,15.9628823 53.314807,16.5089874 54.5993654,16.5089874 L62.0024628,16.5089874 L62.0024628,18.8244002 L54.5993654,18.8244002 C51.8879707,18.8244002 49.569441,18.1768869 47.6385565,16.8794843 C45.7087375,15.5852528 44.7430362,14.02747 44.7430362,12.2056139 C44.7430362,10.3882462 45.7087375,8.82835095 47.6385565,7.53306079 Z M71.1580572,5.96841371 C71.8823991,5.71675176 72.6753141,5.58894004 73.5412009,5.58894004 L84.6487062,5.58894004 L84.6487062,7.90487981 L76.9969278,7.90487981 C76.3371999,7.90487981 76.0086067,8.07019396 76.0086067,8.40134428 L76.0086067,11.047644 L84.6487062,11.047644 L84.6487062,13.3641156 L76.0086067,13.3641156 L76.0086067,16.0098835 C76.0086067,16.342356 76.3371999,16.5089874 76.9969278,16.5089874 L84.6487062,16.5089874 L84.6487062,18.8244002 L73.5412009,18.8244002 C72.6753141,18.8244002 71.8823991,18.6979106 71.1580572,18.4441314 C70.2787784,18.125129 69.8412406,17.7002347 69.8412406,17.1699708 L69.8412406,7.2433744 C69.8412406,6.71363731 70.2787784,6.28926513 71.1580572,5.96841371 Z M107.520805,5.60108796 L126.594508,5.60108796 L126.594508,7.9180864 L121.140683,7.9180864 C120.494347,7.9180864 120.171814,8.08260533 120.171814,8.41480944 L120.171814,18.8376068 L113.944037,18.8376068 L113.944037,8.41480944 C113.944037,8.08260533 113.619696,7.9180864 112.974142,7.9180864 L107.520805,7.9180864 L107.520805,5.60108796 Z M95.1610976,18.7475561 L95.1498073,11.5007956 L101.803343,14.1991216 L101.803343,18.7208844 L95.1663274,18.7208844 L95.1610976,18.7475561 Z" fill="url(#linearGradient-1)"></path>
                                <path d="M101.742394,0.211041673 C101.798064,0.124952445 101.920743,0.158493386 101.920743,0.26940535 L101.920743,11.0793311 C101.920743,11.1395438 101.779442,11.2224618 101.694594,11.1868133 C98.3213205,9.8458343 92.2752645,7.45516287 88.0920675,5.86885932 C87.9822921,5.82740027 88.0329765,5.66419859 88.1580012,5.66419859 C90.4463255,5.66816008 95.0452616,5.66710629 98.241506,5.66578417 C99.1005501,4.31318901 100.051041,2.82195633 101.742394,0.211041673 Z" id="arrow" fill="url(#linearGradient-2)"></path>
                            </g>
                        </g>
                    </g>
                </g>
            </g>
        </g>
    </g>
</svg>