<?xml version="1.0" encoding="UTF-8" standalone="no"?>
<svg width="127px" height="40px" viewBox="0 0 127 40" version="1.1" xmlns="http://www.w3.org/2000/svg" xmlns:xlink="http://www.w3.org/1999/xlink">
    <!-- Generator: sketchtool 50.2 (55047) - http://www.bohemiancoding.com/sketch -->
    <title>020B9539-62D0-4AF2-8C4F-0B8774D229E8</title>
    <desc>Created with sketchtool.</desc>
    <defs></defs>
    <g id="Logos" stroke="none" stroke-width="1" fill="none" fill-rule="evenodd">
        <g id="desktop-/-logo-/-website-/-andreessen-horowitz-/-grey" fill="#AAAEB3" fill-rule="nonzero">
            <path d="M33.5328534,3.39461879 C32.0812507,3.3895305 31.2937212,3.41940194 31.5544617,3.47483108 C32.7491527,3.7288032 32.7186618,3.52161315 32.6687826,10.2834389 C32.6211637,16.7388665 32.6254729,16.6950665 31.8188768,16.8183813 C31.5964282,16.8523898 31.8547618,16.898817 32.3949241,16.9221854 C32.9350863,16.9455523 34.1589506,17.0154129 35.1146223,17.0731732 C37.915762,17.2424729 38.3112439,17.235073 39.3877594,17.0071161 C43.2154739,16.1965786 45.6042417,12.392209 44.7657739,8.44327463 C44.4070441,6.75376149 43.085851,4.95845268 41.6825048,4.25808049 C40.295087,3.56565933 39.648787,3.48117861 35.1901695,3.41349227 C34.5722087,3.40411593 34.0167209,3.39631439 33.5328534,3.39461879 Z M35.9550846,3.80983535 C37.9647075,3.75917742 40.2582895,4.56989907 41.5030803,5.83401605 C43.4336173,7.79453122 43.9593078,11.1059633 42.7448869,13.6712285 C42.2512239,14.7140124 41.1179127,15.7482504 39.9826934,16.1908381 C38.384502,16.8139256 35.1458671,16.717085 34.4535846,16.0256951 C34.3334948,15.9057594 34.2836034,14.1203086 34.2836034,9.9389979 L34.2836034,4.022162 L35.1146223,3.88532927 C35.3861706,3.84176173 35.6679963,3.8170722 35.9550846,3.80983535 Z M83.4569177,17.0857022 C82.4444768,16.7787032 82.4080812,16.7183035 82.4080812,15.3451235 C82.4080812,14.647078 82.4760737,14.0339587 82.5591756,13.9826349 C82.6497717,13.9266818 82.7104965,14.1195929 82.710835,14.4644341 C82.7120438,15.7536211 83.8092954,16.6249221 85.4314519,16.6249221 C86.5004142,16.6249221 87.0724438,16.3753935 87.6060093,15.676347 C88.0796962,15.0557492 88.2303735,14.1634292 88.0035945,13.3218291 C87.8158295,12.6250157 87.2912073,12.0453688 84.949535,9.94744869 C83.4004855,8.55964549 82.8613643,7.64344524 82.8613643,6.39874831 C82.8613643,4.37460687 84.147363,3.13677082 86.2609871,3.12644778 C87.9268083,3.11830954 89.0968104,3.3165158 88.9921308,3.5891168 C88.9442852,3.71371196 88.8983087,4.26872212 88.8899608,4.82247303 C88.8754859,5.78225138 88.86825,5.80142684 88.7349531,5.2329078 C88.4831543,4.15897812 87.701705,3.63996799 86.3365343,3.63996799 C84.7909403,3.63996799 83.9206973,4.40648191 83.9195898,5.76882403 C83.9188343,6.68758654 84.4206987,7.41770635 85.8832512,8.62563774 C88.335233,10.650744 88.9390619,11.3834699 89.2148227,12.668393 C89.5907167,14.4198911 88.8032266,16.0267973 87.1968156,16.7862239 C86.3925525,17.1664384 86.0910528,17.2268275 85.0522323,17.2157767 C84.3874172,17.2087105 83.6695256,17.150171 83.4569177,17.0857022 Z M93.4020626,16.9963446 C92.5469532,16.7234039 92.4856225,16.5543217 92.664899,14.9640558 C92.7351125,14.341231 92.801792,14.0310144 92.8130757,14.2746877 C92.8523209,15.1221914 93.4007571,15.9760307 94.1335829,16.3305365 C95.0834768,16.7900484 96.6493461,16.7105246 97.322485,16.168584 C97.9413795,15.6703181 98.2729878,14.9533719 98.2729878,14.1135716 C98.2729878,13.0920664 97.9099565,12.4962472 96.5540977,11.2924755 C93.7752143,8.82529953 93.2571964,8.14705763 93.0734218,6.73521867 C92.9574222,5.84405674 93.1319044,5.16305932 93.6779911,4.37561245 C94.4523481,3.25900152 95.8757204,2.91059255 98.3107614,3.24161678 L99.1795539,3.35972097 L99.1693248,4.51901314 C99.1610449,5.45744333 99.1298605,5.60639132 99.0056186,5.30083421 C98.440003,3.90979081 97.936061,3.60016609 96.3537723,3.67152445 C95.3899596,3.71499083 95.2126624,3.77125947 94.8026468,4.16380369 C93.9121224,5.01637614 93.8892648,6.39785598 94.7487922,7.41862586 C94.9667639,7.67748696 95.8063288,8.42438303 96.6144932,9.07839742 C98.8185956,10.8620847 99.4817426,11.8657386 99.4817426,13.4178966 C99.4817426,14.8736036 98.8378556,15.9794158 97.5516377,16.7326579 C96.9532165,17.0831082 96.6556165,17.1480315 95.485214,17.1834502 C94.5757167,17.2109738 93.8782108,17.1483259 93.4020626,16.9963446 Z M24.5033977,14.3268781 C23.0295645,12.8088509 20.6838247,10.2981844 19.2906426,8.74761779 C17.8974621,7.19705121 16.7017981,5.92309133 16.6336123,5.91659583 C16.478316,5.90179902 16.6607171,14.2668982 16.8421587,15.4807604 C16.9156706,15.9725565 17.0443502,16.4434211 17.1281138,16.5271257 C17.211879,16.6108319 17.5707311,16.7265188 17.9255656,16.7842097 C18.3237295,16.8489442 17.7608909,16.8887265 16.455398,16.8881226 C15.2919715,16.8875186 14.5780507,16.8451318 14.8689073,16.7937808 C15.7332335,16.641185 15.7573376,16.4412378 15.7669456,9.34449688 C15.7736845,4.36905655 15.8151583,3.06110327 15.9643413,3.11978016 C16.0682187,3.16063898 18.5275648,5.77408445 21.4295554,8.92743978 C24.3315445,12.0807951 26.7283179,14.6384113 26.7557158,14.6110312 C26.7831152,14.5836526 26.7492641,12.2030771 26.6804995,9.32086577 C26.5409201,3.47076347 26.5962659,3.72978009 25.4372801,3.50268985 C24.9235336,3.40202626 25.2630003,3.37082311 26.880908,3.36999117 C28.2399654,3.36923623 28.8156636,3.41156265 28.4911734,3.48822672 C28.2133925,3.5538551 27.9074264,3.68613101 27.8112488,3.78217438 C27.6855278,3.90772076 27.624466,5.80066435 27.5939903,10.5173417 C27.5614657,15.5512536 27.5087262,17.078938 27.3673487,17.0824062 C27.2660098,17.0848975 25.9772324,15.8449038 24.5033977,14.3268781 Z M62.7658165,16.9268977 C61.8101447,16.8769827 61.2128189,16.8225908 61.4384254,16.8060274 C62.2196225,16.7486702 62.2369863,16.6024536 62.2369863,10.0814972 L62.2369863,4.06652977 L61.8802857,3.77775496 C61.6840988,3.61892935 61.3101403,3.47432829 61.0492668,3.45642265 C60.7275734,3.43434067 67.3948517,3.25270683 68.1551887,3.26283812 C68.1692254,3.26298911 68.1321589,3.7726093 68.0728181,4.3952469 C67.9816387,5.35194208 67.9471001,5.45372298 67.8498633,5.05226142 C67.6359213,4.1689569 67.3106287,4.02476503 65.3947614,3.9639894 L63.6723826,3.90935294 L63.6723826,6.64342863 L63.6723826,9.37750584 L65.5308431,9.37750584 C66.7603114,9.37750584 67.4498168,9.31703521 67.568098,9.1988374 C67.8626519,8.90449114 67.8995809,9.10841531 67.7796467,10.3669926 C67.6765399,11.448988 67.6540858,11.5114003 67.5510244,11.0024596 C67.4881661,10.6920573 67.3133227,10.3720884 67.1624822,10.2914171 C67.0116432,10.2107473 66.1592293,10.0976469 65.268229,10.0400827 L63.6482301,9.935421 L63.6980807,12.8043892 C63.7353406,14.9488317 63.8000709,15.7360416 63.9543987,15.9215739 C64.2882235,16.3228996 65.2336813,16.4956493 66.4790855,16.3828735 C67.7852554,16.2645941 68.1147,16.0647074 68.4442382,15.1905376 L68.6719117,14.5865863 L68.5912455,15.5372208 C68.4580604,17.1067771 68.493702,17.082767 66.3489918,17.047768 C65.3339173,17.0312047 63.7214882,16.9768128 62.7658165,16.9268977 Z M73.3424203,16.9268977 C72.3867485,16.8769827 71.7894227,16.8225908 72.0150292,16.8060274 C72.7962263,16.7486702 72.8135901,16.6024536 72.8135901,10.0814972 L72.8135901,4.06652977 L72.4568895,3.77775496 C72.2607026,3.61892935 71.8867441,3.47432829 71.6258706,3.45642265 C71.3041772,3.43434067 77.9714555,3.25270683 78.7317925,3.26283812 C78.7458292,3.26298911 78.7087627,3.7726093 78.6494219,4.3952469 C78.5582425,5.35194208 78.5237039,5.45372298 78.4264671,5.05226142 C78.208852,4.15379621 77.8902589,4.01743759 76.0086659,4.01743759 L74.3245335,4.01743759 L74.2832742,6.69747171 L74.2420134,9.37750584 L75.9930186,9.37750584 C76.9588998,9.37750584 77.8808684,9.30432052 78.0492193,9.21428496 C78.2170775,9.12451364 78.3826724,9.07930033 78.417208,9.11381162 C78.4517437,9.14832442 78.4330261,9.71437027 78.3756118,10.3716943 C78.2770786,11.4997969 78.2634726,11.5348971 78.1330389,10.9975163 C78.0570384,10.6843947 77.8755998,10.3644258 77.7298436,10.2864738 C77.5840874,10.2085233 76.7412665,10.0979972 75.8569098,10.0408634 L74.2489864,9.9369807 L74.2575081,12.488266 C74.2678581,15.5828614 74.3778049,16.0139226 75.2277514,16.2920256 C76.0067455,16.5469127 78.0655148,16.3870906 78.4935409,16.0385034 C78.6583395,15.9042949 78.8956211,15.5227108 79.0208421,15.1905376 L79.2485155,14.5865863 L79.1678493,15.5372208 C79.0346642,17.1067771 79.0703058,17.082767 76.9255956,17.047768 C75.9105211,17.0312047 74.298092,16.9768128 73.3424203,16.9268977 Z M104.316762,16.9268977 C103.36109,16.8769827 102.757831,16.8225908 102.976186,16.8060274 C103.786256,16.7445754 103.784384,16.758883 103.832214,10.260066 L103.876497,4.24320215 L103.499119,3.86609191 C103.275148,3.6422766 102.919335,3.47525536 102.623818,3.45521625 C102.349959,3.43664475 103.825705,3.38568635 105.903252,3.34197537 C107.9808,3.29826289 109.699007,3.26955708 109.721491,3.27818452 C109.743976,3.28680593 109.716702,3.78490575 109.660886,4.38505824 L109.559399,5.47624433 L109.365601,4.9129223 C109.259013,4.60309525 109.082308,4.2938329 108.972925,4.22567246 C108.6456,4.0217045 107.63572,3.9201984 106.432083,3.97028257 L105.298875,4.01743759 L105.257616,6.69747171 L105.216355,9.37750584 L106.96736,9.37750584 C107.933241,9.37750584 108.85521,9.30432052 109.023561,9.21428496 C109.191419,9.12451364 109.363204,9.08548781 109.405308,9.12756057 C109.447411,9.16963484 109.425875,9.7356807 109.357452,10.3854433 C109.280909,11.1123002 109.213645,11.3769049 109.182621,11.0731883 C109.107716,10.3398842 108.704675,10.1618967 106.847317,10.0419006 L105.223328,9.9369807 L105.23185,12.488266 C105.237062,14.0466266 105.310564,15.2450034 105.420718,15.5674576 C105.66973,16.2963891 106.388596,16.5248186 107.993318,16.384936 C109.359085,16.265882 109.845568,15.9674848 110.067546,15.1126566 C110.17419,14.7019727 110.189051,14.8139407 110.135307,15.6231419 C110.097441,16.1932463 109.988316,16.7537887 109.892807,16.8687916 C109.70718,17.0923064 107.853525,17.1116223 104.316762,16.9268977 Z M123.205863,14.5250768 C121.776735,13.0795087 119.382878,10.5485751 117.886183,8.90077986 C116.389486,7.25298315 115.128505,5.90478556 115.084002,5.90478556 C114.958095,5.90478556 115.20299,15.1174731 115.346376,15.7749904 C115.505934,16.5066729 115.642628,16.6425031 116.358853,16.7810661 C116.717114,16.8503771 116.165853,16.8896128 114.893366,16.88537 C113.771491,16.8816255 113.074477,16.8511743 113.344448,16.8176882 C113.647362,16.7801179 113.907696,16.6303893 114.024373,16.4266358 C114.165655,16.1799141 114.225227,14.441419 114.260068,9.54823232 L114.306694,3 L114.694384,3.35773096 C114.907613,3.55448321 117.324796,6.14447875 120.0659,9.11327712 C122.807005,12.0820755 125.093369,14.5110923 125.146712,14.5110923 C125.394026,14.5110923 125.070637,4.22389232 124.812269,3.87227184 C124.716944,3.74254309 124.332986,3.57670409 123.959027,3.50373921 C123.427515,3.40003473 123.724338,3.37030069 125.318876,3.36751346 C126.7499,3.36500706 127.223425,3.40423672 126.905542,3.49894837 C126.063274,3.7498962 126.075576,3.65140532 126.059287,10.2745442 C126.051007,13.6426873 125.990238,16.5683016 125.924252,16.7759099 C125.810601,17.1334868 125.667347,17.0148738 123.205863,14.5250768 Z M6.33587059,3.09264312 C6.36264451,3.09029828 6.38261616,3.10986781 6.40669607,3.13510845 C6.47462204,3.20630676 7.48355304,5.75491201 8.64950281,8.80187074 C11.504364,16.2624395 11.6145677,16.4719231 12.8329276,16.7570425 C13.3158508,16.8700569 13.072539,16.9005338 11.5769558,16.9127487 C9.85412517,16.9268207 9.73338869,16.9079171 9.86297929,16.6626751 C9.96525959,16.4691162 9.76161463,15.7721322 9.10750755,14.0628532 C8.61639803,12.779514 8.13310614,11.6788625 8.03096032,11.6140192 C7.79543747,11.4645096 4.27346748,11.4558836 4.05056857,11.6045825 C3.89939565,11.7054378 2.77008627,14.9638973 2.57267697,15.8699889 C2.46050754,16.3848303 2.64682199,16.6330044 3.25260154,16.7759159 C3.58443495,16.8542001 3.02198623,16.8950831 1.64722408,16.8938752 C0.342769153,16.8926673 -0.250596486,16.8483297 0.0985070065,16.7806343 C0.804495351,16.6437336 1.2350387,16.2699451 1.5811203,15.4925193 C1.7289903,15.1603461 2.77196135,12.3625384 3.89475252,9.27370774 C5.79541517,4.044937 6.14845316,3.10905701 6.33587059,3.09264312 Z M6.0147951,5.80098746 C5.93806032,5.77542673 5.49350147,6.94258688 5.02796013,8.39609093 L4.18277612,11.0383781 L6.05256869,11.0383781 C7.07978815,11.0383781 7.9150785,10.9874197 7.91291786,10.9251372 C7.90206928,10.6119069 6.13480783,5.840963 6.0147951,5.80098746 Z M48.6422882,3.3851896 C49.0097659,3.38295498 49.437392,3.38564257 49.9218685,3.38990042 C52.8541006,3.41566046 53.236599,3.44691645 53.8503216,3.72962306 C56.2576141,4.83852304 56.3746428,7.62213331 54.1194584,10.1985082 L53.5953499,10.7977412 L55.2243358,12.8549505 C57.6954778,15.9747684 58.3871137,16.579052 59.7430012,16.7947894 C60.2020243,16.8678298 59.8829448,16.8917357 58.7608879,16.8750017 C57.2715857,16.8527899 57.048241,16.8121062 56.5936283,16.4880954 C56.0823628,16.1237074 54.3830228,14.0658156 53.0570762,12.1990971 L52.3440998,11.1893659 L51.0550761,11.1893659 L49.7707742,11.1893659 L49.7754959,13.5674244 C49.7781702,16.4216094 49.8551468,16.6591148 50.8331563,16.7900711 C51.2051476,16.8398804 50.4884723,16.880475 49.2419439,16.8797201 C47.9954156,16.8789651 47.1889419,16.8510309 47.4476985,16.8183813 C47.7801953,16.7764278 47.972345,16.6390349 48.1040146,16.3512626 C48.5290249,15.4223719 48.4749497,4.44311307 48.0426325,3.85230068 C47.9407375,3.71304912 47.5938944,3.54599165 47.268274,3.47954945 C47.0033913,3.42549883 47.5398554,3.39185572 48.6422882,3.38518205 Z M51.1542318,3.79096187 C50.8655784,3.78950333 50.5611387,3.8217347 50.242944,3.88532927 L49.7707742,3.97969667 L49.7707742,7.20234333 C49.7707742,10.4241188 49.7710763,10.4280535 50.1107364,10.5004839 C50.2977157,10.5403553 50.5866836,10.6073501 50.7528874,10.6467534 C51.4632787,10.8151652 52.7415565,10.6417663 53.1987272,10.3164675 C53.839124,9.8607862 54.2032719,9.02869071 54.2752744,7.84876002 C54.426939,5.36335223 53.1748053,3.80116865 51.1542318,3.79096187 Z M28.9538779,22.8572718 C30.7012554,22.8414861 32.4747268,23.3378782 33.727515,24.3294033 C34.5373052,24.970321 35.3351891,26.0994095 35.7106284,27.1415518 C36.1665933,28.4072224 36.1695925,30.6516672 35.7153425,32.1335871 C35.1268753,34.0536044 33.4652152,35.8527226 31.6074649,36.58301 C30.5732543,36.9895614 27.8477918,37.1077501 26.7582806,36.7953366 C22.8472185,35.6738503 20.8348684,31.2652108 22.3765445,27.1934538 C22.7660053,26.1648462 23.8285914,24.7967997 24.7751673,24.1029215 C25.891957,23.2842609 27.4120674,22.8711929 28.9538704,22.8572718 Z M28.2739458,23.4329054 C27.6253915,23.4381779 27.2742678,23.5135133 26.7110637,23.7254444 C24.1937714,24.6726862 22.9324811,27.819768 23.6702899,31.2984281 C24.188755,33.7430012 25.7735761,35.6347626 27.8301062,36.2621533 C28.0378609,36.3255335 28.7177855,36.3824831 29.3410497,36.3895493 C30.2948932,36.4003751 30.6177516,36.3353416 31.3808234,35.9696144 C32.9700942,35.2079034 33.842241,34.0185103 34.2610594,32.0439306 C34.9821118,28.6445073 33.7531708,25.2956545 31.2863894,23.9472078 C30.5874118,23.5651164 30.2787865,23.4966857 29.038861,23.4470605 C28.7369246,23.4349815 28.4901301,23.4311615 28.2739458,23.432913 Z M58.417276,22.8572718 C60.1646534,22.8414861 61.9381248,23.3378782 63.190913,24.3294033 C64.0007032,24.970321 64.7985871,26.0994095 65.1740264,27.1415518 C65.6299913,28.4072224 65.6329906,30.6516672 65.1787405,32.1335871 C64.5902733,34.0536044 62.9286132,35.8527226 61.0708629,36.58301 C60.0366523,36.9895614 57.3111913,37.1077501 56.2216786,36.7953366 C52.3106165,35.6738503 50.2982664,31.2652108 51.8399425,27.1934538 C52.2294033,26.1648462 53.2919894,24.7967997 54.2385653,24.1029215 C55.3553565,23.2842609 56.8754654,22.8711929 58.4172684,22.8572718 Z M57.7373438,23.4329054 C57.0887895,23.4381779 56.7376674,23.5135133 56.1744617,23.7254444 C53.6571694,24.6726862 52.3958791,27.819768 53.1336879,31.2984281 C53.652153,33.7430012 55.2369726,35.6347626 57.2935042,36.2621533 C57.5012589,36.3255335 58.1811835,36.3824831 58.8044477,36.3895493 C59.7582912,36.4003751 60.0811496,36.3353416 60.8442214,35.9696144 C62.4334922,35.2079034 63.305639,34.0185103 63.7244574,32.0439306 C64.4455098,28.6445073 63.2165689,25.2956545 60.7497874,23.9472078 C60.0508098,23.5651164 59.7421845,23.4966857 58.502259,23.4470605 C58.2003226,23.4349815 57.9535281,23.4311615 57.7373438,23.432913 Z M71.5696159,36.8189225 C71.5314948,36.7151183 70.8496665,34.4559628 70.0544116,31.7985768 C68.0075062,24.9586753 67.7434084,24.1341488 67.496203,23.8118849 C67.375403,23.6544136 66.951387,23.4381794 66.5539182,23.3313661 C65.8842529,23.1513977 66.0029979,23.1380685 68.1732265,23.1495903 C69.4613058,23.1564301 70.3331807,23.1898467 70.1107396,23.2238552 C69.4348039,23.3271943 69.3188239,23.5996096 69.518631,24.6145347 C69.7073177,25.5729044 72.0840922,34.1716451 72.189405,34.2768822 C72.2242624,34.311709 72.2769037,34.3118947 72.3064124,34.2773351 C72.335906,34.2427332 73.2529279,31.8066653 74.344237,28.8638519 C76.2240094,23.7948837 76.5185225,23.1015611 76.7105181,23.2934259 C76.7550909,23.3379658 77.6453388,25.8129569 78.6888417,28.793404 C79.7323446,31.7738526 80.6149169,34.241166 80.6500917,34.2763235 C80.6852815,34.311481 80.7438759,34.3104634 80.7802897,34.2740587 C80.9838591,34.0706509 83.735952,24.5283388 83.735952,24.025966 C83.735952,23.5244101 83.6795031,23.41251 83.3959897,23.352056 C83.2090105,23.3121846 82.9200425,23.2508277 82.7538387,23.2157064 C82.5876349,23.1805836 83.3695482,23.1509205 84.4914237,23.1497881 C85.6846914,23.1485802 86.3376154,23.1939762 86.0647239,23.2591667 C85.8081657,23.3204587 85.5178983,23.4202285 85.4197021,23.4808788 C85.0296218,23.7217935 84.44741,25.2449226 82.6154665,30.8171982 C81.5643485,34.0143656 80.6372638,36.7321467 80.5552497,36.8567117 C80.4251424,37.0543155 80.3799803,37.0490777 80.2010393,36.8156279 C80.0882322,36.6684661 79.514663,35.1736865 78.9264376,33.4938955 C78.3382122,31.8141029 77.5048815,29.4329749 77.0745799,28.2024995 C76.6442783,26.9720241 76.2373359,26.0208007 76.1702651,26.0886698 C76.1031792,26.1565388 75.1899801,28.517744 74.1409094,31.3357901 C73.0918613,34.1538361 72.1674812,36.582853 72.0867515,36.7336053 C71.916861,37.0508096 71.669716,37.0916035 71.5696159,36.8189647 L71.5696159,36.8189225 Z M110.098758,36.7005706 C110.045663,36.6147159 110.631562,35.5785619 111.400768,34.3980061 C115.405962,28.2509772 118.064195,24.1206988 118.13663,23.9320863 C118.203353,23.7583522 117.91233,23.7218992 116.501819,23.7273091 C115.558023,23.7309328 114.079792,23.7923139 113.216847,23.863719 C111.766749,23.9837106 111.614355,24.0270109 111.205977,24.4351053 C110.962957,24.6779617 110.669094,25.1431462 110.552963,25.4688511 C110.292325,26.1998708 110.279542,25.9559877 110.496997,24.4001728 L110.665815,23.1922701 L115.369971,23.2431726 C117.957266,23.2711688 120.093574,23.3132355 120.117326,23.3366537 C120.141078,23.3600719 118.322279,26.2117128 116.075552,29.6736314 C113.828824,33.13555 111.990595,35.9981118 111.990595,36.0348789 C111.990595,36.1394772 118.090365,36.1131872 118.625254,36.0062848 C119.253232,35.8807776 119.976944,35.1907285 120.093997,34.605859 C120.145414,34.3490257 120.254519,34.1388883 120.336488,34.1388883 C120.485029,34.1388883 120.452997,34.4426487 120.133417,36.0639833 L119.977171,36.8566694 L115.086231,36.8566694 C111.881822,36.8566694 110.162006,36.8028423 110.098758,36.7005706 Z M6.90039158,36.5737982 C7.713394,36.3997742 7.73082878,36.2585402 7.73325838,29.8268463 C7.73495063,25.3411139 7.69027506,23.8690957 7.54661757,23.6773744 C7.44274021,23.5387434 7.08577981,23.3627218 6.75337224,23.2862147 C6.29524964,23.1807723 6.6974492,23.1471791 8.41541008,23.147398 C9.90535296,23.147549 10.5031774,23.1897154 10.1603776,23.270361 C9.30109644,23.4725126 9.246429,23.6592271 9.246429,26.391873 L9.246429,28.854314 L13.2504292,28.854314 L17.2544295,28.854314 L17.2544295,26.391873 C17.2544295,24.6597103 17.1984173,23.8531771 17.0655615,23.6723087 C16.9616842,23.5308905 16.5707276,23.3554879 16.196769,23.2825231 C15.6792286,23.1815454 16.0581249,23.1490105 17.7832597,23.1462973 C19.3473431,23.1438362 19.909263,23.1845667 19.5965732,23.2777322 C19.3473582,23.351982 19.0583902,23.5289896 18.9544222,23.6710827 C18.6811983,24.0444666 18.6864111,35.5587281 18.9600127,36.1017302 C19.106272,36.3919741 19.3065174,36.5001267 19.8265841,36.5697638 C20.1985784,36.6195732 19.4830409,36.660352 18.2365125,36.6603807 C16.9899841,36.6604109 16.152101,36.632611 16.3745497,36.5986025 C17.1365351,36.4821078 17.1751593,36.3080913 17.2271902,32.7571624 L17.2755585,29.4582654 L13.2609938,29.4582654 L9.246429,29.4582654 L9.246429,32.4554917 C9.246429,36.3103924 9.27430439,36.3954529 10.6062781,36.6051025 C10.8140329,36.6378035 9.96412715,36.6657725 8.71759877,36.6672552 C7.4710704,36.6687651 6.65332814,36.6266847 6.90039158,36.5737982 Z M40.3001116,23.1356557 C43.7623631,23.114759 44.6752072,23.2880084 45.5459186,24.1359501 C47.0336993,25.5848234 46.8274026,27.7590754 45.0029232,29.8310226 L44.3418855,30.5812434 L45.4798148,32.0203463 C47.1531696,34.1362536 48.5128903,35.6341768 49.1485744,36.0545526 C49.45723,36.2586745 50.0395778,36.4777277 50.4423198,36.545263 C51.0825519,36.6526245 50.9895684,36.6712865 49.6962915,36.6868141 C48.4847867,36.7013543 48.105895,36.6497481 47.6140225,36.3989936 C47.0262201,36.0993265 45.739969,34.5963845 43.9216543,32.0864034 L43.1661826,31.0436437 L41.844107,31.0011784 L40.5220315,30.958713 L40.5220315,33.2046571 C40.5220315,34.4501875 40.595214,35.6632193 40.6872909,35.9271566 C40.8485388,36.3893832 40.9748159,36.4638323 41.8818806,36.6066018 C42.0896353,36.6393028 41.2737259,36.6642792 40.0687484,36.6632223 C38.863771,36.6621654 38.0648294,36.6317625 38.2933898,36.5971651 C39.0717977,36.4793342 39.0866352,36.3537093 39.0866352,29.8782063 C39.0866352,23.1718278 39.1366625,23.4826725 38.0006445,23.2630517 C37.6577963,23.1967695 38.5902978,23.1459832 40.3001116,23.1356557 Z M42.0660268,23.5791824 C41.7962449,23.5711499 41.5062223,23.5902076 41.201956,23.6358029 L40.5220315,23.739607 L40.5220315,26.9716904 L40.5220315,30.1990555 L41.0886353,30.2934229 C41.4002674,30.3455076 41.7232315,30.4164961 41.8063334,30.4491291 C42.2028805,30.6048459 43.5912412,30.3889861 43.9688713,30.1141248 C44.7018602,29.5806017 45.0548619,28.6471904 45.0548619,27.2547926 C45.0548619,26.1965808 44.9971968,25.9052784 44.6346308,25.2117384 C44.0826831,24.1559364 43.2350801,23.6139927 42.0660268,23.5791824 Z M89.1983602,36.5989588 C89.9652698,36.4813121 90.0065186,36.1302503 90.004781,29.7366009 C90.00327,24.2773804 89.985184,23.8800287 89.7245463,23.5922323 C89.5712913,23.4230006 89.2320391,23.2576659 88.970661,23.2248215 C88.7092829,23.1919756 89.4813146,23.1611847 90.686292,23.1563954 C92.0660252,23.1509145 92.6901657,23.1918639 92.3721121,23.2670106 C92.0943252,23.3326389 91.7883591,23.4650145 91.6921876,23.5611787 C91.5655252,23.6878106 91.517311,25.4157955 91.517311,29.8276118 C91.517311,35.5498969 91.5343091,35.9379673 91.7977572,36.2287865 C91.9520245,36.3990917 92.3259075,36.564591 92.6287761,36.5966472 C92.9315843,36.6286959 92.1934582,36.6561606 90.9884807,36.6576765 C89.7835033,36.6592015 88.9779438,36.6327711 89.1983602,36.5989588 Z M99.6419412,36.5972225 C99.8800356,36.5612813 100.1734,36.3622009 100.321866,36.1358142 C100.558162,35.7754621 100.582972,35.1702802 100.582972,29.7669253 L100.582972,23.7962275 L98.676131,23.8181766 C96.5857407,23.842238 96.2649523,23.9382285 95.8159754,24.6740436 C95.5333836,25.1371807 95.5229581,25.1410429 95.5363753,24.7776484 C95.5440811,24.5700401 95.6300236,24.0604562 95.7274492,23.6452396 C95.889513,22.9544642 95.9364429,22.8967174 96.279548,22.9657944 C96.4857766,23.007316 98.9492793,23.0412883 101.753983,23.0412883 L106.853448,23.0412883 L106.844835,24.1736971 C106.836676,25.2493963 106.827233,25.2797298 106.655937,24.7794195 C106.404214,24.0442763 105.962384,23.8862479 103.839811,23.7721993 L102.002307,23.6734668 L102.048088,29.7964449 C102.090818,35.5127252 102.112485,35.9399785 102.374301,36.2289012 C102.528538,36.3991144 102.902497,36.5646031 103.20532,36.5966533 C103.508128,36.6287019 102.736006,36.6561666 101.489478,36.6576825 C100.242949,36.6592075 99.4115223,36.6319935 99.6418807,36.597224 L99.6419412,36.5972225 Z" id="logo-andreessen-horowitz"></path>
        </g>
    </g>
</svg>