<svg xmlns="http://www.w3.org/2000/svg" width="142" height="34" viewBox="0 0 142 34">
    <g fill="none" fill-rule="evenodd">
        <path fill="#999B9E" fill-rule="nonzero" d="M104.1 9.322c0 .584-.307 1.123-.807 1.415-.5.291-1.117.291-1.617 0a1.636 1.636 0 0 1-.808-1.415c0-.583.308-1.122.808-1.414a1.602 1.602 0 0 1 1.617 0c.5.292.808.83.807 1.414zm24.625 7.17h4.114v4.133h-4.114v-4.133zm-81.582 0h4.113v4.133h-4.113v-4.133zm-12.339 0h4.114v4.133h-4.114v-4.133zm-12.15 0h4.113v4.133h-4.113v-4.133zm-12.584 0h4.113v4.133H10.07v-4.133zm52.31 10.993h-.916L56.297 9.634v12.852c0 2.025.088 2.562.436 3.14.357.58.974.869 1.738.869h.382v.991H52.8v-.991h.47c.643 0 1.264-.372 1.558-.91.264-.537.352-1.28.352-3.099V11.12c0-1.983-.293-2.314-1.85-2.314h-.53v-.95h5.672l4.197 14.422 4.29-14.423h5.701v.95h-.382c-.676 0-1.264.166-1.557.414-.353.372-.441.95-.441 2.48v11.943c0 1.53.088 2.067.44 2.438.265.29.882.414 1.558.414h.382v.991h-7.346v-.991h.264c.68 0 1.293-.124 1.558-.414.352-.371.44-.909.44-2.438V9.632L62.38 27.485zm16.597-13.968c3.493 0 5.873 2.934 5.873 7.191 0 4.298-2.38 7.191-5.965 7.191-3.551 0-5.931-2.893-5.931-7.15 0-4.422 2.38-7.232 6.023-7.232zm-.117.95c-.97 0-1.914.703-2.38 1.777-.47 1.034-.68 2.439-.68 4.422 0 4.215 1.003 6.282 3.085 6.282 2.086 0 3.114-2.066 3.114-6.24 0-2.025-.205-3.43-.675-4.464-.5-1.115-1.41-1.777-2.464-1.777zM89.732 7.65v8.182c.617-1.405 1.817-2.19 3.463-2.19 3.169 0 5.289 2.727 5.289 6.777 0 4.298-2.292 7.315-5.461 7.315-1.323 0-1.94-.248-3.383-1.405-.21-.206-.353-.248-.496-.248-.294 0-.474.207-1.205 1.405h-.97c.236-.743.294-1.198.294-2.934v-13.43c0-1.943-.268-2.357-1.503-2.357h-.201v-.909l4.173-.206zm3.047 7.025c-.902 0-1.847.62-2.4 1.612-.618 1.033-.883 2.397-.883 4.38 0 3.926 1.113 6.075 3.229 6.075 1.91 0 2.909-2.107 2.909-6.199 0-3.884-.97-5.868-2.855-5.868zm11.14-.95h.001v10.455c0 1.943.269 2.356 1.507 2.356h.462v.95H99.49v-.95h.466c1.23 0 1.495-.454 1.495-2.356v-6.984c0-1.9-.265-2.314-1.495-2.314h-.323v-.91l4.286-.247zm7.435-6.075v16.53c0 1.942.26 2.356 1.498 2.356h.47v.95h-6.4v-.95h.465c1.234 0 1.499-.413 1.499-2.356V11.12c0-1.942-.265-2.356-1.499-2.356h-.32v-.909l4.287-.206zm13.66 12.976h-8.044c.03 4.298 1.025 6.116 3.346 6.116 1.587 0 2.616-.867 3.644-3.016l.881.454c-1.263 2.562-2.791 3.72-4.995 3.72-3.409 0-5.608-2.852-5.608-7.274 0-4.133 2.229-7.108 5.318-7.108 3.199 0 5.314 2.727 5.457 7.108zM117 19.592h5.285c.029-3.14-.94-5.042-2.586-5.042-1.65 0-2.674 1.942-2.699 5.042z"/>
        <path fill="#F0008C" d="M19.949 8.243h.488c3.152 0 4.621 1.66 5.235 6.088l.976-.043-.13-7.024h-16.04l-.158 7.024.939.043c.163-1.66.358-2.554.781-3.449.749-1.66 2.31-2.639 4.23-2.639h.684v15.283c0 1.618-.097 2.129-.487 2.512-.326.298-.977.426-1.726.426h-.748v1.021h8.917v-1.021h-.753c-.744 0-1.4-.128-1.72-.426-.39-.383-.488-.894-.488-2.512V8.243"/>
    </g>
</svg>
