<?xml version="1.0" encoding="UTF-8" standalone="no"?>
<svg width="74px" height="40px" viewBox="0 0 74 40" version="1.1" xmlns="http://www.w3.org/2000/svg" xmlns:xlink="http://www.w3.org/1999/xlink">
    <!-- Generator: sketchtool 50.2 (55047) - http://www.bohemiancoding.com/sketch -->
    <title>EE85F271-E253-44A0-9FD0-EFEFBE20C403</title>
    <desc>Created with sketchtool.</desc>
    <defs></defs>
    <g id="Logos" stroke="none" stroke-width="1" fill="none" fill-rule="evenodd">
        <g id="desktop-/-logo-/-website-/-accel-/-grey" fill="#AAAEB3" fill-rule="nonzero">
            <path d="M57.1109379,27.855759 C56.6248032,27.2724623 56.2571073,26.5998019 56.0284764,25.8755111 C56.0062948,25.8155709 55.9863313,25.7556306 55.9663679,25.6912504 C55.9464045,25.6268701 55.9242229,25.5491698 55.9020413,25.4692495 C55.8798597,25.3893292 55.8754234,25.3760091 55.8621144,25.3293889 C55.8399329,25.2450286 55.8184907,25.1606683 55.7977878,25.0763079 L55.7645155,24.9253473 C55.7334612,24.7773467 55.7061039,24.6293462 55.6824436,24.4813456 C55.6824436,24.4280654 55.6646983,24.3725651 55.6580438,24.3192849 C55.6462136,24.2319646 55.6351228,24.1431642 55.6247714,24.0528839 C55.6247714,23.9951636 55.6136806,23.9374434 55.6070262,23.8797232 C55.6003717,23.8220029 55.5914991,23.7309826 55.5870627,23.6577223 L66.6201852,20.9115714 C66.5641551,20.3197584 66.4018453,19.7429278 66.1410629,19.2088246 C65.7379475,18.2966743 65.0742257,17.5242611 64.2334462,16.9888158 C63.3070334,16.386739 62.2597841,15.9956824 61.1657324,15.8432912 L60.9816253,15.8144311 C60.3240942,15.733847 59.6595218,15.7286332 59.0008093,15.798891 C55.413631,16.2081179 52.5384585,18.959511 51.9692455,22.5277378 L51.9692455,22.5965581 C51.9515003,22.7142185 51.933755,22.831879 51.920446,22.9495395 C51.9115734,23.0220598 51.9041795,23.0960601 51.8982644,23.1715404 C51.8982644,23.2337006 51.8982644,23.2958609 51.8827373,23.3580211 C51.8827373,23.4660615 51.8775616,23.574842 51.8672102,23.6843624 L51.8672102,24.1905244 C51.9005051,25.1252319 52.098758,26.0466742 52.4528042,26.9122552 C53.7082821,29.9736474 56.6828332,31.9938555 59.8281826,31.9938555 C62.5356729,32.0494941 65.0899595,30.7400081 66.6268397,28.5084416 L66.4382962,28.0155996 C65.6575043,29.5718258 60.2829052,31.4832534 57.1109379,27.855759 Z M62.1239771,21.0980521 L55.5715356,22.7275386 C55.5715356,22.5262578 55.5811476,22.327937 55.6003717,22.1325762 L55.6003717,22.0593159 C55.6003717,21.9941957 55.6070262,21.9290754 55.6203351,21.8639552 C55.6203351,21.7751548 55.6402986,21.6841344 55.6536075,21.5975541 C55.7135579,21.174376 55.80626,20.7564976 55.9308774,20.3476891 C56.1520988,19.5933903 56.4920454,18.8792069 56.9379215,18.2320207 C57.3371838,17.652383 57.8513729,17.1611912 58.4484878,16.789015 C59.0225126,16.4331645 59.6853373,16.2469263 60.3605408,16.2517728 C61.2995614,16.2517728 61.9871906,16.5263139 62.4234286,17.0753961 C62.5757769,17.2675908 62.7025332,17.4787787 62.8005156,17.7036586 C63.2485837,18.8336431 63.2175295,20.7472907 62.1239771,21.0980521 Z M37.4425227,28.0200397 L37.6310662,28.5128816 C36.094186,30.7444482 33.5398994,32.0539341 30.8324091,31.9982955 C27.6848416,31.9982955 24.7102905,29.9780874 23.4525943,26.9255753 C21.3897065,21.8905953 24.8899613,15.6656905 31.2760409,15.7700309 C32.016906,15.7700309 36.0495189,16.2029326 37.26507,19.4752257 L33.9200863,20.2855289 C34.0405335,19.9174887 34.0975402,19.5316219 34.0886664,19.1444443 C34.1159385,18.401178 33.8846651,17.6714706 33.4343095,17.0798361 C32.9980716,16.5307539 32.3104423,16.2562128 31.3714217,16.2562128 C30.6962183,16.2513663 30.0333936,16.4376045 29.4593687,16.793455 C28.8622539,17.1656312 28.3480648,17.656823 27.9488025,18.2364607 C27.5031377,18.8829657 27.1631985,19.5963843 26.9417583,20.3499091 C26.6910049,21.1888475 26.5668967,22.0605736 26.573544,22.9362194 C26.5630267,23.8749913 26.6984747,24.8096881 26.9750307,25.7067904 C27.2042849,26.4935915 27.5923227,27.2249805 28.1151644,27.855759 C31.2871317,31.4854734 36.6572944,29.5740458 37.4425227,28.0200397 Z M51.9670274,28.0200397 L52.1555709,28.5128816 C50.6186906,30.7444482 48.0644041,32.0539341 45.3569138,31.9982955 C42.2115644,31.9982955 39.2370133,29.9780874 37.9815353,26.9255753 C35.9186475,21.8905953 39.4189023,15.6656905 45.8049819,15.7700309 C46.5436288,15.7700309 50.5740236,16.2029326 51.7851383,19.4730056 L48.444591,20.2833089 C48.5650382,19.9152686 48.6220449,19.5294019 48.6131711,19.1422243 C48.6404432,18.398958 48.4091698,17.6692506 47.9588142,17.0776161 C47.5225763,16.5285339 46.834947,16.2539928 45.8959264,16.2539928 C45.2207229,16.2491463 44.5578982,16.4353845 43.9838734,16.791235 C43.3867585,17.1634112 42.8725695,17.654603 42.4733072,18.2342407 C42.027431,18.8814269 41.6874844,19.5956103 41.466263,20.3499091 C41.2155095,21.1888475 41.0914014,22.0605736 41.0980486,22.9362194 C41.0875314,23.8749913 41.2229794,24.8096881 41.4995354,25.7067904 C41.7287895,26.4935915 42.1168274,27.2249805 42.6396691,27.855759 C45.8116363,31.4854734 51.1817991,29.5740458 51.9670274,28.0200397 Z M71.4513354,28.7437625 C71.4868259,30.8882911 72.9774287,31.2124124 74,31.2834526 L74,31.6519741 L65.7484488,31.6519741 L65.7484488,31.2834526 C66.7754564,31.2146324 68.2948952,30.8905111 68.2948952,28.6705022 L68.2948952,11.0724922 C68.2948952,10.0712682 66.8664009,9.64724655 66.700039,9.64724655 L66.700039,9.20102478 L66.7333114,9.18770473 L71.4513354,8 L71.4513354,28.7437625 Z M14.3581427,8 C14.3581427,8 22.1815893,28.5861419 22.4522047,29.1522442 C23.4548125,31.2190724 25.1583586,31.2434925 25.6729714,31.2656926 L25.6729714,31.636434 L16.134888,31.636434 L16.134888,31.2656926 C16.203651,31.2656926 18.4839183,31.2190724 18.4839183,29.7560866 C18.4839183,28.4107612 15.9197266,21.9860556 15.9086358,21.9283354 L6.37055244,24.330385 C5.97572015,25.3071889 4.54057133,28.8925031 4.54057133,29.8049268 C4.54057133,31.3100927 7.31992446,31.2745726 7.31992446,31.2745726 L7.31992446,31.6519741 L0,31.6519741 L0,31.2812326 C0.583375798,31.2146324 1.99634304,31.2279524 2.99229639,29.1833243 C3.29618417,28.5750419 9.06117922,15.026328 10.8135248,10.9792519 C11.2039207,10.0623882 9.81757142,9.55400618 9.6512095,9.55400618 L9.6512095,9.19658476 L9.68448188,9.18326471 L14.3581427,8 Z M15.5736938,21.0980521 C15.5736938,21.0980521 11.9425677,11.7917751 11.7429334,11.3078132 C11.6076257,11.5986343 6.81640239,23.2004005 6.76982105,23.3180609 L15.5736938,21.0980521 Z" id="logo-accel-partners"></path>
        </g>
    </g>
</svg>