<svg xmlns="http://www.w3.org/2000/svg" width="32" height="32" viewBox="0 0 32 32">
    <g fill="none" fill-rule="evenodd">
        <g>
            <path fill="#FEC514" d="M24.998 5.035L25 5.032C22.406 1.957 18.506 0 14.143 0 8.591 0 3.79 3.17 1.475 7.78h18.433c1.322 0 2.61-.452 3.621-1.295.527-.438 1.018-.916 1.47-1.45" transform="translate(4.000000, 2.000000)"/>
            <path fill="#343741" d="M0 14c0 1.256.17 2.472.483 3.63h17.325c2.025 0 3.667-1.625 3.667-3.63s-1.642-3.63-3.667-3.63H.483C.17 11.528 0 12.744 0 14" transform="translate(4.000000, 2.000000)"/>
            <path fill="#00BFB3" d="M24.998 22.965l.002.003C22.406 26.043 18.506 28 14.143 28 8.591 28 3.79 24.83 1.475 20.22h18.433c1.322 0 2.61.452 3.621 1.295.527.439 1.018.916 1.47 1.45" transform="translate(4.000000, 2.000000)"/>
        </g>
    </g>
</svg>
