<svg xmlns="http://www.w3.org/2000/svg" width="143" height="36" viewBox="0 0 143 36">
    <g fill="none" fill-rule="evenodd">
        <path fill="#4A5155" fill-rule="nonzero" d="M140.058 15.66c.302.13.56.314.77.55.21.239.37.52.478.846.109.326.163.685.163 1.077h-5.273c.115-.835.408-1.489.881-1.96.472-.471 1.12-.707 1.943-.707.388 0 .734.065 1.038.195zm-2.972-1.071a4.112 4.112 0 0 0-1.426 1.005c-.396.44-.7.955-.894 1.515a5.567 5.567 0 0 0-.311 1.878c0 .829.115 1.562.344 2.202.229.638.55 1.175.962 1.608.41.432.909.77 1.464.987a4.985 4.985 0 0 0 1.852.337 6.348 6.348 0 0 0 2.1-.361c.33-.118.647-.273.943-.46.293-.187.545-.407.756-.66l-.479-.617a.377.377 0 0 0-.325-.161c-.11 0-.238.05-.388.147-.18.116-.367.222-.56.318a5.27 5.27 0 0 1-.798.318c-.31.099-.679.147-1.106.147a3.3 3.3 0 0 1-1.244-.223 2.528 2.528 0 0 1-.956-.674 3.22 3.22 0 0 1-.632-1.124c-.153-.449-.237-.978-.25-1.585h6.451c.16 0 .268-.044.326-.133.057-.088.085-.265.085-.53 0-.684-.1-1.292-.301-1.828a3.8 3.8 0 0 0-.837-1.347 3.606 3.606 0 0 0-1.273-.836 4.365 4.365 0 0 0-1.609-.29c-.701 0-1.333.124-1.894.367zm-7.953 9.399v-6.12c.268-.653.602-1.149 1-1.49.4-.342.895-.513 1.489-.513.331 0 .59.03.775.09.184.06.322.091.411.091.154 0 .253-.08.297-.238l.22-1.262a2.547 2.547 0 0 0-1.33-.342c-.657 0-1.23.189-1.718.565-.488.377-.898.9-1.23 1.57l-.114-1.5c-.025-.17-.074-.29-.144-.36-.07-.07-.198-.104-.383-.104h-.976v9.613h1.703zm-12.574-9.613v6.13c0 .545.067 1.041.206 1.49.137.449.342.833.618 1.148.273.316.613.562 1.018.735.405.175.873.261 1.402.261.676 0 1.276-.14 1.8-.421a5.338 5.338 0 0 0 1.415-1.116l.135 1.035c.063.234.217.35.459.35h1.014v-9.612h-1.703v7.089a4.37 4.37 0 0 1-1.215.977 2.948 2.948 0 0 1-1.407.351c-.684 0-1.193-.2-1.531-.597-.338-.399-.507-.962-.507-1.69v-6.13h-1.704zm-2.689 9.532a3.18 3.18 0 0 0 1.063-.64l-.498-.808c-.07-.107-.15-.16-.24-.16a.321.321 0 0 0-.176.071 3.52 3.52 0 0 1-.245.156c-.096.058-.209.11-.34.157-.149.05-.306.075-.464.071-.312 0-.568-.098-.765-.294-.198-.196-.296-.496-.296-.902V15.79h2.775v-1.224h-2.775v-3.312h-.861a.4.4 0 0 0-.27.09.36.36 0 0 0-.123.233l-.393 2.97-1.588.2v.672c0 .128.034.22.104.281.073.061.165.093.26.09h1.167v5.884c0 .796.206 1.407.617 1.831.411.424 1 .635 1.766.635.439 0 .867-.077 1.282-.232zm-11.847-1.035a1.334 1.334 0 0 1-.498-.257 1.248 1.248 0 0 1-.335-.454 1.597 1.597 0 0 1-.124-.658c0-.267.078-.51.234-.726.156-.216.407-.403.751-.563.345-.16.792-.288 1.34-.386.549-.099 1.216-.148 2-.148v1.983c-.182.195-.38.376-.588.541-.197.155-.408.29-.632.403a3.277 3.277 0 0 1-1.526.347c-.224 0-.43-.027-.622-.082zm5.043-5.033c0-.538-.073-1.032-.22-1.48a3.132 3.132 0 0 0-.65-1.15 2.967 2.967 0 0 0-1.063-.739 3.706 3.706 0 0 0-1.444-.266c-.754 0-1.44.127-2.058.38a5.54 5.54 0 0 0-1.733 1.148l.307.541c.05.088.12.163.206.223a.51.51 0 0 0 .3.09.778.778 0 0 0 .446-.156c.15-.105.329-.222.536-.351.206-.13.453-.247.737-.352.284-.104.633-.156 1.047-.156.633 0 1.109.193 1.431.578.322.385.484.953.484 1.704v.755c-1.098 0-2.026.087-2.785.26-.76.176-1.374.4-1.842.673-.47.273-.81.585-1.02.938-.21.351-.316.718-.316 1.1 0 .437.072.816.216 1.138.144.32.336.585.58.794.241.21.527.367.855.47.329.106.68.158 1.057.158.37 0 .707-.03 1.01-.094.296-.06.583-.155.857-.28.27-.125.527-.278.766-.456.242-.18.49-.384.746-.612l.191.892c.032.165.099.273.201.323.101.05.236.076.402.076h.756v-6.15zM86.701 10.39h-.957v13.599h1.627v-9.69c0-.294-.013-.59-.038-.883l7.934 10.24c.095.12.192.206.292.256.098.05.222.076.368.076h.937V10.39h-1.626v9.632c0 .145.003.295.01.45.006.16.019.32.038.48l-7.943-10.25a.97.97 0 0 0-.273-.251c-.08-.04-.202-.061-.369-.061zM80.31 23.989h2.363V9.887H80.31v14.102zm-8.034-1.73c-.245-.178-.368-.475-.368-.888 0-.21.059-.404.177-.583.118-.179.317-.334.598-.468.28-.134.653-.244 1.114-.33.463-.086 1.04-.13 1.728-.13v1.63a4.75 4.75 0 0 1-.511.453 3.017 3.017 0 0 1-.527.323 2.6 2.6 0 0 1-.579.196c-.22.045-.445.067-.67.065-.396 0-.717-.089-.962-.267zm5.556-4.42c0-.55-.082-1.055-.244-1.518a3.33 3.33 0 0 0-.714-1.19 3.26 3.26 0 0 0-1.143-.779c-.45-.186-.962-.28-1.536-.28-1.595 0-2.957.514-4.087 1.538l.43.749a.97.97 0 0 0 .28.304c.12.084.264.127.41.123.192 0 .367-.044.527-.133.16-.088.333-.188.522-.298.187-.111.409-.21.664-.3.256-.088.574-.132.957-.132.53 0 .933.157 1.21.473.279.315.417.802.417 1.458v.575c-1.117 0-2.05.095-2.804.285-.752.19-1.355.429-1.808.719-.453.289-.777.612-.972.97a2.267 2.267 0 0 0-.292 1.09c0 .438.07.823.211 1.153.14.33.336.606.589.829.251.222.552.388.903.5.352.11.734.165 1.15.165.35 0 .67-.028.956-.085.287-.057.558-.143.813-.256.26-.117.51-.259.743-.423.238-.167.482-.362.731-.583l.211.693c.064.201.159.336.287.403.127.067.303.1.526.1h1.063v-6.15zm-14.962.926a1.47 1.47 0 0 1-.546-.332 1.4 1.4 0 0 1-.326-.508 1.804 1.804 0 0 1-.11-.636c0-.48.146-.862.436-1.144.29-.28.726-.421 1.306-.421.58 0 1.016.14 1.307.422.29.281.434.662.434 1.144 0 .233-.036.449-.11.645a1.34 1.34 0 0 1-.324.503 1.51 1.51 0 0 1-.541.327c-.217.08-.473.119-.766.119a2.24 2.24 0 0 1-.76-.119zm3.21 6.17a1.2 1.2 0 0 1-.455.427 2.738 2.738 0 0 1-.789.28 5.59 5.59 0 0 1-1.139.102c-.434 0-.8-.03-1.1-.09-.3-.06-.545-.143-.732-.252a1.076 1.076 0 0 1-.412-.384.937.937 0 0 1-.13-.48c0-.258.082-.488.245-.687.163-.199.378-.371.646-.518.293.07.598.105.913.105h.92c.296 0 .577.017.842.05.265.031.496.08.693.149.198.068.355.162.47.286.117.13.179.3.172.474 0 .194-.048.373-.144.538zm-4.005-10.634a3.71 3.71 0 0 0-1.235.631c-.341.268-.619.608-.813.995a2.878 2.878 0 0 0-.292 1.305c0 .595.142 1.114.426 1.557.283.442.675.797 1.173 1.062a2.77 2.77 0 0 0-.566.366c-.16.136-.29.28-.396.43-.1.142-.18.297-.235.461-.05.156-.076.306-.076.451 0 .355.073.643.22.864.146.222.341.399.584.532-.498.183-.887.429-1.168.74-.281.31-.42.692-.42 1.148 0 .334.088.657.267.967.179.31.447.584.808.821.36.237.816.427 1.364.57.549.143 1.196.213 1.943.213.753 0 1.422-.096 2.009-.29.587-.193 1.083-.45 1.49-.766.404-.317.713-.68.927-1.086.213-.406.32-.824.32-1.256 0-.463-.09-.843-.272-1.138a2.038 2.038 0 0 0-.718-.7 3.424 3.424 0 0 0-1.009-.376 9.302 9.302 0 0 0-1.159-.166 14.572 14.572 0 0 0-1.158-.048c-.376 0-.712-.02-1.009-.058a2.221 2.221 0 0 1-.718-.196.458.458 0 0 1-.273-.435c0-.228.154-.435.46-.621.35.07.71.105 1.081.105.549 0 1.058-.075 1.527-.223.44-.134.853-.348 1.215-.631.341-.273.608-.602.804-.992.194-.389.292-.824.292-1.304a3.043 3.043 0 0 0-.201-1.101l.88-.162c.186-.032.316-.088.393-.17a.485.485 0 0 0 .114-.342v-.873H65.83a4.052 4.052 0 0 0-1.014-.375 5.269 5.269 0 0 0-1.187-.128c-.56 0-1.08.073-1.555.22zm-7.047 1.655c.261.118.478.278.65.48.172.201.3.437.383.706.083.27.124.555.124.858h-4.44c.108-.706.357-1.255.747-1.64.388-.387.927-.58 1.617-.58.35 0 .656.059.918.176zm-2.944-1.476a4.4 4.4 0 0 0-1.483 1.03c-.41.442-.728.961-.933 1.528-.22.6-.33 1.235-.326 1.874 0 .854.125 1.605.374 2.253.249.65.59 1.193 1.024 1.632a4.26 4.26 0 0 0 1.531.996 5.262 5.262 0 0 0 1.904.338c.345 0 .7-.025 1.068-.076.368-.05.73-.138 1.08-.26.358-.126.7-.291 1.02-.495.33-.21.627-.467.88-.763l-.689-.854a.551.551 0 0 0-.182-.162.52.52 0 0 0-.248-.056.918.918 0 0 0-.455.133 17.13 17.13 0 0 1-.545.294 4.67 4.67 0 0 1-.728.295 3.283 3.283 0 0 1-.99.132c-.779 0-1.404-.234-1.876-.703-.472-.468-.743-1.202-.813-2.201h6.067a.726.726 0 0 0 .268-.043.35.35 0 0 0 .167-.143.708.708 0 0 0 .087-.275c.016-.117.023-.264.023-.44 0-.703-.105-1.327-.315-1.875a3.928 3.928 0 0 0-.88-1.386 3.75 3.75 0 0 0-1.345-.858 4.81 4.81 0 0 0-1.708-.294c-.735 0-1.393.126-1.977.38zm-9.267-4.213H40.24V23.99h8.115v-2.107h-5.54V10.267z"/>
        <path fill="#009EFF" d="M26.647 22.846c0 1.75-.809 3.17-1.999 4.401a27.374 27.374 0 0 1-10.463 6.769c-.01-.004-.527-.07-.536-.074v-3.916h2.996a27.385 27.385 0 0 0 3.899-2.611h-6.895v-1.958h8.195c.634-.547 1.312-1 1.3-1.306v-1.305h-9.495v-2.612h10.145v-2.61H13.649v-2.612h10.145v-2.61H13.649V1.957c1.697.001 4.186.375 5.849.653v5.875c.002.61.687 1.306 1.3 1.306h5.849v13.055zM20.863 1.219A2.597 2.597 0 0 0 19.3.412 31.826 31.826 0 0 0 14.153 0 31.937 31.937 0 0 0 .31 3.115a.546.546 0 0 0-.31.493v19.015c0 2.209.84 4.295 2.364 5.872a29.148 29.148 0 0 0 11.647 7.376.55.55 0 0 0 .35 0 29.155 29.155 0 0 0 11.588-7.366c1.522-1.572 2.646-3.437 2.646-5.66V9.792c0-.696-2.107-2.774-2.6-3.264l-5.133-5.308z"/>
        <path fill="#4A5155" d="M13.649 30.182h2.996a27.385 27.385 0 0 0 3.899-2.611h-6.895v-1.958h8.195c.634-.547 1.312-1 1.3-1.306v-1.305h-9.495V20.39h10.145v-2.61H13.649v-2.612h10.145v-2.61H13.649v17.624z"/>
    </g>
</svg>
