<?xml version="1.0" encoding="UTF-8"?>
<svg width="29px" height="32px" viewBox="0 0 29 32" version="1.1" xmlns="http://www.w3.org/2000/svg" xmlns:xlink="http://www.w3.org/1999/xlink">
    <!-- Generator: sketchtool 53.2 (72643) - https://sketchapp.com -->
    <title>F9FE53A7-E17E-4C14-B501-5D3CE8749D5B</title>
    <desc>Created with sketchtool.</desc>
    <g id="Logos" stroke="none" stroke-width="1" fill="none" fill-rule="evenodd">
        <g id="desktop-/-technology-logo-/-codecov" fill="#E0225C">
            <g id="logo" transform="translate(4.000000, 5.000000)">
                <path d="M18.4280122,3.06368874 C16.4481692,1.08807724 13.8161109,0 11.007965,0 C5.2198033,0.00385884459 0.507498074,4.71001216 0.503280407,10.4899767 L0.5,12.2659807 L1.88292603,11.3252411 C2.82370001,10.6854915 3.91326389,10.3473164 5.03434312,10.3473164 C5.36894467,10.3473164 5.70682664,10.3778363 6.0383821,10.4381746 C7.08366048,10.6281934 8.02068543,11.1004927 8.77939682,11.8102862 C8.95325836,11.4279098 9.1579324,11.0562913 9.39951091,10.7019793 C9.49862615,10.5566294 9.6033648,10.4167756 9.71173546,10.2803128 C8.75584819,9.47463279 7.60770556,8.93240671 6.35447278,8.70461791 C5.91759281,8.62533617 5.47274614,8.58522759 5.03211713,8.58522759 C4.11946093,8.58522759 3.23035337,8.7523273 2.38330532,9.08220004 C3.06914478,4.88833756 6.71871516,1.76501213 11.0155802,1.76185489 C13.3445523,1.76185489 15.5336385,2.66681242 17.1800515,4.3096278 C18.4935032,5.62046561 19.3337561,7.25977296 19.6236035,9.067934 C18.7763211,8.73759352 17.8835818,8.56850595 16.9655363,8.564881 L16.8368975,8.56429633 C16.74282,8.56616726 16.6494456,8.56815511 16.5579457,8.57341724 C16.3975572,8.58160264 16.2382231,8.59610251 16.0804121,8.61434433 C16.0333148,8.61948945 15.9870376,8.62685635 15.9404089,8.63328774 C15.8273521,8.64848928 15.7147638,8.66556175 15.6033471,8.68555758 C15.5539067,8.69456158 15.5047005,8.70450099 15.4557288,8.71432349 C15.3422033,8.7373596 15.229615,8.76296831 15.1181983,8.79103263 C15.0778961,8.80132288 15.037594,8.81091154 14.9976433,8.82166955 C14.8569372,8.85967328 14.71752,8.90165288 14.5800943,8.94760817 C14.5718933,8.95041461 14.5633408,8.9527533 14.5551398,8.95544282 C14.2430324,9.06173645 13.940532,9.18931218 13.6481071,9.33606523 C13.6401405,9.34015793 13.6322909,9.34436755 13.6240899,9.34846033 C13.4872501,9.41768565 13.353222,9.49170527 13.2211856,9.56958375 C13.2104071,9.57601522 13.1993943,9.58256352 13.1884987,9.58911191 C12.4978557,10.0023591 11.8798504,10.5323071 11.3590857,11.1653914 C11.3375288,11.1914679 11.3160889,11.2174273 11.2947663,11.2438546 C11.1818266,11.3851117 11.0718158,11.529526 10.9686001,11.6807226 C10.8808492,11.8093507 10.7994248,11.9406684 10.7204607,12.0733893 C10.7025356,12.1036753 10.6848449,12.1343123 10.6673884,12.1648322 C10.5954538,12.2898354 10.5266824,12.4164756 10.4625973,12.544636 C10.4589654,12.5520029 10.4553335,12.558902 10.4517016,12.5662689 C10.3029117,12.8662064 10.176616,13.1745631 10.0712916,13.4892344 C10.0712916,13.4894682 10.0711743,13.4895852 10.0711743,13.489936 L10.0711743,13.4902868 C9.81319376,14.2620557 9.68806961,15.0713607 9.70130839,15.8902543 C9.70165989,15.9227622 9.70165989,15.9552699 9.70283146,15.9878948 C9.70458882,16.0515072 9.70775211,16.1153536 9.71138396,16.1793168 C9.71419574,16.2301834 9.71747617,16.2806992 9.72122516,16.331215 C9.72520852,16.3851218 9.72954338,16.4391457 9.73504973,16.4931696 C9.74149345,16.5590038 9.74934293,16.6247211 9.75766115,16.6905553 C9.76281607,16.7324179 9.76738521,16.7745144 9.77359457,16.8161432 C9.78929363,16.9257109 9.80686727,17.0350449 9.82760411,17.1443788 C10.1835284,19.0224668 11.2435686,20.6599031 12.8126577,21.7553473 L13.0133483,21.8833907 L13.0149885,21.879415 C13.9064393,22.4578908 14.9288719,22.8373439 15.9871548,22.9807058 L16.1304383,23 L17.1946962,21.2952093 L16.8120601,21.2848021 C13.8673086,21.2041172 11.4717911,18.746384 11.4717911,15.8059444 C11.4717911,12.911811 13.7378497,10.5084524 16.629646,10.3343366 L16.8126458,10.3273205 C17.9849228,10.297736 19.1399777,10.6432781 20.1204681,11.3095719 L21.4970676,12.2446986 L21.4999966,10.4778154 C21.5022225,7.67617737 20.4112528,5.04304214 18.4280122,3.06368874" id="Path"></path>
            </g>
        </g>
    </g>
</svg>