<?xml version="1.0" encoding="UTF-8" standalone="no"?>
<svg width="70px" height="60px" viewBox="0 0 70 60" version="1.1" xmlns="http://www.w3.org/2000/svg" xmlns:xlink="http://www.w3.org/1999/xlink">
    <!-- Generator: sketchtool 50.2 (55047) - http://www.bohemiancoding.com/sketch -->
    <title>DEC909C7-0F63-496B-BE11-B131A8648F5B</title>
    <desc>Created with sketchtool.</desc>
    <defs></defs>
    <g id="Logos" stroke="none" stroke-width="1" fill="none" fill-rule="evenodd">
        <g id="desktop-/-logo-/-event-/-mirror-conf-/-grey" fill="#AAAEB3">
            <path d="M55,2 L55,42.6 L43.8,31.4 L43.8,13.2 L25.6,13.2 L14.4,2 L55,2 Z M50.24,42.88 L49.12,44 L51.29,44 L50.24,42.88 Z M50.24,40.71 L49.12,41.83 L50.24,42.95 L51.36,41.83 L50.24,40.71 Z M38.2,35.18 L37.08,34.06 L35.96,35.18 L37.08,36.3 L38.2,35.18 Z M31.62,35.18 L30.5,34.06 L29.38,35.18 L30.5,36.3 L31.62,35.18 Z M37.99,32.8 L36.24,32.8 L36.03,33.01 L37.15,34.13 L38.27,33.01 L37.99,32.8 Z M33.79,35.18 L32.67,34.06 L31.55,35.18 L32.67,36.3 L33.79,35.18 Z M33.58,32.8 L31.83,32.8 L31.62,33.01 L32.74,34.13 L33.86,33.01 L33.58,32.8 Z M28.26,34.06 L27.14,35.18 L28.26,36.3 L29.38,35.18 L28.26,34.06 Z M29.17,32.8 L27.42,32.8 L27.21,33.01 L28.33,34.13 L29.45,33.01 L29.17,32.8 Z M35.96,35.18 L34.84,34.06 L33.72,35.18 L34.84,36.3 L35.96,35.18 Z M42.61,35.18 L41.49,34.06 L40.37,35.18 L41.49,36.3 L42.61,35.18 Z M44.78,35.18 L43.66,34.06 L42.54,35.18 L43.66,36.3 L44.78,35.18 Z M39.25,36.3 L40.37,35.18 L39.25,34.06 L38.13,35.18 L39.25,36.3 Z M40.37,33.01 L40.16,32.8 L38.41,32.8 L38.2,33.01 L39.32,34.13 L40.37,33.01 Z M46.95,44 L49.12,44 L48,42.88 L46.95,44 Z M43.66,40.71 L44.78,39.59 L43.66,38.47 L42.54,39.59 L43.66,40.71 Z M48.07,38.47 L46.95,39.59 L48.07,40.71 L49.19,39.59 L48.07,38.47 Z M42.61,41.76 L43.73,42.88 L44.85,41.76 L43.73,40.64 L42.61,41.76 Z M43.66,38.47 L44.78,37.35 L43.66,36.3 L42.54,37.42 L43.66,38.47 Z M46.95,37.42 L45.9,36.3 L44.78,37.42 L45.9,38.54 L46.95,37.42 Z M40.37,37.42 L41.49,38.54 L42.61,37.42 L41.49,36.3 L40.37,37.42 Z M38.2,37.42 L39.32,38.54 L40.44,37.42 L39.32,36.3 L38.2,37.42 Z M42.61,44 L44.78,44 L43.66,42.88 L42.61,44 Z M48.07,40.71 L46.95,41.83 L48.07,42.95 L49.19,41.83 L48.07,40.71 Z M38.2,44 L40.37,44 L39.25,42.88 L38.2,44 Z M44.78,41.76 L45.9,42.88 L47.02,41.76 L45.9,40.71 L44.78,41.76 Z M39.25,40.71 L40.37,39.59 L39.25,38.47 L38.13,39.59 L39.25,40.71 Z M38.2,41.76 L39.32,42.88 L40.44,41.76 L39.32,40.64 L38.2,41.76 Z M40.37,41.76 L41.49,42.88 L42.61,41.76 L41.49,40.64 L40.37,41.76 Z M27.21,41.76 L28.33,42.88 L29.45,41.76 L28.33,40.64 L27.21,41.76 Z M35.96,44 L38.13,44 L37.01,42.88 L35.96,44 Z M37.08,36.3 L35.96,37.42 L37.08,38.54 L38.2,37.42 L37.08,36.3 Z M33.79,37.42 L34.91,38.54 L36.03,37.42 L34.91,36.3 L33.79,37.42 Z M31.62,44 L33.79,44 L32.67,42.88 L31.62,44 Z M31.62,37.42 L32.74,38.54 L33.86,37.42 L32.74,36.3 L31.62,37.42 Z M33.79,41.76 L34.91,42.88 L36.03,41.76 L34.91,40.64 L33.79,41.76 Z M37.08,38.47 L35.96,39.59 L37.08,40.71 L38.2,39.59 L37.08,38.47 Z M37.08,40.71 L35.96,41.83 L37.08,42.95 L38.2,41.83 L37.08,40.71 Z M28.26,36.3 L27.14,37.42 L28.26,38.54 L29.38,37.42 L28.26,36.3 Z M28.26,38.47 L27.14,39.59 L28.26,40.71 L29.38,39.59 L28.26,38.47 Z M29.38,41.76 L30.5,42.88 L31.62,41.76 L30.5,40.64 L29.38,41.76 Z M29.38,37.42 L30.5,38.54 L31.62,37.42 L30.5,36.3 L29.38,37.42 Z M31.62,41.76 L32.74,42.88 L33.86,41.76 L32.74,40.64 L31.62,41.76 Z M32.67,40.71 L33.79,39.59 L32.67,38.47 L31.55,39.59 L32.67,40.71 Z M27.21,44 L29.38,44 L28.26,42.88 L27.21,44 Z M15.1,9.91 L13.98,11.03 L15.1,12.15 L16.22,11.03 L15.1,9.91 Z M13,9.84 L14.05,8.79 L13,7.74 L13,9.84 Z M15.1,7.74 L13.98,8.86 L15.1,9.98 L16.22,8.86 L15.1,7.74 Z M13,14.25 L14.05,13.2 L13,12.15 L13,14.25 Z M15.1,12.08 L13.98,13.2 L15.1,14.32 L16.22,13.2 L15.1,12.08 Z M15.1,5.5 L13.98,6.62 L15.1,7.74 L16.22,6.62 L15.1,5.5 Z M13,3.4 L13,5.43 L14.05,4.38 L13,3.4 Z M20.63,13.2 L19.51,12.08 L18.39,13.2 L19.51,14.32 L20.63,13.2 Z M17.27,12.08 L18.39,10.96 L17.27,9.84 L16.15,10.96 L17.27,12.08 Z M17.27,14.32 L18.39,13.2 L17.27,12.08 L16.15,13.2 L17.27,14.32 Z M22.8,13.2 L21.68,12.08 L20.56,13.2 L21.68,14.32 L22.8,13.2 Z M18.39,8.79 L17.27,7.67 L16.15,8.79 L17.27,9.91 L18.39,8.79 Z M24.2,16.21 L24.2,14.6 L23.92,14.32 L22.8,15.44 L23.92,16.56 L24.2,16.21 Z M18.39,24.19 L19.51,25.31 L20.63,24.19 L19.51,23.07 L18.39,24.19 Z M21.68,16.49 L22.8,15.37 L21.68,14.25 L20.56,15.37 L21.68,16.49 Z M24.2,20.62 L24.2,19.01 L23.92,18.73 L22.8,19.85 L23.92,20.97 L24.2,20.62 Z M21.68,18.73 L22.8,17.61 L21.68,16.49 L20.56,17.61 L21.68,18.73 Z M21.68,20.9 L22.8,19.78 L21.68,18.66 L20.56,19.78 L21.68,20.9 Z M24.2,24.96 L24.2,23.35 L23.92,23.07 L22.8,24.19 L23.92,25.31 L24.2,24.96 Z M20.63,19.78 L19.51,18.66 L18.39,19.78 L19.51,20.9 L20.63,19.78 Z M17.27,16.49 L16.15,17.61 L17.27,18.73 L18.39,17.61 L17.27,16.49 Z M17.27,18.73 L16.15,19.85 L17.27,20.97 L18.39,19.85 L17.27,18.73 Z M20.63,15.37 L19.51,14.25 L18.39,15.37 L19.51,16.49 L20.63,15.37 Z M17.27,14.32 L16.15,15.44 L17.27,16.56 L18.39,15.44 L17.27,14.32 Z M21.68,25.31 L22.8,24.19 L21.68,23.07 L20.56,24.19 L21.68,25.31 Z M16.22,24.19 L17.34,25.31 L18.46,24.19 L17.34,23.07 L16.22,24.19 Z M17.27,20.9 L16.15,22.02 L17.27,23.14 L18.39,22.02 L17.27,20.9 Z M21.68,23.07 L22.8,21.95 L21.68,20.83 L20.56,21.95 L21.68,23.07 Z M15.1,18.73 L13.98,19.85 L15.1,20.97 L16.22,19.85 L15.1,18.73 Z M15.1,16.49 L13.98,17.61 L15.1,18.73 L16.22,17.61 L15.1,16.49 Z M15.1,14.32 L13.98,15.44 L15.1,16.56 L16.22,15.44 L15.1,14.32 Z M13,16.42 L14.05,15.37 L13,14.32 L13,16.42 Z M13,23.14 L13,25.17 L14.05,24.12 L13,23.14 Z M13,20.83 L14.05,19.78 L13,18.8 L13,20.83 Z M15.1,20.9 L13.98,22.02 L15.1,23.14 L16.22,22.02 L15.1,20.9 Z M16.22,24.19 L15.1,23.07 L13.98,24.19 L15.1,25.31 L16.22,24.19 Z M13,36.23 L14.05,35.18 L13,34.13 L13,36.23 Z M15.1,34.06 L13.98,35.18 L15.1,36.3 L16.22,35.18 L15.1,34.06 Z M13,31.82 L14.05,30.77 L13,29.72 L13,31.82 Z M15.1,31.89 L13.98,33.01 L15.1,34.13 L16.22,33.01 L15.1,31.89 Z M13,27.41 L14.05,26.36 L13,25.31 L13,27.41 Z M15.1,29.72 L13.98,30.84 L15.1,31.96 L16.22,30.84 L15.1,29.72 Z M15.1,27.48 L13.98,28.6 L15.1,29.72 L16.22,28.6 L15.1,27.48 Z M15.1,25.31 L13.98,26.43 L15.1,27.55 L16.22,26.43 L15.1,25.31 Z M21.68,31.89 L22.8,30.77 L21.68,29.65 L20.56,30.77 L21.68,31.89 Z M21.68,34.06 L22.8,32.94 L21.68,31.82 L20.56,32.94 L21.68,34.06 Z M24.97,35.18 L23.85,34.06 L22.73,35.18 L23.85,36.3 L24.97,35.18 Z M26.09,34.06 L24.97,35.18 L26.09,36.3 L27.21,35.18 L26.09,34.06 Z M21.68,36.3 L22.8,35.18 L21.68,34.06 L20.56,35.18 L21.68,36.3 Z M24.2,31.61 L24.2,30 L23.92,29.72 L22.8,30.84 L23.92,31.96 L24.2,31.61 Z M24.2,27.2 L24.2,25.59 L23.92,25.31 L22.8,26.43 L23.92,27.55 L24.2,27.2 Z M17.27,31.89 L16.15,33.01 L17.27,34.13 L18.39,33.01 L17.27,31.89 Z M17.27,34.06 L16.15,35.18 L17.27,36.3 L18.39,35.18 L17.27,34.06 Z M27,32.8 L25.25,32.8 L25.04,33.01 L26.16,34.13 L27.28,33.01 L27,32.8 Z M18.39,26.36 L17.27,25.24 L16.15,26.36 L17.27,27.48 L18.39,26.36 Z M17.27,29.72 L16.15,30.84 L17.27,31.96 L18.39,30.84 L17.27,29.72 Z M17.27,27.48 L16.15,28.6 L17.27,29.72 L18.39,28.6 L17.27,27.48 Z M20.63,26.36 L19.51,25.24 L18.39,26.36 L19.51,27.48 L20.63,26.36 Z M22.8,26.36 L21.68,25.24 L20.56,26.36 L21.68,27.48 L22.8,26.36 Z M20.63,30.77 L19.51,29.65 L18.39,30.77 L19.51,31.89 L20.63,30.77 Z M20.63,35.18 L19.51,34.06 L18.39,35.18 L19.51,36.3 L20.63,35.18 Z M21.68,29.72 L22.8,28.6 L21.68,27.48 L20.56,28.6 L21.68,29.72 Z M16.22,37.42 L17.34,38.54 L18.46,37.42 L17.34,36.3 L16.22,37.42 Z M18.39,37.42 L19.51,38.54 L20.63,37.42 L19.51,36.3 L18.39,37.42 Z M20.63,37.42 L21.75,38.54 L22.87,37.42 L21.75,36.3 L20.63,37.42 Z M17.27,40.71 L18.39,39.59 L17.27,38.47 L16.15,39.59 L17.27,40.71 Z M23.92,38.47 L25.04,37.35 L23.92,36.23 L22.8,37.35 L23.92,38.47 Z M16.22,44 L18.39,44 L17.27,42.88 L16.22,44 Z M26.09,42.88 L27.21,41.76 L26.09,40.64 L24.97,41.76 L26.09,42.88 Z M26.09,40.71 L27.21,39.59 L26.09,38.47 L24.97,39.59 L26.09,40.71 Z M16.22,41.76 L17.34,42.88 L18.46,41.76 L17.34,40.64 L16.22,41.76 Z M18.39,41.76 L19.51,42.88 L20.63,41.76 L19.51,40.64 L18.39,41.76 Z M20.63,41.76 L21.75,42.88 L22.87,41.76 L21.75,40.64 L20.63,41.76 Z M20.63,44 L22.8,44 L21.68,42.88 L20.63,44 Z M22.8,41.76 L23.92,42.88 L25.04,41.76 L23.92,40.64 L22.8,41.76 Z M25.04,44 L27.21,44 L26.09,42.88 L25.04,44 Z M26.09,38.47 L27.21,37.35 L26.09,36.23 L24.97,37.35 L26.09,38.47 Z M21.68,40.71 L22.8,39.59 L21.68,38.47 L20.56,39.59 L21.68,40.71 Z M13,38.4 L14.05,37.35 L13,36.3 L13,38.4 Z M15.1,40.71 L13.98,41.83 L15.1,42.95 L16.22,41.83 L15.1,40.71 Z M15.1,36.3 L13.98,37.42 L15.1,38.54 L16.22,37.42 L15.1,36.3 Z M13,42.81 L14.05,41.76 L13,40.71 L13,42.81 Z M15.1,38.47 L13.98,39.59 L15.1,40.71 L16.22,39.59 L15.1,38.47 Z M13.98,44 L16.15,44 L15.03,42.88 L13.98,44 Z M51.36,44 L53.39,44 L52.34,42.95 L51.36,44 Z" id="mark"></path>
            <path d="M10.66,58 L7.06,58 L7.972,57.088 L7.972,51.4 L5.44,55.936 L2.908,51.412 L2.908,57.088 L3.82,58 L1,58 L1.912,57.088 L1.912,50.416 L1,49.504 L3.844,49.504 L5.98,53.296 L8.116,49.504 L10.66,49.504 L9.748,50.416 L9.748,57.088 L10.66,58 Z M13.864,50.212 C13.864,50.692 13.456,51.1 12.976,51.1 C12.496,51.1 12.088,50.692 12.088,50.212 C12.088,49.732 12.496,49.324 12.976,49.324 C13.456,49.324 13.864,49.732 13.864,50.212 Z M14.716,58 L11.236,58 L12.088,57.148 L12.088,53.464 L11.26,52.636 L13.864,51.748 L13.864,57.148 L14.716,58 Z M17.548,53.908 L17.548,57.148 L18.4,58 L14.92,58 L15.772,57.148 L15.772,53.464 L14.944,52.636 L17.548,51.748 L17.548,52.816 L17.944,52.384 C18.22,52.072 18.808,51.748 19.468,51.748 C19.576,51.748 19.876,51.796 20.068,51.844 L20.068,54.28 L18.628,52.84 L17.548,53.908 Z M22.948,53.908 L22.948,57.148 L23.8,58 L20.32,58 L21.172,57.148 L21.172,53.464 L20.344,52.636 L22.948,51.748 L22.948,52.816 L23.344,52.384 C23.62,52.072 24.208,51.748 24.868,51.748 C24.976,51.748 25.276,51.796 25.468,51.844 L25.468,54.28 L24.028,52.84 L22.948,53.908 Z M32.596,54.952 C32.596,56.764 31.12,58.156 29.308,58.156 C27.496,58.156 26.02,56.764 26.02,54.952 C26.02,53.14 27.496,51.748 29.308,51.748 C31.12,51.748 32.596,53.14 32.596,54.952 Z M30.52,54.952 C30.52,53.812 30.388,52.444 29.308,52.444 C28.228,52.444 28.096,53.812 28.096,54.952 C28.096,56.092 28.228,57.46 29.308,57.46 C30.388,57.46 30.52,56.092 30.52,54.952 Z M35.764,53.908 L35.764,57.148 L36.616,58 L33.136,58 L33.988,57.148 L33.988,53.464 L33.16,52.636 L35.764,51.748 L35.764,52.816 L36.16,52.384 C36.436,52.072 37.024,51.748 37.684,51.748 C37.792,51.748 38.092,51.796 38.284,51.844 L38.284,54.28 L36.844,52.84 L35.764,53.908 Z M48.04,57.688 C47.176,58.072 46.588,58.18 45.652,58.18 C43.456,58.18 41.764,56.164 41.764,53.752 C41.764,51.34 43.468,49.324 45.652,49.324 C46.672,49.324 47.248,49.468 48.04,49.816 L48.04,51.892 L46.696,50.548 C46.396,50.248 46.084,50.14 45.652,50.14 C44.032,50.14 43.84,52.156 43.84,53.752 C43.84,55.324 44.092,57.304 45.652,57.304 C46.084,57.304 46.396,57.196 46.696,56.896 L48.04,55.552 L48.04,57.688 Z M55.456,54.952 C55.456,56.764 53.98,58.156 52.168,58.156 C50.356,58.156 48.88,56.764 48.88,54.952 C48.88,53.14 50.356,51.748 52.168,51.748 C53.98,51.748 55.456,53.14 55.456,54.952 Z M53.38,54.952 C53.38,53.812 53.248,52.444 52.168,52.444 C51.088,52.444 50.956,53.812 50.956,54.952 C50.956,56.092 51.088,57.46 52.168,57.46 C53.248,57.46 53.38,56.092 53.38,54.952 Z M63.256,58 L60.628,58 L60.628,53.464 C60.628,53.248 60.496,52.876 60.076,52.876 C59.86,52.876 59.56,53.02 59.212,53.38 L58.624,53.968 L58.624,57.148 L59.476,58 L55.996,58 L56.848,57.148 L56.848,53.464 L56.02,52.636 L58.624,51.748 L58.624,53.044 L59.14,52.528 C59.776,51.892 60.376,51.748 60.736,51.748 C61.768,51.748 62.404,52.528 62.404,53.368 L62.404,57.148 L63.256,58 Z M69.088,49 L67.864,50.68 L66.88,49.696 C66.496,49.828 66.232,50.152 66.232,50.572 L66.232,51.904 L67.672,51.904 L67.672,52.66 L66.232,52.66 L66.232,57.148 L67.084,58 L63.604,58 L64.456,57.148 L64.456,52.66 L63.628,52.66 L63.628,51.904 L64.456,51.904 L64.456,51.568 C64.456,50.212 65.44,49 66.808,49 L69.088,49 Z" id="text"></path>
        </g>
    </g>
</svg>