<?xml version="1.0" encoding="UTF-8"?>
<svg width="22px" height="32px" viewBox="0 0 22 32" version="1.1" xmlns="http://www.w3.org/2000/svg" xmlns:xlink="http://www.w3.org/1999/xlink">
    <!-- Generator: sketchtool 53.2 (72643) - https://sketchapp.com -->
    <title>5BE101E1-2D1E-48C2-A2B3-E376EFC19223</title>
    <desc>Created with sketchtool.</desc>
    <g id="Logos" stroke="none" stroke-width="1" fill="none" fill-rule="evenodd">
        <g id="desktop-/-technology-logo-/-pantheon">
            <g id="Logo" transform="translate(4.000000, 0.000000)">
                <path d="M6.17402528,21.1744231 L1.08347225,21.1744231 C1.0098668,21.1744231 0.936261345,21.1671949 0.861183784,21.1744231 C0.786106223,21.1816514 0.741942952,21.1165972 0.668337501,21.1267167 C0.631534775,21.0920211 0.594732049,21.0529886 0.552040887,21.0197387 C0.474248074,20.9396396 0.412343323,20.8460002 0.369499367,20.7436197 C0.35078202,20.6564803 0.323671397,20.5712856 0.28853337,20.4891854 C0.262124398,20.4161809 0.247231395,20.3396417 0.244370099,20.2622185 C0.244370099,20.2390881 0.223760573,20.2145121 0.209039483,20.1841535 C0.19726261,20.1104254 0.2281769,20.0207951 0.16782043,19.947067 L0.16782043,19.7331109 L0.125129268,19.670948 L0.125129268,19.3716986 L0.0853823239,19.3109814 L0.0853823239,18.8570475 L0.0412190529,18.793439 L0.0412190529,18.0576036 L0,17.9968863 L0,13.4893522 L0.0397469439,13.4170698 L0.0397469439,12.6479844 L0.0809659968,12.5887128 L0.0809659968,12.1694746 L0.120712941,12.1087573 L0.120712941,11.776258 C0.189902065,11.6851821 0.150155121,11.582541 0.166348321,11.4871282 L0.204623155,11.4336391 L0.204623155,11.2601612 C0.264979626,11.2066722 0.232593227,11.1257159 0.263507517,11.059216 C0.293596039,10.9890092 0.317722655,10.9164797 0.335640859,10.8423686 C0.359815365,10.7760547 0.38833577,10.7113471 0.421023183,10.6486517 C0.467100685,10.5123338 0.567490283,10.4001866 0.69925179,10.3378371 L0.94362189,10.2785655 L6.6657097,10.2785655 C6.72213483,10.3161659 6.75960472,10.3755658 6.76875733,10.4419238 C6.78210841,10.4923548 6.80189314,10.5409276 6.82764169,10.5864887 C6.88652605,10.6934668 6.91155191,10.8149013 6.9748526,10.918988 C6.98515736,11.0375313 7.09262132,11.1199333 7.09998186,11.2399222 C7.10701802,11.2716554 7.12053998,11.3016559 7.13972881,11.3281068 C7.17894869,11.3868772 7.2073504,11.4519567 7.22363902,11.5203781 C7.23836011,11.5883236 7.29430026,11.6418126 7.30460502,11.7155407 C7.30460502,11.7574646 7.3502404,11.7950514 7.36348938,11.8369753 C7.37673836,11.8788991 7.41795741,11.9222686 7.42384585,11.9815402 C7.43213004,12.0262633 7.45021263,12.0686841 7.47684178,12.105866 C7.52752461,12.2023212 7.5708261,12.3023473 7.60638737,12.4051154 C7.64611706,12.5043212 7.69233964,12.6008994 7.74476562,12.6942452 C7.73298875,12.7448429 7.76831936,12.7809842 7.78598467,12.8214623 C7.80364998,12.8619405 7.82573162,12.9024187 7.84339692,12.9428969 C7.85649716,12.9856452 7.87324023,13.0272341 7.89344863,13.0672227 C7.92809011,13.1355118 7.95665717,13.2066132 7.97883096,13.2797331 C8.02133982,13.3523487 8.0540028,13.4301084 8.07599015,13.511037 C8.08923913,13.5833194 8.15548404,13.6440367 8.17903778,13.7177648 C8.20259153,13.7914929 8.23497793,13.8464276 8.25705956,13.9129274 C8.2791412,13.9794273 8.30858338,14.0430359 8.33802556,14.1066444 C8.36660848,14.164042 8.39072194,14.2234837 8.4101589,14.2844593 C8.43076843,14.3509591 8.4911249,14.4073394 8.50290177,14.4738393 C8.53092026,14.5589753 8.56385062,14.6424761 8.60153308,14.7239366 C8.62508682,14.8092299 8.69427594,14.882958 8.71341336,14.9682513 C8.73255078,15.0535446 8.79290725,15.1287184 8.81940521,15.2154573 C8.83854263,15.2761746 8.86209637,15.3354462 8.88123379,15.3961635 C8.88123379,15.406283 8.88123379,15.4207395 8.88123379,15.4337503 C8.88123379,15.4467612 8.85915216,15.4525438 8.84884739,15.4525438 L6.34626204,15.4525438 C6.28001713,15.3209897 6.2417423,15.1764248 6.16372052,15.052099 C6.15969447,14.9935404 6.13761608,14.9375717 6.10041983,14.8916319 C6.07686609,14.8453711 6.10041983,14.7817626 6.04300758,14.747067 C5.98559533,14.6314151 5.95468104,14.5056436 5.88843613,14.3943286 C5.87518715,14.2642202 5.76330686,14.1688073 5.7530021,14.0372533 C5.69654123,13.9463873 5.65108821,13.8493524 5.61756807,13.7481234 C5.59254221,13.675841 5.55426738,13.6035585 5.52776942,13.535613 C5.49049253,13.4589123 5.45756512,13.3802452 5.42913811,13.2999722 C5.40143919,13.2278599 5.36847646,13.1578049 5.33050681,13.0903531 C5.27926094,12.9462542 5.21928818,12.8052929 5.1509095,12.6682235 C5.13618841,12.6407562 5.11852311,12.6147345 5.1008578,12.5872672 L4.56501011,12.5872672 C4.52379106,12.6118432 4.53556793,12.653767 4.55470535,12.6855713 C4.61097466,12.7936907 4.66014531,12.9052333 4.70191625,13.0195163 C4.74222359,13.1338955 4.79143936,13.2450572 4.84912715,13.3520156 C4.85866143,13.4088219 4.87808243,13.4635926 4.9065394,13.5139283 C4.9227326,13.5616347 4.9713122,13.6021129 4.97720064,13.6498193 C4.98774739,13.7063902 5.01142257,13.7598149 5.04638976,13.8059494 C5.07288773,13.8522102 5.06405507,13.9056992 5.1008578,13.9505143 C5.13718785,13.9965526 5.16281363,14.0498436 5.17593536,14.1066444 C5.19141414,14.162176 5.21160358,14.2163363 5.23629183,14.2685571 C5.25101292,14.3162636 5.30106463,14.3581874 5.30548095,14.4044482 C5.31590944,14.4618932 5.33847564,14.516556 5.37172586,14.5649152 C5.39675171,14.611176 5.38644695,14.664665 5.42619389,14.7094801 C5.46472835,14.753602 5.49063753,14.8069834 5.50127145,14.8641646 C5.52458826,14.9505966 5.55922663,15.0336923 5.60431909,15.1113706 C5.62814848,15.1916659 5.66175932,15.2688434 5.7044225,15.3412288 C5.72143409,15.3682501 5.72143409,15.4023921 5.7044225,15.4294134 C5.69558985,15.4294134 5.69117352,15.4438699 5.68675719,15.4438699 L3.76271069,15.4438699 L3.74357327,15.4438699 C3.71854742,15.4655546 3.73032429,15.4857937 3.74357327,15.5118154 C3.7874085,15.5829641 3.8220255,15.6592095 3.8466209,15.7387823 C3.85986988,15.8154017 3.9275869,15.8703364 3.93200323,15.9527384 C3.93683946,15.9847017 3.95059709,16.0147247 3.97175017,16.0394773 C4.03652297,16.1377815 4.05124406,16.2563247 4.11896107,16.3560745 C4.15868312,16.4545822 4.20339284,16.5510791 4.25292299,16.6452043 C4.25292299,16.7073673 4.28972572,16.7550737 4.31033525,16.807117 C4.34055204,16.8639646 4.36519803,16.9235039 4.3839407,16.9849319 C4.39999662,17.0407829 4.42645028,17.0932294 4.46196248,17.1396163 C4.50170942,17.2003336 4.50465364,17.2726161 4.53851215,17.3362246 C4.57200219,17.4051901 4.60101171,17.476169 4.62536658,17.5487351 C4.65333665,17.6123436 4.70633258,17.6672783 4.70486047,17.742452 C4.76347428,17.8429452 4.81274396,17.9484225 4.85207137,18.0576036 C4.87856933,18.1284404 4.91831628,18.2021685 4.94039791,18.2686683 C4.97756689,18.3437475 5.01001414,18.4209937 5.03755711,18.4999722 C5.05080609,18.5722547 5.11852311,18.6344176 5.13766052,18.7067 C5.15679794,18.7789825 5.20979387,18.871504 5.23629183,18.9567973 C5.26278979,19.0420906 5.32020204,19.1302752 5.35258844,19.2199055 C5.38497484,19.3095357 5.43649866,19.3818182 5.46152451,19.4642202 C5.48655036,19.5466222 5.53512996,19.6275785 5.56162792,19.7143175 C5.58812589,19.8010564 5.64406603,19.8877954 5.67792454,19.9774256 C5.71178305,20.0670559 5.76330686,20.1393383 5.78686061,20.2217403 C5.81041435,20.3041423 5.86046606,20.3850987 5.88549191,20.4718376 C5.91051776,20.5585766 5.97970689,20.630859 5.9973722,20.7147067 C6.02872551,20.7989135 6.06459704,20.881431 6.10483616,20.9619127 C6.12102936,21.0356408 6.1445831,21.0934668 6.17402528,21.1744231 Z M13.2902003,17.722213 L13.2504534,17.7785933 L13.2504534,17.9549625 C13.1945133,18.0026689 13.2151228,18.0778426 13.1753758,18.134223 C13.1356289,18.1906033 13.1297405,18.2542118 13.0738003,18.2961357 L13.056135,18.3062552 L7.60933159,18.3062552 C7.53572614,18.2816792 7.54161457,18.2007228 7.4974513,18.1544621 C7.4974513,18.0691688 7.43709483,18.0098971 7.41354109,17.940506 C7.39464673,17.8727251 7.36693932,17.8076169 7.33110298,17.746789 C7.26485807,17.635474 7.24866488,17.5024743 7.17211521,17.3969419 C7.17211521,17.2682791 7.04698594,17.1844315 7.04698594,17.0557687 C6.99398413,16.9627124 6.94774294,16.8660953 6.90860769,16.7666389 C6.87327707,16.6914651 6.84972333,16.6105088 6.8129206,16.535335 C6.7746338,16.4683302 6.74355209,16.3975942 6.72017773,16.3242702 C6.69172901,16.2461309 6.65522758,16.1710495 6.61124166,16.1001946 C6.60399759,16.0723525 6.60102065,16.0436055 6.60240901,16.0149013 C6.68807577,16.0016906 6.77496628,15.9978121 6.8615002,16.0033361 C6.94982674,16.0033361 7.03668117,16.0033361 7.12500772,16.0033361 L13.0266928,16.0033361 C13.0576071,16.0322491 13.0914656,16.0640534 13.1267962,16.094412 C13.1621269,16.1247706 13.1621269,16.1638032 13.1871527,16.1927162 C13.2121786,16.2216291 13.2062901,16.2794551 13.2151228,16.3242702 C13.2239554,16.3690853 13.2607582,16.3864331 13.2533976,16.4312483 C13.250469,16.4764996 13.250469,16.5218879 13.2533976,16.5671393 L13.2902003,16.6249652 L13.2902003,17.722213 Z M8.29239018,12.5771476 C8.25069929,12.5190549 8.21796066,12.4552416 8.19523098,12.3877676 C8.1781857,12.3123181 8.14779201,12.2403908 8.10543233,12.1752572 C8.07157382,12.1116486 8.06421328,12.0422574 8.02888266,11.9786489 C7.97441463,11.8774534 7.93908401,11.7675841 7.89050441,11.6620517 C7.84192482,11.5565193 7.80217787,11.4639978 7.7580146,11.3729219 C7.72737486,11.3093867 7.70034474,11.2442325 7.6770486,11.1777592 C7.65375247,11.111286 7.62672235,11.0461318 7.59608261,10.9825966 C7.5686257,10.925388 7.54502124,10.8664717 7.52542137,10.8062274 C7.50333974,10.7397276 7.45034381,10.6833472 7.4312064,10.6154017 C7.41147461,10.5439589 7.38434442,10.4746883 7.3502404,10.4086739 C7.32973501,10.36815 7.32973501,10.320535 7.3502404,10.2800111 C7.3502404,10.2800111 7.36201727,10.2684459 7.36790571,10.2684459 L12.5806438,10.2684459 C12.6500243,10.3135086 12.7047115,10.377251 12.7381595,10.4520434 C12.7771839,10.5288008 12.8006807,10.6122615 12.8073486,10.6978037 C12.8073486,10.7773144 12.8632887,10.8423686 12.8500397,10.9247706 C12.8441542,10.9974202 12.8441542,11.0704141 12.8500397,11.1430637 C12.8500397,11.2225744 12.8500397,11.3020851 12.8500397,11.3830414 L12.8500397,11.6013344 C12.8500397,11.6808451 12.8500397,11.7603559 12.8500397,11.8398666 L12.8500397,12.04804 C12.8309023,12.105866 12.8088207,12.1376703 12.813237,12.1665833 C12.8279581,12.2489853 12.7617132,12.3111482 12.7676016,12.3921045 C12.7219663,12.4557131 12.7043009,12.5366694 12.6012533,12.5814846 L8.29239018,12.5771476 Z M12.5718111,18.8657214 L12.6704424,18.9148735 C12.7110851,18.980254 12.7436987,19.050132 12.7676016,19.123047 C12.7867789,19.1846987 12.8020203,19.2474655 12.813237,19.3109814 C12.8308525,19.3925297 12.8431451,19.4750998 12.8500397,19.5581874 C12.8500397,19.6434807 12.8500397,19.7302196 12.8500397,19.8169586 L12.8500397,20.0742841 C12.8500397,20.1610231 12.8500397,20.247762 12.8500397,20.3330553 C12.8500397,20.4183486 12.8426792,20.5065332 12.8500397,20.5918265 C12.8500397,20.6467612 12.7955717,20.6800111 12.8102928,20.7363914 C12.8215379,20.7878124 12.8073432,20.8414261 12.772018,20.8809564 C12.7768817,20.9957886 12.7212725,21.1050078 12.6248071,21.1700862 L8.81646099,21.1700862 C8.76499711,21.0866178 8.72068152,20.9990962 8.68397118,20.9084237 C8.65240969,20.8111079 8.60994942,20.7175319 8.5573698,20.6294134 C8.5573698,20.528218 8.46757115,20.4573812 8.46757115,20.3576314 C8.39939696,20.2274886 8.3384603,20.0938107 8.28502963,19.9571865 C8.2485566,19.890047 8.21944209,19.8192959 8.1981752,19.7461218 C8.17756567,19.6781763 8.12309764,19.6261329 8.11426499,19.5524048 C8.10543233,19.4786767 8.04654797,19.4179594 8.02888266,19.3384487 C7.99975962,19.2671646 7.96633245,19.19765 7.92877925,19.1302752 C7.9046585,19.0644093 7.87613569,19.0001791 7.84339692,18.9380039 C7.83600416,18.9218174 7.83056933,18.9048356 7.82720372,18.8874062 C7.84339692,18.8787323 7.8551738,18.8686127 7.86695067,18.8686127 L12.5718111,18.8657214 Z M9.50540802,15.4409786 C9.48404883,15.3669342 9.45390957,15.295609 9.41560937,15.2284682 C9.37291821,15.1648596 9.36555766,15.0839033 9.32728283,15.0174034 C9.28900799,14.9509035 9.2742869,14.8728385 9.24337261,14.8034473 C9.20656464,14.7361074 9.17649109,14.6654219 9.15357396,14.5923825 C9.13590865,14.5201001 9.06819164,14.4593828 9.05052633,14.3856547 C9.03286102,14.3119266 8.97839299,14.2410898 8.96072768,14.1543508 C8.94306237,14.0676119 8.89006645,14.0097859 8.86798481,13.9432861 C8.84764098,13.8831012 8.82355116,13.8242005 8.79585147,13.7669169 C8.76102157,13.7054223 8.73289581,13.6404906 8.71194125,13.5731999 C8.70016438,13.5124826 8.654529,13.457548 8.63686369,13.3968307 C8.61412554,13.3367142 8.58706882,13.2782593 8.5558977,13.2219071 C8.54150307,13.1993638 8.54150307,13.1707224 8.5558977,13.148179 C8.56778115,13.1432317 8.58009989,13.1393606 8.59270042,13.1366138 L13.0090275,13.1366138 C13.0972389,13.1910405 13.1649498,13.2722543 13.2018738,13.3679177 C13.1886248,13.4546567 13.2533976,13.5283848 13.2460371,13.6151237 C13.2529511,13.664476 13.2652907,13.7129473 13.2828398,13.7596886 L13.2828398,14.8569363 L13.2504534,14.9075341 C13.2484339,14.9788776 13.2405571,15.0499449 13.2268997,15.1200445 C13.2017637,15.2063127 13.1661787,15.2893078 13.1209078,15.3672505 C13.1032425,15.3932722 13.0811609,15.4178482 13.0605513,15.4438699 L9.50540802,15.4409786 Z" id="Combined-Shape" fill="#000000"></path>
                <path d="M10.5388286,31.3980539 L10.4755279,31.3980539 C10.4692734,31.373574 10.4582778,31.3505056 10.4431415,31.3301084 C10.3478436,31.2297122 10.2579237,31.1245198 10.1737455,31.0149569 C10.1251659,30.9658048 10.0898353,30.9021963 10.0397836,30.8487073 C9.98973189,30.7952182 9.96323393,30.7446205 9.92054277,30.6969141 C9.86709658,30.6478139 9.82188527,30.5907299 9.78658085,30.5277731 C9.77480397,30.5003058 9.74241758,30.4800667 9.71886383,30.4554907 C9.69531009,30.4309147 9.63053729,30.3846539 9.61287198,30.3383931 C9.59157406,30.298522 9.56372029,30.2623768 9.53043388,30.2314151 C9.49804748,30.1909369 9.44652366,30.1649152 9.43769101,30.1056436 C9.43769101,30.0897415 9.41119304,30.0767306 9.39794406,30.0622741 L9.18154403,29.8092855 C9.12241086,29.7226452 9.05433348,29.6422269 8.97839299,29.5693078 C8.93698067,29.4868634 8.87708825,29.4147027 8.80321201,29.358243 C8.75610452,29.3119822 8.74138343,29.2454823 8.6869154,29.2021129 C8.64033153,29.1626075 8.60357186,29.1131569 8.57945144,29.057548 C8.5573698,29.0112872 8.50437388,28.9809286 8.47051537,28.9404504 C8.43665686,28.8999722 8.42193577,28.863831 8.3939657,28.830581 C8.31299971,28.7351682 8.23203371,28.6397554 8.14812349,28.5414512 C8.10396022,28.4937448 8.0833507,28.4315819 8.03329899,28.3853211 C7.97648411,28.3405323 7.92942455,28.2849776 7.89492074,28.2219627 C7.86695067,28.1641368 7.790401,28.1308869 7.76243093,28.0773978 C7.72121187,27.9978871 7.64171799,27.953072 7.60049893,27.8807895 C7.55835182,27.8154163 7.50898231,27.7548137 7.45328803,27.7000834 C7.41354109,27.6567139 7.39882,27.5974423 7.3502404,27.5555185 C7.30194866,27.5206065 7.26469409,27.4729959 7.24277644,27.4181818 C7.24277644,27.3950514 7.20744582,27.3791493 7.1883084,27.3603559 C7.12690169,27.3010727 7.07257391,27.2351111 7.02637641,27.1637476 C6.98662947,27.0986934 6.91449612,27.0582152 6.87916551,26.9830414 C6.85855598,26.9367807 6.80408795,26.906422 6.77022944,26.8659438 C6.73637093,26.8254657 6.72164984,26.7893244 6.69367977,26.7560745 C6.61418588,26.6606617 6.53321989,26.5652488 6.44783756,26.4669447 C6.40367429,26.4192383 6.38306476,26.3570753 6.33301306,26.3108146 C6.2766059,26.26562 6.22961919,26.2101512 6.19463481,26.1474562 C6.16666474,26.0896302 6.09011507,26.0563803 6.062145,26.0028913 C6.02092594,25.9233806 5.94290416,25.8771198 5.90168511,25.806283 C5.8594894,25.7409439 5.81012399,25.6803462 5.75447421,25.6255769 C5.71472726,25.5822074 5.70000617,25.5229358 5.65142658,25.481012 C5.60319121,25.4460435 5.56595035,25.3984505 5.54396262,25.3436753 C5.53660207,25.3205449 5.508632,25.3046428 5.49096669,25.2858493 C5.42861996,25.2275624 5.37374663,25.1620241 5.32756259,25.0906867 C5.28928775,25.0241868 5.2156823,24.9837086 5.18035168,24.9085349 C5.15974216,24.8622741 5.10674623,24.8319155 5.07141562,24.7914373 C5.036085,24.7509591 5.02430813,24.7148179 4.99486595,24.681568 C4.91537206,24.5861551 4.83440606,24.4907423 4.74902374,24.3924381 C4.70486047,24.3447317 4.68425094,24.2825688 4.63419923,24.236308 C4.57819379,24.1907167 4.53127572,24.135329 4.49582098,24.0729497 C4.46785091,24.0151237 4.4001339,23.9789825 4.36185906,23.9283848 C4.3349556,23.8845571 4.30442923,23.8429751 4.2705883,23.8040589 C4.23048547,23.7699427 4.19792097,23.7281237 4.17490122,23.6811788 C4.14714025,23.6356331 4.11004395,23.5962498 4.06596515,23.5655268 C4.01738555,23.5207117 4.00708079,23.4498749 3.94966853,23.4108424 C3.89225628,23.3718098 3.86428621,23.2966361 3.81717872,23.2431471 C3.76692089,23.1989404 3.72062449,23.1505741 3.67880047,23.0985822 C3.63610931,23.0205171 3.56250386,22.971365 3.51834059,22.9005282 C3.47461506,22.8362751 3.42536469,22.7758187 3.37112968,22.7198221 C3.33432696,22.6764526 3.30488478,22.6244092 3.26660994,22.5752572 C3.2207724,22.5286787 3.18029132,22.47729 3.145897,22.4220183 C3.11939904,22.3714206 3.05168202,22.341062 3.02665617,22.2904643 C2.98410096,22.224933 2.93476906,22.1638921 2.87944527,22.1083125 C2.77786974,21.9782041 2.66304524,21.8567695 2.57177448,21.7165416 C2.58207924,21.7165416 2.58649557,21.7049764 2.59238401,21.7035307 C2.59917478,21.7020832 2.60620276,21.7020832 2.61299353,21.7035307 L6.97926892,21.7035307 L7.00429478,21.6948568 C7.00429478,21.6804003 7.01459954,21.6587156 7.00429478,21.6457048 C6.95486659,21.5713318 6.91622094,21.4905642 6.88947027,21.405727 C6.87474918,21.323325 6.79967162,21.2611621 6.80261584,21.1744231 C6.80261584,21.1411732 6.764341,21.1079233 6.75109202,21.0732277 C6.72360341,21.0231856 6.70045845,20.9709574 6.6819029,20.9170976 C6.67015194,20.8546626 6.6428413,20.7960565 6.60240901,20.746511 C6.56118996,20.6959133 6.57296683,20.6366416 6.54205254,20.5845983 C6.51113825,20.5325549 6.4699192,20.4906311 6.48169607,20.4255769 C6.48169607,20.416903 6.46844709,20.4053378 6.46255865,20.3923269 C6.43164436,20.3171532 6.38453687,20.247762 6.35951102,20.169697 C6.33448517,20.0916319 6.27854502,20.0251321 6.2579355,19.9441757 C6.23732597,19.8632193 6.18138583,19.7837086 6.15783208,19.6984153 C6.13036064,19.6141036 6.09228228,19.5334881 6.04447969,19.4584376 C6.05478445,19.394829 6.00620485,19.3514595 5.99001165,19.2965249 C5.97381845,19.2415902 5.9325994,19.1953294 5.91787831,19.1418404 C5.90315722,19.0883514 5.86341028,19.0391993 5.84868919,18.9857103 C5.82071911,18.8874062 5.76330686,18.8006672 5.72797624,18.7067 C5.69264563,18.6127328 5.64553814,18.5231026 5.6072633,18.4291354 C5.58076534,18.3655268 5.55426738,18.3004726 5.52924153,18.2368641 C5.50421567,18.1732555 5.48949458,18.1154295 5.46152451,18.0604949 C5.42172177,18.0021386 5.39511707,17.9360829 5.38350273,17.8667779 C5.38350273,17.8508757 5.35258844,17.8364192 5.34964422,17.8190714 C5.33639524,17.742452 5.27309455,17.688963 5.2642619,17.6080067 C5.25542925,17.5270503 5.17446325,17.4807895 5.18476801,17.3954962 C5.18476801,17.3954962 5.18476801,17.3853767 5.17446325,17.3795941 C5.13118099,17.3092916 5.09564982,17.2346604 5.0684714,17.1569641 C5.05080609,17.0788991 4.99044962,17.0239644 4.97867275,16.947345 C4.92714893,16.9140951 4.95659111,16.8490409 4.9212605,16.8027801 C4.89040029,16.7700148 4.87082828,16.7285396 4.86532035,16.6842369 C4.86532035,16.6249652 4.81968497,16.5946066 4.80938021,16.5396719 C4.79907545,16.4847373 4.74902374,16.4630525 4.74607952,16.4225744 C4.74607952,16.3286072 4.67247407,16.2606617 4.64744822,16.176814 C4.64744822,16.1580206 4.61800603,16.1392271 4.62095025,16.1262163 C4.63567134,16.0741729 4.57531487,16.0467056 4.5797312,16.0004448 C4.5797312,16.0004448 4.5797312,15.9888796 4.58709174,15.983097 C4.76080061,15.9657492 5.60873541,15.9599666 5.981179,15.983097 C5.981179,16.0336947 6.03270281,16.065499 6.04006336,16.1276619 C6.05630913,16.1823696 6.07955783,16.2348319 6.10925248,16.283792 C6.12986201,16.3271615 6.17549739,16.3690853 6.15930419,16.428357 C6.21678004,16.5177453 6.25997219,16.6152529 6.28737768,16.7174868 C6.35362258,16.7984431 6.3565668,16.9083125 6.40956273,16.9950514 C6.44522868,17.0619206 6.47526181,17.1315442 6.49936138,17.2032249 C6.52438723,17.2682791 6.58327159,17.3261051 6.59210425,17.3897137 C6.61897964,17.4745741 6.65143422,17.5576325 6.68926344,17.6383653 C6.70840086,17.7164304 6.77170155,17.7829302 6.79083897,17.8624409 C6.81726635,17.946888 6.85176926,18.0286906 6.8938866,18.1067556 C6.93363354,18.1862663 6.93804987,18.2816792 7.00576688,18.348179 C7.00576688,18.4493745 7.08526077,18.5216569 7.11175874,18.6112872 C7.13792154,18.6953637 7.17243669,18.7767112 7.21480637,18.8541562 C7.25013698,18.9177648 7.24866488,18.9987212 7.29430026,19.0478732 C7.33993564,19.0970253 7.33699142,19.1794273 7.37084992,19.2415902 C7.41405391,19.3052358 7.44452895,19.3763744 7.46064858,19.4512093 C7.47095334,19.5220461 7.5460309,19.5827634 7.5622241,19.6550459 C7.5784173,19.7273283 7.63582955,19.8155129 7.6608554,19.9008062 C7.68588126,19.9860995 7.73740507,20.0453711 7.76243093,20.1263275 C7.78745678,20.2072838 7.85370169,20.3084793 7.88167176,20.4038921 C7.92700296,20.4962952 7.96204581,20.5932332 7.9861915,20.693022 C7.99374524,20.7237951 8.00834579,20.7524713 8.02888266,20.7768696 C8.06917659,20.8488918 8.10268373,20.9243795 8.12898608,21.0023909 C8.1683614,21.0678425 8.19950331,21.1377446 8.22172895,21.2105644 C8.23792214,21.2929664 8.31888814,21.3551293 8.30563916,21.4418682 L8.45285006,21.7136503 L10.1869945,21.7136503 C10.2385183,21.7469002 10.1869945,21.8076175 10.2399904,21.842313 C10.2652616,21.8713149 10.2838428,21.9053435 10.2944585,21.9420628 C10.3157757,21.9736555 10.3289146,22.0098822 10.3327333,22.0475952 C10.3327333,22.0996386 10.3901456,22.1213233 10.3813129,22.171921 C10.4110636,22.1993229 10.425347,22.239245 10.4195877,22.2788991 C10.4195877,22.2890186 10.4357809,22.2991382 10.4387251,22.312149 C10.463751,22.3902141 10.5211633,22.4567139 10.5417728,22.5362246 C10.5623823,22.6157353 10.6242109,22.6807895 10.6448204,22.7603003 C10.6654299,22.839811 10.7228422,22.9193217 10.7419796,23.0060606 C10.761117,23.0927996 10.8347225,23.1636364 10.8538599,23.247484 C10.8759229,23.3263442 10.9070366,23.402488 10.9466028,23.4744509 C10.9700247,23.5537408 11.0031432,23.6299518 11.0452341,23.7014178 C11.0805647,23.7433417 11.0452341,23.8011676 11.0997021,23.8459828 C11.1541701,23.8907979 11.1365048,23.93995 11.1674191,23.9804281 C11.1983334,24.0209063 11.1674191,24.0888518 11.2233593,24.124993 C11.2233593,24.1784821 11.2851878,24.211732 11.2689946,24.269558 L11.3897076,24.4994162 L11.3897076,24.6035029 C11.3764586,24.6121768 11.3661538,24.623742 11.354377,24.623742 L7.73004453,24.623742 C7.71477201,24.6313706 7.70340804,24.6448811 7.69866395,24.6610499 C7.69391986,24.6772188 7.69622112,24.6945959 7.70501868,24.7090353 C7.74770984,24.7683069 7.74329351,24.8434807 7.78304045,24.9027523 C7.81468321,24.9716453 7.84269041,25.0420936 7.86695067,25.1138171 C7.9032281,25.1735836 7.93143481,25.2377303 7.95086088,25.3046428 C7.98112308,25.3747306 8.01502613,25.443248 8.05243641,25.5099249 C8.07451804,25.5764248 8.10396022,25.6385877 8.13045819,25.7021963 C8.14995275,25.7620817 8.17255464,25.8209484 8.1981752,25.8785655 C8.2373947,25.9372207 8.26394893,26.0031511 8.27619698,26.0722825 C8.27619698,26.0896302 8.30563916,26.1026411 8.30858338,26.1199889 C8.32183236,26.1966083 8.38513305,26.2500973 8.39543781,26.3310537 C8.40574257,26.41201 8.48376435,26.4582708 8.47345959,26.5435641 C8.47345959,26.5435641 8.47345959,26.5536836 8.48376435,26.5594662 C8.5276751,26.6294374 8.56323971,26.7041388 8.5897562,26.7820962 C8.60742151,26.8601612 8.66777798,26.9150959 8.67955485,26.9917153 C8.73255078,27.0249652 8.70163649,27.0900195 8.73696711,27.1362802 C8.76746912,27.1687105 8.78700895,27.2096125 8.79290725,27.2533778 C8.79290725,27.3140951 8.84001474,27.3444537 8.84884739,27.3979427 C8.85768005,27.4514317 8.90920386,27.4745621 8.91214808,27.5150403 C8.92767969,27.5961353 8.9586443,27.6736267 9.00341884,27.7434529 C9.02366519,27.810122 9.04977057,27.8749379 9.08144062,27.9371699 C9.12560389,27.9949958 9.12560389,28.0687239 9.1594624,28.1294412 C9.20133792,28.194136 9.23124003,28.26559 9.24778894,28.340506 C9.25956581,28.4113428 9.33611548,28.4720601 9.35083657,28.5428969 C9.36555766,28.6137337 9.42444203,28.7033639 9.44799577,28.7901029 C9.47154951,28.8768418 9.52896177,28.9346678 9.54957129,29.0141785 C9.57445201,29.0991643 9.60901997,29.1811211 9.65261893,29.2584932 C9.69383798,29.3380039 9.6967822,29.4334167 9.7630271,29.4999166 C9.78677109,29.5919232 9.82291136,29.6804068 9.87049106,29.7630247 C9.90140535,29.852655 9.94409651,29.9379483 9.98089924,30.0246872 C10.0338952,30.0579372 10.0029809,30.1215457 10.0353673,30.1692522 C10.0702074,30.2153989 10.0920415,30.269751 10.098668,30.3268279 C10.098668,30.3730887 10.1590244,30.4135669 10.1693292,30.4598276 C10.179634,30.5060884 10.2385183,30.5451209 10.2164367,30.6043925 C10.2164367,30.6116208 10.2326299,30.6246316 10.2370462,30.6361968 C10.2750465,30.709505 10.3089552,30.7847901 10.3386217,30.8617181 C10.3518707,30.9412288 10.4136993,31.006283 10.4269483,31.0915763 C10.4411684,31.1534372 10.4704681,31.2109835 10.5123306,31.2592716 C10.5352907,31.2992014 10.5445798,31.3453188 10.5388286,31.3908257 L10.5388286,31.3980539 Z M1.50302332,-6.53699317e-13 L1.55160292,0.0274673339 C1.61048728,0.0636085627 1.62373626,0.134445371 1.66789953,0.182151793 C1.7120628,0.229858215 1.77536349,0.261662497 1.79155669,0.326716708 C1.79155669,0.349847095 1.82394309,0.367194885 1.84455262,0.385988324 C1.90039733,0.441115037 1.94977572,0.502213522 1.99176352,0.568140117 C2.03298257,0.625966083 2.1021717,0.662107312 2.12425333,0.735835418 C2.12425333,0.747400612 2.14191864,0.754628857 2.1507513,0.764748401 C2.21706883,0.828637988 2.27673866,0.898857911 2.32887649,0.974367528 C2.37303976,1.05098693 2.46431052,1.09869336 2.49964114,1.18687795 C2.58587696,1.27886569 2.66696234,1.3753844 2.74253913,1.47600778 C2.78675453,1.52306331 2.82665617,1.57385796 2.86177996,1.62780095 C2.89711058,1.67406172 2.95746705,1.7000834 2.96777181,1.77236586 C2.96777181,1.78971365 2.99426977,1.80272449 3.00751875,1.81718098 C3.07483525,1.87909345 3.13460993,1.94846651 3.18564395,2.02390881 C3.226863,2.09474562 3.31371743,2.13666945 3.34315961,2.22196275 C3.4298614,2.31355063 3.51096911,2.41009593 3.5860576,2.51109258 C3.62907201,2.56000333 3.6693682,2.61115726 3.70677054,2.66433139 C3.7479896,2.71348346 3.80687396,2.74962469 3.82453927,2.8175702 C3.82453927,2.82913539 3.84220457,2.83636364 3.85103723,2.84648318 C3.91824765,2.90995515 3.97844702,2.98021756 4.03063453,3.05610231 C4.0747978,3.13272171 4.16606856,3.18042813 4.19992707,3.26861273 C4.3029747,3.34667779 4.34713797,3.46666667 4.44429717,3.55774256 C4.48806963,3.60516368 4.52794169,3.65592066 4.563538,3.70953572 C4.59886862,3.7557965 4.65922509,3.78181818 4.66952985,3.85410064 C4.66952985,3.87144843 4.69602781,3.88445927 4.70927679,3.89891576 C4.77640059,3.96153955 4.83615012,4.03136834 4.88740199,4.10708924 C4.92862104,4.1793717 5.01694758,4.22129552 5.04491765,4.30658882 C5.13118423,4.39855022 5.21227103,4.49507063 5.28781564,4.59571865 C5.33034716,4.64464948 5.37015226,4.69580382 5.40705648,4.74895746 C5.44827553,4.79810954 5.51010411,4.83280512 5.52629731,4.90219627 C5.52629731,4.91376147 5.54396262,4.92098971 5.55279527,4.93110926 C5.61958964,4.99496238 5.6797515,5.06518101 5.73239257,5.14072838 C5.77508373,5.21734779 5.86635449,5.26505421 5.90168511,5.35323881 C5.98875935,5.44490008 6.07035276,5.54143844 6.14605521,5.64236864 C6.18910796,5.68783427 6.22894765,5.73613501 6.26529604,5.78693356 C6.29915455,5.83319433 6.36098313,5.85921601 6.37128789,5.93149847 C6.37128789,5.94884626 6.39778585,5.96041145 6.41103484,5.97631359 C6.47774697,6.03931656 6.53745689,6.10909906 6.58916003,6.18448707 C6.62890697,6.25676953 6.71870562,6.29724771 6.74520359,6.38398666 C6.83274445,6.47524362 6.91436184,6.57181036 6.98957369,6.67311649 C7.03074666,6.71175934 7.07004631,6.75228227 7.10734241,6.79455101 C7.14856146,6.84514874 7.21039004,6.87839867 7.22658324,6.94778982 C7.22658324,6.95935502 7.24424855,6.96658326 7.2530812,6.97670281 C7.31903622,7.04039716 7.37867931,7.11010155 7.4312064,7.18487629 C7.47536967,7.26294134 7.56664043,7.31064776 7.60197104,7.39883236 C7.68820687,7.49082009 7.76929225,7.58733881 7.84486903,7.68796219 C7.88908444,7.73501771 7.92898608,7.78581236 7.96410986,7.83975535 C7.99944048,7.88601612 8.06126906,7.91203781 8.07157382,7.98432027 C8.07157382,8.00166806 8.09807179,8.01323325 8.11132077,8.02913539 C8.17712784,8.09284623 8.23539984,8.16364956 8.28502963,8.24020017 C8.32624869,8.31248262 8.41604734,8.3529608 8.4425453,8.43969975 C8.52965442,8.53133087 8.61124955,8.62787127 8.6869154,8.72882958 C8.74138343,8.78376425 8.7840746,8.85026411 8.8341263,8.90953572 C8.88417801,8.96880734 8.94600659,9.00350292 8.96661612,9.07867668 C9.0478797,9.16432029 9.12453374,9.25407274 9.19626512,9.34756742 C9.28164745,9.42996942 9.33464337,9.53694746 9.42444203,9.61790381 C9.45279763,9.65432008 9.47424035,9.69545528 9.48774271,9.73933834 C9.47084743,9.74964377 9.45249277,9.75743825 9.43327468,9.76246872 C9.38027875,9.76246872 9.32581072,9.76246872 9.27134269,9.76246872 L1.93435127,9.76246872 C1.8555589,9.70798646 1.80248255,9.62459069 1.78714037,9.53116486 C1.773301,9.48241941 1.75088115,9.4364286 1.72089546,9.39527384 C1.69734171,9.35479566 1.72089546,9.299861 1.67526008,9.27094801 C1.66348321,9.19432861 1.5972383,9.14083959 1.58546143,9.06132889 C1.57368456,8.98181818 1.51480019,8.91676397 1.49713489,8.83147067 C1.47946958,8.74617737 1.41028045,8.6999166 1.39408725,8.62763414 C1.36906719,8.54291627 1.33502046,8.4610253 1.29251173,8.38331943 C1.27049604,8.30376282 1.23677272,8.22778813 1.19240832,8.15779817 C1.18300542,8.09468556 1.16045445,8.03415417 1.12616341,7.97998332 C1.09488583,7.91790021 1.06831573,7.85363529 1.04666952,7.78771198 C1.03056205,7.72624585 1.00091302,7.66900061 0.959815089,7.62001668 C0.924484472,7.56797331 0.945093999,7.51737559 0.924484472,7.47978871 C0.890386013,7.437831 0.86760304,7.38811218 0.858239566,7.3352238 C0.849580933,7.29198283 0.833661368,7.25045655 0.811132077,7.21234362 C0.79052255,7.17186544 0.752247716,7.13572421 0.746359279,7.09524604 C0.732246192,7.02641407 0.705295241,6.96073786 0.666865392,6.90152905 C0.661658743,6.88308339 0.661658743,6.8635944 0.666865392,6.84514874 C0.669832077,6.82946769 0.675296852,6.81434377 0.683058591,6.80033361 L4.37069172,6.80033361 C4.37069172,6.77431193 4.38246859,6.74973589 4.37069172,6.73961635 C4.31033525,6.67889908 4.31033525,6.58348624 4.26469987,6.50542118 C4.21416039,6.43872617 4.18311226,6.35975189 4.17490122,6.27700862 C4.17490122,6.25532388 4.14693114,6.23363914 4.13809849,6.21050876 C4.1071842,6.1411176 4.04682773,6.08329163 4.05566038,5.99944398 C4.00824057,5.94548283 3.97938876,5.87819142 3.97322228,5.80717264 C3.97322228,5.79560745 3.95850119,5.78548791 3.95408486,5.77392271 C3.9275869,5.69585766 3.87311886,5.6293578 3.85103723,5.54984709 C3.82895559,5.47033639 3.77448756,5.40528218 3.7479896,5.32577148 C3.72149163,5.24626077 3.69793789,5.19566305 3.66996782,5.13205449 C3.64199775,5.06844593 3.63022087,5.01206561 3.6022508,4.95568529 C3.56280409,4.89714611 3.53623047,4.83116759 3.52422902,4.76196831 C3.52422902,4.73883792 3.50067528,4.71715318 3.48889841,4.69546845 C3.46123125,4.65237624 3.43663722,4.60745358 3.41529296,4.56102307 C3.40057186,4.51909925 3.39173921,4.47717542 3.37260179,4.4352516 C3.35346438,4.39332777 3.30194056,4.35140395 3.3254943,4.29068668 C3.3254943,4.28345844 3.307829,4.27189324 3.30341267,4.2588824 C3.27985892,4.1793717 3.22244667,4.11431749 3.20183715,4.03480678 C3.18122762,3.95529608 3.11792693,3.89024187 3.09878951,3.81073116 C3.0796521,3.73122046 3.02076773,3.65170976 3.00163032,3.56352516 C2.9824929,3.47534056 2.91035956,3.4059494 2.88975003,3.3235474 C2.86809518,3.24433308 2.83644496,3.16808669 2.79553505,3.09658048 C2.76167654,3.03297192 2.76314865,2.95201557 2.71751327,2.9028635 C2.67187789,2.85371143 2.67482211,2.77130942 2.63949149,2.70914651 C2.59738187,2.64509448 2.56745507,2.57407132 2.55116495,2.49952738 C2.54086019,2.42869058 2.46431052,2.36797331 2.44958943,2.29569085 C2.43486834,2.2234084 2.37598398,2.1352238 2.35095812,2.0499305 C2.32593227,1.9646372 2.27735267,1.90536558 2.2493826,1.82440923 C2.22877307,1.77236586 2.21552409,1.71598554 2.19049824,1.66538782 C2.15820198,1.61059958 2.13109942,1.55301351 2.10953224,1.49335557 C2.09481115,1.43986656 2.04917577,1.39216013 2.03887101,1.33867111 C2.00984497,1.24822651 1.97341407,1.16023667 1.92993494,1.07556297 C1.89902065,0.985932722 1.85632949,0.900639422 1.81952676,0.813900473 C1.76653084,0.780650542 1.79744513,0.717041979 1.76505873,0.669335557 C1.72875521,0.623448351 1.7067685,0.568214228 1.70175804,0.510314151 C1.70175804,0.465499027 1.64140157,0.425020851 1.63109681,0.377314429 C1.62079204,0.329608007 1.57221245,0.292021129 1.5810451,0.232749513 C1.57774615,0.194081778 1.5599029,0.158005983 1.53099339,0.131554073 C1.49271856,0.0910758966 1.50596754,0.0462607729 1.50449543,0.00144564915 L1.50302332,-6.53699317e-13 Z" id="Combined-Shape" fill="#F0D202"></path>
            </g>
        </g>
    </g>
</svg>