<?xml version="1.0" encoding="UTF-8"?>
<svg width="29px" height="32px" viewBox="0 0 29 32" version="1.1" xmlns="http://www.w3.org/2000/svg" xmlns:xlink="http://www.w3.org/1999/xlink">
    <title>logo-technology-Heroku</title>
    <g id="Logos" stroke="none" stroke-width="1" fill="none" fill-rule="evenodd">
        <g id="desktop-/-technology-logo-/-Heroku" fill="#430098" fill-rule="nonzero">
            <g id="heroku-vector-logo">
                <path d="M25.783,0 L2.869,0 C1.292,0 0,1.27619048 0,2.85714286 C0,2.85714286 0,2.87619048 0,2.87619048 L0,29.1238095 C0,30.7047619 1.273,32 2.85,32 C2.85,32 2.869,32 2.869,32 L25.783,32 C27.36,32 28.652,30.7238095 28.652,29.1428571 C28.652,29.1428571 28.652,29.1238095 28.652,29.1238095 L28.652,2.87619048 C28.652,1.2952381 27.379,0 25.802,0 C25.802,0 25.802,0 25.783,0 Z M27.075,29.1238095 C27.094,29.8285714 26.524,30.4 25.84,30.4 C25.821,30.4 25.821,30.4 25.802,30.4 L2.869,30.4 C2.166,30.4190476 1.596,29.847619 1.596,29.1619048 C1.596,29.1428571 1.596,29.1428571 1.596,29.1238095 L1.596,2.87619048 C1.577,2.17142857 2.147,1.6 2.831,1.6 C2.85,1.6 2.85,1.6 2.869,1.6 L25.783,1.6 C26.486,1.58095238 27.056,2.15238095 27.056,2.83809524 C27.056,2.85714286 27.056,2.85714286 27.056,2.87619048 L27.056,29.1238095 L27.075,29.1238095 Z M7.201,27.2 L10.792,23.9809524 L7.201,20.7619048 L7.201,27.2 Z M20.121,14.247619 C19.095,13.2571429 17.708,12.7428571 16.283,12.8 C14.25,12.8571429 12.217,13.2190476 10.298,13.9238095 L10.298,4.81904762 L7.106,4.81904762 L7.106,18.6666667 L9.348,17.6190476 C9.348,17.6190476 13.015,15.9428571 16.226,15.9428571 C17.822,15.9428571 18.221,16.8190476 18.221,17.6190476 L18.221,27.2190476 L21.432,27.2190476 L21.432,17.6190476 C21.489,16.3428571 21.014,15.1238095 20.121,14.247619 Z M15.903,10 L19.114,10 C20.406,8.55238095 21.242,6.74285714 21.489,4.8 L18.278,4.8 C17.917,6.7047619 17.1,8.4952381 15.903,10 Z" id="logo"></path>
            </g>
        </g>
    </g>
</svg>