<svg xmlns="http://www.w3.org/2000/svg" xmlns:xlink="http://www.w3.org/1999/xlink" width="110" height="36" viewBox="0 0 110 36">
    <defs>
        <path id="4tpqz9zsya" d="M0 0.842L20.84 0.842 20.84 29.078 0 29.078z"/>
    </defs>
    <g fill="none" fill-rule="evenodd">
        <g>
            <g transform="translate(0.000000, 2.000000) translate(0.000000, 0.111768)">
                <mask id="174q14pu6b" fill="#fff">
                    <use xlink:href="#4tpqz9zsya"/>
                </mask>
                <path fill="#0F2F7F" d="M6.892 6.853v7.543h1.935c2.82 0 4.917-.968 4.917-3.873 0-2.864-2.097-3.67-4.917-3.67H6.892zm0 22.225H0V.842h10.196c7.056 0 10.644 4.357 10.644 9.681 0 5.326-3.588 9.884-10.644 9.884H6.892v8.671z" mask="url(#174q14pu6b)"/>
            </g>
            <path fill="#0F2F7F" d="M27.287 19.792c0 2.3 1.49 4.035 3.628 4.035 2.095 0 3.628-1.736 3.628-4.035 0-2.34-1.533-3.994-3.628-3.994-2.138 0-3.628 1.655-3.628 3.994m-6.448 0c0-5.728 4.474-9.844 10.076-9.844 5.603 0 10.075 4.116 10.075 9.844s-4.472 9.883-10.075 9.883c-5.602 0-10.076-4.155-10.076-9.883M55.064 15.77h-2.337c-2.783 0-3.509 2.41-3.509 4.79v8.63h-6.45V10.434h6.207v2.983c.388-2.134 1.758-3.052 3.007-3.052.482 0 3.082.069 3.082.069v5.335zM66.202 3.737v6.696h3.75v5.287h-3.75v6.814c0 1.091.927 1.252 1.654 1.252 1.208 0 2.097-.122 2.097-.122v5.526s-3.024.243-4.6.243c-3.021 0-5.6-.847-5.6-4.719v-8.983h-2.78v-5.298h2.78V3.737h6.45zM77.76 19.792c0 2.3 1.491 4.035 3.628 4.035 2.095 0 3.628-1.736 3.628-4.035 0-2.34-1.533-3.994-3.628-3.994-2.137 0-3.627 1.655-3.627 3.994m-6.449 0c0-5.728 4.473-9.844 10.076-9.844 5.602 0 10.075 4.116 10.075 9.844s-4.473 9.883-10.075 9.883c-5.603 0-10.076-4.155-10.076-9.883M96.546 21.567c2.259 0 4.07 1.815 4.07 4.074 0 2.219-1.811 4.033-4.07 4.033-2.215 0-4.03-1.814-4.03-4.033 0-2.259 1.815-4.074 4.03-4.074" transform="translate(0.000000, 2.000000)"/>
        </g>
    </g>
</svg>
