<svg xmlns="http://www.w3.org/2000/svg" width="263" height="64" viewBox="0 0 263 64">
    <g fill="none" fill-rule="evenodd">
        <path fill="#999B9E" fill-rule="nonzero" d="M166.633 23.294a1.83 1.83 0 0 1-.882 1.577 1.717 1.717 0 0 1-1.764 0 1.83 1.83 0 0 1-.882-1.577c0-.65.336-1.251.882-1.576a1.717 1.717 0 0 1 1.764 0c.546.325.882.926.882 1.576zm26.877 7.992H198v4.607h-4.49v-4.607zm-89.046 0h4.49v4.607h-4.49v-4.607zm-13.466 0h4.49v4.607h-4.49v-4.607zm-13.263 0h4.49v4.607h-4.49v-4.607zm-13.735 0h4.49v4.607H64v-4.607zm57.095 12.253h-.999l-5.64-19.899v14.325c0 2.258.096 2.856.477 3.501.389.645 1.063.968 1.896.968h.417v1.105h-6.606v-1.105h.513c.7 0 1.379-.415 1.7-1.014.288-.599.384-1.428.384-3.455V25.298c0-2.21-.32-2.58-2.02-2.58h-.577V21.66h6.19l4.581 16.076 4.683-16.076h6.222v1.06h-.417c-.738 0-1.38.184-1.7.46-.385.415-.481 1.06-.481 2.764v13.312c0 1.705.096 2.304.481 2.718.289.323.962.46 1.7.46h.417v1.106h-8.018v-1.105h.288c.742 0 1.412-.139 1.7-.461.385-.414.482-1.013.482-2.718V23.64l-5.673 19.899zm18.116-15.57c3.812 0 6.41 3.271 6.41 8.016 0 4.79-2.598 8.015-6.51 8.015-3.877 0-6.474-3.225-6.474-7.97 0-4.928 2.597-8.06 6.574-8.06zm-.128 1.06c-1.058 0-2.09.783-2.598 1.98-.513 1.152-.742 2.718-.742 4.93 0 4.697 1.095 7 3.368 7 2.276 0 3.399-2.302 3.399-6.954 0-2.257-.224-3.824-.738-4.975-.545-1.244-1.539-1.981-2.689-1.981zm11.867-7.6v9.12c.673-1.566 1.983-2.441 3.78-2.441 3.458 0 5.772 3.04 5.772 7.554 0 4.79-2.502 8.153-5.96 8.153-1.444 0-2.117-.276-3.693-1.566-.23-.23-.385-.276-.54-.276-.322 0-.519.23-1.316 1.566h-1.058c.256-.829.32-1.336.32-3.27v-14.97c0-2.166-.293-2.626-1.64-2.626h-.22v-1.014l4.555-.23zm3.326 7.83c-.985 0-2.016.691-2.62 1.797-.674 1.152-.963 2.671-.963 4.882 0 4.376 1.214 6.772 3.523 6.772 2.085 0 3.175-2.35 3.175-6.91 0-4.33-1.058-6.54-3.115-6.54zm12.16-1.059v11.654c0 2.165.293 2.626 1.645 2.626h.504v1.059h-6.983V42.48h.509c1.342 0 1.63-.507 1.63-2.626V32.07c0-2.119-.288-2.58-1.63-2.58h-.353v-1.013l4.678-.276zm8.113-6.771v18.425c0 2.165.285 2.626 1.636 2.626h.513v1.059h-6.986v-1.06h.508c1.347 0 1.636-.46 1.636-2.625V25.298c0-2.165-.289-2.625-1.636-2.625h-.348v-1.014l4.677-.23zm14.91 14.464h-8.779c.033 4.79 1.118 6.817 3.652 6.817 1.732 0 2.855-.968 3.977-3.363l.962.507c-1.38 2.856-3.047 4.146-5.452 4.146-3.72 0-6.122-3.179-6.122-8.107 0-4.607 2.433-7.923 5.806-7.923 3.49 0 5.8 3.04 5.956 7.923zm-8.747-1.152h5.768c.032-3.5-1.026-5.62-2.822-5.62-1.8 0-2.918 2.165-2.946 5.62z"/>
        <path fill="#F0008C" d="M74.783 22.092h.532c3.441 0 5.045 1.85 5.715 6.785l1.065-.048L81.953 21H64.445l-.172 7.83 1.025.047c.178-1.85.39-2.847.853-3.844.817-1.85 2.522-2.941 4.618-2.941h.745v17.034c0 1.803-.106 2.373-.532 2.8-.355.332-1.066.474-1.883.474h-.817v1.139h9.733V42.4h-.822c-.812 0-1.527-.143-1.877-.474-.426-.427-.533-.997-.533-2.8V22.092"/>
    </g>
</svg>
