<svg xmlns="http://www.w3.org/2000/svg" width="69" height="32" viewBox="0 0 69 32">
    <g fill="#000" fill-rule="evenodd">
        <path d="M8.522 9.494h-3.53v10.907h-1.43V9.494H.031V8.191H8.49v1.303z"/>
        <path fill-rule="nonzero" d="M15.294 11.688L11.288 21.8c-.731 1.812-1.717 2.703-3.02 2.703-.35 0-.668-.032-.923-.096v-1.24c.286.096.573.16.827.16.7 0 1.24-.414 1.59-1.273l.7-1.653-3.403-8.713h1.558l2.353 6.71c.032.095.095.318.19.667h.064c.032-.127.096-.35.16-.636l2.48-6.74h1.43zm2.353 7.473h-.031v5.278h-1.4V11.72h1.4v1.527h.031c.7-1.145 1.686-1.75 3.021-1.75 1.113 0 2.003.382 2.64 1.177.635.795.953 1.813.953 3.148 0 1.463-.35 2.64-1.049 3.498-.7.858-1.685 1.304-2.925 1.304-1.145 0-2.004-.477-2.64-1.463zm-.031-3.53v1.209c0 .731.222 1.335.7 1.844.476.509 1.049.763 1.78.763.858 0 1.494-.318 2.003-.986.509-.667.731-1.558.731-2.702 0-.986-.222-1.718-.667-2.29-.445-.54-1.05-.827-1.813-.827-.826 0-1.462.287-1.971.859-.509.572-.763 1.272-.763 2.13zm15.262.763H26.71c.031.986.286 1.718.795 2.258.508.54 1.176.795 2.066.795.986 0 1.876-.318 2.703-.986v1.304c-.763.572-1.78.827-3.052.827-1.24 0-2.194-.382-2.894-1.177-.7-.795-1.05-1.908-1.05-3.339 0-1.367.382-2.448 1.146-3.306.763-.859 1.717-1.272 2.861-1.272 1.145 0 2.035.381 2.64 1.113.635.73.922 1.748.922 3.084v.7h.031zm-1.43-1.176c0-.795-.191-1.43-.573-1.876-.381-.445-.922-.668-1.59-.668-.667 0-1.208.223-1.685.7-.445.477-.731 1.08-.859 1.844h4.706zm2.193 4.77v-.954c.89.572 1.75.826 2.671.826.954 0 1.686-.19 2.163-.604.508-.381.731-.954.731-1.653 0-.636-.159-1.113-.509-1.495-.318-.381-1.05-.89-2.162-1.526-1.24-.731-2.035-1.335-2.353-1.812a3.012 3.012 0 0 1-.509-1.686c0-.858.35-1.59 1.018-2.194.668-.604 1.558-.89 2.67-.89.732 0 1.463.127 2.195.382v.89a5.683 5.683 0 0 0-2.29-.477c-.826 0-1.494.223-1.971.636a2.038 2.038 0 0 0-.731 1.59c0 .636.159 1.113.508 1.494.318.382 1.05.859 2.163 1.495 1.144.636 1.907 1.208 2.289 1.717.382.508.572 1.08.572 1.749 0 .922-.318 1.685-.985 2.289-.636.604-1.558.89-2.767.89-.413 0-.89-.063-1.462-.19a8.518 8.518 0 0 1-1.24-.477zm13.832.031c-.636.382-1.43.605-2.32.605-1.177 0-2.131-.414-2.863-1.209-.731-.827-1.08-1.876-1.08-3.211 0-1.4.413-2.512 1.24-3.403.826-.89 1.875-1.335 3.147-1.335.668 0 1.304.127 1.94.413v.89a3.892 3.892 0 0 0-2.067-.572c-1.017 0-1.844.382-2.48 1.113-.636.731-.954 1.685-.954 2.862 0 1.145.286 2.035.858 2.734.573.7 1.336 1.018 2.29 1.018.858 0 1.622-.223 2.29-.7v.795zm5.279-7.504a1.515 1.515 0 0 0-.923-.286c-.699 0-1.271.35-1.717 1.05-.477.699-.7 1.716-.7 3.02v4.102h-.762v-8.713h.763v1.94h.032c.19-.668.508-1.176.954-1.558.445-.382.922-.54 1.494-.54.318 0 .604.063.859.158v.827zm1.335-3.02a.628.628 0 0 1-.445-.191.647.647 0 0 1-.19-.477c0-.191.063-.35.19-.445.127-.128.286-.16.445-.16.19 0 .318.064.477.16.127.127.19.254.19.445 0 .19-.063.35-.19.477-.159.127-.286.19-.477.19zm-.381 10.938V11.72h.794v8.713h-.794zm3.529-1.558h-.032v5.564h-.795V11.72h.795v1.813h.032c.318-.636.763-1.145 1.336-1.495.572-.35 1.208-.509 1.907-.509 1.113 0 1.972.382 2.608 1.145.636.763.922 1.813.922 3.116 0 1.463-.35 2.64-1.081 3.53-.7.89-1.654 1.335-2.83 1.335-1.272-.031-2.226-.604-2.862-1.78zm-.032-3.244v1.113c0 .89.286 1.622.827 2.258.54.636 1.272.954 2.162.954.89 0 1.622-.382 2.162-1.145.54-.763.827-1.78.827-3.02 0-1.082-.254-1.972-.763-2.608-.509-.636-1.208-.954-2.035-.954-1.018 0-1.812.35-2.353 1.018-.54.667-.827 1.462-.827 2.384zm11.67 4.675c-.414.19-.795.286-1.145.286-1.304 0-1.94-.763-1.94-2.321V12.42H64.23v-.732h1.558V9.431c.128-.032.255-.096.382-.127.127-.032.254-.096.382-.128v2.544h2.289v.732h-2.29v5.755c0 .604.096 1.05.287 1.304.19.254.509.413.954.413.318 0 .667-.095 1.049-.318v.7h.032z"/>
    </g>
</svg>
