<?xml version="1.0" encoding="UTF-8"?>
<svg width="29px" height="32px" viewBox="0 0 29 32" version="1.1" xmlns="http://www.w3.org/2000/svg" xmlns:xlink="http://www.w3.org/1999/xlink">
    <!-- Generator: sketchtool 53.2 (72643) - https://sketchapp.com -->
    <title>21C9D5FB-3ED1-4ED6-8BFD-BD07896AE27A</title>
    <desc>Created with sketchtool.</desc>
    <g id="Logos" stroke="none" stroke-width="1" fill="none" fill-rule="evenodd">
        <g id="desktop-/-technology-logo-/-twillio" fill="#F22F46" fill-rule="nonzero">
            <g id="logo" transform="translate(1.500000, 3.000000)">
                <path d="M13,0 C5.80666667,0 0,5.80666667 0,13 C0,20.1933333 5.80666667,26 13,26 C20.1933333,26 26,20.1933333 26,13 C26,5.80666667 20.1933333,0 13,0 Z M13,22.5333333 C7.71333333,22.5333333 3.46666667,18.2866667 3.46666667,13 C3.46666667,7.71333333 7.71333333,3.46666667 13,3.46666667 C18.2866667,3.46666667 22.5333333,7.71333333 22.5333333,13 C22.5333333,18.2866667 18.2866667,22.5333333 13,22.5333333 Z M18.8933333,9.79333333 C18.8933333,11.2666667 17.68,12.48 16.2066667,12.48 C14.7333333,12.48 13.52,11.2666667 13.52,9.79333333 C13.52,8.32 14.7333333,7.10666667 16.2066667,7.10666667 C17.68,7.10666667 18.8933333,8.32 18.8933333,9.79333333 Z M18.8933333,16.2066667 C18.8933333,17.68 17.68,18.8933333 16.2066667,18.8933333 C14.7333333,18.8933333 13.52,17.68 13.52,16.2066667 C13.52,14.7333333 14.7333333,13.52 16.2066667,13.52 C17.68,13.52 18.8933333,14.7333333 18.8933333,16.2066667 Z M12.48,16.2066667 C12.48,17.68 11.2666667,18.8933333 9.79333333,18.8933333 C8.32,18.8933333 7.10666667,17.68 7.10666667,16.2066667 C7.10666667,14.7333333 8.32,13.52 9.79333333,13.52 C11.2666667,13.52 12.48,14.7333333 12.48,16.2066667 Z M12.48,9.79333333 C12.48,11.2666667 11.2666667,12.48 9.79333333,12.48 C8.32,12.48 7.10666667,11.2666667 7.10666667,9.79333333 C7.10666667,8.32 8.32,7.10666667 9.79333333,7.10666667 C11.2666667,7.10666667 12.48,8.32 12.48,9.79333333 L12.48,9.79333333 Z" id="Shape"></path>
            </g>
        </g>
    </g>
</svg>