<?xml version="1.0" encoding="UTF-8" standalone="no"?>
<svg width="152px" height="60px" viewBox="0 0 152 60" version="1.1" xmlns="http://www.w3.org/2000/svg" xmlns:xlink="http://www.w3.org/1999/xlink">
    <!-- Generator: sketchtool 50.2 (55047) - http://www.bohemiancoding.com/sketch -->
    <title>01E92A1D-52D9-4294-B074-1A5051536387</title>
    <desc>Created with sketchtool.</desc>
    <defs></defs>
    <g id="Logos" stroke="none" stroke-width="1" fill="none" fill-rule="evenodd">
        <g id="desktop-/-logo-/-event-/-new-digital-school-/-grey">
            <rect id="Background" fill="#AAAEB3" x="0" y="17" width="151" height="26"></rect>
            <g id="logo" transform="translate(5.206897, 24.800000)" fill="#FFFFFF" fill-rule="nonzero">
                <path d="M5.76590619,9.43673824 L5.76590619,3.83778212 L4.37237229,2.18175286 L7.92652293,2.18175286 L7.92652293,0.105144705 L0,0.105144705 L3.68199772,4.50807967 L3.68199772,9.43673824 L5.76590619,9.43673824 Z M13.1810404,9.43673824 L15.1115324,9.43673824 L15.1115324,2.86519349 L10.8542226,2.86519349 L10.8542226,0.105144705 L8.92373062,0.105144705 L8.92373062,9.43673824 L10.8542226,9.43673824 L10.8542226,4.8366569 L13.1810404,4.8366569 L13.1810404,9.43673824 Z M19.5089415,9.54188295 C20.7746281,9.54188295 21.81019,8.91101463 22.3982867,7.96471224 L20.8641213,6.90012194 C20.6084267,7.38641628 20.1737465,7.72813659 19.4961566,7.72813659 C18.9208444,7.72813659 18.1921156,7.38641628 18.1026229,6.50582928 L22.5900575,6.50582928 C22.615627,6.3086829 22.6284119,6.11153661 22.6284119,5.92753336 C22.6284119,3.8509252 21.1709544,2.76004879 19.5472954,2.76004879 C17.5784495,2.76004879 16.2488391,4.21893171 16.2488391,6.15096585 C16.2488391,8.17500161 17.8213592,9.54188295 19.5089415,9.54188295 Z M19.4322332,4.35036261 C20.0586843,4.35036261 20.6212116,4.65265365 20.7234893,5.34923739 L18.1154074,5.34923739 C18.2943937,4.56065206 18.9719832,4.35036261 19.4322332,4.35036261 Z M32.3959334,9.43673824 L34.441488,9.43673824 L34.441488,0.105144705 L32.3959334,0.105144705 L32.3959334,4.71836912 L26.6683815,0 L26.6683815,9.43673824 L28.7139357,9.43673824 L28.7139357,4.45550736 L32.3959334,7.49156098 L32.3959334,9.43673824 Z M38.9417072,9.54188295 C40.2073942,9.54188295 41.2429561,8.91101463 41.8310528,7.96471224 L40.296887,6.90012194 C40.0411924,7.38641628 39.6065126,7.72813659 38.9289223,7.72813659 C38.3536101,7.72813659 37.6248817,7.38641628 37.5353885,6.50582928 L42.0228236,6.50582928 C42.0483931,6.3086829 42.0611776,6.11153661 42.0611776,5.92753336 C42.0611776,3.8509252 40.6037201,2.76004879 38.9800611,2.76004879 C37.0112156,2.76004879 35.6816048,4.21893171 35.6816048,6.15096585 C35.6816048,8.17500161 37.2541249,9.54188295 38.9417072,9.54188295 Z M38.8649989,4.35036261 C39.49145,4.35036261 40.0539777,4.65265365 40.1562554,5.34923739 L37.5481731,5.34923739 C37.7271594,4.56065206 38.4047489,4.35036261 38.8649989,4.35036261 Z M45.2829256,9.43673824 L50.6652901,9.43673824 L52.9409696,5.87496096 L52.9409696,2.86519349 L51.0104779,2.86519349 L51.0104779,5.28352196 L49.6041589,7.46527483 L48.926569,7.46527483 L48.926569,2.86519349 L46.9960774,2.86519349 L46.9960774,7.46527483 L46.331272,7.46527483 L44.9377382,5.28352196 L44.9377382,2.86519349 L43.0072462,2.86519349 L43.0072462,5.87496096 L45.2829256,9.43673824 Z M59.2305163,7.51784714 L59.2305163,2.02403577 L60.3683558,2.02403577 C61.8897367,2.02403577 62.9252985,3.27262928 62.9252985,4.77094147 C62.9252985,6.26925367 61.8897367,7.51784714 60.3683558,7.51784714 L59.2305163,7.51784714 Z M57.1849621,9.43673824 L60.3683558,9.43673824 C62.9252985,9.43673824 64.9836376,7.346987 64.9836376,4.77094147 C64.9836376,2.19489594 62.9252985,0.105144705 60.3683558,0.105144705 L57.1849621,0.105144705 L57.1849621,9.43673824 Z M66.172616,9.43673824 L68.1158929,9.43673824 L68.1158929,2.86519349 L66.172616,2.86519349 L66.172616,9.43673824 Z M70.0336,11.8550667 L75.5565965,11.8550667 L75.5565965,2.86519349 L73.6261045,2.86519349 L73.6261045,3.2594862 C73.2553481,2.944052 72.7439592,2.76004879 72.2197863,2.76004879 C70.2892942,2.76004879 69.2025936,4.31093334 69.2025936,5.91439028 C69.2025936,7.51784714 70.2892942,9.06873173 72.2197863,9.06873173 C72.7439592,9.06873173 73.2553481,8.89787155 73.6261045,8.5824374 L73.6261045,9.92303253 L70.0336,9.92303253 L70.0336,11.8550667 Z M72.4754805,7.25498538 C71.6189046,7.25498538 71.1458701,6.58468783 71.1458701,5.91439028 C71.1458701,5.24409269 71.6189046,4.57379514 72.4754805,4.57379514 C72.9485146,4.57379514 73.3448409,4.77094147 73.6261045,5.12580491 L73.6261045,6.70297561 C73.3448409,7.05783904 72.9485146,7.25498538 72.4754805,7.25498538 Z M77.0779774,9.43673824 L79.0212543,9.43673824 L79.0212543,2.86519349 L77.0779774,2.86519349 L77.0779774,9.43673824 Z M80.0434988,4.60008134 L80.8745052,4.60008134 L80.8745052,7.41270243 C80.8745052,8.66129595 81.628803,9.43673824 82.8305662,9.43673824 L84.5948568,9.43673824 L84.5948568,7.62299189 L83.5465105,7.62299189 C83.0223371,7.62299189 82.8049968,7.39955936 82.8049968,6.84754959 L82.8049968,4.60008134 L84.4030864,4.60008134 L84.8249816,2.86519349 L82.8049968,2.86519349 L82.8049968,0.893730079 L80.8745052,1.87946178 L80.8745052,2.86519349 L79.6216031,2.86519349 L80.0434988,4.60008134 Z M89.9516519,9.43673824 L91.8821443,9.43673824 L91.8821443,2.86519349 L89.9516519,2.86519349 L89.9516519,3.2594862 C89.5808955,2.944052 89.0695066,2.76004879 88.5453336,2.76004879 C86.6531955,2.76004879 85.4514327,4.35036261 85.4514327,6.15096585 C85.4514327,7.95156912 86.6531955,9.54188295 88.5453336,9.54188295 C89.0695066,9.54188295 89.5808955,9.37102277 89.9516519,9.05558861 L89.9516519,9.43673824 Z M88.8649512,7.72813659 C87.944452,7.72813659 87.3947092,7.01840977 87.3947092,6.15096585 C87.3947092,5.28352196 87.944452,4.57379514 88.8649512,4.57379514 C89.3379861,4.57379514 89.6831731,4.77094147 89.9516519,5.12580491 L89.9516519,7.1892699 C89.6831731,7.54413334 89.3379861,7.72813659 88.8649512,7.72813659 Z M93.3907402,9.43673824 L95.3212323,9.43673824 L95.3212323,0.105144705 L93.3907402,0.105144705 L93.3907402,9.43673824 Z M99.6552504,5.78295938 L103.286109,5.78295938 L103.286109,7.36013008 L99.6552504,7.36013008 L99.6552504,9.43673824 L105.331663,9.43673824 L105.331663,3.75892361 L101.700805,3.75892361 L101.700805,2.18175286 L105.331663,2.18175286 L105.331663,0.105144705 L99.6552504,0.105144705 L99.6552504,5.78295938 Z M109.805781,9.54188295 C110.981975,9.54188295 112.017536,8.92415775 112.605633,7.99099835 L111.071467,6.87383579 C110.815773,7.36013008 110.368308,7.68870732 109.805781,7.68870732 C109.013129,7.68870732 108.425032,7.05783904 108.425032,6.15096585 C108.425032,5.24409269 109.013129,4.61322442 109.805781,4.61322442 C110.368308,4.61322442 110.815773,4.94180165 111.071467,5.42809594 L112.605633,4.31093334 C112.017536,3.37777398 110.981975,2.76004879 109.805781,2.76004879 C107.964782,2.76004879 106.481755,4.28464718 106.481755,6.15096585 C106.481755,8.01728455 107.964782,9.54188295 109.805781,9.54188295 Z M117.783443,9.43673824 L119.713935,9.43673824 L119.713935,2.86519349 L115.456624,2.86519349 L115.456624,0.105144705 L113.526133,0.105144705 L113.526133,9.43673824 L115.456624,9.43673824 L115.456624,4.8366569 L117.783443,4.8366569 L117.783443,9.43673824 Z M124.1758,7.68870732 C123.383147,7.68870732 122.795051,7.05783904 122.795051,6.15096585 C122.795051,5.24409269 123.383147,4.61322442 124.1758,4.61322442 C124.968452,4.61322442 125.556549,5.24409269 125.556549,6.15096585 C125.556549,7.05783904 124.968452,7.68870732 124.1758,7.68870732 Z M124.1758,9.54188295 C126.016799,9.54188295 127.499826,8.01728455 127.499826,6.15096585 C127.499826,4.28464718 126.016799,2.76004879 124.1758,2.76004879 C122.334801,2.76004879 120.851774,4.28464718 120.851774,6.15096585 C120.851774,8.01728455 122.334801,9.54188295 124.1758,9.54188295 Z M131.590934,7.68870732 C130.798282,7.68870732 130.210185,7.05783904 130.210185,6.15096585 C130.210185,5.24409269 130.798282,4.61322442 131.590934,4.61322442 C132.383587,4.61322442 132.971683,5.24409269 132.971683,6.15096585 C132.971683,7.05783904 132.383587,7.68870732 131.590934,7.68870732 Z M131.590934,9.54188295 C133.431933,9.54188295 134.91496,8.01728455 134.91496,6.15096585 C134.91496,4.28464718 133.431933,2.76004879 131.590934,2.76004879 C129.749935,2.76004879 128.266908,4.28464718 128.266908,6.15096585 C128.266908,8.01728455 129.749935,9.54188295 131.590934,9.54188295 Z M137.982759,9.43673824 L137.982759,0.105144705 L136.052267,0.105144705 L136.052267,9.43673824 L137.982759,9.43673824 Z" id="TNDS-LOGO"></path>
            </g>
        </g>
    </g>
</svg>