<?xml version="1.0" encoding="UTF-8"?>
<svg width="263px" height="64px" viewBox="0 0 263 64" version="1.1" xmlns="http://www.w3.org/2000/svg" xmlns:xlink="http://www.w3.org/1999/xlink">
    <!-- Generator: sketchtool 53.2 (72643) - https://sketchapp.com -->
    <title>E481EB4F-2580-4BE4-A9B7-E9EDBDDD7713</title>
    <desc>Created with sketchtool.</desc>
    <defs>
        <linearGradient x1="50%" y1="0%" x2="50%" y2="100%" id="linearGradient-1">
            <stop stop-color="#14191E" offset="0%"></stop>
            <stop stop-color="#32373C" offset="49.9164828%"></stop>
            <stop stop-color="#14191E" offset="51.7620987%"></stop>
            <stop stop-color="#23282D" offset="100%"></stop>
        </linearGradient>
        <linearGradient x1="50%" y1="0%" x2="50%" y2="99.1600434%" id="linearGradient-2">
            <stop stop-color="#FF5F00" offset="0%"></stop>
            <stop stop-color="#FF6E0F" offset="48.3766469%"></stop>
            <stop stop-color="#FC5500" offset="50.4269608%"></stop>
            <stop stop-color="#FF6900" offset="100%"></stop>
        </linearGradient>
    </defs>
    <g id="Homepage" stroke="none" stroke-width="1" fill="none" fill-rule="evenodd">
        <g id="Homepage---UI---Desktop" transform="translate(-589.000000, -3625.000000)">
            <g id="Growing-With-Promising" transform="translate(247.000000, 3275.000000)">
                <g id="Clients" transform="translate(49.000000, 350.000000)">
                    <g id="logo-faceit" transform="translate(293.000000, 0.000000)">
                        <g transform="translate(58.000000, 21.000000)">
                            <path d="M0.0938697318,8.38706509 C0.0938697318,7.77368531 0.601535907,7.28230699 1.61747625,6.91079482 C2.45406163,6.61939677 3.3745487,6.47140426 4.37772114,6.47140426 L17.2338363,6.47140426 L17.2338363,9.15301873 L8.37673099,9.15301873 C7.61553589,9.15301873 7.23494117,9.34443511 7.23494117,9.72787232 L7.23494117,12.7920089 L17.2338363,12.7920089 L17.2338363,15.4742391 L7.23494117,15.4742391 L7.23494117,21.796674 L0.0938697318,21.796674 L0.0938697318,8.38706509 Z M37.5407865,7.04625221 C38.4153708,7.42785914 39.0133246,7.92137278 39.3309932,8.52160169 L46.2455917,21.796674 L38.5336253,21.796674 L37.54413,19.8810188 L28.3879007,19.8810188 L27.3905021,21.796674 L23.390883,21.796674 L30.2653542,8.59743387 C30.594575,7.97212905 31.1764168,7.46210338 32.0084413,7.06582599 C32.8395549,6.66893286 33.7566991,6.47140426 34.7604791,6.47140426 C35.7375115,6.47140426 36.6655968,6.66373578 37.5407865,7.04625221 Z M29.8063267,17.1987886 L36.1317855,17.1987886 L32.969967,11.1252487 L29.8063267,17.1987886 Z M55.1406914,8.72249145 C57.3756522,7.21993073 60.0593046,6.47140426 63.1976907,6.47140426 L71.7666302,6.47140426 L71.7666302,9.15301873 L63.1976907,9.15301873 C61.7108396,9.15301873 60.7089321,9.78596665 60.1881779,11.0497215 C59.9079153,11.7407638 59.7695944,12.7675487 59.7695944,14.1328161 C59.7695944,15.5005352 59.9079153,16.5297605 60.1881779,17.2195825 C60.7089321,18.4833374 61.7108396,19.1156696 63.1976907,19.1156696 L71.7666302,19.1156696 L71.7666302,21.796674 L63.1976907,21.796674 C60.0593046,21.796674 57.3756522,21.0469217 55.1406914,19.544666 C52.9069638,18.0460822 51.7891836,16.2423337 51.7891836,14.1328161 C51.7891836,12.0284956 52.9069638,10.2223011 55.1406914,8.72249145 Z M82.3640504,6.91079482 C83.202462,6.61939677 84.1202454,6.47140426 85.1224923,6.47140426 L97.9792111,6.47140426 L97.9792111,9.15301873 L89.1224283,9.15301873 C88.3588062,9.15301873 87.9784661,9.34443511 87.9784661,9.72787232 L87.9784661,12.7920089 L97.9792111,12.7920089 L97.9792111,15.4742391 L87.9784661,15.4742391 L87.9784661,18.5377599 C87.9784661,18.922728 88.3588062,19.1156696 89.1224283,19.1156696 L97.9792111,19.1156696 L97.9792111,21.796674 L85.1224923,21.796674 C84.1202454,21.796674 83.202462,21.6502123 82.3640504,21.3563626 C81.3463025,20.9869914 80.8398612,20.4950087 80.8398612,19.8810188 L80.8398612,8.38706509 C80.8398612,7.77368531 81.3463025,7.28230699 82.3640504,6.91079482 Z M124.453216,6.48547027 L146.530651,6.48547027 L146.530651,9.16831057 L140.217955,9.16831057 C139.469834,9.16831057 139.096509,9.35880617 139.096509,9.74346357 L139.096509,21.8119658 L131.88798,21.8119658 L131.88798,9.74346357 C131.88798,9.35880617 131.512562,9.16831057 130.765346,9.16831057 L124.453216,9.16831057 L124.453216,6.48547027 Z M110.147097,21.7076966 L110.134029,13.3167106 L117.835365,16.4410881 L117.835365,21.6768135 L110.153151,21.6768135 L110.147097,21.7076966 Z" fill="url(#linearGradient-1)"></path>
                            <path d="M117.764819,0.244364042 C117.829255,0.144681778 117.971253,0.183518657 117.971253,0.311943036 L117.971253,12.8286991 C117.971253,12.8984191 117.807701,12.9944295 117.70949,12.9531523 C113.804993,11.4004397 106.806802,8.63229385 101.964834,6.79552131 C101.837771,6.74751611 101.896437,6.55854574 102.041151,6.55854574 C104.689841,6.56313273 110.013019,6.56191254 113.712609,6.56038167 C114.706936,4.99421885 115.807111,3.26752839 117.764819,0.244364042 Z" id="arrow" fill="url(#linearGradient-2)"></path>
                        </g>
                    </g>
                </g>
            </g>
        </g>
    </g>
</svg>