<?xml version="1.0" encoding="UTF-8"?>
<svg width="29px" height="32px" viewBox="0 0 29 32" version="1.1" xmlns="http://www.w3.org/2000/svg" xmlns:xlink="http://www.w3.org/1999/xlink">
    <title>desktop / technology-logo / React Query</title>
    <g id="desktop-/-technology-logo-/-React-Query" stroke="none" stroke-width="1" fill="none" fill-rule="evenodd">
        <g id="logo-01" transform="translate(0.000000, 3.000000)">
            <path d="M17.8961822,16.1567529 L17.3399199,17.1236118 C17.1723453,17.4148726 16.8621272,17.5943752 16.5263447,17.5943752 L12.2650236,17.5943752 C11.9292405,17.5943752 11.6190219,17.4148723 11.4514463,17.1236113 L10.8951335,16.1567529 L17.8961822,16.1567529 Z M19.4534718,13.4500906 L18.4726355,15.1548133 L10.3186802,15.1548133 L9.337896,13.4500906 L19.4534718,13.4500906 Z M18.5086768,10.8033118 L19.4550366,12.4482032 L9.33633125,12.4482032 L10.282691,10.8033118 L18.5086768,10.8033118 Z M16.5263447,8.30120371 C16.8621281,8.30120371 17.1723464,8.48070865 17.3399205,8.77197071 L17.9322236,9.80137219 L10.8591442,9.80137219 L11.4514463,8.77197071 C11.6190211,8.48070856 11.9292398,8.30120371 12.2650236,8.30120371 L16.5263447,8.30120371 Z" id="Polygon-2-Copy-6" fill="#00435B"></path>
            <path d="M6.06313245,7.85255341 C5.59108181,5.56138045 5.48977844,3.80407201 5.79490748,2.5280188 C5.97638072,1.76909613 6.30815795,1.14997722 6.81265104,0.703294142 C7.34526369,0.2317132 8.01865675,0.000307487755 8.77528659,0.000307487755 C10.0234993,0.000307487755 11.3356841,0.570062433 12.7379792,1.65244125 C13.3666221,2.14466622 13.9619664,2.67807396 14.5200944,3.24915429 C14.5700076,3.18487394 14.6256832,3.12529239 14.6864272,3.07115247 C16.4294128,1.5164054 17.8968545,0.550424082 19.1519683,0.177969954 C19.8982593,-0.0434910206 20.5989338,-0.0645896523 21.2369953,0.150345741 C21.9105115,0.377224426 22.4471716,0.84621581 22.8257948,1.50312243 C23.4506661,2.58725546 23.6154513,4.01181459 23.3824853,5.77077962 C23.2721233,6.56206579 23.1095461,7.34517038 22.8958204,8.11495602 C22.9839285,8.12563814 23.0707477,8.14511859 23.1549803,8.17310621 C25.3664432,8.90666323 26.9323869,9.69551565 27.8804501,10.5970326 C28.4445231,11.1334126 28.8128684,11.7305651 28.9460243,12.3915733 C29.086569,13.0892686 28.9495263,13.7890747 28.5713407,14.4454931 C27.9476378,15.5280599 26.800828,16.3818664 25.167053,17.0581461 C24.4414462,17.352794 23.6973344,17.5995431 22.9394978,17.7968081 C22.9780324,17.8839924 23.0071407,17.975052 23.0263262,18.0684334 C23.4983768,20.3596069 23.5996817,22.1169148 23.2945522,23.3929691 C23.1130789,24.1518912 22.7813007,24.7710091 22.2768086,25.2176922 C21.7441949,25.6892731 21.0708013,25.9206788 20.314172,25.9206788 C19.0659598,25.9206788 17.7537745,25.3509239 16.35148,24.2685456 C15.7155461,23.7704724 15.1136005,23.2303874 14.5496723,22.6519055 C14.4840179,22.7546091 14.4045747,22.8477944 14.3135722,22.9288462 C12.5705876,24.4835917 11.1031474,25.449574 9.84803261,25.8220292 C9.10174263,26.0434897 8.40106714,26.0645914 7.76300558,25.8496534 C7.08948838,25.6227742 6.55282928,25.1537839 6.17420506,24.4968762 C5.54933589,23.4127432 5.38455017,21.9881856 5.6175151,20.2292221 C5.73265406,19.4064667 5.90365055,18.5925176 6.12931713,17.7930272 C6.03261026,17.7831797 5.9372745,17.7627424 5.84502063,17.7320822 C3.63355829,16.9985252 2.06761405,16.2096728 1.11954978,15.3081558 C0.555476815,14.7717717 0.187130384,14.1746186 0.0539760458,13.513612 C-0.0865691199,12.8159157 0.0504730961,12.1161096 0.428658664,11.4596911 C1.05236262,10.3771254 2.1991713,9.52331788 3.83294737,8.84703813 C4.58244884,8.54301126 5.35148102,8.28965326 6.13486469,8.08867044 C6.10374453,8.0123425 6.07973185,7.9333013 6.06313245,7.85255341 Z" id="Combined-Shape-Copy-2" fill="#002B3B" fill-rule="nonzero"></path>
            <path d="M11.742587,7.12264161 C12.8889362,7.03131689 14.0705038,6.99098852 15.28729,7.00165653 L15.28729,7.00165653 C15.4488999,7.00307427 15.5967942,6.91095014 15.6669052,6.76519226 C15.7370161,6.61943437 15.7167336,6.44625868 15.6148439,6.32068477 C12.8453633,2.90743028 10.5649149,1.20080303 8.77349861,1.20080303 C6.92403816,1.20080303 6.39641653,3.24144044 7.19063371,7.32271524 L7.19063371,7.32271524 C7.23416658,7.54641932 7.44882203,7.69389142 7.67301638,7.6541207 C9.08698862,7.40329069 10.4435122,7.226131 11.742587,7.12264161 Z" id="Path-3-Copy-24" fill="#FF4154"></path>
            <path d="M18.1777237,7.68444724 C18.8397513,8.63932792 19.4751359,9.65054976 20.0838776,10.7181127 L20.0838776,10.7181127 C20.1638809,10.8584149 20.3175414,10.9399555 20.4784518,10.9274954 C20.6393622,10.9150353 20.7786656,10.810809 20.8361595,10.6598597 C22.4027542,6.54676257 22.7319958,3.71020088 21.8238844,2.15017464 C20.8867772,0.540337337 18.8449259,1.09697655 15.6983306,3.82009229 L15.6983306,3.82009229 C15.5253257,3.96981371 15.5049618,4.23103257 15.6526702,4.40580434 C16.5875739,5.51200952 17.4292584,6.60489049 18.1777237,7.68444724 Z" id="Path-3-Copy-25" fill="#FF4154"></path>
            <path d="M20.9563082,13.4306047 C20.4608286,14.4729539 19.9039112,15.5205566 19.2855561,16.5734127 C19.203515,16.7131018 19.2095945,16.8876834 19.3011535,17.0213153 C19.3927126,17.1549473 19.5532265,17.2235117 19.7129645,17.1972226 C24.0302363,16.4866911 26.6372571,15.3526271 27.5340268,13.7950307 C28.4602024,12.1863576 26.9707919,10.7119203 23.0657954,9.37171859 L23.0657954,9.37171859 C22.8506733,9.2978886 22.6161042,9.41008372 22.5383453,9.62399948 C22.0455859,10.9795885 21.5182402,12.2484569 20.9563082,13.4306047 Z" id="Path-3-Copy-26" fill="#FF4154"></path>
            <path d="M17.4138887,18.8251461 C16.2675385,18.9164698 15.0859709,18.9567985 13.8691858,18.9461322 L13.8691858,18.9461322 C13.7075762,18.9447148 13.5596824,19.0368388 13.4895715,19.1825963 C13.4194607,19.3283538 13.4397428,19.501529 13.5416318,19.6271029 C16.3111121,23.0403574 18.5915605,24.7469847 20.3829771,24.7469847 C22.2324376,24.7469847 22.7600592,22.7063473 21.965842,18.6250725 L21.965842,18.6250725 C21.9223092,18.4013686 21.707654,18.2538966 21.4834599,18.293667 C20.0694883,18.544497 18.7129646,18.7216567 17.4138887,18.8251461 Z" id="Path-3-Copy-27" fill="#FF4154"></path>
            <path d="M10.8222772,18.3155493 C10.1602496,17.3606686 9.52486498,16.3494466 8.91612332,15.2818833 L8.91612332,15.2818833 C8.83612011,15.1415805 8.68245926,15.0600395 8.52154837,15.0724997 C8.36063749,15.08496 8.22133387,15.1891869 8.16384035,15.3401368 C6.59724605,19.4532347 6.26800564,22.2897965 7.1761191,23.8498224 C8.11322666,25.4596587 10.1550778,24.9030195 13.3016724,22.1799048 L13.3016724,22.1799048 C13.4746773,22.0301837 13.4950416,21.7689652 13.3473339,21.5941932 C12.4124281,20.487987 11.5707425,19.3951057 10.8222772,18.3155493 Z" id="Path-3-Copy-28" fill="#FF4154"></path>
            <path d="M8.04369272,12.4127659 C8.53917339,11.3704156 9.09609041,10.3228127 9.7144438,9.26995732 C9.79648456,9.1302683 9.79040487,8.95568696 9.69884589,8.82205516 C9.60728691,8.68842336 9.44677323,8.61985902 9.28703542,8.64614796 C4.96976288,9.35667705 2.36274209,10.490741 1.46597305,12.0483399 C0.539798559,13.6570123 2.02920922,15.1314493 5.93420502,16.4716509 L5.93420502,16.4716509 C6.14932738,16.5454816 6.38389728,16.4332864 6.4616561,16.2193701 C6.95441514,14.8637824 7.48176068,13.5949144 8.04369272,12.4127659 Z" id="Path-3-Copy-29" fill="#FF4154"></path>
            <g id="Emblem" transform="translate(9.127698, 8.353413)" fill="#FFD94C">
                <path d="M3.47988535,0 L7.05684768,0 C7.57996034,0 8.06312154,0.280058345 8.3235046,0.734202313 L10.1195378,3.86673202 C10.3779048,4.31735972 10.3779048,4.8713941 10.1195378,5.32202179 L8.3235046,8.4545515 C8.06312154,8.90869547 7.57996034,9.18875381 7.05684768,9.18875381 L3.47988535,9.18875381 C2.95677298,9.18875381 2.47361205,8.90869563 2.21322895,8.45455202 L0.417194742,5.32202231 C0.158827729,4.87139462 0.158827729,4.31736024 0.417194742,3.86673254 L2.21322895,0.734202835 C2.47361179,0.280058828 2.95677276,0 3.47988535,0 Z M6.5116847,0.945466904 C7.03507335,0.945466904 7.51844511,1.22581946 7.77872498,1.68034114 L9.03113957,3.86740395 C9.28899403,4.31768933 9.28899403,4.87106657 9.03113957,5.32135195 L7.77872498,7.50841267 C7.51844485,7.96293395 7.03507313,8.24328587 6.5116847,8.24328587 L4.02504833,8.24328587 C3.50165971,8.24328587 3.01828775,7.96293411 2.75800752,7.50841267 L1.50559294,5.32134986 C1.24773848,4.87106449 1.24773848,4.31768724 1.50559294,3.86740186 L2.75800752,1.68034114 C3.01828775,1.2258197 3.50165971,0.945466904 4.02504833,0.945466904 L6.5116847,0.945466904 Z M5.9240847,1.97957082 L4.61264624,1.97957082 C4.08979498,1.97957082 3.60683374,2.25935218 3.34635391,2.7131388 L3.34635391,2.7131388 L2.68453946,3.86609769 C2.42568788,4.31704899 2.42568788,4.87170482 2.68453946,5.32265613 L2.68453946,5.32265613 L3.34635391,6.47561449 C3.6068336,6.92940131 4.08979487,7.20918299 4.61264624,7.20918299 L5.9240847,7.20918299 C6.44693625,7.20918299 6.92989777,6.92940147 7.19037756,6.47561449 L7.19037756,6.47561449 L7.852192,5.32265613 C8.11104422,4.87170499 8.11104422,4.31704882 7.852192,3.86609769 L7.852192,3.86609769 L7.19037756,2.7131388 C6.92989763,2.25935202 6.44693614,1.97957082 5.9240847,1.97957082 L5.9240847,1.97957082 Z M5.35828686,2.96935624 C5.88074675,2.96935624 6.36340927,3.24872047 6.62403466,3.7019714 L6.71786166,3.86514487 C6.97744215,4.31658036 6.97744215,4.87216928 6.71786166,5.32360476 L6.62403466,5.48677824 C6.36341008,5.94002948 5.88074819,6.21939549 5.35828842,6.21939549 L5.17844669,6.21939549 C4.65598685,6.21939549 4.17332395,5.94003286 3.91269784,5.48678241 L3.81887137,5.32360894 C3.55929087,4.87217345 3.55929087,4.31658454 3.81887137,3.86514905 L3.91269784,3.70197558 C4.17332242,3.24872433 4.65598431,2.96935624 5.17844408,2.96935624 L5.35828686,2.96935624 Z M5.26860123,3.9443686 C5.03660049,3.94428423 4.82217799,4.06809711 4.7061046,4.26916817 C4.5900312,4.47023923 4.58994123,4.71802099 4.70586858,4.91917646 C4.82179592,5.12033192 5.03612846,5.24430078 5.26812919,5.24438522 L5.26812919,5.24438522 C5.50012992,5.24446959 5.71455243,5.12065671 5.83062582,4.91958564 C5.94669922,4.71851458 5.94678919,4.47073282 5.83086184,4.26957736 C5.71493449,4.06842189 5.50060196,3.94445303 5.26860123,3.9443686 L5.26860123,3.9443686 Z M0,4.62472076 L1.16915642,4.62472076" id="Polygon-2"></path>
            </g>
        </g>
    </g>
</svg>